<?xml version="1.0" encoding="utf-8"?>
<!-- Generator: Adobe Illustrator 19.2.1, SVG Export Plug-In . SVG Version: 6.00 Build 0)  -->
<svg version="1.1" id="tree" xmlns="http://www.w3.org/2000/svg" xmlns:xlink="http://www.w3.org/1999/xlink" x="0px" y="0px"
	 viewBox="2 0 538 402" xml:space="preserve">
<g>
	<path d="M443.8,183.7C443.8,183.8,443.8,184.1,443.8,183.7C443.8,183.8,443.8,183.8,443.8,183.7z"/>
	<path d="M81.8,238.2c0,0.3,0.3-0.1,0.2-0.2C82,237.5,81.8,238.1,81.8,238.2z"/>
	<path d="M432.1,218.2C431.5,217.9,430.7,218.3,432.1,218.2L432.1,218.2z"/>
	<path d="M362.9,305.6C364.3,305.6,363.7,305.5,362.9,305.6L362.9,305.6z"/>
	<path d="M344.2,258.5"/>
	<path d="M488.9,305.2C487.6,305.7,488.3,305.7,488.9,305.2L488.9,305.2z"/>
	<path d="M432.5,249.5C432.5,249.5,432.5,249.5,432.5,249.5C432.5,249.5,432.5,249.5,432.5,249.5z"/>
	<path d="M255.7,276.2C255.2,277.3,255.6,276.4,255.7,276.2L255.7,276.2z"/>
	<path d="M174.8,144.8C174.8,144.8,174.8,144.8,174.8,144.8C174.9,144.9,174.8,144.8,174.8,144.8z"/>
	<path d="M244.5,280.9C244.6,280.9,244.8,280.8,244.5,280.9C244.5,280.9,244.5,280.9,244.5,280.9z"/>
	<path d="M377.2,292.3C377.2,292.3,377.2,292.3,377.2,292.3L377.2,292.3z"/>
	<path d="M423.6,239.8C422.7,239.4,423.4,239.8,423.6,239.8L423.6,239.8z"/>
	<path d="M174.8,144.8C174.8,144.8,174.8,144.8,174.8,144.8C174.7,144.7,174.6,144.6,174.8,144.8z"/>
	<path d="M310.2,269.9C309.5,269.8,310.2,270,310.2,269.9L310.2,269.9z"/>
	<path d="M429.8,194.7C429.7,194.9,429.8,195.2,429.8,194.7C429.8,194.7,429.8,194.8,429.8,194.7z"/>
	<path d="M502.1,273.9C502.9,271.9,502.1,273.8,502.1,273.9L502.1,273.9z"/>
	<g>
		<path d="M169.1,127.7C169.1,127.7,169.1,127.7,169.1,127.7L169.1,127.7c0,0.1,0.1,0.2,0.1,0.3c0,0,0,0,0,0
			C169.2,127.9,169.2,127.8,169.1,127.7z"/>
		<path d="M166.7,144.3C166.7,144.3,166.7,144.3,166.7,144.3C166.7,144.3,166.7,144.3,166.7,144.3c-0.1,0.1-0.1,0.3-0.1,0.5
			c0,0.2,0,0.3,0.1,0.5c0,0,0,0,0,0c0,0.1,0,0.1,0,0.2C166.9,144.6,166.8,144.3,166.7,144.3z"/>
		<path d="M429.7,194.9c0,0-0.1,0-0.1,0.1c0.1,0,0.2,0,0.3,0C429.8,195,429.7,194.9,429.7,194.9
			C429.7,194.9,429.7,194.9,429.7,194.9z"/>
		<path d="M429.5,195C429.5,195,429.5,195,429.5,195C429.5,195,429.5,195,429.5,195C429.5,195,429.5,195,429.5,195z"/>
		<path d="M504.6,313.8c0.1-0.1,0.2-0.3,0.3-0.4C504.3,314.1,504.4,314.1,504.6,313.8z"/>
		<polygon points="429.5,195 429.5,195 429.5,195 		"/>
		<path d="M513,288.5C512.8,288.6,512.9,288.7,513,288.5L513,288.5z"/>
		<path d="M81.8,238.3C81.8,238.3,81.8,238.3,81.8,238.3C81.8,238.3,81.8,238.3,81.8,238.3c0.1,0.1,0.2-0.2,0.2-0.3c0,0,0-0.1,0-0.1
			c0,0,0,0,0,0c0,0-0.1,0-0.1,0C81.8,238.1,81.8,238.2,81.8,238.3z"/>
		<path d="M74.7,184.5c-0.1,0-0.1,0-0.1,0C74.6,184.5,74.7,184.5,74.7,184.5z"/>
		<path d="M74.6,184.5c0,0-0.1,0-0.1,0C74.5,184.5,74.5,184.5,74.6,184.5z"/>
		<polygon points="488.7,318.2 488.7,318.2 488.7,318.2 		"/>
		<path d="M74.5,184.5C74.5,184.5,74.4,184.5,74.5,184.5C74.5,184.5,74.5,184.5,74.5,184.5z"/>
		<path d="M74.4,184.5C74.4,184.5,74.4,184.5,74.4,184.5C74.4,184.5,74.4,184.5,74.4,184.5z"/>
		<path d="M319.8,227.7c0.1,0.2,0.2,0.5,0.3,0.7c0,0,0,0,0,0c0,0,0,0,0,0l0,0c0,0,0,0,0,0c0,0,0,0,0,0l0,0
			C320.1,228.1,319.8,227.6,319.8,227.7z"/>
		<path d="M423.1,239.7C423.1,239.7,423.1,239.7,423.1,239.7C423,239.7,423.1,239.7,423.1,239.7
			C423.1,239.7,423.1,239.7,423.1,239.7c0,0.1,0.1,0.2,0.1,0.2c0.1,0,0.2,0,0.4,0C423.3,239.6,423.1,239.6,423.1,239.7z"/>
		<path d="M432.5,225c0-0.1-0.1-0.2-0.1-0.2C432.5,224.9,432.5,224.9,432.5,225z"/>
		<path d="M227.2,285.5C227.2,285.5,227.2,285.5,227.2,285.5C227.2,285.5,227.2,285.5,227.2,285.5
			C227.2,285.5,227.2,285.5,227.2,285.5C227.2,285.5,227.2,285.5,227.2,285.5z"/>
		<path d="M432.5,224.8C432.5,224.8,432.5,224.8,432.5,224.8C432.5,224.8,432.5,224.8,432.5,224.8
			C432.5,224.8,432.5,224.8,432.5,224.8z"/>
		<path d="M227.1,285.5c-0.1,0-0.2,0-0.3,0c0,0,0,0,0,0C227,285.5,227.1,285.5,227.1,285.5C227.2,285.5,227.2,285.5,227.1,285.5z"/>
		<path d="M432.6,225.1C432.6,225.1,432.5,225.1,432.6,225.1C432.5,225.1,432.5,225.1,432.6,225.1z"/>
		<path d="M432.5,224.8c0.1,0.3,0.2,0.5,0.3,0.8c-0.1-0.2-0.1-0.3-0.2-0.5c0.1,0.2,0.2,0.4,0.3,0.7
			C432.6,225,432.4,224.7,432.5,224.8z"/>
		<path d="M432.2,249.5C432.1,249.5,432.1,249.5,432.2,249.5L432.2,249.5z"/>
		<path d="M433.9,194.7c0.1,0,0.2,0.1,0.2,0.1C434,194.7,434,194.7,433.9,194.7z"/>
		<path d="M432.4,249.5C432.4,249.5,432.4,249.5,432.4,249.5c0,0-0.1,0-0.2,0C432.2,249.5,432.3,249.5,432.4,249.5z"/>
		<path d="M227.2,285.5C227.2,285.5,227.2,285.5,227.2,285.5C227.2,285.5,227.2,285.5,227.2,285.5z"/>
		<path d="M245.1,278.1c0,0,0.1-0.1,0.2-0.4C245.3,277.9,245.2,278,245.1,278.1z"/>
		<path d="M255.5,276.6C255.4,276.8,255.4,276.7,255.5,276.6C255.5,276.6,255.5,276.6,255.5,276.6c0.1-0.1,0.1-0.3,0.2-0.4
			c0,0,0,0.1-0.1,0.1C255.6,276.4,255.6,276.5,255.5,276.6z"/>
		<path d="M299.2,264.2C299.2,264.3,299.1,264.3,299.2,264.2C299.2,264.2,299.2,264.2,299.2,264.2
			C299.2,264.2,299.2,264.2,299.2,264.2z"/>
		<g>
			<path d="M538.6,74.9c-0.6,2.6,0.2,6,0.4,8.6c0.1,1.6,1.2,8.5,0.7,9.6c-1.3,3.4-6.2-3-8.2-1.4c-1.4,1.2,1.2,3.7,2.1,4.2
				c1.9,1,4.4,1.1,6.5,0.8c-0.2,3.4,0.4,6.6,0.5,9.9c-1.4-3-5.5-2.6-4.6,1c0.5,1.8,1.7,3.2,2.9,4.5c1.4,1.4,1.6,2,1.6,4.1
				c-2.8-2.2-2.4,2.2-2.1,3.6c-1.4-1.8-2-4.1-3.2-6c-1-1.7-2.4-3.2-3.3-4.9c-1.8-3.6-2.1-7.9-4.6-11.2c-0.7-0.9-1.6-1.8-2.3-0.4
				c-0.6,1.2,0.9,3.6,1.4,4.5c1.9,3.8,3.8,7,4.9,11.2c-2.5-2.3-3.1-0.1-2.8,2.3c-2.4-2.3-3.8-5.5-6.1-8c-0.6-0.7-1.8-2.1-2.9-2
				c-1.7,0.2-1.1,1.5-0.5,2.5c1.8,2.8,4.8,4.8,6.9,7.3c1.3,1.5,2.5,3,3.7,4.6c1,1.3,2.4,2.8,3.1,4.2c-1.5-0.3-2.9,0.7-3,2.2
				c-0.1,1.6,1.2,2.9,2.2,4c2.4,2.6,5.5,4.9,6.8,8.3c-1-0.5-5.1-2.7-6-1.1c-0.6,1.1,1.5,3.1,2.1,3.8c-1.2-1.1-5.3-3.8-6.7-2
				c-1,1.3,0.7,4.2,1.4,5.3c1.4,2.1,3.3,3.7,5.2,5.2c-1,0.7-1.3-0.1-1.4,1.5c-0.1,1.2,0.3,2.6,0.8,3.8c-1.3-1.3-2.3-2.8-3.4-4.3
				c-1.1-1.6-1.3-2.1-1.6-4.2c-0.2-1.2-3.6-10.1-6.1-7.7c-0.1-2.5-0.3-4.9-0.5-7.4c-0.2-1.8-0.2-4.1-2.1-5c-2.2-1.1-2.1,1.7-2.1,3.4
				c0.1,2.3,0.4,4.8,1,7.1c-0.8-1.2-4.6-7.3-4.1-2.5c0.3,3.2,2.7,6.1,4.8,8.5c2,2.3,4.2,4.4,5.7,7.1c0.9,1.6,2.2,2.8,3.3,4.3
				c1,1.3,1.9,2.8,3.2,3.7c-1.5,0-3.1,0.7-4.4-0.3c-1-0.8-1.1-3.4-2.5-3.8c-2.3-0.6-0.5,7.5-0.3,8.7c-1.1-1.3-2.1-1.9-2.3-3.7
				c-0.2-1.9,0.1-3.7-0.3-5.5c-0.3-1-0.7-2.9-2.1-2.8c-1.5,0.1-2.1,2.3-2.2,3.4c-1-0.7-9-8-11.1-9.2c-1.8-1-2.7-0.6-1.6,1.3
				c1.3,2.4,3.1,4.8,4.7,7c-2.2-0.3-2.6,0.8-1.4,2.5c1.3,1.8,3.3,3.1,5.1,4.4c-2.6,0.5-3.1,2.4-0.8,3.7c1.1,0.6,2.2,0.9,3.2,1.8
				c1.1,1,2.1,2.3,3.1,3.5c-1.1-0.3-2.7-1.8-3.8-0.9c-1,0.8-0.2,2.6,0.2,3.5c1.5,3.5,4.4,6.1,7.3,8.5c-1.8-0.7-4.9-2.3-6.7-0.8
				c-2.3,1.9,2.8,5.2,4.3,6.1c-2.3-0.4-6.8-0.7-6.8,2.7c-0.9-1.5-3.6-5-5.6-4.9c-3.6,0.2,2.2,7.9,2.8,9.2c-0.6-0.4-2.4-1.5-2.7-0.2
				c-0.7-1.3-5.6-8.7-7.3-6.2c-0.8-1.3-5.2-8.2-7.4-5.9c-1.9,1.9,3.9,6,4.9,7.2c-1.5-0.8-2.6-2.1-3.8-3.1c-1.3-1.1-2.7-2-3.9-3.3
				c-1.6-1.6-5.2-6.6-8.1-5.3c-2.3,1.1,0.3,4.4,1.3,5.6c2.6,2.9,6,3.5,9.2,5.4c-1.1,0-4.1,0-5.1,0.7c-1.5,1.1-0.1,2.4,0.9,3.3
				c1.4,1,7.7,0.8,9.6,2.1c-1.6-0.2-7.6-0.8-8.3,1.6c-0.9,2.9,6.4,1.9,7.5,1.7c-0.2,0.5-0.5,1.4,0.2,1.7c-1.8,0.3-3.2,1.4-2,3.2
				c1.2,1.8,4.2,2.6,6.1,3.1c2.6,0.7,5.4,1.2,8.1,1.4c1.5,0.1,4.5-0.7,5.5,0.6c-2.1-0.2-4.1-0.2-6.2-0.3c-1.6,0-3.9-0.6-5.5,0.1
				c-3.6,1.5,4.4,3.9,5.3,4.2c-0.7,0.8-0.8,1-2.1,0.7c-0.7-0.2-2.6-1.9-3.2-1.5c-1.3,1,4.1,5.2,4.7,5.7c-0.3-0.2-0.5-0.3-0.7-0.1
				c-0.4,1.1,2.5,3.7,3.1,4.5c-4-2.8-8-5.7-11.9-8.5c-1.6-1.1-7.7-7.9-9.9-6.3c-4.9,3.6,15.2,12.3,17,13.4c-1.3-0.5-8-3.9-8.9-1.6
				c-1.1,2.8,4.4,5.1,6.2,5.8c-2.7-0.2-5.5,0.2-8.1-0.9c-0.9-0.4-4.7-2.2-2.8,0.3c1.2,1.6,4.8,2.4,6.6,2.8c2.9,0.7,5.9,0.9,8.9,1.2
				c-2,0-4.1,0-6.1,0.1c-0.9,0-3.2-0.3-3,0.9c0.2,1,2,1.4,2.8,1.7c1.8,0.6,3,0.5,4.1,2.1c-2.5,0.9-2.8,1.1-4.7-0.9
				c-1.2-1.3-2.5-2.6-4-3.6c-1.6-1.1-4.2-3.3-6.2-3.5c-1.2-0.1-1.2-0.1-0.8,1.1c0.7,1.7,1.9,3.6,3,5c2.9,3.8,5.7,7.9,9,11.4
				c-1.8-0.7-3.9-3.1-5.2-4.5c-1.5-1.5-2.6-3.3-4.4-4.4c-1-0.6-5.2-3-4.9-0.4c0.1,0.7,1.2,2.2,1.5,2.9c0.5,1.2,1.1,2.3,1.8,3.4
				c-0.9,0.2-1.7-1.2-2.3-1.7c-1.1-1-2.4-1.9-3.6-2.6c-2.5-1.5-5.2-2.7-7.9-3.9c-1.5-0.7-4.3-1.2-2.6,1.1c1.7,2.3,5,3.8,7.3,5.4
				c-1.5-0.2-6.1-0.6-4.8,2c1.1,2.2,4.2,2.5,6.3,2.9c2.2,0.4,5,0.2,6.9,1.2c0.7,0.3,1.6,1.1,2.6,1.5c1.5,0.6,3,1.1,4.5,1.5
				c-3,0-6.4-1.4-9.3-0.2c-3,1.2-0.9,3,1.1,4c2.7,1.4,6,2.5,8.9,3.1c1.6,0.3,3.2,0.3,4.8,0.8c1.5,0.5,2.8,1.5,4.3,1.9
				c-1.9,0-4,0-5.8,0.7c-1.6,0.6-1.5,0.8-0.3,1.7c1.4,1,2.7,1.3,4.3,1.7c2.1,0.5,4.1,1.5,6.2,2c-1.5,0.2-1.4,1.2-0.6,2.1
				c1,1.2,3.2,1.6,4.6,1.9c-2.1,0.3-4.2,0.2-6.3-0.2c-1.2-0.3-3-1.1-3.9,0.2c-2.5,3.9,6.3,4,7.7,4.2c-1,0.9-0.4,2.6-0.3,3.7
				c-1-1-2.7-3.1-4.2-3.2c-2.3-0.2-0.4,0.9-1.2,1.9c-2.1-1.5-2-2.9-3.2-5c-0.9-1.6-2.3-3.1-3.7-4.3c-2.9-2.4-3.9,0.3-2.7,2.9
				c-2.6-2-5.6-3.1-7.6-5.8c-0.6-0.9-1.3-2.7-2.6-2.8c-1.3-0.1-1.5,1.2-1.3,2.3c-1.2-1-7.7-6.4-9.4-3.9c-1.5,2.2,7.4,6.2,8.8,6.9
				c-1.5-0.2-3.1-0.9-4.6-0.6c-0.7,0.1-1.5,0.3-1.7,1.2c-0.2,1.2,0.7,1.2,1.3,1.8c0.5,0.5,0.6,1.1,1.7,1.4c1.2,0.3,2.5-0.3,3.7-0.4
				c2.8-0.3,5.6,1.8,8.2,2.7c-2-0.2-4.1-0.2-5.9,0.9c-1.1,0.6-3,2.2-1.1,3.1c1.3,0.6,4.4,0.1,5.8,0.1c0.9,0,1.9-0.2,2.8-0.2
				c1,0,1.3,0.1,2.3,0.4c-2.5,0.8-4.8,2.1-6.7,3.9c-2.1,2-0.8,3,1.7,2.5c2.6-0.4,4.9-1.4,7.5-2c2.8-0.6,4.3-2.2,7-0.7
				c-2.3,0.7-4.4-0.4-6.6,1.1c-1.1,0.7-2.6,2.3-1.7,3.7c1.2,1.8,3.5,0.5,5,1.3c0.7,0.3,1.1,1.3,1.6,1.8c0.7,0.8,1.6,1.5,2.4,2.2
				c-5-1-10.8-2.6-15.4-4.9c-2.2-1.1-11.4-4.8-13.7-5.8c-1.4-0.6-2.7-1.6-4-2.6c0.5-0.8,0.4-1.4-1.1-1c-0.1,0-0.1,0-0.2,0
				c-1.6-1.2-3.4-2.2-5.4-2.4c-2.4-0.3-3.6,1-1.7,2.9c0.6,0.6,1.2,1.1,1.9,1.6c-2.2,1.1-4.3,2.3-6.4,3.6c0.8-0.9,1.7-3.3,1.8-3.4
				c0.1-0.3,0.6-0.6,0.6-0.9c0-1.6-2.1-0.8-2.9-0.4c-4.1,1.6-6.3,5.7-9.3,8.6c1.3-2.7,2.8-5.6,3.9-8.4c0.5-1.3,0.2-2.4,0.4-3.6
				c0.2-1.3,0.3-1.2,1.4-1.6c1.2-0.5,2.9-1.3,0.8-2.1c-1.4-0.5-3.3,0.2-4.7,0.4c1.7-1.1,3.8-2.3,5.1-3.9c1.8-2.3-0.2-2.1-2-1.6
				c1.1-1.6,1.1-2.4-0.9-2.1c-1.9,0.3-4.4,1.4-6,2.3c2.3-1.8,3.5-3,6.5-3.8c2.9-0.7,6-1.5,8.7-2.9c0.7-0.4,2.8-1.4,1.9-2.3
				c-0.7-0.7-2.4,0.4-3.2,0.5c-1.3,0.1-2.5-0.1-3.8,0.1c2.2-1.6,4-3.7,5.7-5.8c0.7-0.8,2.3-2.8,1.8-3.5c-1.4-2.3-3.9,1-4.9,1.8
				c-1,0.7-2.3,1.5-3.5,1.7c-1,0.2-1.6-0.2-2.5,0.6c1.3-2.8,4.9-1.7,6.9-3.5c2.7-2.4-5.4-1.2-6.3-1c1.2-0.6,8-3,3.6-4.3
				c-1.4-0.4-2.9,0.9-4.1,1.4c-1.7,0.7-3.6,1-5.4,1.4c2.1-1,4.4-2.8,6.4-4.1c1.2-0.8,5.7-3.2,5.3-5c-0.5-2.5-4.4,1-5.3,1.7
				c-2.3,1.8-4.9,2.9-7.4,4.4c1.2-0.9,2.9-1.6,3.9-2.6c2-2-0.8-1.7-2.1-1.1c-0.8,0.4-1.5,1-2.3,1.4c-0.7,0.3-1.3,0.2-2,0.5
				c-1.4,0.6-2.7,2.6-3.9,3.7c0.8-1.3,2.4-3.5,2.3-5.1c-0.1-1.8-1.5-1.5-2.5-0.5c-1.9,1.7-2.4,7.4-5,8.1c0.7-1,2.3-2.3,2.4-3.6
				c0.1-2.1-1.2-1.2-2.1-0.2c-2.7,2.9-4.3,6.4-8.1,8.2c1.9-2.8,4.4-6.5,4.8-9.9c0.2-1.1,0.2-2-1.2-1.4c-1.2,0.5-1.5,2.5-2.1,3.5
				c0.5-1.3,0.7-2.7,1.8-3.6c1.2-1,3.3-1.5,4.7-2.2c1.1-0.6,3.2-1.4,1.8-2.7c-1.1-1-3.9-0.3-5.2-0.4c2.5-0.8,5.3-0.8,7.6-2.2
				c2.1-1.2,0.9-1.9-1-1.9c2-0.8,3.9-1.7,5.7-2.9c0.7-0.4,2.4-1.4,2.6-2.3c0.4-2.3-4.4-1-5.6-0.6c0.4-0.6,1.4-2.8-0.2-2.3
				c0.7-0.7,3.2-2,3-3c-0.3-2.3-4,0.4-4.7,1c0.1-2.3-2-0.5-2.6,0.3c-1.2,1.7-2.4,3.3-3.6,5c0.1-0.5,3.6-4.8,1.4-4.4
				c0.2-1,4.5-8.4,1.5-8.4c-1.3,0-2.3,2.5-2.9,3.4c-1.3,2.1-2.5,4.1-3.7,6.2c-0.1-1.3,0.5-3.3-0.2-4.5c-0.4-0.7-1.2-0.7-1.6-1.4
				c0.7-0.3,4.1-1.3,4.3-2.2c0.3-1.2-1.1-1.1-2-1c-1.8,0.1-3.5,0.8-5.1,1.5c-1.4,0.6-3,1.7-4.5,1.4c0.7-0.4,5.8-3.6,4.4-4.4
				c1.1-0.2,6-0.1,6-2c0-1.1-2.8-1.4-3.6-1.5c2.9-0.7,6-1.1,8.7-2.4c2.7-1.3,0.6-2-1.3-2c1.4-0.4,4-0.7,4.9-2
				c1.3-1.8-1.2-2.2-2.5-2.3c2.1-1.2,5.1-1.8,6.6-3.8c0.6-0.8,1-1.4-0.2-1.7c-0.4-0.1-3,0-3.6,0.2c1.1-1,5-5.3,3.1-6.2
				c-2.6-1.1-7,5.2-8.2,6.6c0.6-1.2,2.3-4.2,1.4-5.7c-1.6-2.5-3.3,2.3-3.5,3.4c-1.8-3.1-5.4,7.2-5.7,7.7c0.2-0.9,0.9-2.7-0.2-3.1
				c-1.7-0.6-3.1,2.9-3.7,3.9c0.4-1.6,2.2-5,0.4-6.4c0.9-0.5,2.2-0.8,2.8-1.7c0.7-1,0.4-1.8-1-1.7c0.8-0.4,4.1-1.7,3.9-2.9
				c-0.4-1.9-7.2,1.6-8,2c0.7-0.9,6.1-6.2,5.6-7c-0.9-1.6-4.8,1.7-5.6,2.2c0.7-1-1.2-0.8-1.7-0.8c-1.9,0.2-3.6,1.2-5.3,1.8
				c3-3,7.9-3.4,11-6.4c0.8-0.8,2-2,0.3-2.3c-0.9-0.2-4.9,1.3-6,1.8c0.9-0.8,5.5-6.2,4.4-7.8c-1.8-2.9-5.3,5.7-5.7,6.3
				c-0.6-1.9-1.1-3.7-2.5-1.1c-1.3,2.4-2.2,5.1-3.5,7.4c0-1.2,1.4-5,0-5.8c-1-0.6-2,0.7-2.4,1.6c0-0.9-0.7-2.4-0.4-3.3
				c0.4-1,1.1-0.7,2.1-0.8c1.8-0.1,4.8-0.7,6.3-1.8c5.7-4.2-2.3-3.7-4.5-3.5c3.3-2.3,7.8-1.5,11.1-4.1c1-0.8,2-1.7,0.6-2.5
				c-1.4-0.8-3.8,0.7-5.1,1.1c2.2-2.3,3.6-5.2,5.3-7.8c0.5-0.7,1.7-2.5,0.8-3.3c-1-0.9-2,0.4-2.7,1c0.4-0.6,1-1.7-0.2-1.9
				c-0.8-0.1-1.4,1-1.8,1.5c0.6-1.2,1.9-4,0.8-5.3c-1.2-1.4-2.4,0.3-3.3,1.3c0-1.2,0.7-4.9-1.2-4.9c-2.6,0-1.5,6.3-1.4,7.4
				c-0.4-1-1-2.2-1.7-3c-0.4-0.4-1.4-0.7-1.6-1.3c-0.5-1.2,1.1-2.6,1.7-3.5c0.6-0.9,1.8-2.8,0.6-3.6c-1.2-0.8-3,0.9-3.9,1.5
				c0.9-2.3,1.7-4.7,2.5-7c0.4-1.1,1.2-4.8-1.2-2.7c0.2-1.1,0.7-3.4-0.2-4.3c-1.3-1.2-2.1,0.5-2.5,1.6c-0.8,1.9-2.3,11-2.6,13.5
				c0-3-0.2-5.9,0.1-8.9c0.3-3.1,1.1-6.2,1.1-9.3c0-1.8-0.6-4.4-2.6-2.1c-1.5,1.7-1.7,4.3-3.7,5.7c1-6.1,0.5-12.7-0.2-18.9
				c-0.3-3.1-0.4-6.2-0.6-9.2c-0.1-1.3-0.8-5.7-2.9-3.5c-0.3-1.2-1.2-0.7-1.6,0.1c-0.3,0.6,0.6,19.1,1.4,24.1
				c-0.7-2.1-1.3-4.7-3.2-6.2c-1.6-1.2-2.2-0.3-2.3,1.3c-0.3,5,2.5,9.9,4.7,14.1c-0.8-1-5.4-7.5-6.4-7.1c-1,0.5-0.2,2.2,0,2.9
				c-1.4-1.4-1.7,0.5-1.2,1.7c0.6,1.5,1.7,2.6,2.1,4.2c-0.6-1-1.7-2.6-2.9-1.4c-0.9,0.9,0,3,0.2,4c-1.1-1.8-2.5-9.4-3.6-10.9
				c-0.7-1-2-1.9-2.8-0.3c-0.5,1.1,0.2,3.8,0.5,4.8c-0.6-0.4-1.8-1.6-2.6-1.3c-0.9,0.4-0.3,2.2,0,2.9c0.5,0.9,4.9,4.3,6.2,5.6
				c-0.9,0-0.8,1-0.5,1.6c-1.5-0.1-1.4,1.1-0.8,2c0.7,1.1,2.2,1.7,3.3,2.3c-0.6,0.7-1.1,1.4-1.7,2.1c-0.7-0.9-5.9-6.7-6.6-3.2
				c-0.6,2.8,5.3,4.8,2.7,7.9c-0.7-1.3-3.7-6.4-5.7-5.1c-2.6,1.6,2.3,6.4,3.4,7.3c-2.3,0.1-1.9,3-3,4.3c-0.6-1.2-2.9-6.7-4.5-5
				c-1,1,0.9,6.7,1.6,7.8c-1-0.4-2.4-1.6-3.5-1.5c-1.5,0.2-1.3,1.6-0.6,2.7c0.8,1.2,7.6,5.1,8.9,6.7c-1.6-0.5-7.7-1.6-7.9,1.1
				c-0.2,2.7,5.4,2.9,7,3c-1.3,0.4-3.8,1.5-2.7,3.3c0.9,1.4,3.5,1,5,1.2c-1.2,2.7,4.3,4.6,5.8,5.2c2,0.9,5.5,1.5,4.8,4.7
				c0,0-1.6-1.1-2.1-0.5c-0.7,0.9,0.7,2.5,1.1,3.3c-1.6-0.5-2,2.1-2.2,3.1c0-1-0.4-6.1-2.1-5.7c-2.3,0.5-0.5,4.9-1.9,6.2
				c-0.1-3.3-0.4-7-1.5-10.1c-1.1-3.1-2.3,0.1-2.5,1.7c-0.5-1.1-1.4-2.7-2.5-1.3c-0.3,0.3-0.4,0.7-0.4,1.2c0-2.9,0.2-6.9-1.5-7.6
				c-2.6-1.1-0.2,7.2-0.7,8.4c-0.3-0.8-2.1-9-4.3-6.6c-1.3,1.4,0.8,5.2,1.5,6.6c-0.8-0.9-1.9-0.9-1.8,0.5c-1.2-0.9-3.3-3.2-5-3.4
				c-1.8-0.2-2,1.3-1.2,2.6c1.8,2.7,6.1,2.8,8.2,5.4c-1.6-0.6-6.1-1.8-7.4-0.3c-2.4,2.8,5.2,3.3,6.4,3.5c-1.5,0.5,2.6,2.5,3.1,2.7
				c-1,0.1-2.1,0.8-3.1,0.6c-0.9-0.2-1-1.3-1.7-1.5c-2-0.6-2.1,3.6-2,4.7c-1.2-1.5-8.3-7-9.4-7.7c-1.7-1.3-2.5-0.1-1.7,1.8
				c1.1,2.2,3.8,3.6,5.3,5.5c-1.1-0.3-3.8-1.5-5-1.2c-1.8,0.4,5.6,7.5,7.2,8.8c-0.7,0.2-0.4,0.7-0.4,1.1c0.5,0.2,0.5,0.5,0,0.9
				c-0.1,0.3-0.2,0.6-0.1,0.9c0.1,1.3,1.9,2.3,3,2.8c-1.7-0.2-2.9,0.6-0.8,1.3c2.7,0.9,5.9,1.1,8.8,1.8c-1.3,0-2.6,0-3.9,0.4
				c-0.6,0.2-1.3,0.3-1.8,0.8c-0.6,0.6-0.4,1.1-0.7,1.7c-0.4,0.6-1.2,0.5-0.8,1.5c0.4,0.9,1.4,1.1,1.8,2.1c0.9,2.6,1,5.8,1.1,8.5
				c-0.5-1.8-1.2-4.9-2.4-6.4c-0.8-1-2.1-1.1-2.7-2.3c-0.8-1.6,0.3-6.2-0.7-6.7c-2-0.9-2.8,3.4-3.5,4.5c-1-1.4-1.8-4.9-3.5-5.6
				c-2.5-1-0.9,3.8-0.7,4.9c-0.6-0.9-4-3.7-5.2-4.2c-1.1-0.5-2-0.6-2,0.7c0.1,1.4,2.7,3.2,3.5,4.1c-1.3-0.3-8.6-2.4-7.3,0.7
				c1.1,2.6,5.5,3.1,7.8,3.9c-2.1,2.5,4.1,3.9,5,4.6c-1.2-0.1-8.4-1.6-8.6,0c-0.2,1.6,6.6,3.9,7.6,4.2c-2.5,0.2-2.9,1.9-2.3,4
				c0.8,2.9,5.1,2.3,7.2,3.3c-0.9,0-3.8,0.4-4,1.5c-0.3,2,5.4,2.4,6.6,2.9c-0.7-0.3-2.2,0.3-2.6,0.8c-0.9,1-0.5,2.6-0.1,3.7
				c-0.7-1.2-3.8-7-5.6-4.6c-1.4,1.9,1.7,5.5,2.6,6.9c-2-1.5-3.2-3.6-5-5.3c-0.8-0.7-1.7-1.4-2.6-1.9c-0.7-0.3-1.5-0.2-2.2-0.4
				c-0.5-0.2-4.6-3.8-4.3-2c-0.8-0.7-7.3-6.5-7.5-3c-0.2,2.6,6.2,6.2,7.9,7.3c-1.4-0.1-7.7-1.2-8.6-0.4c-1.8,1.5,3.1,2.4,4.1,2.7
				c2.5,0.8,4.9,1.7,7.5,2.1c1.3,0.2,2.8-0.1,4.1,0.3c0.7,0.2,2.4,0.9,2.9,1.4c-1.1-0.2-4.8-1-5.8-0.3c-1.8,1.2,1.8,2.6,2.6,3.2
				c-1.4,0.1-2.8,0.9-4.1,0.9c-0.8,0-2-1-2.7-0.7c-1.4,0.7-0.3,3.4,0.2,4.4c-2-1.9-10.5-7.4-10.6-5.4c-0.1,1.6,2,3.2,3,4.1
				c2.4,2.1,5,4,7.5,5.9c-0.9-0.4-8.5-4.2-8.9-2.4c-0.6,2.9,9.9,4.8,11.5,5.2c-0.6,0.1-3.9,0.5-2.9,1.6c-1.2,0.4-4.5-0.5-2.2,1.4
				c1.4,1.1,3.5,0.9,5.5,0.9c-2.4,0.4-4.9,2.5-1.2,3.2c2.5,0.5,5.7-0.5,7.9,0.8c-3.3,0.2-6.7,0-9.9,0.7c-2.4,0.6-2.1,1.8,0.2,1.8
				c-0.3,0.8-0.3,1.8-0.1,2.6c-0.6-0.9-1.7,0-2.6-0.7c-0.9-0.7-1.2-2.7-1.7-3.8c-0.4-0.8-1-2.9-1.9-3.3c-1.3-0.5-1.4,0.7-0.9,1.7
				c-2.6,0-2.6-3.6-4.9-3.9c-2.9-0.4,1.7,5.3,2.2,6c-2.3-1.6-4.2-3.1-6.1-5.1c-0.8-0.8-4.3-4.9-5.6-3.2c-1.9,2.6,7.1,6.6,8.1,7.5
				c-0.8,0.2-1.2,0.7-0.9,1.5c-1.8-0.5-4-0.9-5.9-0.2c-1.5,0.6-2,1.5-0.4,2.3c3.6,1.9,8.3,0.5,11.7,2.6c-1.4,0.6-3.1-1.4-4.4-0.6
				c-1.4,0.9,0.4,1.6,1.4,1.9c-2,2.5-5,3.6-7.7,5c-3.4,1.8-6.5,4.3-9.9,6.1c1.4-1,2.9-1.9,4.2-3c0.6-0.5,2-1.5,0.4-1.8
				c-0.9-0.2-2,1.1-2.6,1.6c-1.3,0.9-2.7,1.7-4.1,2.6c0.4-1.2,0.7-0.7,0.5-2.1c-0.1-0.7-0.2-1.9-1-2.1c-1-0.2-2.1,1.2-2.5,1.9
				c-0.2,0.2-1.8,1.8-1.7,1.9c-0.3-0.2-0.7-0.4-1.1-0.5c0.7-0.4,0.9-0.9,1.4-1.3c0-0.2,0.1-0.4,0.1-0.7c0.2,0,1.3,0.5,1.3-0.8
				c0-0.1-0.7-0.9-0.7-0.9c-0.3-0.4,0.4-0.5-0.2-0.8c-0.2-0.1-0.8,0.3-1.1,0.2c-1.4-0.5-2.9-1.5-4.4-2.1c3.1,0.3,6.1,1.9,9.1,2.7
				c3.1,0.8,2.5-1.4,0.3-2.5c0.7,0,7.9-0.2,6.7-1.7c-0.7-0.9-4.3-0.5-5.4-0.4c1.2-1.1-5.8-1.6-6.2-1.6c0.8-0.3,7.2-1.6,5.9-3
				c-0.9-0.9-4.1,0.3-5.3,0.3c2.7-1.1,11-5.5,11.5-6.6c0.7-1.6-2.4-0.9-3.4-0.6c-1.4,0.4-7.2,3.1-8.7,3.9c0.4-0.4,1.8-2.7-0.2-1.7
				c-0.1-2.4-9.4,0.3-11.8,2.5c0.3-2,0.6-3.5,2.5-4.5c1.8-0.9,4.6-0.5,6.7-0.9c2.2-0.4,4.4-0.8,6.4-1.9c0.3-0.2,2.8-1.6,1.7-1.9
				c0.7-0.2,7.2-2.1,7.1-3.2c-0.1-1.8-7.2,0.4-8.1,0.7c0.4-0.3,1.4-1.5,0.3-1.7c3.8-0.7,8.6-0.8,12-2.6c1-0.5,2.3-0.9,0.7-1.7
				c-1.8-0.8-5,0.3-6.8,0.5c1.9-0.9,3.7-1.8,5.5-2.8c1.2-0.7,3.3-1.6,4.1-2.8c2.2-3.2-4.4-1.3-5.6-0.8c-3.3,1.5-6,4.1-9.2,5.7
				c-0.8,0.4-1.9,1.3-2.8,1.4c0,0-0.3-0.5-0.6-0.5c-1.1,0.1-2,0.5-3,0.9c0.3-0.9-0.1-0.8,0.7-1.4c0.4-0.4,1.4-0.6,2-0.8
				c1.8-0.8,3.9-1.7,5.3-3.2c1.1-1.1,2-2.6,0-3.1c-2-0.6-4.7,1-6.3,2.1c1.8-2,4.4-3.8,6.5-5.3c1-0.7,3.6-2.6,0.8-2.5
				c-2.4,0.1-5.1,2.1-6.7,3.6c-2.3,2.1-1.7,2.8-2.4,0.7c-0.7-2.1-4.8,0.8-5.9,1.2c1.3-1.6-1-3.5-2-2.2c0.4-0.9-4.3,0.5-4.8,0.7
				c2.1-0.9,4.2-2,6.3-3c1.1-0.6,5.2-3.8,1.3-4.1c-2.8-0.2-5.1,3.1-7.3,4.3c3.3-3.9,5.7-7.5,11.3-7.2c0.8,0,4.2,0.8,4.7,0
				c1.2-1.9-4.6-3.1-5.5-3.5c1.5-0.2,3-0.3,4.5-0.2c1.1,0.1,3.5,0.6,4.3-0.5c1.8-2.4-4.4-0.9-5.1-1.2c1.4-0.2,5.5-0.2,5.7-2.2
				c0.2-2.1-3.4-1.1-4.5-0.9c2.7-1.1,8.1-2.6,9.6-5.4c0.8-1.5,0.2-1.8-1.4-1.3c-2.1,0.7-3.9,2-5.9,3c0.6-0.8,2.3-2.5,2.1-3.7
				c-0.4-1.8-2.2-0.5-3.1,0.2c-1.5,1.1-2.7,2.6-3.8,4c-1.1,1.3-2.2,3.4-3.6,4.4c0.3-2.7,0.4-5.6,2.9-7.1c2.2-1.3,4.9-2.4,6.3-4.8
				c1.6-2.6-1.1-1.7-2.6-0.9c-2.8,1.6-5.7,3.1-8.4,5.1c0.2-0.8,0.8-2.5,0.1-3.2c-1.2-1.1-2.7,0.8-3.2,1.8c-0.8,1.5-0.1,3.1-0.8,4.5
				c-0.6,1.4-2.9,2.9-3.9,4c0.8-1.3,1.8-2.8,2-4.4c0.3-1.8-0.4-1.5-1.6-0.9c-1.3,0.7-2,0.8-2.7,2.2c-0.5,1.1-1.2,2.8-1.4,3.9
				c-0.5-1-1.7-1.7-2.8-1.9c1.4-1.4,2-2.8,2.9-4.4c0.9-1.6,2-1.3,3.6-1.7c1.1-0.3,2.9-0.8,1.3-1.8c-1.4-0.8-4.2-0.1-5.6,0
				c2.4-1,5.6-1.8,7.4-3.8c1.2-1.3,1-2.7-0.9-2.7c-3.1,0.1-6.3,3-8.8,4.5c0.4-0.9,1.7-4.3-0.1-4.4c2.3-0.1,4.7-0.2,7-0.4
				c1.7-0.1,4.3,0,5.7-1.2c1.3-1.1,0.8-1.7-0.8-1.9c-2.2-0.3-4.8,0.9-6.8,1.4c0.8-1.1,2.3-3.1,0.2-3.6c-1-0.3-1.9,0.5-2.9,0.8
				c-0.6,0.2-0.5,0.2-1.1,0.2c-0.4,0-0.7-0.3-1,0.1c-0.2-2-1.6-3.2,1.1-3.7c1.8-0.3,3.6-0.2,5.4-0.6c0.9-0.3,3-0.9,1.5-1.8
				c-0.8-0.6-2.7,0-3.6,0c1.3-0.6,2.6-1.2,4-1.8c0.6-0.2,1.7-0.4,2-1c0.9-1.4-1.6-0.9-2.4-0.7c0.7-0.3,11-4.7,8.5-6.4
				c-1.3-0.9-5.2,1.8-6.2,2.4c-2.1,1.5-3.9,3.4-6.3,4.5c0.6-1.4,5.4-6.3,4.2-7.9c-1.6-2-5.5,4.6-6.2,5.8c-0.1-0.8-0.4-2.3-1.5-2.1
				c2.4-2.2,4.6-4.1,7.3-5.9c0.7-0.4,4.9-3.1,3.3-4.2c-0.8-0.6-3,0.9-3.7,1.4c-2.7,1.8-4.6,4.6-6.9,6.9c0.3-1.1,1.3-2.2,1.1-3.4
				c-0.2-1.3-1.6-1.9-2.8-1.6c-1.4,0.4-1.5,1.4-1.8,2.6c-0.2,0.7-0.5,1.4-0.5,2.1c-0.1,0.8,0.3,1.5-0.1,2.3
				c-0.9-1.8-1.4-4.5-0.1-6.4c1.5-2.3,5.6-3.5,7.8-5c0.6-0.4,2.4-1.4,2.5-2.2c0.2-1.5-1.4-0.7-2.2-0.3c-2.9,1.4-6.2,3-8.7,5.2
				c0.3-2,0.4-4,0.7-5.9c0.3-1.9,0.8-3.9,0.3-5.8c-0.3-1-0.6-2.1-1.8-1.6c-1.3,0.5-1.2,3.1-1.2,4.2c-0.3-1.6-1.3-3.9-3-4.5
				c-2.1-0.8-2.7,1.3-2.6,3c0.3,4.3,4.6,7.2,5,11.5c-0.3-0.9-3.1-2.4-3.9-2.8c-1.9-0.7-1.8,0-0.9,1.4c1,1.5,2.6,2,3.8,3.1
				c1.5,1.4,0.9,2.4,0.8,4.3c-1.2-2.5-2.6-1.3-2.8,0.8c-0.6-1.5-3.7-6.6-4.5-6.5c-1.6,0.1,0.8,5.7,1.3,6.5c0.5,0.8,5.7,5,5.1,5.6
				c-0.4,0.4-1-1.2-1.9-0.8c-0.9,0.8,0.1,2.7,0.2,3.3c-2.6-1.6-5.1-3.5-7.1-5.8c-2.1-2.3-3.1-5.3-5.1-7.7c-1.2-1.4-4.6-3-3.5,0.3
				c0.9,2.8,4.4,5.1,6,7.6c-1.8-0.7-5.4-2.1-7.3-1.4c-1.3,0.5-1,1,0.1,1.7c1.9,1.1,4.6,1.4,6.7,2c-1,0.3-5.1-1.2-5.1,0.4
				c-0.1,1.6,3.2,1.5,4.1,1.9c0.7,0.3,1.6,1.1,2.7,1.4c1.8,0.5,4.9,0,6.4,1.1c-0.8-0.1-4.7-1-5,0.3c-0.3,1.1,2.6,1.7,3.4,2
				c-2.2-0.5-5.1,0.3-3,2.9c1.7,2.1,4.8,3.4,7.4,3.8c-1.1,0.9-1.2,2.4-1.2,3.6c-0.6-1.3-1.7-4.8-3.6-4.8c-1.6,0-1.7,2.1-1.1,3.3
				c-1.7-0.9-3.2-2.2-4.6-3.6c-1.2-1.1-2.5-2.8-4.2-3c-2.5-0.3-0.7,1.3,0.3,2.1c1.7,1.2,3.3,2.7,5.1,3.8c-1.9-0.1-5.6,0.6-2.4,2.5
				c3,1.7,6.8,0.3,9.7,1.9c-0.5,0-4.8,0.5-4.2,1c-0.5,0.2-1.7,1-0.5,1.3c-0.8,1.2-0.9,2.8-0.7,4.2c-0.9-1.4-2.2-2.4-3.6-3.3
				c-1.6-1-1.9-1.3-2.2-3.1c-0.1-0.7-0.3-2.3-1.4-1.5c-0.5,0.3,0.1,1.9-0.7,2c-0.1-1.1-1-1.8-1-3c0-0.9,0.9-2.4,0.4-3.3
				c-0.5-0.9-1.7-0.9-2.6-0.3c-1.2,0.9-0.8,2.7-0.9,3.9c-0.9-1.1-0.6-2.9-1.4-4.1c-0.4-0.7-0.8-0.6-1.1-1.5c-0.2-0.7,0-1.6-0.1-2.3
				c-0.2-1.3-1-3-2.3-1.4c-0.9,1.2-0.2,3.3,0.2,4.4c-0.8-0.9-2.7-3.9-4.1-3.7c-2,0.4,0.8,2.8,1.5,3.4c-1.8,0.8,2.1,3.1,2.6,3.7
				c-0.3,0-2.3,0.5-2.3,0.8c-0.1,0.8,1.5,1.1,2,1.4c1.1,0.6,1.9,1.5,2.9,2.1c1,0.6,2.7,0.8,3.3,1.9c-1-0.2-6.2-1.6-6.6,0.2
				c-0.4,1.8,4.5,2.4,5.5,2.6c-1,1.8,0.3,3.1,0.1,4.9c-0.8-0.9-3.3-4.8-4.9-2.5c-1.2,1.7,3.1,5.7,4,6.9c-1.6-0.4-5.6-1.2-3.2,1.3
				c1.7,1.8,4.1,2.7,6.3,3.6c-0.5,0-2.3-0.4-2.2,0.6c0,0.5,2.7,1.6,3,1.8c-0.7,0.1-2.9-0.2-3.1,0.9c-0.1,1,2.4,0.9,2.9,1
				c-1.2,0.5-2.2,1.5-2,2.9c-0.6-1.1-1.8-2-2.5-3.1c-0.8-1.2-1.6-2.5-2.4-3.7c-1.6-2.3-3.5-4.4-5.8-6.2c-1.8-1.4-4.3-2-3.4,1.2
				c0.8,2.7,3.3,4.6,5.2,6.4c-1.2-0.4-3.3-0.7-4.6-0.2c-1.1,0.4,3.8,3.1,4.4,3.2c-0.9,0.3-4.8,2.2-3.1,3.3c0.7,0.5,2.7-0.4,3.4-0.6
				c1.6-0.7,1.7-1.2,3.2-0.2c-2.3,0.6-4.6,0.7-6.7,2c-1.2,0.8-2.7,2.4-0.4,2.7c2,0.2,4.6-1.6,6.3-2.6c2.2-1.4,2.9-1.5,4.7,0.4
				c-1.2,0.1-6.4,1.9-3.4,3.1c1.6,0.7,4.3,0,5.9-0.3c-0.4,0.4,0,1.2,0.1,1.6c-1.3-0.1-2.7,0-3.9,0.5c0.1-1.5-1.9-1.2-2.7-0.8
				c-1.6,0.9-1.3,1.5-2.8-0.1c-2.2-2.2-4.1-2.1-3,1.3c-1.3-0.9-2.9-1.4-4.1-2.5c-1.1-1.1-1.3-2.6-2.3-3.7c-1.9-2.1-4.2-2.1-4,1
				c-0.2-1.2-1-4.9-1.4-5.3c-0.7-0.7-2.6-0.2-2.5,1c-1.8-0.6-0.6,2.5-0.4,3.2c-1-0.7-9.7-8.4-10.5-5.9c-0.8,2.5,6.4,4.9,7.5,5.9
				c-1.6-0.2-4.6,0.5-2.4,2.4c1.8,1.5,4.8,0.7,6.9,1.3c-0.7,0.1-2.5,0.1-2.7,1c-0.1,0.7,2.1,1.6,2.5,1.8c2.8,0.9,7.4-0.3,9.9,1.5
				c-2.6,0.7-5.6,1.6-8.3,1.3c-1.4-0.1-2.1-0.4-3.3,0.2c-0.5,0.2-0.7,0.6-1.3,0.7c-0.6,0.1-1.1-0.2-1.7-0.2
				c-0.9,0.1-1.5,0.5-2.5,0.6c-1.4,0.1-2.4-0.3-3.7-0.8c-1.4-0.5-4.4-1.5-3.7,1.2c-1.5-0.1-3,0.3-4.5,0.5
				c-10.7,1.5-23.4,0.5-24.8,0.2c-1.1-0.2-1-0.6-1.6-1.5c-0.9-1.3-1.9-2-3-3.1c0.4-0.2,0.6-0.6,0.7-1.1c2.3,1.4,8.7,4.6,11.4,2.5
				c1.6-1.2-3.6-5.1-4.6-6.7c2.8,1.3,6,3.2,9.2,2.4c3-0.8,3-4.2,6.3-4.1c3,0.1,7.6,0.3,10.2-1.6c2.8-2.1-4.2-2.5-5.4-2.9
				c1.7-1.3,4.6-1.4,6.5-2.2c0.9-0.4,3.4-1.1,3-2.2c-0.6-2-11.2,0.1-12.6,0.3c-2,0.4-4.1,0.6-6.2,1c-1.1,0.2-1.8,0.8-2.8,1.1
				c-1.3,0.4-2.5,0.1-3.9-0.1c-1.9-0.2-4.5,0.3-6.2-0.6c-1.8-0.9-3-3-4-4.6c3.4,2,6,3.6,10,3.8c1.1,0.1,2.9,0.7,2.7-0.9
				c-0.1-1.2-2.1-1.9-2.9-2.5c1.5,0,3.7-1.4,4.3-2.8c0.7-1.9-0.6-1.5-1.8-1.7c-0.5-0.1-2.7-0.6-3.3-0.7c-2-0.4-3.9-1.6-5.9-2.1
				c2.5-1.1,4.3-2.5,6.2-4.4c1-1,5-4,1.2-3.6c-1.3,0.1-1.3,0.5-2.6-0.2c-1.2-0.6-2.3-1.4-3.5-2.1c-2.8-1.6-5.8-3-8.9-3.8
				c2.4-0.5,4.5,1.2,6.6,2c2.5,0.9,4.8,1.1,7.2,2.3c2.1,1.1,12,4.3,8.4-0.9c1.5-0.3-0.4-2-0.9-2.4c-1.7-1.3-4-2.4-6-3.5
				c0.9-0.6,1.1-1.4,2.2-1.2c1,0.2,2,1.4,2.9,2c1,0.6,2.2,1.1,3.4,1.5c0.6,0.2,1.2,0.3,1.7,0.3c0.5,0,7.3,0.4,6.1-2.5
				c-0.6-1.4-2.7-1.4-4-1.7c-2.3-0.5-4.9-4.6-5.2-5.2c2.8,2.2,7.4,6.8,11.4,5.6c2.3-0.7,0.7-1.8-0.6-2.5c-2.2-1.1-4.2-2.5-6.5-3.6
				c2.9,0.1,5.8-0.4,8.7-0.4c1,0,5.1,0.7,5.4-0.9c0.2-1.1-3.8-2.1-4.7-2.3c-2.8-0.8-5.8-0.9-8.8-1c2.3-2,4.9-3.5,6.9-5.8
				c0.8-0.9,1.9-2,2-3.3c0.2-1.9-6.1,1.4-8.3,2.9c-1.2,0.8-4.5,4.9-5.2,5.3c-0.5-1.9-5.3,3.2-6.4,3.4c0.2-1.3,2.8-2.9,3.7-3.7
				c0.6-0.6,3.7-2.5,3.7-3.4c0-2.9-7.4,0.2-8.5,0.8c-1.8,1-3.3,2.4-4.8,3.9c-1,1-2,1.9-3.7,1.8c-4.1-0.3,1.3-3.8,2.5-4.5
				c3-1.7,6.8-3.3,9.2-5.9c3.7-4.1-3.1-4.1-5.7-2.9c-1.5,0.7-2.6,1.7-3.8,2.8c-1.7,1.5-3,1.8-5.2,1.6c-2.2-0.2-4-0.1-6,1
				c-0.6,0.3-1,0.9-1.7,0.9c-1,0-2.5-1.3-3.4-1.8c2.5-0.7,4.8-2,7-3.2c1.6-0.9,2.5-3.4-0.3-2.7c0-1.8-3.3-0.9-4.2-0.6
				c-1.3,0.3-2.5,0.9-3.7,0.2c-1.1-0.6-2.2-2-3.3-2.7c1.3-0.1,12.4-1.3,10.5-4.2c-1-1.5-4.8-0.2-6.3-0.6c-2.7-0.6-4.8-2.3-7.7-2.5
				c1.7-1.1,5.3,0.2,6.4-1.7c0.9-1.5-1.1-1.9-2.2-2.3c-2.1-0.6-4.4-0.9-6.6-1.1c-1.2-0.1-2.6,0.2-3.6-0.4c-0.9-0.5-1.9-2.1-2.7-2.9
				c3.7,0.8,7.1,2.5,10.8,3.1c1.9,0.3,3.7-0.2,5.6-0.1c1.6,0.1,2.9,1.2,4.3,1.9c2.3,1.1,6.7,3.7,8.9,1.3c0.8-0.9-3-3.7-3.5-5.2
				c2.4,1.1,5,1.6,7.6,2.1c1.8,0.3,4.3,1.1,6.1,0.5c1.6-0.6,1.8-2,0.4-3.1c-0.8-0.6-4.4-2.8-5.3-3.5c2,0,9.8-1.6,11.5-2.4
				c0.9-0.4,7-3.3,5.2-5c-1.7-1.6-20.5,3-23,2.9c1.9-1,18-9.2,18.7-12.6c0.4-2.2-0.7-1.5-1.8-0.5c-1.4,1.3-2.7,1.6-4.5,2
				c-4.5,1-8.6,2.9-13.3,3.2c2.4-1.5,10.5-7.8,8.8-9.3c-1.3-1.2-4,0.5-5.2,1.1c-3,1.5-5.9,3.1-9.1,4.3c1-0.8,4-3.1,1.6-3.7
				c-2.6-0.7-5.8,1.7-7.7,3c-1.7,1.2-4.2,4.1-6.4,3.7c-1.5-0.3-2.6-1.1-4.2-1c-1.7,0.1-3.4,0.6-5,1.2c0.5-0.9,0.9-1.6,1.8-2.1
				c0.8-0.5,2.3-0.3,2.7-1.4c0.7-2-3-3-4.1-3.7c1.5-0.1,10-0.2,7.8-3.3c-1.2-1.7-4.8-2.2-6.7-2.5c1.2-0.3,2.7-1.6,3.9-1.8
				c1.2-0.2,1.3,0.5,2.1,1.3c1.9,2.2,2.9,4.4,3.7,7.3c0.3,0.9,1.4,3.9,2.4,3.5c1.8-0.5,1.3-6.9,0.8-8.2c1.4,0.1,6.5,0.9,7-1
				c0.6-2.3-5.7-3-7-3.3c1.3-0.8,3-0.1,4.4-0.1c1.6,0.1,3.1-0.3,4.7-0.6c2-0.4,8.5-1.2,9.1-3.8c0.9-3.8-3.6-1.6-5.1-1.2
				c-1.6,0.5-8.7,2.5-10.7,2.4c0.8-0.5,4.7-2.7,2.4-3.4c-0.8-0.2-2,0.6-2.9,0.4c-1-0.2-1.4-0.9-2.3-1.3c-4.8-2.1-9,4-13.1,5.2
				c0.9-0.5,3.2-2,3.3-3.2c0.1-1.9-4.6,0-5.6,0.3c0.7-0.4,6.1-2.6,3.6-3.8c-0.4-0.2-2.3,0.4-2.9,0.5c-1.3,0.1-2.7,0.2-4,0.4
				c1.3-1.7,3.6-1.6,5.6-2c2.1-0.4,4.2-1,6.2-1.8c1-0.4,2.9-1.1,2.2-2.5c-0.6-1.2-4.6-0.8-5.7-0.8c1-0.7,5.5-4.4,3.7-6.1
				c-1-0.9-3.5,1.3-4.3,1.9c0.9-1.9,1.5-4,1.7-6.1c0.1-1.4-0.3-2.6-1.5-1.2c-1.2,1.3-1.6,3.6-2.4,5.1c-1,2-2.2,3.9-3.2,5.9
				c0.1-0.8,1.1-4.8,0.6-5.4c-0.9-1-1.5,0.9-1.8,1.6c-1.4,3.6-1,8.2-3.5,11.3c0.1-0.7,0.6-7.9-1.9-6.3c-0.7,0.4-2,7.2-2.6,9.2
				c0-2.6,0-5.2,0.2-7.8c0.1-1.1,0.3-2.7-1.1-1.5c-0.5,0.4-0.8,1.6-1.2,2.2c-0.4,0.6-2.9,3.2-5.4,2.8c1.3-1.4,2.5-2.8,3.4-4.5
				c1.1-2.1,1.3-2.2,3.6-2.8c3.5-1,7.3-2.6,9.7-5.5c1.6-1.8,1.8-3.8-1-3.1c-1.9,0.5-3.7,1.6-5.4,2.5c1.2-1.4,2.1-3,3.2-4.4
				c0.9-1.1,2.7-2.1,0.1-2.4c-3.9-0.4-7.5,3.7-10,6.1c0.2-1.4-0.4-2.9,1-3.8c1.1-0.8,3,0,3.9-1.2c1.5-2.1-2.7-2-3.7-2.8
				c1.7-0.1,4.1,0,5.3-1.5c0.4-0.5,0.7-1.4,0.3-2c-0.4-0.7-2.3-0.6-2.9-0.7c1-0.2,7.5-1,7.2-2.8c1.7,0.2,7.6,1.6,8.9,0
				c0.9-1.1-4.5-4.1-5.6-4.5c2.2-1.2,4.3-1.4,6.5-0.5c2.2,0.9,4.2,1.1,6.5,1.4c1.1,0.2,4.9,1.3,3.6-1.3c-0.2-0.4-1.9-1.2-2.2-1.5
				c-1-0.7-2-1.2-3.2-1.5c2.8-0.3,5.6-0.3,7.7-2.4c1.9-1.9,1.4-2.9-1.3-2.6c-3.2,0.4-6.3,1.4-9.4,2.3c-3.2,1-6.5,1.2-9.8,2
				c0.4-0.4,1.3-1.1,1.4-1c0.4-0.5,0.6-0.5,0.4-1.3c-0.4-1.3-2.6-1.5-3.7-1.3c0.2-0.2,0.3-1.5,0-1.8c-0.6-0.8-4.2-0.8-5.7-0.6
				c0.8-1.1,0.7-2.4,1.2-3.6c0.5-1.1,1.3-1.8,2-2.7c1-1.2,3.2-4.5,2.3-6.1c-1.5-2.9-10.1,7.2-11.2,9c0.1-0.8,0.9-9.4-0.8-8.7
				c0.9-1.9,3.5-0.1,4.6-1.4c1.6-1.8-2.3-2.7-3.4-3c1.1-0.1,2.3-0.3,3.3-0.9c0.7-0.4,1.2-1.2,2.1-1.5c1.9-0.6,3.9,0.5,5.8-0.6
				c1.1-0.6,2.3-2.1,1.1-3.2c-1.2-1.1-5.4-0.3-6.9-0.2c1.7-1.5,2.2-4.1,3.9-5.7c1.3-1.3,3.4-1.3,5-2.5c4.8-3.5-2.6-4-5.2-3.2
				c0.6-1.4,2.3-3.1,2.1-4.6c-0.2-2.3-2.2,0.1-2.9,1c-1.8,2.2-2.4,5.3-4,7.6c-1.5,2.2-4.5,4-6.6,5.7c0.2-1.3,0.7-4.4,1.5-5.6
				c0.9-1.2,2.6-1.8,3.6-3c0.9-1.1,1.4-2.2-0.4-2.5c-1.6-0.3-3.5,1.2-4.7,1.9c2.8-2.7,5.3-5.5,7.3-8.8c1.7-2.8,3.9-5.3,5.1-8.5
				c0.3-0.7,1.3-2.7,0.2-3.2c-0.7-0.3-1.8,1.1-2.1,1.6c-2.2,2.5-9.1,8.7-10.5,9.3c-1.1,0.5-2.8,1.9-3.9,1.9
				c-1.4,0.1-0.5-0.8,0.1-1.4c0.9-1,1.8-1.8,2.5-3c0.7-1.3,2.4-5.3-0.6-4.6c-1.7,0.4-3.2,3.4-3.8,4.9c0-1.1-0.5-4.6-0.3-5.7
				c1.2,1.2,8.3-5.4,9.1-6.2c1-1,2.5-3.2,0-2.9c-1.1,0.1-2.2,1.4-3.1,2c-1.1,0.8-2.3,1.4-3.5,2c1.9-1.9,3.8-5.1,3.9-7.9
				c0.1-3.5-3.5-0.6-4.5,0.9c0.1-2.2,3.2-19.7-1.5-19.3c-2.5,0.2-2.3,7.6-2.3,9.4c0,4.1,0.6,8.1,1.4,12.1c-1.5-2.3-3.3-6.7-5.8-8.1
				c-3.8-2.1-0.7,5.5,0.1,6.6c-0.8-0.6-2.5-1.8-3.6-1.3c-1.9,0.8-0.3,2.4,0.6,3.4c1.3,1.4,2.7,2.5,4.1,3.7c1.8,1.5,1.3,1.7,0.8,3.8
				c-0.7-0.8-1.7-2.8-2.9-2.9c-1.7-0.1-1.4,1.9-1.2,3c0.4,2,1.4,4,2.7,5.6c0.6,0.7,1.5,1.3,1.9,2.1c0.6,1.2,0,2.3-0.1,3.5
				c-0.8-1.2-2.8-4.3-4.7-3.6c-1.3,0.5-0.9,2.5-0.7,3.6c-2.1-2.3-2.5,1.6-2.5,3.1c-1.2-1.3-4.5-5-6.7-4.1c-1.5,0.6-0.2,2.7,0.3,3.7
				c1.4,2.5,3.5,4.6,5.5,6.6c1.1,1.1,2.2,2.2,3.4,3.1c1,0.7,2.3,1.2,2.7,2.5c-3-0.9-7.6-2.6-10.7-1.5c-4.1,1.4-0.9,4,1.5,4.7
				c2.9,0.9,7.9-0.2,10,2c1.4,1.4,1.1,2.2,0.3,3.8c-0.8,1.4-1.2,2.8-1.4,4.4c-0.9-2.4-2-4.7-3.5-6.8c-0.9-1.3-2.6-3.1-2.8-0.5
				c-0.2,2.2,1.5,4.8,2.5,6.6c1.2,2,3.6,3.9,4.3,6.1c-1.2-0.9-3.5-1.7-4,0.2c-0.4,1.4,0.7,3.6,1.3,4.8c0.9,1.9,2.6,3.5,3.3,5.4
				c0.8,2,1.3,3.8,1.7,6c-0.4-0.1-3.9-1.7-5.1-3.2c-1-1.4-1.4-3.1-2.4-4.5c-0.6-0.8-1.8-2.5-2.9-1.3c-0.8,1,0.2,3.1,0.6,4
				c-3.2-1.3-6.5-2.8-9.8-3.7c-2.4-0.7-4.5-1.7-7.1-1.4c-1.3,0.2-4.3,0.7-3.2,2.7c0.5,0.9,2,1.2,3,1.5c1.6,0.6,3.2,1.2,4.8,2
				c-2.7,0.7-6.2,3.5-2.6,5.4c1.7,0.9,1.8,0.5,3.4-0.4c1.7-0.9,3.5-1.4,5.2-2.3c-1.1,1.3-5.1,4.9-2,6.4c2.4,1.1,6.5-2.7,8-4.2
				c-0.9,1.2-1.8,2.4-2.5,3.6c-0.5,1-0.6,2.3-1.8,2.6c-1,0.2-2.6-0.6-3.6-0.7c-1.3-0.1-2.7,0-4,0.2c-1.5,0.3-4.4,1-4.8,2.7
				c-0.9,3.2,3.5,1.3,4.5,2.3c-1.1,0.8-3.9,4.1-0.7,3.4c1.1-0.2,2-1.4,3-1.9c1.7-0.9,3.4-0.7,5.2-0.7c-0.8,0.9-3,2.4-2.9,3.7
				c0,2.4,3.1-0.2,4-0.8c2.4-1.8,4-3.2,7-3.7c1.5-0.2,7-2.1,7.4-2.5c0,1.9,0.2,3.8,0,5.7c-0.2,1.5-0.8,2.6-1.2,4.1
				c-0.9-1.5-4.8-5.9-7.1-4.9c-1.9,0.9,0,1.7,0.7,2.4c1.2,1.2,1.4,2.9,2.3,4.3c-1-0.4-1.9-0.6-2.8-1.2c-0.5-0.3-0.9-0.9-1.4-1.2
				c-0.8-0.4-3.9-0.8-4.5,0.2c-1.2,1.9,7,5.2,8.1,5.9c-1.8,0.5-3.7,0.9-5,2.3c-0.9-1.4-3.1-6.2-5.3-6.2c-2.2,0-0.3,3.7,0.3,4.7
				c-3.5-2.7-7.8-5.2-12-6.7c-1.5-0.5-2.9-0.7-2,1.2c0.9,1.8,3.6,3,5.2,4c-1,0.1-0.3,1.7-0.1,2.2c0.6,1.3,1.9,2.1,3.1,2.8
				c-1.7,0.2-1.5-0.1-2.9-0.9c-0.9-0.5-1.2-0.9-1.8,0.2c-0.9,1.7,0.7,6.4,1.5,7.9c-2.6-3.6-6-6.3-10-8.3c-0.9-0.4-3.4-1.9-4.4-0.9
				c-1,1,0.3,2.7,0.9,3.5c-2.5-0.8-5.1-1-7.5-1.7c-2.1-0.6-2.6,0.3-1,2c1.6,1.7,3.7,2.8,5.8,3.8c1.5,0.7,4.9,1.1,5.6,2.8
				c-1.3-0.4-1.7,0.6-1.1,1.6c0.6,0.9,2,0.8,2.4,1.9c-0.9,0.2-6.7,2.8-7.9,2.6c-0.9-0.2-1.9-1.2-2.7-0.3c-2.2,2.6,7,8.8,8.5,9.7
				c-1.3-0.2-1.9-0.1-3-0.7c-1-0.5-2.1-1.2-3.1-1.8c-1.9-1.1-3.9-2.2-5.9-3c-1.1-0.5-10.9-3.8-11-1c0,1.2,2,1.8,2.8,2.2
				c2.3,1.1,4.5,2.3,6.8,3.4c4.3,2.2,8.7,4.4,13.5,5c-1.8,0.1-4.9,1.2-6.2,0.7c-1.1-0.4-2.3-2-3.2-2.8c-1-0.8-2.1-1.6-3.2-2.3
				c-1-0.6-3.3-2.3-3.9-0.7c-0.2,0.5,2.1,5,2.9,6c-1.2-0.6-13.5-5.6-12.1-1.5c0.6,1.8,4.4,3.8,5.9,4.7c2.9,1.7,6,3,9.3,4
				c-1.4,0.1-4.9,0-4.5,2.2c0.5,3,7.5,3.1,9.4,3.1c-1.1,0-2.6,0.4-3.6,0.8c-0.4,0.2-0.7,0.2-1,0.5c-0.3,0.3,0,0.9-0.1,1
				c-0.6,0.7-1.8,0.7-1.7,1.9c0,1.1,1.6,1.5,2.4,1.7c2.3,0.7,5,0.7,7.4,0.6c2-0.1,5.5-0.2,7-1.7c0.5,1.1,1.5,2,2.6,2.4
				c-1,0.9-1.8,0.3-2.4,1.6c-0.1,0.1-0.3,1.7-0.3,1.9c-0.1,0.6-0.9,1.1-0.6,1.8c0.5,1.3,1.8,0.4,2.7,0.6c1.6,0.2,2,1.6,3.1,2.6
				c-2.6-1.4-5.4-2.6-8.4-3.2c-2-0.5-6.4-1.5-8.2-0.1c-1.5,1.2,0.6,2,1.8,2.6c2.7,1.5,5.5,2.6,8.5,3.4c-0.8-0.1-4.4-0.6-4.3,1
				c0.1,1.3,5.4,2.3,6.3,2.6c-2,0-7.8,0.4-8.5,3.1c-0.7-0.8-4.7-5.6-5-2.7c-1.5-1.2-2.2-0.3-1.4,1.3c-1.5-0.3,0,1.2,0.4,1.4
				c-1.5,0.1-2.6-1.6-3.5-2.5c-1.3-1.2-2.5-2-4.1-2.6c-4.7-1.9,0,4.2,0.4,5.5c-1-0.3-2.8-1.4-3.4,0c-0.4,0.8,0.9,2.3,1.4,2.9
				c-2.8,1.1-3-7.1-3.7-8.3c-0.9-1.4-2.3-2.3-3.5-0.7c-1.2,1.5-0.6,4-0.5,5.7c-0.9-1.4-3.9-7.1-6.4-6.1c-2.3,0.9,0.2,5.4,0.7,6.9
				c-0.6-0.3-1.5-0.2-1.4,0.6c-0.8-1.1-8.2-9.4-10.1-6.9c-1.3,1.8,5.4,7.1,6.4,8c-1.5-0.9-8-4.6-10.1-3.2c-1.4,0.9,5,5.3,7.4,6.3
				c-3.6-0.5-7.1-1.7-10.7-2.3c-1-0.2-5.8-0.1-4.9,1.8c0.5,1.2,10.9,4,14.3,4.2c-1.1,0.2-5.3,1.2-6.4,1.3c-1.4,0.1-3.2,0.3-3.9,1.7
				c-2.3,4.3,7.6,2.4,9.2,1.6c-0.5,0.4-1.9,2.6-1.7,3.2c0.4,1.1,1.5,1.9,2.6,1.8c2.4-0.2,4-3.2,6.2-4c-1.3,1.3-2.3,3.7-0.9,5.3
				c1.4,1.6,3.5,0.4,5-0.5c1-0.6,1.6-1.1,2.8-1.2c1.3-0.1,2.6,0.5,3.9,0.4c2.3-0.1,5.4-2.3,7.6-1.7c-1.4,0.6-11.4,5.4-9,8.1
				c1.4,1.6,5.7-1.6,6.8-2.4c0.9-0.7,2.1-2.1,3.3-2.2c1-0.1,1.8,0.8,2.9,0.6c-1.3,2-2,4.1-4,5.5c-1.7,1.2-3.5,2.4-4.9,3.9
				c-0.3,0.4,0,0.3-0.5,0.6c-0.5,0.3-0.9,0.3-1.4,0.4c-1.4,0.2-3.1,0.1-4.5,0c-0.8,0-2.4-0.5-3.2-0.1c-1.2,0.6-0.6,1.6,0.4,2.1
				c-1.1,0.2-12.4,0.6-10.8,3.2c-3.3-1.2-6.2-1.6-9.6-2.3c-1.7-0.3-5.9-3.3-5.7,0.3c0.1,2.4,3,4.5,4.9,5.3c3.2,1.4,6.8,0.3,10.2,1.3
				c-1.1,0.5-5.1,2.2-5.3,3.6c-0.2,1.5,1.6,1.4,2.7,1.3c2.3-0.1,11.2-0.1,13.6-0.1c-1.8,1.3-7.7,7-7,8c-4-1.4-8.1-1.8-12.2-2.7
				c-4.1-0.9-7.6-2.6-11.9-2.9c1.3-2.9-7.6-3.3-8.6-3.2c1.8-1.1,4.6-1.2,6.6-1.9c1.8-0.6,3.9-1.3,5.2-2.7c2.1-2.2-0.6-2.2-2.3-1.7
				c-2.3,0.6-4.6,1.4-6.6,2.7c4.1-3.5,7.6-7.2,12.3-9.8c1.2-0.7,10.5-6.7,6.6-7.9c-1.9-0.6-5,1.8-6.4,2.7
				c-2.3,1.5-10.6,8.1-12.7,9.7c-2.2,1.6-4.1,3.6-6,5.6c0.4-1.4,0.2-3.6,1.1-4.7c1-1.2,3.5-1.9,4.8-2.8c1.7-1.1,8.3-7.2,2.5-6
				c1.8-1.5,3.6-3.1,4.4-5.3c0.9-2.5,0.1-4.1-2.7-3.2c-5,1.6-8.9,5.6-12.2,9.5c1.1-2.6,1.4-4.5,3.9-6.2c2-1.4,3.9-2.8,5.2-5
				c1.3-2.1,0.5-3.3-1.9-2.4c-2.5,1-4.5,2.8-6.6,4.4c2.7-3.1,4.8-5.8,8.1-8.2c2.6-1.9,5.8-3.9,7.3-6.9c2.1-4-2.9-2.2-4.8-1
				c-3.2,2.1-5.7,5.1-8.1,8c0.3-1.6,0.4-3.8-1.8-2.7c-0.3,0.1-0.5,0.3-0.8,0.6c1-1.6,1.8-3.4,1.6-5.3c-0.2-1.7-0.3-1.7,1.1-2.9
				c0.8-0.6,1.6-1.2,2.3-1.8c1-0.9,4.4-3.5,3.3-5.1c-2-2.9-6.8,2.1-7.9,3.5c1.2-2.9,2.8-5.5,4.5-8.1c0.8-1.3,3-4.6,2-6.3
				c-1-1.7-3.1,0.4-3.9,1.3c-0.9,0.9-1.4,2.5-2.4,3.3c-0.7,0.6-1.5,0.5-2.4,0.7c1.3-0.7,7.9-6.6,2.9-6.3c1.7-1,3.3-2.3,5-3.3
				c1.3-0.8,3.3-1.5,4-3c0.9-1.8-0.2-1.8-1.7-1.3c-1.7,0.6-3.3,1.5-4.9,2.3c1.7-1.9,9.8-9,10.4-9.7c0.4-0.5,0.9-1.6,0.3-2.1
				c-0.7-0.5-1.7,0.5-2.2,0.7c-2.2,1.2-4.2,2.8-6.1,4.4c0.5-1.3,2.2-4.9,1.2-6.2c-1.8-2.3-4.8,5.4-5,6.3c0.3-2.2-0.4-4.7,0.1-6.7
				c0.4-1.7,2-3.2,2.8-4.8c0.5-1,2.3-3.5,1.7-4.6c-0.8-1.5-2.2,0.1-3,0.9c-3.1,3.2-5.5,7.1-8,10.8c-3,4.5-6.8,7.1-10.8,10.6
				c1.3-2.6,1-5.2,3.2-7.3c0.9-0.9,1.8-1.8,2.5-2.9c0.5-0.6,1.8-1.9,2.1-2.6c0.2-0.5,0.3-1.5-0.3-1.9c-0.7-0.4-2.5,1.2-3.1,1.5
				c-2.8,1.2-5.1,2.6-7.4,4.6c1.4-5.1,6.5-8.4,7.6-13.7c0.4-1.8-0.2-4.2-1.9-2.2c-2,2.3-3.8,4.1-5.2,6.8c0.5-2.1,0.2-4.9,1-6.8
				c0.6-1.3,1.9-2,3.1-2.7c1.6-0.9,5.1-2.2,5.5-4.3c0.6-3.7-4.8-1.3-6-0.5c-3.3,2.2-6.1,5.1-8.2,8.4c0.8-2,1.8-4.6,3.2-6.2
				c1.4-1.7,3.7-2.4,5.1-4.2c0.6-0.8,1.9-2.7,0.5-3.3c-1.1-0.5-4.9,2.4-5.8,2.9c1.1-1.7,1.3-2.8,2.9-4.1c1.4-1.1,2.9-2.3,4.1-3.6
				c0.5-0.6,2.2-2,1.3-3c-0.7-0.7-2.2,0.4-2.8,0.7c2.6-2.1,5.5-4.3,7.4-7.2c0.6-1,2.3-3.9,1-4.9c-1.9-1.6-4.9,2.5-5.8,3.6
				c-1,1.2-1.9,2.8-3.2,3.8c-1.4,1.2-3.2,1.3-4.8,2c2.4-2.9,4.7-5.8,7.1-8.7c1.2-1.6,2.3-3.2,3.7-4.7c0.7-0.7,2.1-1.8,2.1-2.9
				c0-3.3-4.5,0.8-5.2,1.8c-2.1,2.9-3.2,6.4-5.3,9.3c0.1-1.6-2.3-0.2-2.9,0.2c-1.9,1.3-2,3.4-3.4,5c-0.5-1.1-1.7-0.7-2.5-0.2
				c0.1-1.8-0.5-2.5,1.2-3.6c1.2-0.8,2.3-1.4,2.8-2.8c0.4-1.1,0.5-2.5-1-2.5c-1.2,0-2.3,1.8-3.1,2.4c-0.1-1.9,4.8-5.1,2.8-7.3
				c-1.2-1.4-3.1,1.2-3.6,2.3c-0.1-1.4-0.7-3.1-0.4-4.5c0.3-1.4,1.7-2.4,2.7-3.4c1.9-1.8,4.4-3.5,5.3-6.1c0.2-0.7,0.6-1.8-0.2-2.2
				c-1.1-0.6-2.2,1.1-2.8,1.7c-1.1,1.2-2.2,2.4-3.2,3.7c-0.8,1-1.4,3.1-2.3,3.7C2.2,96,2.2,92.9,2,90c0-0.5-0.2-3.6-1.2-2.6
				C0.9,84.2,1.5,81,1,77.8c-0.1-0.4-0.3-1-0.6-1.7v332.5l540.5,0V75.1C540.1,73.7,539.1,72.8,538.6,74.9z M510.6,239.6
				c-0.4-0.4-2.4-1.7-2,0c-0.9-1.3-1.1-3.1-2.1-4.5c1.5-0.3,2.9-0.3,4.4-0.5C510.8,235.1,510.6,238.7,510.6,239.6z M415.9,149.3
				c0.1,0.2,1.1,1.3,1.6,1.9c-0.8-0.6-1.7-1.1-2.7-1C415,149.8,415.7,149.4,415.9,149.3z M389.7,155.4c-0.2,1.7-0.4,3.5-0.1,5.3
				c-0.8-2-2.1-10.3-1.1-11.5c0.5,0.5,1,1.2,1.3,1.8c0,0.1,0.5,1.1,0.5,1.4C390.3,153.4,389.8,154.5,389.7,155.4z M394.1,158.1
				c-0.8,0.8-0.8,3-0.8,3.6c-0.1-0.1-0.6-5.9-0.6-7C393.1,155.4,394.5,157.7,394.1,158.1z M377,194.1c0.1-0.9,0.8-1,1.6-0.4
				c0.7,0.6,0.7,1.3,0.7,1.3C378.9,195.1,377.9,193.6,377,194.1z M161.3,85.5c0.5,0.3-1,0.7-1.4,0.9c-0.8,0.4-1.5,0.9-2.2,1.5
				c0-0.4,0-0.7-0.1-1C158.8,86.6,160.2,86.3,161.3,85.5z M139.2,54.3c0,0,0,0.1,0,0.1c0.1,0.1,0.1,0.3,0,0.1
				c-0.3-0.7-0.4-1-0.4-1.1c-0.9-2.3-1.8-4.7-2.4-7.1c1,1.3,2.5,2.3,3.1,3.9c0.6,1.7,0.3,4.1,0.4,5.9
				C139.8,55.6,139.6,54.7,139.2,54.3z M108.2,138.7c0.3,1.2,2.2,1.2,2.7,2.4c0.7,1.7-0.5,3.6,0.6,5.3c-0.5,0-2.3-2.3-2.6-2.7
				c-0.7-1-1.2-2.1-1.9-3.1c-1.6-1.8-3.7-3.2-5.8-4.4c1.2-0.1,11.5-2.4,12-0.7C111.8,135.8,107.7,136.7,108.2,138.7z M20.1,163.1
				c-0.1,0.2-0.2,0.2,0.3-0.3c0.7-1,1.5-1.9,2.4-2.7c-0.4,1.3,0.1,3.8-0.9,4.7c-0.5,0.5-1.4,0.3-2.1,0.4c-1.1,0.3-2,0.8-3,1.3
				C18,165.4,19.1,164.3,20.1,163.1z M24.2,184.5c-0.1,0-0.2,0-0.3,0C24.1,184.5,24.1,184.5,24.2,184.5
				C24.2,184.5,24.2,184.5,24.2,184.5c-1-0.1-2,0.7-2.5,1.6c-0.8-1-2.2-1.4-3.4-1.3c1.2-1.7,1.3-2.6,3.5-3.2c1.9-0.5,3.8-1.1,5.6-2
				c-0.9,1.8-1.6,3.6-2.4,5.4C24.9,184.6,24.6,184.6,24.2,184.5z M80.8,238.7c-1.6,2-2.9,1.8-5.3,2L80.8,238.7z M46.2,252.9
				c-0.1,0-0.2-0.1-0.3-0.2c0.1,0,0.2,0,0.2,0c0-0.1,0.1-0.1,0.2,0c1.4,0.2,4.2,0.8,5,0.2c1.1-0.8,0.2-1.7-0.8-2.4
				c1.1-0.7,2.2-1.5,3.1-2.4c-0.6,1.1,0.5,1.2,1.4,1.2c3.3-0.6,6.4-2,9.1-4c-2,3.2-5.1,5.9-8.3,7.8c-3,1.8-6.6,1.1-10.1,1.1
				C46.8,254.3,46.3,253.4,46.2,252.9z M31.3,237.9c1.1-0.2,1.9-1,2.9-1.2c0.9-0.2,2.9-0.1,3.7,0.3c0.8,0.3,1.4,1.1,2.1,1.6
				c1.3,0.9,2.7,1.4,4.1,1.9c-3,1.2-4.7,3.8-6.2,6.7c-1.1-0.8-2.9-0.8-3.5-2.2c1.7-0.2,2.4-0.6,1.1-1.9c-1.2-1.2-4.2-1.9-5.8-2.4
				C30.6,240,31.2,239,31.3,237.9z M74.7,327.5C74.7,327.5,74.7,327.5,74.7,327.5c-1.9,0.8-3.2,2.5-4,4.3c-0.6-1.7-1.9-3.2-1.3-5.1
				c0.4-1.1,1.8-1.6,2-2.7c0.9,1.6,2.9,2.3,4.6,2.7C75.7,326.9,75.2,327.4,74.7,327.5z M74.9,286.8C75,286.9,75.1,286.9,74.9,286.8
				L74.9,286.8z M82,279.6c-0.9,1.2-3.6,1.6-4.9,2.2c-1,0.4-2.9,1-2.4,2.4c0.6,1.6,4.1,1.6,5.3,1.5c-0.8,1-2.4,1.6-3.3,1.5
				c0.3,0-1.1-0.4-1-0.4c-0.4-0.1-0.8,0.1-1.2-0.1c0.1,0,0.1,0.1,0.1,0.1c0,0-1,0.2-2.4,0.4c-0.8,0.1-2-0.5-2.9-0.5
				c-1.1-0.1-2.2,0.1-3.3,0.2c-1.5,0.2-3.6,0.5-4.8,1.6c-1.3,1.2-0.6,2.2,1.1,2.5c-16.1,2.7-25.2,1.4-27.8,1.2
				c1.5-2-0.8-4.9-1.9-6.5c3.5,1.3,8.5,4.2,12.4,3.2c4.2-1.1-4.4-3.6-4.4-4.5c0.9,0.2,7.5,1.9,7-0.2c1.2,1,5.6,4.2,7.2,2.5
				c1.3-1.3-0.8-4-1.5-5.1c1.6-0.5,8.1,1.1,5.6-2.6c2.6-1.2,5.2-3.7,8.1-3.9c1.5-0.2,3,0.1,4.6-0.2c1.8-0.3,3.4-1.3,5.2-1.7
				c-1.1,0.9-6.7,6.1-5.5,8.1c1.6,2.6,10.7-5.2,12.1-6.1C83,276.4,82.8,278.4,82,279.6z M83.7,260.7
				C83.7,260.7,83.7,260.7,83.7,260.7C83.7,260.7,83.7,260.7,83.7,260.7C83.7,260.7,83.7,260.7,83.7,260.7z M83.1,260.5
				C83.1,260.5,83.2,260.5,83.1,260.5C83.2,260.5,83.2,260.5,83.1,260.5c0.1,0,0.2,0.1,0.4,0.2c0,0,0,0,0,0c0,0,0,0,0.1,0
				c-2.6-1-6-0.7-8.4-2.1c2.5-0.9,4.8-2.5,6.9-4.2c0.6-0.5,1.3-1.4,2.1-1.5c1.1-0.1,2,0.9,2.9,1.3c-1.2,0.3-9.3,1.6-7.2,4.3
				c0.5,0.6,6.3,1.2,8.6,1.2C86.3,261.7,85.8,261.6,83.1,260.5z M92.4,301.4C92.4,302.4,92.4,301.9,92.4,301.4
				c0.1,2.1-3.5,1.4-4.7,1.4c1.5-2.4,3.3-4.6,4.8-7C92.3,297.7,92.3,299.5,92.4,301.4z M93.1,278.9c-1.4,1.8-3.9,1-5.8,1.2
				c2-2,4.5-1.9,7.1-2.7C94,277.8,93.5,278.4,93.1,278.9z M99,260.6c-1.7,1.6-1.8,1.6-4.3,1.7c1.2-0.7,2.3-1.6,3.4-2.4
				c0.3-0.2,2.6-1.9,2.4-1.6c0.6-0.5,1.6-0.6,2.3-0.9C101.4,258.5,100.1,259.5,99,260.6z M104.8,191.6c0,0,0.1,0.1,0.1,0.1
				C104.8,191.6,104.8,191.5,104.8,191.6z M105.2,191.9c-0.1-0.1-0.1-0.1-0.1-0.1C105.1,191.8,105.1,191.8,105.2,191.9L105.2,191.9
				c0.1,0,0.1,0.1,0.2,0.1C105.3,192,105.2,191.9,105.2,191.9z M105,191.7c-1.1-1.1-2-2.3-3-3.6c1.6,0.6,3.4,0.4,4.7,1.4
				c1.3,1.1,2.1,3,2.9,4.5C108,193.2,106.3,192.9,105,191.7z M116.3,145.4c0-0.1,0-0.1,0-0.2c0,0,0,0,0,0c-0.4-1.4-0.9-2.8-1.5-4.2
				c0.9,0,1.7,0,2.6-0.1C116.8,142.4,116.6,143.9,116.3,145.4z M118.8,128c0-0.1-0.1-0.2-0.1-0.4c0,0,0,0,0-0.1c0,0,0,0,0,0.1
				c0,0,0,0,0,0C118.7,127.8,118.7,128,118.8,128C118.8,128.1,118.8,128.1,118.8,128C118.8,128.1,118.8,128.1,118.8,128
				C118.8,128.1,118.8,128.1,118.8,128z M118.6,127.6c-0.1-0.5-0.2-1.1-0.1-1.7c1.1,0.4,3.1,0.1,4.1,0.7c0.8,0.5,0.8,1.6,1.3,2.3
				c-1.1,0.6-1.3,0.5-2,1.7C120.8,129.6,119.2,129.1,118.6,127.6z M126.1,145c-0.2,0.7-4-0.4-4.8-0.3c0.1-1,0.2-2,0.1-3
				c1.5,0.5,2.9,1.3,4.5,1.6C125.3,143.9,126.3,144.4,126.1,145z M131.7,120.8c1.4-0.1,2.8-0.2,4.1-0.6c-0.4,0.8,0.9,1,1.2,1.5
				c0.5,1,0.3,2.5,0.5,3.6C135.8,123.6,133.8,122.1,131.7,120.8z M193.9,222.1C193.9,222.1,193.9,222.1,193.9,222.1
				C193.9,222.1,193.9,222.1,193.9,222.1C193.9,222.1,193.9,222.1,193.9,222.1C193.9,222.1,193.9,222.1,193.9,222.1L193.9,222.1
				c0.1,0,0.1,0,0.1,0c0.2,0,0.5,0.1,0.7,0.1c-0.2,0-0.4-0.1-0.5-0.1c0,0,0,0-0.1,0c0,0,0,0,0.1,0c-0.9-0.1,1.8,0.3,2.2,0.3
				c1.2,0.1,2.3,0.2,3.5,0.3c-1.5,0.8-3,1.6-4.4,2.7c-0.5-1.2-1.3-2.3-2.1-3.4C193.6,222,193.7,222.1,193.9,222.1z M192,227.8
				c-0.1,0.9-1.5,0.3-1.7,1.1c-0.6-0.5-1.3-1.6-2.2-1.7c-0.4-0.1-3.1-1.7-3.9-2.8C184.3,224.4,192.1,227.2,192,227.8z M177.4,196.2
				c1.2,0.8,2.4,1.6,3.7,2.3c-0.3,0.2-0.6,0.2-0.9,0.1c0.1,0-2.3,0.3-2.8,0.1c-1.4-0.6-2.5-3.8-3.3-4.9
				C175.5,193.7,176.4,195.5,177.4,196.2z M176.2,285.5C176.2,285.5,176.2,285.5,176.2,285.5C176.2,285.5,176.2,285.5,176.2,285.5
				C176.2,285.5,176.2,285.5,176.2,285.5z M176.4,285.5c-0.1,0-0.1,0-0.2,0C176.3,285.5,176.3,285.5,176.4,285.5
				C176.4,285.5,176.4,285.5,176.4,285.5L176.4,285.5C176.4,285.5,176.4,285.5,176.4,285.5C176.4,285.5,176.4,285.5,176.4,285.5z
				 M176.7,285.5C176.7,285.5,176.7,285.5,176.7,285.5C176.7,285.5,176.7,285.5,176.7,285.5L176.7,285.5
				C176.7,285.5,176.7,285.5,176.7,285.5z M176.4,285.5c-0.9,0-1.5-0.4-2-1.1c1.1,0.6,1-1.4,1-2c0.4,0.5,1.1,0.2,1.6,0.5
				c1,0.5,1.8,1.5,2.7,2.2C178.6,285.4,177.5,285.5,176.4,285.5z M182.9,255.7c0.1,0,0.3,0.1,0.4,0.1c-1.2-0.2,1.3,0,1.3,0
				c0.7,0,1.4-0.1,2.2,0.1c1.7,0.3,3.2,1.4,4.8,2c-1.3,0.2-1.1,0.4-2.3,0.3c-1.1-0.1-2.3-0.6-3.4-0.7c-2.5-0.4-4.3-1.1-6.4-2.5
				C180.8,254.8,181.8,255.5,182.9,255.7z M179.9,312.6c0.5,0.5,2.9,2.8,3,1c1.1,0.5,0.9,2.4,1.3,3.3
				C183.3,316.2,180,313.5,179.9,312.6z M185.5,273.5c0,0.1,0,0.1,0,0.2c0-0.2,0-0.3,0-0.5c0.1-0.3,0.2-0.5,0.4-0.8
				c0.5,3.5,0.8,8.4,4.6,10c-1.8,0.9-3.8,1-5.7,1.4C185,280.4,185.8,276.9,185.5,273.5z M191.4,315.9c-0.7-1.1-0.8-3.7-1.2-4.9
				c0.3,0.4,1.6,2.2,2.1,1.2c0.7,1.5,1.6,2.9,2.4,4.3C193.5,316.5,192.3,317.2,191.4,315.9z M194,280.9c-0.8,0.3-1.8,1.3-2.2,0.1
				c-0.2-0.5,0.6-2.9,0.6-3.5c0.7,1,1.6,1.9,2.2,0.7c-0.1,0.2,0.1-1.4,0.1-1.7c-0.1-0.9-0.6-1.9-1-2.7c1.4,1.9,2.9,3.8,4.3,5.7
				C196.9,280.2,195.4,280.4,194,280.9z M248.9,263.8C248.9,263.8,248.9,263.8,248.9,263.8L248.9,263.8z M253.1,262.8
				c1.8,0,3.3,1,5.1,1.2c-2,1.5-0.8,1.9,0.6,2.7c-3.1,0.7,1.4,1.7,2,1.8c0,0-3.1,1.2-1.2,1.5c-0.8,1.4-3.6-2.9-4.1-3
				c-2-0.4-2.7,2.4-3.1,3.9c-0.5-0.4-1.3-0.2-1.8-0.6c1.8,0.4,1-2.8,0.6-3.6c-0.5-0.9-2.7-1.6-2.5-2.6
				C249.6,263.2,253.9,264.8,253.1,262.8z M248.7,264.1L248.7,264.1C248.7,264.2,248.7,264.2,248.7,264.1
				C248.7,264.2,248.7,264.2,248.7,264.1C248.7,264.2,248.7,264.2,248.7,264.1C248.7,264.2,248.7,264.2,248.7,264.1z M205.1,276.3
				c0.2-0.4,0.3-0.9,0.4-1.4c1,1.4,3.8,6.1,5.8,6.1c2.2,0,1.6-3,1.3-4.3c1.3,1.7,2.7,3.5,4.3,4.9c0.8,0.7,3.3,1.8,3.7,2.8
				c-2.4-1.5-5-3.2-8-3.1c-3.2,0.1-6,1.2-9.2,1c2.4-3-1.4-2.8-1.6-5.1C203,277.7,204.5,277.3,205.1,276.3z M204.4,343.5
				C204.4,343.5,204.4,343.5,204.4,343.5C204.4,343.5,204.4,343.5,204.4,343.5C204.4,343.5,204.4,343.5,204.4,343.5
				c0,0,0.2,0,0.3,0.1c-3-0.7-3-3.6-3.5-6.3c1.1,0.2,1.9,1.4,2.6,2.2c1.4,1.4,2.7,2.8,4.4,3.9C206.6,344.3,206.1,343.9,204.4,343.5z
				 M217.5,287.3c-2.9,0.7-5.9,0.1-8.9,0.4C210.2,286.8,214.7,285.7,217.5,287.3z M216.9,316.9c0.6,0.1,0.6,0.1,0.4,0.1
				c0.1,0,0.3,0.1,0.4,0.1c-0.2-0.1-0.4-0.1-0.5-0.1c0,0-0.1,0-0.1,0c0.1,0,0.2,0,0.3,0.1c-0.2,0-0.3-0.1-0.4-0.1
				c-0.1,0-0.1,0-0.2,0c0,0-0.1,0-0.1,0c0,0-0.1,0-0.1,0c0,0,0,0,0.1,0c-1.6-0.2-3.6-0.4-4.9-1.2c-1.4-0.9-1.7-2.4-2.7-3.8
				C211.6,313.8,214,315.9,216.9,316.9z M214,339.5c-0.2,0.2-1.6,1.6-2.7-0.1C212.3,339.5,213.8,339.5,214,339.5z M212,316
				C211.7,315.9,211.8,315.9,212,316L212,316z M216.7,351.5c-0.6,0-1.7-0.1-1.9,0.7c-1.3-1.5-2.9-3.1-5-3.3c0.7-0.4,2.7,0.6,3.6,0.6
				c1.6,0.1,3.3-0.1,4.9-0.5c-0.6,0.5-1.3,1-1.9,1.6C216.2,351,216.3,351.3,216.7,351.5z M226.7,297.6c0-0.4-0.1-0.7-0.5-0.8
				c-0.4-0.1-0.4-0.4,0.1-0.8c-0.1-0.4,0.3-0.7,0-1.1c-0.4-0.8-1.6-0.9-2.3-0.8c-3,0.1-4.2,4.1-7,4.1c0.4-0.2,1.2-0.5,1.3-1.1
				c0-0.5-0.3-1.2-1-1c0.7-0.7,1.1-1.6,2-2.1c1-0.5,2.3-0.3,3.3-0.3c2.4-0.2,4.7,0.1,7.1,0.1C229.4,293.9,227.2,296.8,226.7,297.6z
				 M232.1,317.2c0.7-1.7,1.9-1.6,2.1-1.6C234.2,316.1,232.8,316.9,232.1,317.2z M235.9,297.6c-1.1,0.2-2.1,0.1-3.2,0.3
				c0,0-0.1,0-0.1,0c0.9-0.6,1.7-1.4,2.8-1.7c1.3-0.3,2.6,0.3,3.9,0.3C238.2,296.9,237.1,297.4,235.9,297.6z M247.2,303.6
				c-0.7-0.3-1.4-0.7-2.1-1c0,0,0.1,0,0.1,0c0,0,0,0,0,0c0,0,0,0,0,0c0,0,0,0,0,0c0,0,0,0,0.1,0c-0.7-0.2-1.5-0.5-2.2-0.8
				c1.5,0.3,5.7-0.4,6.8,0.7C249.4,302.5,246.6,302.9,247.2,303.6z M253.8,306.3c-0.4,0-1.4-0.6-1.6-0.7c1,0,2-0.3,3-0.3
				C254.8,305.9,254.7,306.2,253.8,306.3z M266.9,291c-1.7,0.7-3.7,0.4-5.4,1.3c-0.2,0.1-1,0-1.1,0.4c-0.3,0.9,0.9,1.5,1.5,1.7
				c-1.5,0.9,0.9,1.1,1.5,1.1c-0.6,0.7-1.2,1.5-1.8,2.2c-0.5-1.4-1.7-4.2-3.5-4.1c-1.4,0-2.1,1.9-1.7,3c-1.6,0-2.9,1.6-3.6,2.9
				c-0.1-2.4-0.9-5.1-2.6-6.8c-1.9-1.8-3.8-0.5-3.4,2c-1.5-1.6-3.3-2.9-4.9-4.4c-0.4-0.4-1.1-1.2-1.8-1.3c-0.6-0.1-1.7,0.3-0.7,1
				c-0.8-0.3-2.9-1.6-3.6-0.8c-0.6,0.8,0.3,2.1,0.6,2.8c-1.2,0.1-1.7-0.7-2.5-1.4c-1-1-2.1-1.7-3.2-2.6c1-0.6,5.3-2.4,4.9-4
				c-0.4-1.5-3,0.4-4.1,0.6c-1.9,0.4-3.2,0.4-5-0.3c-0.9-0.3-3.5,0.8-3.2,1.6c-0.6,0.1-1.2-0.7-1.6-1c2.2-0.6-2.1-7.2-2.7-8.2
				c1.2,0.8,2.4,1.6,3.8,2.1c0.6,0.2,1.2,0.4,1.8,0.5c0.2,0,0.7,0,1.1,0c2.4-0.6-0.3-3.5-1.7-4.4c-1-0.6-2-0.8-2.7-1.9
				c-0.8-1.3-0.8-3.3-1.1-4.8c2.3,1.5,4.5,3.1,7,4.2c0.9,0.4,4.1,2.2,4.8,1.4c1.9-2.1-4.7-7.6-5.6-8.9c1.1-0.1,2.1-1.3,3.2-1.3
				c1,0,2.5,1.3,3.4,1.7c-1.8-0.1-1.9,0.8-0.1,1.1c1.9,0.4,3.9,0.1,5.5,1.6c-1.3,0.2-3.5-0.7-4.7,0c-1.1,0.7-0.2,0.8,0.4,1.3
				c1.3,1,2.1,1.4,3.9,1.5c1.8,0.1,2.2,0.5,3.6,1.6c-1.3,0.3-7.3,1.5-4,2.9c2.8,1.2,6.5,0.3,9.4,0.4c-2.9,0.6-6,1.1-8.6,2.5
				c-1.3,0.7-3.4,2.1-1.1,2.8c1.4,0.4,3.3-0.3,4.7-0.5c1.4-0.2,2.8-0.3,4.3-0.6c1.4-0.3,1.5-0.2,2.5,0.8c-0.9,0-1,0.6-1.5,0.8
				c-0.6,0.2-1.3,0.2-1.9,0.5c-1.2,0.7-1.9,1.8-0.4,2.4c1.1,0.4,3-0.5,4-0.8c1-0.3,4.2-1.8,5-1.3c-0.5,0.4-2.3,0.9-2.1,1.8
				c0.2,1,2.7,0.7,3.3,0.7c-4.1,2.9,2.9,2.8,4.5,2.6c1.8-0.3,3.7-0.6,5.4-1.2c1.6-0.6,1.4-0.8,2.3,0.6c-1.6,0.3-5.1,0.6-6.2,1.9
				c-0.8,0.9-0.5,0.9,0.7,1.2c1.8,0.4,4.2,0.1,5.9-0.3C267.7,290.3,266.6,291.1,266.9,291z M269.1,225.8c0.1,0.5,0.5,0.8,0.6,1.3
				c0,0.2,0,0.5-0.1,0.7c0,0.5,0,0.7,0,0.6c0,0,0,0,0,0c0,0,0,0,0,0c0,0,0,0,0,0c-0.3-0.5-0.3-0.7-0.3-0.8c-0.6-1.4-1-2.8-1.5-4.2
				c1,0.2,1.9,0.4,2.6,1.2C268.8,224.1,268.9,224.7,269.1,225.8z M273.3,230.9c-0.4,0.5-1.4,0.2-1.6,0.9c-0.2-1.1-0.4-2.3-0.5-3.5
				c0.8,0.8,1.6,1.6,2.5,2.3C273.5,230.7,273.4,230.8,273.3,230.9z M276.1,237.7c-0.1,0.9-0.1,0.5-0.1,0.4c-0.6-0.5-2.3-1.5-1.7-3.7
				c0.9,0.5,1.6,0.5,1.9,1.6C276.4,236.5,276.1,237.1,276.1,237.7z M276.9,233c-0.3,0.6-1.8-0.2-2.3,0c0.1-0.5,0.1-1.1,0.1-1.6
				c0.7,0.5,1.5,1,2.3,1.4C277,232.9,276.9,233,276.9,233z M285,223.1c-1.4-1-3.1,1.2-3.7,2.2c-0.2-1.6-0.8-3.4-0.8-5
				c1.5,0.3,3,0.2,4.5,0C284.9,221.3,284.9,222.2,285,223.1z M293.2,199.8c0,0,0,0.1,0,0.2c0,0.1-0.1,0.2-0.1,0.3
				c0-1.3-0.7-3.5-2.5-2.6c-1.2,0.6-0.9,2.6-1.2,3.7c0-1.4-0.5-2.9,0.4-4.2c0.9-1.2,2.6-1.4,3.8-2.3c0,1.1-0.5,2.1-0.5,3.1
				C293.1,198.5,293.2,199.5,293.2,199.8z M305.9,284.7c-0.9,0.3-2.7,1.6-3.6,1.4c1.5-0.6,4.9-2.1,3.4-4.2c-1.7-2.4-5.8,0.3-7.6,1.3
				c1.1-0.9,2.1-1.5,3.4-2.1c0.2-0.1,1.9-0.5,1.2-0.9c1-0.6,2.5,1,3.2,1.4c1.8,1.1,3.9,1.6,5.9,2.1
				C309.8,283.8,307.8,284.1,305.9,284.7z M373.1,239.8c-0.2,0.1-0.3,0.1-0.4,0c-1.2,0.1-1.3-0.8-2.3-1.3
				C371.3,239,372.2,239.4,373.1,239.8z M360.2,257.2c-0.2,0.2-0.3,0.2-0.3,0.2c-2.7,1.6-3.6-2.6-4.4-4.4c1.4,0.4,2.7,0.5,4.1,0.5
				c0.7,0,1.4,0,2.1-0.1c-0.1,0.4,0,0.6,0.4,0.8c0.4,0.2,1.7,0.2,1.8,0.8c0.1,0.5-1,0.8-1.2,1.2
				C361.4,254.5,360.6,256.6,360.2,257.2z M364.8,271.7c0.3-0.1,0.8-0.1,1.2-0.1c-0.2,0-0.5,0-0.8,0.1c0.4,0,0.8,0,1.1-0.1
				c0.4,0.1,0.8,0.2,1.2,0.3c-1.1,0.2-4.5,0.2-3.6,2c0.7,1.2,4.5,0.5,5.5,0.5c-1,0.1-10.7,1.3-10.1,2.3c-1.5-2-3.3-3.8-5.5-5.1
				C357.5,271.6,361.1,271.9,364.8,271.7z M362.1,281.4c-0.4-1-0.9-1.9-1.4-2.8c3.3-0.4,6.6-0.4,9.6-0.9c-1.7,0.3-3.1,1.3-4.7,1.6
				C364,279.5,361.9,278.8,362.1,281.4z M338.6,281.3c1.2-0.2,5.8-0.2,8.4-0.1c-1.8,0-5-0.1-6.1,1.7c-1.4,2.3,4.4,0.5,1.9,2.5
				c-0.6,0.5-2.7,0.5-2.6,1.7c0.1,0.8,1.2,0.8,1.8,0.8c1.2,0.1,1.9-0.4,2.9,0.6c1,1,1.1,3.6,1.5,4.9c-3.4,0.4-3.5-2.9-6.4-4.1
				c-1-0.4-2.1-0.6-2.5,0.6c-0.4,1.4,1.4,3.1,2.1,4.1c-2.1,0.1-4.9-2.3-6.9-3c0.5-0.8,2.9-0.5,0.5-1.4c-2.1-0.8-5.4,0.3-7.5,0.2
				C330,287,334.3,284.1,338.6,281.3z M318.6,294.7c1.6-1,2.7-1.8,4.8-2.1c0.8-0.1,1.6-0.2,2.5-0.2c0.1,0,0.5,0,0.7,0
				c2.1,0.3,4,1.2,6,1.8c-2.9,0-5.8,0.2-8.8,0.4c-1.4,0.1-2.8,0.2-4.1,0.5c-1.3,0.3-2.4,0.9-3.8,0.8
				C316.9,295.6,317.8,295.2,318.6,294.7z M326.2,312.3C326.2,312.3,326.1,312.3,326.2,312.3C326.1,312.3,326.2,312.3,326.2,312.3
				c-0.7-0.2-1-0.9-1.5-1.4c1.3,0.4,2.6,0.9,3.7,1.7C327.7,312.5,326.3,312.4,326.2,312.3z M328.3,306.7c0.1,0,0.1,0,0.2,0
				C328.4,306.7,328.4,306.7,328.3,306.7c0.2,0,0.2,0.1-0.4,0c-0.2,0-0.2,0-0.1,0c-1.1,0-2.2-0.1-3.4,0c-0.8,0.1-0.6,0.5-1.4,0.3
				c1-0.3,0.8-0.8,0.1-1.1c-0.8-0.3-1.7,0.4-2.5,0.5c0.8-0.4,2.4-0.8,1-1.5c-0.5-0.2-1.6,0.4-2,0.4c-0.9,0.1-1.4,0-2.2-0.5
				c2.1-0.3,3.1-0.5,5.1,0.3c1.9,0.8,3.9,1.3,5.9,1.6c-0.2,0-0.3,0-0.5,0C328.2,306.7,328.3,306.7,328.3,306.7z M336.3,311.4
				c0.1,0,0.2,0.1,0.3,0.2C336.4,311.5,336.3,311.4,336.3,311.4z M336.6,311.6c-1.1-0.8-2.1-1.7-3.1-2.6c3.2,0.2,4.2,1.9,6.4,4.1
				C339,312.2,337.6,312.4,336.6,311.6z M342.4,305C342.2,305.2,342.3,305.2,342.4,305L342.4,305z M342.4,305
				C342.4,305,342.5,305,342.4,305C342.5,305,342.5,305,342.4,305C342.4,305,342.4,305,342.4,305z M342.7,304.8
				c-0.1,0-0.1,0.1-0.1,0.1C342.6,304.9,342.7,304.8,342.7,304.8C342.7,304.8,342.7,304.8,342.7,304.8c-1.4,1.1-2.2-1.9-3.3-2.1
				c-1.4-0.1-0.9,1.7-0.5,2.6c-1.1,0.2-2.2,0.6-3.4,0.5c-1.2-0.1-1.7-0.5-2.8-1.2c-0.6-0.4-3.9-2.2-4-0.6c-0.7-0.3-1.3-0.6-2-0.8
				c3.3-0.6,6.8,0.7,10.1-0.3c0.6-0.2,2.3-0.6,1.5-1.5c-0.3-0.3-1-0.1-1.4-0.2c-0.3-0.1-0.6-0.5-0.9-0.6c2.8-0.6,5.9-2.1,8.6-0.5
				c-1.2,1.1,3,1.8,3.5,2.1c-0.9,0-2.9-0.9-3.6-0.1c-1.2,1.2,0.9,1.6,1.8,1.8c-0.1,0-0.7,0-0.2,0c-1.6,0-2.2,0-3.5,1
				C342.5,304.9,342.6,304.9,342.7,304.8z M358.5,310.4c0,0-0.1,0-0.1,0c0.2,0,0.3,0,0.5,0C358.7,310.4,358.6,310.4,358.5,310.4z
				 M358.2,310.4C358.2,310.4,358.2,310.4,358.2,310.4c0,0,0.1,0,0.2,0c-1,0.1-2,0.5-3,0.1c-0.5-0.2-0.7-0.9-1.2-1
				c-1.7-0.6-1.2,0.7-2.2,1.6c-1,0.8-3.4,0.9-4.4,0.3c-0.7-0.4-1-1.2-1.4-1.8c-0.6-0.9-1.4-1.1-2.1-1.9c3.2-0.4,6.6-1.6,9.9-1.4
				c2.8,0.2,5.6,2.4,8,3.6C360.8,310.2,359.5,310.3,358.2,310.4z M364.8,303.1c-2.6-2.9-5.4-5.7-8-8.6c0.5,0,2.5-0.3,2.5-1
				c0-1.2-4.6-0.9-5.2-0.8c-1.3,0.1-3.7,1-4.9,0.4c-1.3-0.7-1.9-3.9-2.5-5.2c1-0.1,2.6-0.7,3.5-0.4c0.9,0.3,0.9,1.2,1.4,1.9
				c1.2,1.6,3.6,2.3,5.1,2.8c4.8,1.7,9.7,3,14.6,4.3c-1.4,0.4-6.2,0-8.2,1.3C362.1,299.6,364.4,301.8,364.8,303.1z M371.8,284.8
				c-0.1-0.1-0.1-0.1-0.1-0.2C371.7,284.7,371.8,284.8,371.8,284.8C371.8,284.8,371.8,284.8,371.8,284.8L371.8,284.8
				c0,0,0.1,0.1,0.1,0.1c0,0,0,0,0,0C371.9,284.9,371.9,284.9,371.8,284.8z M372.1,285.1C372.1,285.1,372.1,285.1,372.1,285.1
				C372.1,285.1,372.1,285.1,372.1,285.1C372.1,285.1,372.1,285.1,372.1,285.1z M372.1,285.2C372.1,285.2,372.1,285.2,372.1,285.2
				C372.1,285.2,372.1,285.2,372.1,285.2C372.1,285.2,372.1,285.2,372.1,285.2z M371.7,284.6c-0.9-1.1-1.7-2.4-2.7-3.4
				c1.2,0.2,2.5,0.3,3.8,0.2c-1.8,0.8-2.7,1.9-0.2,2.3c0.7,0.1,1.5-0.1,2.1,0.4c0.7,0.8,0.3,3.2,0.5,4.1
				C374,287.1,372.8,285.9,371.7,284.6z M370.1,259.8c-0.9,0.4-1.4,1.3-2.5,1.3c-1.4,0.1-1.3-0.2-2.2-1.4c1.9-0.1,3.8-0.3,5.7-0.9
				c1.9-0.6,2.7-1,4.6-0.1C373.8,258.9,371.8,259.1,370.1,259.8z M382.8,180.9c-0.2-0.5-0.3-1.4-0.3-2.5
				C382.5,179.3,382.8,180.2,382.8,180.9z M376.3,216.1c1.8,0.9,3.6,1.3,5.4,2.1c-1.1,0.1-3.2,0.1-2.5,1.8c-0.8-0.4-2.2-0.6-2.4-0.9
				C376.7,218.1,376.5,217.1,376.3,216.1z M382.4,225.9c-0.6-1.5-1.4-3-2.2-4.4c1,1,2.4,1.6,3.8,1.9
				C382.3,223.4,382,224.8,382.4,225.9z M379.1,249c0.9,0.2,1.8,0.4,2.7,0.5c0,0,0,0,0.1,0c0,0,0,0,0,0c0,0,0,0,0,0c0,0-0.1,0-0.1,0
				c0,0,0,0,0,0c-0.3,0-0.2,0,0.2,0c0.9,0.1,1.6,0.3,2.1,1.1C381.7,250.3,380.7,250.9,379.1,249z M384.1,200.8c-0.1-0.5,0-1-0.3-1.5
				c-0.3-0.6-1-0.5-1.4-1c-0.6-0.9-0.6-2.9-0.8-4c0.6,0.1,1.2,0.1,1.8,0.3c-0.1,0-0.1-0.1,0.2,0.1c0.4,0,1,1.3,1.3,1.5
				c-2.8,0.1-0.9,1.9,0.4,2.7C384.8,199.5,384.4,200.2,384.1,200.8z M387.1,205.3c0.1-1.6,0.1-3.1,0.1-4.7c0.6,0.5,1.4,1.4,1.3,1.7
				C386.9,201.7,387.2,204.4,387.1,205.3z M389.5,232.6C389.5,232.6,389.5,232.6,389.5,232.6C389.5,232.6,389.5,232.6,389.5,232.6
				c0,0.1,0,0.1,0,0.1c0,0,0,0.1,0.1,0.2c-0.6-1.9-0.7-3.2-0.9-5.2c0.5,0.1,1,0.1,1.6,0.2c-0.8,1.8,0,5,0,6.9
				C389.9,234.1,389.7,233.3,389.5,232.6z M391.8,204.9c0,0-0.1,0-0.1,0c0,0,0,0,0,0c-0.7,0.2-0.9-0.1-0.6-1
				c0.7,0.2,1.7,0.1,2.1,0.8C392.9,204.7,392.2,204.9,391.8,204.9z M411.4,154.8c0.2-1.2,0.3-1.5,1.2-2.3c0.1,1.1,0.4,2.2,0.7,3.2
				C412.9,155.5,411.8,154.6,411.4,154.8z M425,192.5c-0.3,1.2-0.1,2.4-0.4,3.6c-0.3,1-0.9,1.8-1.2,2.8c0.3-1.6,1.2-3.8-0.1-5.2
				C423.9,193.4,424.5,193,425,192.5z M419.4,185.3c0.2-0.1,1.4-0.7,2.1-0.9c-0.9,1.1-1.7,2.3-2.5,3.5
				C419.1,187,419.4,185.5,419.4,185.3z M419.6,217.2c0.4,1.5,1.3,3.1,1.5,4.8c0.2,1.7,0.2,3.4,0.3,5.1c-1.1-2.9-1.7-6.2-3.8-8.6
				C418.2,218.3,419.6,218,419.6,217.2z M422.4,242.3c-1.5-0.4-3.1-0.7-4.7-0.8c-0.2,0-0.3-0.1-0.5-0.1c1.9-0.6,3.7-1.2,5.6-1.9
				C422.6,240.4,422.5,241.4,422.4,242.3z M425.5,224c0.1-1.1,0.8-4.5,0.2-5.5c-1.2-1.8-1.6,0.3-1.7,1.3c-0.1-0.9-1.2-4.1-0.5-4.7
				c0.1-0.1,1-0.5,1.3-0.6c-0.8,1.4,0.9,3.1,1.5,4.4C427.4,221.2,426.6,222,425.5,224z M430.5,219.4c-0.2-0.4-2.4-4.6-3-2.3
				c-0.3-1-0.6-2.8-1.9-2.9c1.5-0.7,3.1-1.4,4.4-2C430.6,214.5,430.6,217,430.5,219.4z M486,285.9c1.3,0.3,2.1,0.8,3.6,0.7
				c1.6,0,3.1,0.2,4.7,0.2c-2.3,0.4-4.7,0.7-7,0.9c0.1-0.2,0.1-0.5,0-0.7c-0.4-0.7-2.7,0.2-4.9,1.2c-0.9,0.2-1.7,0.5-2.4,1
				c-0.2,0.1-0.3,0.2-0.4,0.3c-1,0.5-1.8,0.9-2.1,1.1c0.8-0.6,4-3.3,4.4-4.8C483.3,286,484.6,285.6,486,285.9z M471.9,275.9
				c0.1,0,0.4-0.3,0.7-0.6c0.4,0.2,0.9,0.5,1.3,0.7c-1.2,0.3-3.7,1.9-4.6,3.3c-1.3,0.2-2.7,0.3-4,0.4
				C467.4,278.2,469.4,276.8,471.9,275.9z M440.2,253.2c0,0.1,0,0.1,0,0.1C440.1,253.4,440.1,253.5,440.2,253.2
				c0.6-1.4,2.6-1.5,3.7-1.9c2.1-0.7,4.2-1.7,6.2-2.7c-0.2,1.3-0.6,3.8-1.7,4.7c-0.6,0.5-1.2,0.2-1.9,1.1c-1,1.2-0.8,1.2-2.4,1.1
				c-1.9-0.1-3.7-0.4-5.6-0.3C439.3,254.6,439.7,253.9,440.2,253.2z M432.4,285.7c1.2-2.9,2.4-2.8,5.2-3.2c1.8-0.3,4.3-2,1.3-2.8
				c-2-0.5-4.1-0.6-6.2-0.5c2.2-0.9,5.2-1.7,7.1-2.3c0,0,0.6-0.2,0.1,0c0.6-0.2,6.1-3.2,3.6-4c1.9,0.3,4.5,0.8,6.3,0.1
				c0.3-0.1,0.4-0.6,0.5-0.7c0.5-0.2,1.3,0.1,1.5-0.6c0.2-1.1-3.8-1.4-4.5-1.7c2.4-0.6,4.8-1.3,7.2-2.1c-1.3,1.8-2.2,3.8-3,5.8
				c-1.2-2.5-7.3,7.3-7.7,8c-0.5,0.9-1.5,3.2-2.8,3c-0.8-0.1-0.5-1.5-1.6-1.1c-0.6,0.2-0.4,1.3-1.2,1.4c0.1-0.5,0.5-1.6,0.1-2
				c-0.9-0.9-1.1,0.3-1.5,0.8C435.7,285.8,434.5,285.8,432.4,285.7z M438.2,318.2c0.1,0,0.2-0.1,0.3-0.1
				C438.4,318.2,438.3,318.2,438.2,318.2C438.2,318.2,438.1,318.2,438.2,318.2C438.1,318.2,438.2,318.2,438.2,318.2
				c-0.9,0.2-1.5-0.8-2.1-1.2c0.6-0.1,3.4-1.2,2.2-1.6c-0.5-0.2-0.9-0.4-1.3-0.7c1.7-0.3,3.4-0.5,5.1-0.8
				C441.5,315.5,440.1,317.8,438.2,318.2z M439.4,299.9c1.9-0.6,6.1-0.6,7.5-2.2c1.7-1.9-1.9-1.3-2.9-1.2c1-0.5,3.9-1.9,4-3.1
				c0.1-2.4-6.1-0.5-7.2-0.2c0.7-0.2,1.2-0.8,1.9-1c0.8-0.3,1.9-0.3,2.8-0.4c1.7-0.2,3.4-0.5,5.2-0.8c4-0.7,7.9-1.6,11.9-2.5
				c-0.5,0.7-2.4,2.6-2.6,3c-0.6-0.5-1.9-0.1-2.5,0.1c-2,0.7-3.5,2.3-4.7,4c-1.1,1.7-1.8,3.7-2.8,5.4c-0.4,0.7-0.7,1.3-1.4,1.9
				c-0.4,0.1,1.2-2.6,0.2-3.6c-1.3-1.3-3.5,1.1-4.6,1.8C443.7,299.4,440.6,299.8,439.4,299.9z M448.5,317.8c0-0.7-2.4-2.4-2.9-1.9
				c0-2-0.7-2.3,1.4-2.9c1.8-0.5,3.5-0.6,5.3-1.3c0.6-0.2,5-1.9,3.8-2.9c1.3-0.3,2.5-0.7,3.7-1.1c-1.4,0.7-2.6,1.9-3.6,3.1
				c-0.5,0.6-0.9,1.2-1.3,1.7c-0.1,0.2-0.6,0.9-0.8,1.2c-0.7,1.1-1.5,2.3-2.2,3.6C451.2,315.5,449.4,316.9,448.5,317.8z M453,330.9
				c-0.1,0-0.2,0-0.3,0c0.3-0.4,0.5-0.8,0.6-1.3c-0.1-0.2-0.1-0.4-0.1-0.6c0.7,0.1,1.4,0.2,2.1,0.4
				C454.6,329.7,453.7,330.2,453,330.9z M464.1,349.9c0.3-2.1-7.4-2.3-8.8-2.6c2.1-0.3,4.2-0.1,6.3-0.1c1.1,0,2.2-0.1,3.3-0.2
				c0,0,0.1,0,0.1,0.1c0.4,0.2,0.8,0.9,1.3,1.3C465.5,348.9,464.8,349.4,464.1,349.9z M458.8,339.3c0.3-0.6,1.2-2.6,1.2-2.7
				c0.3-0.5,0.8-0.8,1.1-1.1c0.5,0.3,0.7,0.2,1.2,0.1C461.3,336.9,460,338.1,458.8,339.3z M466.6,313.3
				C466.6,313.3,466.6,313.3,466.6,313.3C466.6,313.3,466.6,313.3,466.6,313.3C466.6,313.3,466.6,313.3,466.6,313.3z M463,310.2
				c-1.3,1.1-0.9,1.8,0.2,2.3c-2,1.6-4,3.3-6,5c0.7-1.1,5.6-9.9,3.2-10c0.5-0.2,0.5-0.8,0.2-1.1c1-0.1,2-0.1,3-0.1
				c1.5,0.2,3-0.2,4.4,0.5c1.3,0.6,2.1,1.9,3.2,2.7C468.9,309.4,465.1,308.4,463,310.2z M465,293.1c-0.2-0.2-0.4-0.3-0.6-0.5
				c0.6-0.9,1.1-1.9,1.4-3c0.2-0.6,2.5-1.7,3-2.3c1.7-2.1-6.8-1.6-7.3-1.5c1.3-0.4,2.4-0.5,3.5-1.4c1.1-0.9,1.6-1.2,3.1-1.5
				c1.6-0.4,3.4-0.7,5-1.2c1.3,0,2.6-0.2,3.9-0.4c1.5-0.3,4.1-1.6,5.4-0.7c-1.8,0.1-2.8,0.3-3.5,1.9c-0.5,1.2-0.2,1.9,0.6,2.5
				c-2.8,0.6-5.1,3.4-7.2,5C472.3,288.3,467.7,291.2,465,293.1z M479.6,324.9c-1.9-0.3-3.7-1.3-5.6-1.6c0.2-0.2,0.5-0.3,0.7-0.5
				c0.8,0,1.6,0,2.4-0.1c0.6,0,1.3-0.1,2.1-0.2c1.7,0.2,5-2,6.3-2.7c-0.9,1.1-1.9,2.2-2.7,3.3C481.7,324.3,481.2,325.1,479.6,324.9z
				 M490.5,323.2c-1.8,0.2-3.6,0.6-5.4,1c2.4-1.7,4.6-3.6,6.7-5.5C491.4,319.5,490.5,322.5,490.5,323.2z M492.6,298.4
				c-0.4,1.4-1.6,3.7-0.6,5.1c-4.7-0.4-9.3-1.6-13.7-3.4c0.9-0.1,2-0.1,2.8-0.5c0.8-0.4,0.9-0.9,1.4-1.1c0.7-0.3,2-0.4,3.1-0.7
				c0.2,0.4,0.8,0.6,2.2,0c1.4-0.6,2.7-1.5,3.8-2.5c1.1-1,1.9-2.6,3.4-3.1C493.9,294.2,493.3,296.3,492.6,298.4z M501.1,303
				l-2.8,0.8c0.4-0.9-1.2-1-1.8-1.1c1.2-1.2,1.8-2.9,3.3-3.7c-0.6,0.9,0.7,1.1,1.2,1c0.8-0.1,1.4-0.8,2-1.2
				C502.2,300.5,500.8,302.8,501.1,303z M509.2,305.4c-0.2-0.2-0.8-0.2-0.2,0c-0.6,0-0.9-0.2-1.7-0.1c-1,0.2-1.9,0.8-3,1.1
				c1.2-2.2,3.7-4,5.2-6.2C509.3,301.4,508.3,304.5,509.2,305.4z M521.5,192.3c0,2.4,0,4.8,0,7.2c-1.6-2.2-1.5-5.4-3-7.8
				L521.5,192.3z M515.6,299.9c-0.2,0.8,0,2.5-0.4,3.1c-0.5,0.8-2.4,0.9-3.2,1.3c2-2.1,3.2-4.9,4.3-7.7
				C516.4,297.9,515.9,298.9,515.6,299.9z M518.4,272.4l-3-3.8c2.2,0.5,4.4,0.9,6.7,0.7C520.7,270.2,519.3,271.3,518.4,272.4z"/>
		</g>
	</g>
</g>
</svg>
