<?xml version="1.0" encoding="utf-8"?>
<!-- Generator: Adobe Illustrator 19.2.1, SVG Export Plug-In . SVG Version: 6.00 Build 0)  -->
<svg version="1.1" id="tree" xmlns="http://www.w3.org/2000/svg" xmlns:xlink="http://www.w3.org/1999/xlink" x="0px" y="0px"
	 viewBox="0 0 642 409" style="enable-background:new 0 0 642 409;" xml:space="preserve">
<g>
	<path d="M188.2,254.5C187.2,254.2,185.9,255.2,188.2,254.5L188.2,254.5z"/>
	<path d="M449.2,284.2C449.1,284.2,448.2,284.3,449.2,284.2L449.2,284.2z"/>
	<path d="M38.1,320.3C37.1,321.3,38,321,38.1,320.3L38.1,320.3z"/>
	<path d="M33.5,347.1C33.5,347,33.4,347.3,33.5,347.1L33.5,347.1z"/>
	<path d="M207.9,140.7C207.8,140.6,207.8,140.5,207.9,140.7L207.9,140.7z"/>
	<path d="M200.4,260.6c-0.1,0.1-0.2,0.2-0.4,0.4C200.2,260.8,200.3,260.7,200.4,260.6z"/>
	<path d="M208.2,141.1c0.1,0.1,0.2,0.2,0.3,0.3C208.4,141.3,208.3,141.2,208.2,141.1z"/>
	<path d="M193.4,301.7C193.4,301.7,193.4,301.5,193.4,301.7C193.4,301.7,193.4,301.7,193.4,301.7z"/>
	<path d="M193.4,301.6c0-0.2,0-0.4,0-0.4C193.4,301.3,193.4,301.5,193.4,301.6z"/>
	<path d="M214.4,157.2c0-0.1,0.1-0.2,0.2-0.3C214.6,156.9,214.5,157,214.4,157.2z"/>
	<path d="M70.9,237.3c0-0.1,0-0.4,0-0.5C70.9,237,70.9,237.2,70.9,237.3C70.9,237.4,70.9,237.2,70.9,237.3z"/>
	<path d="M262,86.1c0.1-0.1,0.4-0.3,0.4-0.3C261.8,86.2,261.8,86.2,262,86.1z"/>
	<path d="M41.5,347.9c0,0-0.3,0.6-0.1,0.3C41.6,347.8,41.5,347.8,41.5,347.9z"/>
	<path d="M32.5,383.5C32.5,383.5,32.5,383.5,32.5,383.5C32.5,383.5,32.5,383.5,32.5,383.5z"/>
	<path d="M523.5,166.9c0,0,0.1,0,0.1,0.1C523.5,166.9,523.5,166.9,523.5,166.9z"/>
	<path d="M494.4,184.1C494.4,184.1,494.4,184.4,494.4,184.1C494.4,184.1,494.4,184.1,494.4,184.1z"/>
	<path d="M524,167.3C524.5,168,523.7,167.1,524,167.3C524,167.4,524,167.4,524,167.3z"/>
	<path d="M516.9,149.1C516.5,149.5,517.4,149.9,516.9,149.1L516.9,149.1z"/>
	<path d="M496.3,158.1C495.3,157.2,494.5,156.8,496.3,158.1L496.3,158.1z"/>
	<path d="M147,253C147.5,253.4,147.9,253.1,147,253L147,253z"/>
	<path d="M183.7,235.6c0.2-0.3,0.5-0.6,0.5-0.6C182.8,236.6,183.3,236.2,183.7,235.6z"/>
	<path d="M175.7,327.9C175.7,327.9,175.6,327.9,175.7,327.9C175.7,327.9,175.7,327.9,175.7,327.9z"/>
	<path d="M175.7,327.9C175.4,328,175.5,328,175.7,327.9L175.7,327.9z"/>
	<path d="M132.4,238.5c0,0.3,0.3-0.1,0.2-0.2C132.6,237.8,132.4,238.4,132.4,238.5z"/>
	<path d="M136.2,249.9C136.3,251.1,136.8,249.8,136.2,249.9L136.2,249.9z"/>
	<path d="M75.8,300C75.8,299.9,75.8,299.9,75.8,300L75.8,300z"/>
	<path d="M56.3,371.2C56.7,370.8,56.3,371.2,56.3,371.2C56.1,371.4,56.1,371.4,56.3,371.2C56.4,371.1,56.1,371.5,56.3,371.2z"/>
	<path d="M184.2,297.4c0-0.1,0.1-0.1,0.1-0.2C184.9,295.9,183.3,298.8,184.2,297.4z"/>
	<path d="M75.7,285.8C75.7,285.8,75.7,285.9,75.7,285.8C75.7,285.8,75.7,285.8,75.7,285.8z"/>
	<path d="M473.9,281.8C472.6,281.9,473.3,282,473.9,281.8L473.9,281.8z"/>
	<path d="M472.1,259.2c-0.1,0-0.3,0.1-0.4,0.1C471.8,259.3,471.9,259.3,472.1,259.2z"/>
	<path d="M473,284c-0.1,0-0.2,0-0.3,0C472.8,284,472.9,284,473,284z"/>
	<path d="M459.3,293C459.6,293.1,459.5,293.1,459.3,293L459.3,293z"/>
	<path d="M471.4,259.4C471.2,259.4,471.3,259.4,471.4,259.4L471.4,259.4z"/>
	<path d="M513.7,155.9C513.9,155.8,513.7,155.7,513.7,155.9L513.7,155.9z"/>
	<path d="M482.7,218.5C482.1,218.2,481.3,218.6,482.7,218.5L482.7,218.5z"/>
	<path d="M427.3,312.6C427.3,312.6,427.3,312.6,427.3,312.6L427.3,312.6z"/>
	<path d="M398.9,272C399.1,271.2,398.5,271.3,398.9,272L398.9,272z"/>
	<path d="M413.4,305.9C414.9,305.9,414.3,305.8,413.4,305.9L413.4,305.9z"/>
	<path d="M399.9,251.3c-0.4,0.1,0.3,0,0.3-0.1C400.1,251.2,400,251.3,399.9,251.3z"/>
	<path d="M394.7,258.8"/>
	<path d="M531.1,212.5C529.6,213.2,531.1,212.7,531.1,212.5L531.1,212.5z"/>
	<path d="M458,292.5c0.3,0.1,0.5,0.2,0.7,0.3C458.4,292.7,458.2,292.6,458,292.5z"/>
	<path d="M424.6,307.7C424.6,307.7,424.6,307.7,424.6,307.7C424.6,307.6,424.5,307.6,424.6,307.7z"/>
	<path d="M540.8,277.4c-0.2,0.1-0.4,0.1-0.5,0.2C540.4,277.6,540.5,277.5,540.8,277.4z"/>
	<path d="M539.5,305.5C538.2,306,538.9,306,539.5,305.5L539.5,305.5z"/>
	<path d="M541.5,253.3c-0.1,0.1-0.1,0.2-0.2,0.4C541.3,253.5,541.4,253.4,541.5,253.3z"/>
	<path d="M541.3,253.6C541.3,253.6,541.3,253.6,541.3,253.6C541.3,253.7,541.2,253.7,541.3,253.6z"/>
	<path d="M596.2,388.8c0.1-0.1,0.2-0.1,0.3-0.2C596.4,388.7,596.3,388.8,596.2,388.8z"/>
	<path d="M483.1,249.8C483.1,249.8,483,249.8,483.1,249.8C483.1,249.8,483.1,249.8,483.1,249.8z"/>
	<path d="M613.4,408.9c2.2-1.1-4-4-5-4.7c0.8,0.1,1.7-0.1,2.4,0c0.7,0.2,1.2,0.9,2,0.9c1.9-0.1,0.4-1.3-0.5-1.8c1-0.2,3,0,4.1,0.2
		c1.2,0.2,2.3,1,3.4,1.5c2.9,1.4,5.9,2.7,9.1,3.3c0.6,0.1,2.9,0.9,3.2,0.1c0.3-0.8-1-1.5-1.4-1.8c-2.5-1.7-5.3-3-8-4.3
		c1.3,0.2,2.9,0.5,4.2,0c0.5-0.2,1.8-0.7,0.9-1.4c0.6,0.1,14.6,1.5,13.9-0.3c0-0.1,0.6,1.7,0,0c-0.2-0.2-1.8-1.8-3.1-2.2
		c-1.7-0.6-3.5-0.6-5.2-0.7c1.2-0.9-1.7-1.6-2.2-1.7c-2.6-0.7-5.4-0.7-8.2-0.7c1.3-0.5,8-3.2,3.3-4c-3.4-0.6-7.9,1-11.2,1.5
		c0.3-0.4-0.1-1.1-0.6-1.1c0.9-0.4,3.2-1.2,3.6-2.2c0.7-1.9-2.2-1.2-3.3-1.1c-2.5,0.4-5.1,0.6-7.6,1.1c-1.8,0.4-6.1,2.8-7.8,2
		c0.4,0.2,4.6-2.4,4.9-2.6c2-1.1,4.7-2.4,6.3-4.1c0.6-0.7,0.7-1.7,1.3-2.3c0.8-0.8,1.5-0.1,1.3-1.5c-0.3-2.3-5-3.7-6.7-4.3
		c0.5-0.1,1.9-0.4,1.5-1.2c3.5,0.1,7-0.3,10.5,0.1c0.8,0.1,2,0.6,2.8,0.2c1.2-0.6,0.8-1.7,0-2.5c-1.9-1.8-5.4-1-7.7-0.7
		c-3.4,0.5-6.8,1.4-10.2,1.3c0.5-0.1,1.3-0.1,1.4-0.7c0.2-0.7-0.5-1-1.1-0.8c0-1.2,6-2.5,2.4-3.5c-1.6-0.4-4.3,0.6-5.9,1
		c-2.1,0.4-4.1,0.9-6.2,1.5c1.5-0.9,2.9-1.7,4.5-2.5c1.4-0.7,3.5-2.2,0.8-2.7c-2.1-0.4-4.7,1.1-6.5,1.9c-0.5,0.2-0.9,0.4-1.4,0.6
		c-0.6,0.6-0.9,0.6-1.1,0c-0.6,0-1.1-0.1-1.8,0c1.1-0.6,6.9-3,5.7-4.9c1.9,0.7,5.5,3.1,7.6,2.3c3.7-1.5-5.5-6.1-6.5-6.5
		c1.7,0,4.5,0.7,4.2-1.8c-0.3-2-2.3-2.7-4.1-3.1c3-0.2,6.1,0.1,9.1-0.2c0.7-0.1,5.8-0.5,4.6-2.1c-0.9-1.1-7.3,0.9-8.1,0.4
		c-0.2-0.1-0.2-0.8-0.5-1c-0.5-0.4-1.1-0.2-1.6-0.6c4.2-1.9-1.5-3-3.4-2.7c-1.8,0.3-3.7,1.5-5.4,2.1c-0.7,0.3-1.9,0.9-2.7,0.9
		c0-0.4-0.2-0.6-0.7-0.7c-0.4,0-0.7,0.1-1.1,0.2c0.5-0.3,2.7-1.7,1.1-2.1c0.8-0.6,3.4-2.7,2.5-3.8c-1.2-1.5-6.9,2.3-8,3
		c2.7-2.1-1.2-1.9-2.7-1.5c0.2-0.8-0.8-0.9-1.3-0.9c0.8-0.4-0.3-1.1,0.2-1.5c0.5-0.4,1.4,0,1.9,0c0.5,0,2.8-0.1,2-1.1
		c3.8,0.2,8,1.7,11.8,1.4c1.3-0.1,2.6-0.9,0.7-1.7c-1.3-0.5-3.6-0.3-4.9-0.5c0.5,0,2.5-0.1,1.8-1.1c1-0.2,3.4-0.5,3.2-1.9
		c-0.3-2.2-5.2-0.9-6.5-1.3c0.4-0.1,8.5-1.7,6.7-2.9c0.6,0,2.3,0.3,2.5-0.6c0.2-1-1.1-1-1.7-1.2c-3.4-0.6-6.9,0.7-10.2,0.8
		c0.5-0.3,2.6-1.1,1.3-1.7c1.1-0.9,3.8-4.5,0.7-4.3c-1.8,0.1-3.6,2.2-4.9,3.3c1.5-1.4,0.1-1.9-1.3-1.6c-1.9,0.4-3.8,1.7-5.4,2.7
		c1.4-1.3,4.1-3.6,4.3-5.7c0.2-2.4-1.8-1.9-3.2-0.9c-1.6,1.2-3.1,2.7-4.4,4.3c-0.7,0.9-1.2,2-1.9,2.8c-0.9,1-1.6,1-2.8,1.5
		c0.6-1.2-0.8-1.1-1.4-0.9c-0.5,0.2-0.9,1-1.2,1.4c-1.4,1.6-3,3-4.5,4.6c0.1,0.2,1.3-2.7,1.4-2.8c0.5-0.9,1.7-1.2,1.8-2.3
		c0.1-3.1-7.5-3.3-9.2-3.4c0.3-0.4,0.5-0.8,0.6-1.3c-0.3-0.6-0.1-0.9,0.6-0.9c0.3-0.7,0.9-1-0.4-1.4c0.9-0.6,4.6,0.6,5.6,0.7
		c2.3,0.2,4.7,0.3,7,0c0.9-0.2,2.9-0.4,2.2-1.8c-0.5-1.1-3-0.9-3.9-1.1c0.8-0.2,3.5-0.3,3.5-1.6c0-0.9-1.6-1-2.2-1
		c3.8,0,7.6,0.4,11.5,0.1c1.5-0.1,4.1-0.2,5.2-1.3c1.9-1.8-1.6-2.5-2.9-2.7c-1.7-0.2-3.4-0.2-5.1,0.1c-1.1,0.2-2.8,0.9-3.7,0.1
		c0.6-0.1,3.2-0.3,2.2-1.5c1.1-0.3,10.9-2.3,9.3-4.9c-0.2-0.4-2.5-0.7-2.9-0.7c-2.3,0-5.4,2.2-7.5,3c1-0.8,2.3-1.4,2.4-2.8
		c0.1-0.8-0.3-2.2-1.2-2.4c-2.1-0.5-4.3,3.5-6.2,3.8c0.9-2.6-0.4-3.1-2.4-1.6c-2.4,1.8-4.7,3.8-6.9,5.8c0.7-1.1,5.6-9.9,3.2-10
		c0.5-0.2,0.5-0.8,0.2-1.1c3.4-0.2,7.4,0.1,10.5-1.6c4.2-2.3-2.6-2.7-4.3-2.7c3.7-1.1,7.5-1.6,11.3-1.9c0.9-0.1,2.1-0.1,2.9-0.5
		c0.8-0.4,0.9-0.9,1.4-1.1c1.4-0.6,4.5-0.4,5.2-2.2c1-3-4.3-2.2-5.7-2.4c0.5-0.2,1.8-0.4,1.7-1.2c-0.1-0.9-1-0.7-1.6-0.4
		c1.3-1.3,2.3-2.2,3.8-3.2c0.6-0.4,1.9-1.2,1.4-2c-0.8-1.3-8.9,3.1-9.8,3.6c1.1-0.8,7.2-6,3-5.9c-3.2,0.1-5.9,3.4-8.2,5.2
		c0.1-2.2-8.4,4-9,4.5c1.1-1.5,2.1-3,2.6-4.8c0.2-0.6,0.1-1.5,0.7-1.9c0.6-0.4,1.7,0.2,2.2-0.4c1.7-2.1-6.8-1.6-7.3-1.5
		c1.3-0.4,2.4-0.5,3.5-1.4c1.1-0.9,1.6-1.2,3.1-1.5c3.2-0.7,6.6-1.5,9.5-2.8c0.9-0.4,2-0.7,1.3-1.7c-0.6-0.9-3.6-0.1-4.5,0.1
		c-3.1,0.4-6.1,1.1-9.2,1.1c2.2-1.4,4.2-2.8,6.7-3.8c0.4-0.2,6.6-6,2.5-4.9c-4.2,1.1-8.1,3.4-11.8,5.7c0.8-0.9,1.2-1.6,1.7-2.7
		c0,0.1,0-0.5,0.1-0.7c0.1-0.3,0.6-0.6,0.6-0.9c0-1.6-2.1-0.8-2.9-0.4c-4.1,1.6-6.3,5.7-9.3,8.6c1.3-2.7,2.8-5.6,3.9-8.4
		c0.5-1.3,0.2-2.4,0.4-3.6c0.2-1.3,0.3-1.2,1.4-1.6c1.2-0.5,2.9-1.3,0.8-2.1c-1.4-0.5-3.3,0.2-4.7,0.4c1.7-1.1,3.8-2.3,5.1-3.9
		c1.8-2.3-0.2-2.1-2-1.6c1.1-1.6,1.1-2.4-0.9-2.1c-1.9,0.3-4.4,1.4-6,2.3c2.3-1.8,3.5-3,6.5-3.8c2.9-0.7,6-1.5,8.7-2.9
		c0.7-0.4,2.8-1.4,1.9-2.3c-0.7-0.7-2.4,0.4-3.2,0.5c-1.3,0.1-2.5-0.1-3.8,0.1c2.2-1.6,4-3.7,5.7-5.8c0.7-0.8,2.3-2.8,1.8-3.5
		c-1.4-2.3-3.9,1-4.9,1.8c-1,0.7-2.3,1.5-3.5,1.7c-1,0.2-1.6-0.2-2.5,0.6c1.3-2.8,4.9-1.7,6.9-3.5c2.7-2.4-5.4-1.2-6.3-1
		c1.2-0.6,8-3,3.6-4.3c-1.4-0.4-2.9,0.9-4.1,1.4c-1.7,0.7-3.6,1-5.4,1.4c2.1-1,4.4-2.8,6.4-4.1c1.2-0.8,5.7-3.2,5.3-5
		c-0.5-2.5-4.4,1-5.3,1.7c-2.3,1.8-4.9,2.9-7.4,4.4c1.2-0.9,2.9-1.6,3.9-2.6c2-2-0.8-1.7-2.1-1.1c-0.8,0.4-1.5,1-2.3,1.4
		c-0.7,0.3-1.3,0.2-2,0.5c-1.4,0.6-2.7,2.6-3.9,3.7c0.8-1.3,2.4-3.5,2.3-5.1c-0.1-1.8-1.5-1.5-2.5-0.5c-1.9,1.7-2.4,7.4-5,8.1
		c0.7-1,2.3-2.3,2.4-3.6c0.1-2.1-1.2-1.2-2.1-0.2c-2.7,2.9-4.3,6.4-8.1,8.2c1.9-2.8,4.4-6.5,4.8-9.9c0.2-1.1,0.2-2-1.2-1.4
		c-1.2,0.5-1.5,2.5-2.1,3.5c0.5-1.3,0.7-2.7,1.8-3.6c1.2-1,3.3-1.5,4.7-2.2c1.1-0.6,3.2-1.4,1.8-2.7c-1.1-1-3.9-0.3-5.2-0.4
		c2.5-0.8,5.3-0.8,7.6-2.2c2.1-1.2,0.9-1.9-1-1.9c2-0.8,3.9-1.7,5.7-2.9c0.7-0.4,2.4-1.4,2.6-2.3c0.4-2.3-4.4-1-5.6-0.6
		c0.4-0.6,1.4-2.8-0.2-2.3c0.7-0.7,3.2-2,3-3c-0.3-2.3-4,0.4-4.7,1c0.1-2.3-2-0.5-2.6,0.3c-1.2,1.7-2.4,3.3-3.6,5
		c0.1-0.5,3.6-4.8,1.4-4.4c0.2-1,4.5-8.4,1.5-8.4c-1.3,0-2.3,2.5-2.9,3.4c-1.3,2.1-2.5,4.1-3.7,6.2c-0.1-1.3,0.5-3.3-0.2-4.5
		c-0.4-0.7-1.2-0.7-1.6-1.4c0.7-0.3,4.1-1.3,4.3-2.2c0.3-1.2-1.1-1.1-2-1c-1.8,0.1-3.5,0.8-5.1,1.5c-1.4,0.6-3,1.7-4.5,1.4
		c0.7-0.4,5.8-3.6,4.4-4.4c1.1-0.2,6-0.1,6-2c0-1.1-2.8-1.4-3.6-1.5c2.9-0.7,6-1.1,8.7-2.4c2.7-1.3,0.6-2-1.3-2c1.4-0.4,4-0.7,4.9-2
		c1.3-1.8-1.2-2.2-2.5-2.3c2.1-1.2,5.1-1.8,6.6-3.8c0.6-0.8,1-1.4-0.2-1.7c-0.4-0.1-3,0-3.6,0.2c1.1-1,5-5.3,3.1-6.2
		c-2.6-1.1-7,5.2-8.2,6.6c0.6-1.2,2.3-4.2,1.4-5.7c-1.6-2.5-3.3,2.3-3.5,3.4c-1.8-3.1-5.4,7.2-5.7,7.7c0.2-0.9,0.9-2.7-0.2-3.1
		c-1.7-0.6-3.1,2.9-3.7,3.9c0.4-1.6,2.2-5,0.4-6.4c0.9-0.5,2.2-0.8,2.8-1.7c0.7-1,0.4-1.8-1-1.7c0.8-0.4,4.1-1.7,3.9-2.9
		c-0.4-1.9-7.2,1.6-8,2c0.7-0.9,6.1-6.2,5.6-7c-0.9-1.6-4.8,1.7-5.6,2.2c0.7-1-1.2-0.8-1.7-0.8c-1.9,0.2-3.6,1.2-5.3,1.8
		c3-3,7.9-3.4,11-6.4c0.8-0.8,2-2,0.3-2.3c-0.9-0.2-4.9,1.3-6,1.8c0.9-0.8,5.5-6.2,4.4-7.8c-1.8-2.9-5.3,5.7-5.7,6.3
		c-0.6-1.9-1.1-3.7-2.5-1.1c-1.3,2.4-2.2,5.1-3.5,7.4c0-1.2,1.4-5,0-5.8c-1-0.6-2,0.7-2.4,1.6c0-0.9-0.7-2.4-0.4-3.3
		c0.4-1,1.1-0.7,2.1-0.8c1.8-0.1,4.8-0.7,6.3-1.8c8.2-6.1-12-2.4-2.5-3.6c-0.7,0.1-1.4,0.2-2.1,0.2c3.3-2.3,7.8-1.5,11.1-4.2
		c1-0.8,2-1.7,0.6-2.5c-1.4-0.8-3.8,0.7-5.1,1.1c2.2-2.3,3.6-5.2,5.3-7.8c0.5-0.7,1.7-2.5,0.8-3.3c-1-0.9-2,0.4-2.7,1
		c0.4-0.6,1-1.7-0.2-1.9c-0.8-0.1-1.4,1-1.8,1.5c0.6-1.2,1.9-4,0.8-5.3c-1.2-1.4-2.4,0.3-3.3,1.3c0-1.2,0.7-4.9-1.2-4.9
		c-2.6,0-1.5,6.3-1.4,7.4c-0.4-1-1-2.2-1.7-3c-0.4-0.4-1.4-0.7-1.6-1.3c-0.5-1.2,1.1-2.6,1.7-3.5c0.6-0.9,1.8-2.8,0.6-3.6
		c-1.2-0.8-3,0.9-3.9,1.5c0.9-2.3,1.7-4.7,2.5-7c0.4-1.1,1.2-4.8-1.2-2.7c0.2-1.1,0.7-3.4-0.2-4.3c-1.3-1.2-2.1,0.5-2.5,1.6
		c-0.8,1.9-2.3,11-2.6,13.5c0-3-0.2-5.9,0.1-8.9c0.3-3.1,1.1-6.2,1.1-9.3c0-1.8-0.6-4.4-2.6-2.1c-1.5,1.7-1.7,4.3-3.7,5.7
		c1-6.1,0.5-12.7-0.2-18.9c-0.3-3.1-0.4-6.2-0.6-9.2c-0.1-1.3-0.8-5.7-2.9-3.5c-0.3-1.2-1.2-0.7-1.6,0.1c-0.3,0.6,0.6,19.1,1.4,24.1
		c-0.7-2.1-1.3-4.7-3.2-6.2c-1.6-1.2-2.2-0.3-2.3,1.3c-0.3,5,2.5,9.9,4.7,14.1c-0.8-1-5.4-7.5-6.4-7.1c-1,0.5-0.2,2.2,0,2.9
		c-1.4-1.4-1.7,0.5-1.2,1.7c0.6,1.5,1.7,2.6,2.1,4.2c-0.6-1-1.7-2.6-2.9-1.4c-0.9,0.9,0,3,0.2,4c-1.1-1.8-2.5-9.4-3.6-10.9
		c-0.7-1-2-1.9-2.8-0.3c-0.5,1.1,0.2,3.8,0.5,4.8c-0.6-0.4-1.8-1.6-2.6-1.3c-0.9,0.4-0.3,2.2,0,2.9c0.5,0.9,4.9,4.3,6.2,5.6
		c-0.9,0-0.8,1-0.5,1.6c-1.5-0.1-1.4,1.1-0.8,2c0.7,1.1,2.2,1.7,3.3,2.3c-0.6,0.7-1.1,1.4-1.7,2.1c-0.7-0.9-5.9-6.7-6.6-3.2
		c-0.6,2.8,5.3,4.8,2.7,7.9c-0.7-1.3-3.7-6.4-5.7-5.1c-2.6,1.6,2.3,6.4,3.4,7.3c-2.3,0.1-1.9,3-3,4.3c-0.6-1.2-2.9-6.7-4.5-5
		c-1,1,0.9,6.7,1.6,7.8c-1-0.4-2.4-1.6-3.5-1.5c-1.5,0.2-1.3,1.6-0.6,2.7c0.8,1.2,7.6,5.1,8.9,6.7c-1.6-0.5-7.7-1.6-7.9,1.1
		c-0.2,2.7,5.4,2.9,7,3c-1.3,0.4-3.8,1.5-2.7,3.3c0.9,1.4,3.5,1,5,1.2c-1.2,2.7,4.3,4.6,5.8,5.2c2,0.9,5.5,1.5,4.8,4.7
		c0,0-1.6-1.1-2.1-0.5c-0.7,0.9,0.7,2.5,1.1,3.3c-1.6-0.5-2,2.1-2.2,3.1c0-1-0.4-6.1-2.1-5.7c-2.3,0.5-0.5,4.9-1.9,6.2
		c-0.1-3.3-0.4-7-1.5-10.1c-1.1-3.1-2.3,0.1-2.5,1.7c-0.5-1.1-1.4-2.7-2.5-1.3c-0.8,1-0.1,3,0,4c-1-2.1,0.6-9.4-1.9-10.5
		c-2.6-1.1-0.2,7.2-0.7,8.4c-0.3-0.8-2.1-9-4.3-6.6c-1.3,1.4,0.8,5.2,1.5,6.6c-0.8-0.9-1.9-0.9-1.8,0.5c-1.2-0.9-3.3-3.2-5-3.4
		c-1.8-0.2-2,1.3-1.2,2.6c1.8,2.7,6.1,2.8,8.2,5.4c-1.6-0.6-6.1-1.8-7.4-0.3c-2.4,2.8,5.2,3.3,6.4,3.5c-1.5,0.5,2.6,2.5,3.1,2.7
		c-1,0.1-2.1,0.8-3.1,0.6c-0.9-0.2-1-1.3-1.7-1.5c-2-0.6-2.1,3.6-2,4.7c-1.2-1.5-8.3-7-9.4-7.7c-1.7-1.3-2.5-0.1-1.7,1.8
		c1.1,2.2,3.8,3.6,5.3,5.5c-1.1-0.3-3.8-1.5-5-1.2c-1.8,0.4,5.6,7.5,7.2,8.8c-0.7,0.2-0.4,0.7-0.4,1.1c0.5,0.2,0.5,0.5,0,0.9
		c-0.1,0.3-0.2,0.6-0.1,0.9c0.1,1.3,1.9,2.3,3,2.8c-1.7-0.2-2.9,0.6-0.8,1.3c2.7,0.9,5.9,1.1,8.8,1.8c-1.3,0-2.6,0-3.9,0.4
		c-0.6,0.2-1.3,0.3-1.8,0.8c-0.6,0.6-0.4,1.1-0.7,1.7c-0.4,0.6-1.2,0.5-0.8,1.5c0.4,0.9,1.4,1.1,1.8,2.1c0.9,2.6,1,5.8,1.1,8.5
		c-0.5-1.8-1.2-4.9-2.4-6.4c-0.8-1-2.1-1.1-2.7-2.3c-0.8-1.6,0.3-6.2-0.7-6.7c-2-0.9-2.8,3.4-3.5,4.5c-1-1.4-1.8-4.9-3.5-5.6
		c-2.5-1-0.9,3.8-0.7,4.9c-0.6-0.9-4-3.7-5.2-4.2c-1.1-0.5-2-0.6-2,0.7c0.1,1.4,2.7,3.2,3.5,4.1c-1.3-0.3-8.6-2.4-7.3,0.7
		c1.1,2.6,5.5,3.1,7.8,3.9c-2.1,2.5,4.1,3.9,5,4.6c-1.2-0.1-8.4-1.6-8.6,0c-0.2,1.6,6.6,3.9,7.6,4.2c-2.5,0.2-2.9,1.9-2.3,4
		c0.8,2.9,5.1,2.3,7.2,3.3c-0.9,0-3.8,0.4-4,1.5c-0.3,2,5.4,2.4,6.6,2.9c-0.7-0.3-2.2,0.3-2.6,0.8c-0.9,1-0.5,2.6-0.1,3.7
		c-0.7-1.2-3.8-7-5.6-4.6c-1.4,1.9,1.7,5.5,2.6,6.9c-2-1.5-3.2-3.6-5-5.3c-0.8-0.7-1.7-1.4-2.6-1.9c-0.7-0.3-1.5-0.2-2.2-0.4
		c-0.5-0.2-4.6-3.8-4.3-2c-0.8-0.7-7.3-6.5-7.5-3c-0.2,2.6,6.2,6.2,7.9,7.3c-1.4-0.1-7.7-1.2-8.6-0.4c-1.8,1.5,3.1,2.4,4.1,2.7
		c2.5,0.8,4.9,1.7,7.5,2.1c1.3,0.2,2.8-0.1,4.1,0.3c0.7,0.2,2.4,0.9,2.9,1.4c-1.1-0.2-4.8-1-5.8-0.3c-1.8,1.2,1.8,2.6,2.6,3.2
		c-1.4,0.1-2.8,0.9-4.1,0.9c-0.8,0-2-1-2.7-0.7c-1.4,0.7-0.3,3.4,0.2,4.4c-2-1.9-10.5-7.4-10.6-5.4c-0.1,1.6,2,3.2,3,4.1
		c2.4,2.1,5,4,7.5,5.9c-0.9-0.4-8.5-4.2-8.9-2.4c-0.6,2.9,9.9,4.8,11.5,5.2c-0.6,0.1-3.9,0.5-2.9,1.6c-1.2,0.4-4.5-0.5-2.2,1.4
		c1.4,1.1,3.5,0.9,5.5,0.9c-2.4,0.4-4.9,2.5-1.2,3.2c2.5,0.5,5.7-0.5,7.9,0.8c-3.3,0.2-6.7,0-9.9,0.7c-2.4,0.6-2.1,1.8,0.2,1.8
		c-0.3,0.8-0.3,1.8-0.1,2.6c-0.6-0.9-1.7,0-2.6-0.7c-0.9-0.7-1.2-2.7-1.7-3.8c-0.4-0.8-1-2.9-1.9-3.3c-1.3-0.5-1.4,0.7-0.9,1.7
		c-2.6,0-2.6-3.6-4.9-3.9c-2.9-0.4,1.7,5.3,2.2,6c-2.3-1.6-4.2-3.1-6.1-5.1c-0.8-0.8-4.3-4.9-5.6-3.2c-1.9,2.6,7.1,6.6,8.1,7.5
		c-0.8,0.2-1.2,0.7-0.9,1.5c-1.8-0.5-4-0.9-5.9-0.2c-1.5,0.6-2,1.5-0.4,2.3c3.6,1.9,8.3,0.5,11.7,2.6c-1.4,0.6-3.1-1.4-4.4-0.6
		c-1.4,0.9,0.4,1.6,1.4,1.9c-2,2.5-5,3.6-7.7,5c-3.4,1.8-6.5,4.3-9.9,6.1c1.4-1,2.9-1.9,4.2-3c0.6-0.5,2-1.5,0.4-1.8
		c-0.9-0.2-2,1.1-2.6,1.6c-1.3,0.9-2.7,1.7-4.1,2.6c0.4-1.2,0.7-0.7,0.5-2.1c-0.1-0.7-0.2-1.9-1-2.1c-1-0.2-2.1,1.2-2.5,1.9
		c-0.2,0.2-1.8,1.8-1.7,1.9c-0.3-0.2-0.7-0.4-1.1-0.5c0.7-0.4,0.9-0.9,1.4-1.3c0-0.2,0.1-0.4,0.1-0.7c0.2,0,1.3,0.5,1.3-0.8
		c0-0.1-0.7-0.9-0.7-0.9c-0.3-0.4,0.4-0.5-0.2-0.8c-0.2-0.1-0.8,0.3-1.1,0.2c-1.4-0.5-2.9-1.5-4.4-2.1c3.1,0.3,6.1,1.9,9.1,2.7
		c3.1,0.8,2.5-1.4,0.3-2.5c0.7,0,7.9-0.2,6.7-1.7c-0.7-0.9-4.3-0.5-5.4-0.4c1.2-1.1-5.8-1.6-6.2-1.6c0.8-0.3,7.2-1.6,5.9-3
		c-0.9-0.9-4.1,0.3-5.3,0.3c2.7-1.1,11-5.5,11.5-6.6c0.7-1.6-2.4-0.9-3.4-0.6c-1.4,0.4-7.2,3.1-8.7,3.9c0.4-0.4,1.8-2.7-0.2-1.7
		c-0.1-2.4-9.4,0.3-11.8,2.5c0.3-2,0.6-3.5,2.5-4.5c1.8-0.9,4.6-0.5,6.7-0.9c2.2-0.4,4.4-0.8,6.4-1.9c0.3-0.2,2.8-1.6,1.7-1.9
		c0.7-0.2,7.2-2.1,7.1-3.2c-0.1-1.8-7.2,0.4-8.1,0.7c0.4-0.3,1.4-1.5,0.3-1.7c3.8-0.7,8.6-0.8,12-2.6c1-0.5,2.3-0.9,0.7-1.7
		c-1.8-0.8-5,0.3-6.8,0.5c1.9-0.9,3.7-1.8,5.5-2.8c1.2-0.7,3.3-1.6,4.1-2.8c2.2-3.2-4.4-1.3-5.6-0.8c-3.3,1.5-6,4.1-9.2,5.7
		c-0.8,0.4-1.9,1.3-2.8,1.4c0,0-0.3-0.5-0.6-0.5c-1.1,0.1-2,0.5-3,0.9c0.3-0.9-0.1-0.8,0.7-1.4c0.4-0.4,1.4-0.6,2-0.8
		c1.8-0.8,3.9-1.7,5.3-3.2c1.1-1.1,2-2.6,0-3.1c-2-0.6-4.7,1-6.3,2.1c1.8-2,4.4-3.8,6.5-5.3c1-0.7,3.6-2.6,0.8-2.5
		c-2.4,0.1-5.1,2.1-6.7,3.6c-2.3,2.1-4.6,4.2-6.6,6.5c0.5-1.8,5-3.7,4.2-5.7c-0.7-2.1-4.8,0.8-5.9,1.2c1.3-1.6-1-3.5-2-2.2
		c0.4-0.9-4.3,0.5-4.8,0.7c2.1-0.9,4.2-2,6.3-3c1.1-0.6,5.2-3.8,1.3-4.1c-2.8-0.2-5.1,3.1-7.3,4.3c3.3-3.9,5.7-7.5,11.3-7.2
		c0.8,0,4.2,0.8,4.7,0c1.2-1.9-4.6-3.1-5.5-3.5c1.5-0.2,3-0.3,4.5-0.2c1.1,0.1,3.5,0.6,4.3-0.5c1.8-2.4-4.4-0.9-5.1-1.2
		c1.4-0.2,5.5-0.2,5.7-2.2c0.2-2.1-3.4-1.1-4.5-0.9c2.7-1.1,8.1-2.6,9.6-5.4c0.8-1.5,0.2-1.8-1.4-1.3c-2.1,0.7-3.9,2-5.9,3
		c0.6-0.8,2.3-2.5,2.1-3.7c-0.4-1.8-2.2-0.5-3.1,0.2c-1.5,1.1-2.7,2.6-3.8,4c-1.1,1.3-2.2,3.4-3.6,4.4c0.3-2.7,0.4-5.6,2.9-7.1
		c2.2-1.3,4.9-2.4,6.3-4.8c1.6-2.6-1.1-1.7-2.6-0.9c-2.8,1.6-5.7,3.1-8.4,5.1c0.2-0.8,0.8-2.5,0.1-3.2c-1.2-1.1-2.7,0.8-3.2,1.8
		c-0.8,1.5-0.1,3.1-0.8,4.5c-0.6,1.4-2.9,2.9-3.9,4c0.8-1.3,1.8-2.8,2-4.4c0.3-1.8-0.4-1.5-1.6-0.9c-1.3,0.7-2,0.8-2.7,2.2
		c-0.5,1.1-1.2,2.8-1.4,3.9c-0.5-1-1.7-1.7-2.8-1.9c1.4-1.4,2-2.8,2.9-4.4c0.9-1.6,2-1.3,3.6-1.7c1.1-0.3,2.9-0.8,1.3-1.8
		c-1.4-0.8-4.2-0.1-5.6,0c2.4-1,5.6-1.8,7.4-3.8c1.2-1.3,1-2.7-0.9-2.7c-3.1,0.1-6.3,3-8.8,4.5c0.4-0.9,1.7-4.3-0.1-4.4
		c2.3-0.1,4.7-0.2,7-0.4c1.7-0.1,4.3,0,5.7-1.2c1.3-1.1,0.8-1.7-0.8-1.9c-2.2-0.3-4.8,0.9-6.8,1.4c0.8-1.1,2.3-3.1,0.2-3.6
		c-1-0.3-1.9,0.5-2.9,0.8c-0.6,0.2-0.5,0.2-1.1,0.2c-0.4,0-0.7-0.3-1,0.1c-0.2-2-1.6-3.2,1.1-3.7c1.8-0.3,3.6-0.2,5.4-0.6
		c0.9-0.3,3-0.9,1.5-1.8c-0.8-0.6-2.7,0-3.6,0c1.3-0.6,2.6-1.2,4-1.8c0.6-0.2,1.7-0.4,2-1c0.9-1.4-1.6-0.9-2.4-0.7
		c0.7-0.3,11-4.7,8.5-6.4c-1.3-0.9-5.2,1.8-6.2,2.4c-2.1,1.5-3.9,3.4-6.3,4.5c0.6-1.4,5.4-6.3,4.2-7.9c-1.6-2-5.5,4.6-6.2,5.8
		c-0.1-0.8-0.4-2.3-1.5-2.1c2.4-2.2,4.6-4.1,7.3-5.9c0.7-0.4,4.9-3.1,3.3-4.2c-0.8-0.6-3,0.9-3.7,1.4c-2.7,1.8-4.6,4.6-6.9,6.9
		c0.3-1.1,1.3-2.2,1.1-3.4c-0.2-1.3-1.6-1.9-2.8-1.6c-1.4,0.4-1.5,1.4-1.8,2.6c-0.2,0.7-0.5,1.4-0.5,2.1c-0.1,0.8,0.3,1.5-0.1,2.3
		c-0.9-1.8-1.4-4.5-0.1-6.4c1.5-2.3,5.6-3.5,7.8-5c0.6-0.4,2.4-1.4,2.5-2.2c0.2-1.5-1.4-0.7-2.2-0.3c-2.9,1.4-6.2,3-8.7,5.2
		c0.3-2,0.4-4,0.7-5.9c0.3-1.9,0.8-3.9,0.3-5.8c-0.3-1-0.6-2.1-1.8-1.6c-1.3,0.5-1.2,3.1-1.2,4.2c-0.3-1.6-1.3-3.9-3-4.5
		c-2.1-0.8-2.7,1.3-2.6,3c0.3,4.3,4.6,7.2,5,11.5c-0.3-0.9-3.1-2.4-3.9-2.8c-1.9-0.7-1.8,0-0.9,1.4c1,1.5,2.6,2,3.8,3.1
		c1.5,1.4,0.9,2.4,0.8,4.3c-1.2-2.5-2.6-1.3-2.8,0.8c-0.6-1.5-3.7-6.6-4.5-6.5c-1.6,0.1,0.8,5.7,1.3,6.5c0.5,0.8,5.7,5,5.1,5.6
		c-0.4,0.4-1-1.2-1.9-0.8c-0.9,0.8,0.1,2.7,0.2,3.3c-2.6-1.6-5.1-3.5-7.1-5.8c-2.1-2.3-3.1-5.3-5.1-7.7c-1.2-1.4-4.6-3-3.5,0.3
		c0.9,2.8,4.4,5.1,6,7.6c-1.8-0.7-5.4-2.1-7.3-1.4c-1.3,0.5-1,1,0.1,1.7c1.9,1.1,4.6,1.4,6.7,2c-1,0.3-5.1-1.2-5.1,0.4
		c-0.1,1.6,3.2,1.5,4.1,1.9c0.7,0.3,1.6,1.1,2.7,1.4c1.8,0.5,4.9,0,6.4,1.1c-0.8-0.1-4.7-1-5,0.3c-0.3,1.1,2.6,1.7,3.4,2
		c-2.2-0.5-5.1,0.3-3,2.9c1.7,2.1,4.8,3.4,7.4,3.8c-1.1,0.9-1.2,2.4-1.2,3.6c-0.6-1.3-1.7-4.8-3.6-4.8c-1.6,0-1.7,2.1-1.1,3.3
		c-1.7-0.9-3.2-2.2-4.6-3.6c-1.2-1.1-2.5-2.8-4.2-3c-2.5-0.3-0.7,1.3,0.3,2.1c1.7,1.2,3.3,2.7,5.1,3.8c-1.9-0.1-5.6,0.6-2.4,2.5
		c3,1.7,6.8,0.3,9.7,1.9c-0.5,0-4.8,0.5-4.2,1c-0.5,0.2-1.7,1-0.5,1.3c-0.8,1.2-0.9,2.8-0.7,4.2c-0.9-1.4-2.2-2.4-3.6-3.3
		c-1.6-1-1.9-1.3-2.2-3.1c-0.1-0.7-0.3-2.3-1.4-1.5c-0.5,0.3,0.1,1.9-0.7,2c-0.1-1.1-1-1.8-1-3c0-0.9,0.9-2.4,0.4-3.3
		c-0.5-0.9-1.7-0.9-2.6-0.3c-1.2,0.9-0.8,2.7-0.9,3.9c-0.9-1.1-0.6-2.9-1.4-4.1c-0.4-0.7-0.8-0.6-1.1-1.5c-0.2-0.7,0-1.6-0.1-2.3
		c-0.2-1.3-1-3-2.3-1.4c-0.9,1.2-0.2,3.3,0.2,4.4c-0.8-0.9-2.7-3.9-4.1-3.7c-2,0.4,0.8,2.8,1.5,3.4c-1.8,0.8,2.1,3.1,2.6,3.7
		c-0.3,0-2.3,0.5-2.3,0.8c-0.1,0.8,1.5,1.1,2,1.4c1.1,0.6,1.9,1.5,2.9,2.1c1,0.6,2.7,0.8,3.3,1.9c-1-0.2-6.2-1.6-6.6,0.2
		c-0.4,1.8,4.5,2.4,5.5,2.6c-1,1.8,0.3,3.1,0.1,4.9c-0.8-0.9-3.3-4.8-4.9-2.5c-1.2,1.7,3.1,5.7,4,6.9c-1.6-0.4-5.6-1.2-3.2,1.3
		c1.7,1.8,4.1,2.7,6.3,3.6c-0.5,0-2.3-0.4-2.2,0.6c0,0.5,2.7,1.6,3,1.8c-0.7,0.1-2.9-0.2-3.1,0.9c-0.1,1,2.4,0.9,2.9,1
		c-1.2,0.5-2.2,1.5-2,2.9c-0.6-1.1-1.8-2-2.5-3.1c-0.8-1.2-1.6-2.5-2.4-3.7c-1.6-2.3-3.5-4.4-5.8-6.2c-1.8-1.4-4.3-2-3.4,1.2
		c0.8,2.7,3.3,4.6,5.2,6.4c-1.2-0.4-3.3-0.7-4.6-0.2c-1.1,0.4,3.8,3.1,4.4,3.2c-0.9,0.3-4.8,2.2-3.1,3.3c0.7,0.5,2.7-0.4,3.4-0.6
		c1.6-0.7,1.7-1.2,3.2-0.2c-2.3,0.6-4.6,0.7-6.7,2c-1.2,0.8-2.7,2.4-0.4,2.7c2,0.2,4.6-1.6,6.3-2.6c2.2-1.4,2.9-1.5,4.7,0.4
		c-1.2,0.1-6.4,1.9-3.4,3.1c1.6,0.7,4.3,0,5.9-0.3c-0.4,0.4,0,1.2,0.1,1.6c-1.3-0.1-2.7,0-3.9,0.5c0.1-1.5-1.9-1.2-2.7-0.8
		c-1.6,0.9-1.3,1.5-2.8-0.1c-2.2-2.2-4.1-2.1-3,1.3c-1.3-0.9-2.9-1.4-4.1-2.5c-1.1-1.1-1.3-2.6-2.3-3.7c-1.9-2.1-4.2-2.1-4,1
		c-0.2-1.2-1-4.9-1.4-5.3c-0.7-0.7-2.6-0.2-2.5,1c-1.8-0.6-0.6,2.5-0.4,3.2c-1-0.7-9.7-8.4-10.5-5.9c-0.8,2.5,6.4,4.9,7.5,5.9
		c-1.6-0.2-4.6,0.5-2.4,2.4c1.8,1.5,4.8,0.7,6.9,1.3c-0.7,0.1-2.5,0.1-2.7,1c-0.1,0.7,2.1,1.6,2.5,1.8c2.8,0.9,7.4-0.3,9.9,1.5
		c-2.6,0.7-5.6,1.6-8.3,1.3c-1.4-0.1-2.1-0.4-3.3,0.2c-0.5,0.2-0.7,0.6-1.3,0.7c-0.6,0.1-1.1-0.2-1.7-0.2c-0.9,0.1-1.5,0.5-2.5,0.6
		c-1.4,0.1-2.4-0.3-3.7-0.8c-1.4-0.5-4.4-1.5-3.7,1.2c-1.5-0.1-3,0.3-4.5,0.5c-10.7,1.5-23.4,0.5-24.8,0.2c-1.1-0.2-1-0.6-1.6-1.5
		c-0.9-1.3-1.9-2-3-3.1c0.4-0.2,0.6-0.6,0.7-1.1c2.3,1.4,8.7,4.6,11.4,2.5c1.6-1.2-3.6-5.1-4.6-6.7c2.8,1.3,6,3.2,9.2,2.4
		c3-0.8,3-4.2,6.3-4.1c3,0.1,7.6,0.3,10.2-1.6c2.8-2.1-4.2-2.5-5.4-2.9c1.7-1.3,4.6-1.4,6.5-2.2c0.9-0.4,3.4-1.1,3-2.2
		c-0.6-2-11.2,0.1-12.6,0.3c-2,0.4-4.1,0.6-6.2,1c-1.1,0.2-1.8,0.8-2.8,1.1c-1.3,0.4-2.5,0.1-3.9-0.1c-1.9-0.2-4.5,0.3-6.2-0.6
		c-1.8-0.9-3-3-4-4.6c3.4,2,6,3.6,10,3.8c1.1,0.1,2.9,0.7,2.7-0.9c-0.1-1.2-2.1-1.9-2.9-2.5c1.5,0,3.7-1.4,4.3-2.8
		c0.7-1.9-0.6-1.5-1.8-1.7c-0.5-0.1-1-0.5-1.6-0.7c-0.4-0.1-1.1,0.1-1.7,0c-2-0.4-3.9-1.6-5.9-2.1c2.5-1.1,4.3-2.5,6.2-4.4
		c1-1,5-4,1.2-3.6c-1.3,0.1-1.3,0.5-2.6-0.2c-1.2-0.6-2.3-1.4-3.5-2.1c-2.8-1.6-5.8-3-8.9-3.8c2.4-0.5,4.5,1.2,6.6,2
		c2.5,0.9,4.8,1.1,7.2,2.3c2.1,1.1,12,4.3,8.4-0.9c1.5-0.3-0.4-2-0.9-2.4c-1.7-1.3-4-2.4-6-3.5c0.9-0.6,1.1-1.4,2.2-1.2
		c1,0.2,2,1.4,2.9,2c1,0.6,2.2,1.1,3.4,1.5c0.6,0.2,1.2,0.3,1.7,0.3c0.5,0,1.3-0.4,1.7-0.3c-0.2,1.6,5.6,0.7,4.4-2.2
		c-0.6-1.4-2.7-1.4-4-1.7c-2.3-0.5-4.2-1.8-5.8-3.5c1,0.1,0.9-1.2,0.6-1.7c2.8,2.2,7.4,6.8,11.4,5.6c2.3-0.7,0.7-1.8-0.6-2.5
		c-2.2-1.1-4.2-2.5-6.5-3.6c2.9,0.1,5.8-0.4,8.7-0.4c1,0,5.1,0.7,5.4-0.9c0.2-1.1-3.8-2.1-4.7-2.3c-2.8-0.8-5.8-0.9-8.8-1
		c2.3-2,4.9-3.5,6.9-5.8c0.8-0.9,1.9-2,2-3.3c0.2-1.9-0.3-1.6-1.4-0.8c-2,1.4-4.7,2.2-6.9,3.7c-1.2,0.8-2.4,1.8-3.3,2.9
		c-0.6,0.7-1.1,2-1.9,2.4c-0.5-1.9-5.3,3.2-6.4,3.4c0.2-1.3,2.8-2.9,3.7-3.7c0.6-0.6,3.7-2.5,3.7-3.4c0-2.9-7.4,0.2-8.5,0.8
		c-1.8,1-3.3,2.4-4.8,3.9c-1,1-2.1,1.9-3.7,1.8c-4.1-0.3,1.3-3.8,2.5-4.5c3-1.7,6.8-3.3,9.2-5.9c3.7-4.1-3.1-4.1-5.7-2.9
		c-1.5,0.7-2.6,1.7-3.8,2.8c-1.7,1.5-3,1.8-5.2,1.6c-2.2-0.2-4-0.1-6,1c-0.6,0.3-1,0.9-1.7,0.9c-1,0-2.5-1.3-3.4-1.8
		c2.5-0.7,4.8-2,7-3.2c1.6-0.9,2.5-3.4-0.3-2.7c0-1.8-3.3-0.9-4.2-0.6c-1.3,0.3-2.5,0.9-3.7,0.2c-1.1-0.6-2.2-2-3.3-2.7
		c1.3-0.1,12.4-1.3,10.5-4.2c-1-1.5-4.8-0.2-6.3-0.6c-2.7-0.6-4.8-2.3-7.7-2.5c1.7-1.1,5.3,0.2,6.4-1.7c0.9-1.5-1.1-1.9-2.2-2.3
		c-2.1-0.6-4.4-0.9-6.6-1.1c-1.2-0.1-2.6,0.2-3.6-0.4c-0.9-0.5-1.9-2.1-2.7-2.9c3.7,0.8,7.1,2.5,10.8,3.1c1.9,0.3,3.7-0.2,5.6-0.1
		c1.6,0.1,2.9,1.2,4.3,1.9c2.3,1.1,6.7,3.7,8.9,1.3c0.8-0.9-3-3.7-3.5-5.2c2.4,1.1,5,1.6,7.6,2.1c1.8,0.3,4.3,1.1,6.1,0.5
		c1.6-0.6,1.8-2,0.4-3.1c-0.8-0.6-4.4-2.8-5.3-3.5c2,0,4.4,0.5,6.3-0.1c1.8-0.5,3.5-1.6,5.2-2.4c0.9-0.4,7-3.3,5.2-5
		c-1.7-1.6-8.6,2.1-10.2,2.7c-1.8,0.6-3.6,1.3-5.5,1.3c-2.4,0-4.8-0.9-7.3-1c1.9-1,18-9.2,18.7-12.6c0.4-2.2-0.7-1.5-1.8-0.5
		c-1.4,1.3-2.7,1.6-4.5,2c-4.5,1-8.6,2.9-13.3,3.2c2.4-1.5,4.1-3.6,6.2-5.4c1-0.8,4.3-2.3,2.5-3.9c-1.3-1.2-4,0.5-5.2,1.1
		c-3,1.5-5.9,3.1-9.1,4.3c1-0.8,4-3.1,1.6-3.7c-2.6-0.7-5.8,1.7-7.7,3c-1.7,1.2-4.2,4.1-6.4,3.7c-1.5-0.3-2.6-1.1-4.2-1
		c-1.7,0.1-3.4,0.6-5,1.2c0.5-0.9,0.9-1.6,1.8-2.1c0.8-0.5,2.3-0.3,2.7-1.4c0.7-2-3-3-4.1-3.7c1.5-0.1,10-0.2,7.8-3.3
		c-1.2-1.7-4.8-2.2-6.7-2.5c1.2-0.3,2.7-1.6,3.9-1.8c1.2-0.2,1.3,0.5,2.1,1.3c1.9,2.2,2.9,4.4,3.7,7.3c0.3,0.9,0.8,1.3,1.1,2
		c0.3,0.5,0.2,1.9,1.3,1.6c1.8-0.5,1.3-6.9,0.8-8.2c1.4,0.1,6.5,0.9,7-1c0.6-2.3-5.7-3-7-3.3c1.3-0.8,3-0.1,4.4-0.1
		c1.6,0.1,3.1-0.3,4.7-0.6c2-0.4,8.5-1.2,9.1-3.8c0.9-3.8-3.6-1.6-5.1-1.2c-1.6,0.5-3.3,0.7-4.9,1.1c-1.9,0.5-3.9,1.5-5.8,1.3
		c0.8-0.5,4.7-2.7,2.4-3.4c-0.8-0.2-2,0.6-2.9,0.4c-1-0.2-1.4-0.9-2.3-1.3c-4.8-2.1-9,4-13.1,5.2c0.9-0.5,3.2-2,3.3-3.2
		c0.1-1.9-4.6,0-5.6,0.3c0.7-0.4,6.1-2.6,3.6-3.8c-0.4-0.2-2.3,0.4-2.9,0.5c-1.3,0.1-2.7,0.2-4,0.4c1.3-1.7,3.6-1.6,5.6-2
		c2.1-0.4,4.2-1,6.2-1.8c1-0.4,2.9-1.1,2.2-2.5c-0.6-1.2-4.6-0.8-5.7-0.8c1-0.7,5.5-4.4,3.7-6.1c-1-0.9-3.5,1.3-4.3,1.9
		c0.9-1.9,1.5-4,1.7-6.1c0.1-1.4-0.3-2.6-1.5-1.2c-1.2,1.3-1.6,3.6-2.4,5.1c-1,2-2.2,3.9-3.2,5.9c0.1-0.8,1.1-4.8,0.6-5.4
		c-0.9-1-1.5,0.9-1.8,1.6c-1.4,3.6-1,8.2-3.5,11.3c0.1-0.7,0.6-7.9-1.9-6.3c-0.7,0.4-2,7.2-2.6,9.2c0-2.6,0-5.2,0.2-7.8
		c0.1-1.1,0.3-2.7-1.1-1.5c-0.5,0.4-0.8,1.6-1.2,2.2c-0.4,0.6-2.9,3.2-5.4,2.8c1.3-1.4,2.5-2.8,3.4-4.5c1.1-2.1,1.3-2.2,3.6-2.8
		c3.5-1,7.3-2.6,9.7-5.5c1.6-1.8,1.8-3.8-1-3.1c-1.9,0.5-3.7,1.6-5.4,2.5c1.2-1.4,2.1-3,3.2-4.4c0.9-1.1,2.7-2.1,0.1-2.4
		c-3.9-0.4-7.5,3.7-10,6.1c0.2-1.4-0.4-2.9,1-3.8c1.1-0.8,3,0,3.9-1.2c1.5-2.1-2.7-2-3.7-2.8c1.7-0.1,4.1,0,5.3-1.5
		c0.4-0.5,0.7-1.4,0.3-2c-0.4-0.7-2.3-0.6-2.9-0.7c1-0.2,7.5-1,7.2-2.8c1.7,0.2,7.6,1.6,8.9,0c0.9-1.1-4.5-4.1-5.6-4.5
		c2.2-1.2,4.3-1.4,6.5-0.5c2.2,0.9,4.2,1.1,6.5,1.4c1.1,0.2,4.9,1.3,3.6-1.3c-0.2-0.4-1.9-1.2-2.2-1.5c-1-0.7-2-1.2-3.2-1.5
		c2.8-0.3,5.6-0.3,7.7-2.4c1.9-1.9,1.4-2.9-1.3-2.6c-3.2,0.4-6.3,1.4-9.4,2.3c-3.2,1-6.5,1.2-9.8,2c0.4-0.4,1.3-1.1,1.4-1
		c0.4-0.5,0.6-0.5,0.4-1.3c-0.4-1.3-2.6-1.5-3.7-1.3c0.2-0.2,0.3-1.5,0-1.8c-0.6-0.8-4.2-0.8-5.7-0.6c0.8-1.1,0.7-2.4,1.2-3.6
		c0.5-1.1,1.3-1.8,2-2.7c1-1.2,3.2-4.5,2.3-6.1c-1.5-2.9-10.1,7.2-11.2,9c0.1-0.8,0.9-9.4-0.8-8.7c0.9-1.9,3.5-0.1,4.6-1.4
		c1.6-1.8-2.3-2.7-3.4-3c1.1-0.1,2.3-0.3,3.3-0.9c0.7-0.4,1.2-1.2,2.1-1.5c1.9-0.6,3.9,0.5,5.8-0.6c1.1-0.6,2.3-2.1,1.1-3.2
		c-1.2-1.1-5.4-0.3-6.9-0.2c1.7-1.5,2.2-4.1,3.9-5.7c1.3-1.3,3.4-1.3,5-2.5c4.8-3.5-2.6-4-5.2-3.2c0.6-1.4,2.3-3.1,2.1-4.6
		c-0.2-2.3-2.2,0.1-2.9,1c-1.8,2.2-2.4,5.3-4,7.6c-1.5,2.2-4.5,4-6.6,5.7c0.2-1.3,0.7-4.4,1.5-5.6c0.9-1.2,2.6-1.8,3.6-3
		c0.9-1.1,1.4-2.2-0.4-2.5c-1.6-0.3-3.5,1.2-4.7,1.9c2.8-2.7,5.3-5.5,7.3-8.8c1.7-2.8,3.9-5.3,5.1-8.5c0.3-0.7,1.3-2.7,0.2-3.2
		c-0.7-0.3-1.8,1.1-2.1,1.6c-2.2,2.5-9.1,8.7-10.5,9.3c-1.1,0.5-2.8,1.9-3.9,1.9c-1.4,0.1-0.5-0.8,0.1-1.4c0.9-1,1.8-1.8,2.5-3
		c0.7-1.3,2.4-5.3-0.6-4.6c-1.7,0.4-3.2,3.4-3.8,4.9c0-1.1-0.5-4.6-0.3-5.7c1.2,1.2,8.3-5.4,9.1-6.2c1-1,2.5-3.2,0-2.9
		c-1.1,0.1-2.2,1.4-3.1,2c-1.1,0.8-2.3,1.4-3.5,2c1.9-1.9,3.8-5.1,3.9-7.9c0.1-3.5-3.5-0.6-4.5,0.9c0.1-2.2,3.2-19.7-1.5-19.3
		c-2.5,0.2-2.3,7.6-2.3,9.4c0,4.1,0.6,8.1,1.4,12.1c-1.5-2.3-3.3-6.7-5.8-8.1c-3.8-2.1-0.7,5.5,0.1,6.6c-0.8-0.6-2.5-1.8-3.6-1.3
		c-1.9,0.8-0.3,2.4,0.6,3.4c1.3,1.4,2.7,2.5,4.1,3.7c1.8,1.5,1.3,1.7,0.8,3.8c-0.7-0.8-1.7-2.8-2.9-2.9c-1.7-0.1-1.4,1.9-1.2,3
		c0.4,2,1.4,4,2.7,5.6c0.6,0.7,1.5,1.3,1.9,2.1c0.6,1.2,0,2.3-0.1,3.5c-0.8-1.2-2.8-4.3-4.7-3.6c-1.3,0.5-0.9,2.5-0.7,3.6
		c-2.1-2.3-2.5,1.6-2.5,3.1c-1.2-1.3-4.5-5-6.7-4.1c-1.5,0.6-0.2,2.7,0.3,3.7c1.4,2.5,3.5,4.6,5.5,6.6c1.1,1.1,2.2,2.2,3.4,3.1
		c1,0.7,2.3,1.2,2.7,2.5c-3-0.9-7.6-2.6-10.7-1.5c-4.1,1.4-0.9,4,1.5,4.7c2.9,0.9,7.9-0.2,10,2c1.4,1.4,1.1,2.2,0.3,3.8
		c-0.8,1.4-1.2,2.8-1.4,4.4c-0.9-2.4-2-4.7-3.5-6.8c-0.9-1.3-2.6-3.1-2.8-0.5c-0.2,2.2,1.5,4.8,2.5,6.6c1.2,2,3.6,3.9,4.3,6.1
		c-1.2-0.9-3.5-1.7-4,0.2c-0.4,1.4,0.7,3.6,1.3,4.8c0.9,1.9,2.6,3.5,3.3,5.4c0.8,2,1.3,3.8,1.7,6c-0.4-0.1-0.7,0.1-0.9,0.5
		c-1.2-1.5-3-2.2-4.2-3.7c-1-1.4-1.4-3.1-2.4-4.5c-0.6-0.8-1.8-2.5-2.9-1.3c-0.8,1,0.2,3.1,0.6,4c-3.2-1.3-6.5-2.8-9.8-3.7
		c-2.4-0.7-4.5-1.7-7.1-1.4c-1.3,0.2-4.3,0.7-3.2,2.7c0.5,0.9,2,1.2,3,1.5c1.6,0.6,3.2,1.2,4.8,2c-2.7,0.7-6.2,3.5-2.6,5.4
		c1.7,0.9,1.8,0.5,3.4-0.4c1.7-0.9,3.5-1.4,5.2-2.3c-1.1,1.3-5.1,4.9-2,6.4c2.4,1.1,6.5-2.7,8-4.2c-0.9,1.2-1.8,2.4-2.5,3.6
		c-0.5,1-0.6,2.3-1.8,2.6c-1,0.2-2.6-0.6-3.6-0.7c-1.3-0.1-2.7,0-4,0.2c-1.5,0.3-4.4,1-4.8,2.7c-0.9,3.2,3.5,1.3,4.5,2.3
		c-1.1,0.8-3.9,4.1-0.7,3.4c1.1-0.2,2-1.4,3-1.9c1.7-0.9,3.4-0.7,5.2-0.7c-0.8,0.9-3,2.4-2.9,3.7c0,2.4,3.1-0.2,4-0.8
		c2.4-1.8,4-3.2,7-3.7c1.5-0.2,5.4-2.1,6-2.3c0.5-0.2,1.1,0.3,1.5-0.1c0,1.9,0.2,3.8,0,5.7c-0.2,1.5-0.8,2.6-1.2,4.1
		c-0.9-1.5-4.8-5.9-7.1-4.9c-1.9,0.9,0,1.7,0.7,2.4c1.2,1.2,1.4,2.9,2.3,4.3c-1-0.4-1.9-0.6-2.8-1.2c-0.5-0.3-0.9-0.9-1.4-1.2
		c-0.8-0.4-3.9-0.8-4.5,0.2c-1.2,1.9,7,5.2,8.1,5.9c-1.8,0.5-3.7,0.9-5,2.3c-0.9-1.4-3.1-6.2-5.3-6.2c-2.2,0-0.3,3.7,0.3,4.7
		c-3.5-2.7-7.8-5.2-12-6.7c-1.5-0.5-2.9-0.7-2,1.2c0.9,1.8,3.6,3,5.2,4c-1,0.1-0.3,1.7-0.1,2.2c0.6,1.3,1.9,2.1,3.1,2.8
		c-1.7,0.2-1.5-0.1-2.9-0.9c-0.9-0.5-1.2-0.9-1.8,0.2c-0.9,1.7,0.7,6.4,1.5,7.9c-2.6-3.6-6-6.3-10-8.3c-0.9-0.4-3.4-1.9-4.4-0.9
		c-1,1,0.3,2.7,0.9,3.5c-2.5-0.8-5.1-1-7.5-1.7c-2.1-0.6-2.6,0.3-1,2c1.6,1.7,3.7,2.8,5.8,3.8c1.5,0.7,4.9,1.1,5.6,2.8
		c-1.3-0.4-1.7,0.6-1.1,1.6c0.6,0.9,2,0.8,2.4,1.9c-0.9,0.2-6.7,2.8-7.9,2.6c-0.9-0.2-1.9-1.2-2.7-0.3c-2.2,2.6,7,8.8,8.5,9.7
		c-1.3-0.2-1.9-0.1-3-0.7c-1-0.5-2.1-1.2-3.1-1.8c-1.9-1.1-3.9-2.2-5.9-3c-1.1-0.5-10.9-3.8-11-1c0,1.2,2,1.8,2.8,2.2
		c2.3,1.1,4.5,2.3,6.8,3.4c4.3,2.2,8.7,4.4,13.5,5c-1.8,0.1-4.9,1.2-6.2,0.7c-1.1-0.4-2.3-2-3.2-2.8c-1-0.8-2.1-1.6-3.2-2.3
		c-1-0.6-3.3-2.3-3.9-0.7c-0.2,0.5,2.1,5,2.9,6c-1.2-0.6-13.5-5.6-12.1-1.5c0.6,1.8,4.4,3.8,5.9,4.7c2.9,1.7,6,3,9.3,4
		c-1.4,0.1-4.9,0-4.5,2.2c0.5,3,7.5,3.1,9.4,3.1c-1.1,0-2.6,0.4-3.6,0.8c-0.4,0.2-0.7,0.2-1,0.5c-0.3,0.3,0,0.9-0.1,1
		c-0.6,0.7-1.8,0.7-1.7,1.9c0,1.1,1.6,1.5,2.4,1.7c2.3,0.7,5,0.7,7.4,0.6c2-0.1,5.5-0.2,7-1.7c0.5,1.1,1.5,2,2.6,2.4
		c-1,0.9-1.8,0.3-2.4,1.6c-0.1,0.1-0.3,1.7-0.3,1.9c-0.1,0.6-0.9,1.1-0.6,1.8c0.5,1.3,1.8,0.4,2.7,0.6c1.6,0.2,2,1.6,3.1,2.6
		c-2.6-1.4-5.4-2.6-8.4-3.2c-2-0.5-6.4-1.5-8.2-0.1c-1.5,1.2,0.6,2,1.8,2.6c2.7,1.5,5.5,2.6,8.5,3.4c-0.8-0.1-4.4-0.6-4.3,1
		c0.1,1.3,5.4,2.3,6.3,2.6c-2,0-7.8,0.4-8.5,3.1c-0.7-0.8-4.7-5.6-5-2.7c-1.5-1.2-2.2-0.3-1.4,1.3c-1.5-0.3,0,1.2,0.4,1.4
		c-1.5,0.1-2.6-1.6-3.5-2.5c-1.3-1.2-2.5-2-4.1-2.6c-4.7-1.9,0,4.2,0.4,5.5c-1-0.3-2.8-1.4-3.4,0c-0.4,0.8,0.9,2.3,1.4,2.9
		c-2.8,1.1-3-7.1-3.7-8.3c-0.9-1.4-2.3-2.3-3.5-0.7c-1.2,1.5-0.6,4-0.5,5.7c-0.9-1.4-3.9-7.1-6.4-6.1c-2.3,0.9,0.2,5.4,0.7,6.9
		c-0.6-0.3-1.5-0.2-1.4,0.6c-0.8-1.1-8.2-9.4-10.1-6.9c-1.3,1.8,5.4,7.1,6.4,8c-1.5-0.9-8-4.6-10.1-3.2c-1.4,0.9,5,5.3,7.4,6.3
		c-3.6-0.5-7.1-1.7-10.7-2.3c-1-0.2-5.8-0.1-4.9,1.8c0.5,1.2,10.9,4,14.3,4.2c-1.1,0.2-5.3,1.2-6.4,1.3c-1.4,0.1-3.2,0.3-3.9,1.7
		c-2.3,4.3,7.6,2.4,9.2,1.6c-0.5,0.4-1.9,2.6-1.7,3.2c0.4,1.1,1.5,1.9,2.6,1.8c2.4-0.2,4-3.2,6.2-4c-1.3,1.3-2.3,3.7-0.9,5.3
		c1.4,1.6,3.5,0.4,5-0.5c1-0.6,1.6-1.1,2.8-1.2c1.3-0.1,2.6,0.5,3.9,0.4c2.3-0.1,5.4-2.3,7.6-1.7c-1.4,0.6-11.4,5.4-9,8.1
		c1.4,1.6,5.7-1.6,6.8-2.4c0.9-0.7,2.1-2.1,3.3-2.2c1-0.1,1.8,0.8,2.9,0.6c-1.3,2-2,4.1-4,5.5c-1.7,1.2-3.5,2.4-4.9,3.9
		c-0.3,0.4,0,0.3-0.5,0.6c-0.5,0.3-0.9,0.3-1.4,0.4c-1.4,0.2-3.1,0.1-4.5,0c-0.8,0-2.4-0.5-3.2-0.1c-1.2,0.6-0.6,1.6,0.4,2.1
		c-1.1,0.2-12.4,0.6-10.8,3.2c-3.3-1.2-6.2-1.6-9.6-2.3c-1.7-0.3-5.9-3.3-5.7,0.3c0.1,2.4,3,4.5,4.9,5.3c3.2,1.4,6.8,0.3,10.2,1.3
		c-1.1,0.5-5.1,2.2-5.3,3.6c-0.2,1.5,1.6,1.4,2.7,1.3c2.3-0.1,11.2-0.1,13.6-0.1c-1.8,1.3-7.7,7-7,8c-4-1.4-8.1-1.8-12.2-2.7
		c-4.1-0.9-7.6-2.6-11.9-2.9c1.3-2.9-7.6-3.3-8.6-3.2c1.8-1.1,4.6-1.2,6.6-1.9c1.8-0.6,3.9-1.3,5.2-2.7c2.1-2.2-0.6-2.2-2.3-1.7
		c-2.3,0.6-4.6,1.4-6.6,2.7c4.1-3.5,7.6-7.2,12.3-9.8c1.2-0.7,10.5-6.7,6.6-7.9c-1.9-0.6-5,1.8-6.4,2.7c-2.3,1.5-10.6,8.1-12.7,9.7
		c-2.2,1.6-4.1,3.6-6,5.6c0.4-1.4,0.2-3.6,1.1-4.7c1-1.2,3.5-1.9,4.8-2.8c1.7-1.1,8.3-7.2,2.5-6c1.8-1.5,3.6-3.1,4.4-5.3
		c0.9-2.5,0.1-4.1-2.7-3.2c-5,1.6-8.9,5.6-12.2,9.5c1.1-2.6,1.4-4.5,3.9-6.2c2-1.4,3.9-2.8,5.2-5c1.3-2.1,0.5-3.3-1.9-2.4
		c-2.5,1-4.5,2.8-6.6,4.4c2.7-3.1,4.8-5.8,8.1-8.2c2.6-1.9,5.8-3.9,7.3-6.9c2.1-4-2.9-2.2-4.8-1c-3.2,2.1-5.7,5.1-8.1,8
		c0.3-1.6,0.4-3.8-1.8-2.7c-1.7,0.9-2.7,3.4-3.4,5.1c-0.4-1.8,1.7-3.2,2.6-4.5c1-1.6,1.8-3.4,1.6-5.4c-0.2-1.7-0.3-1.7,1.1-2.9
		c0.8-0.6,1.6-1.2,2.3-1.8c1-0.9,4.4-3.5,3.3-5.1c-2-2.9-6.8,2.1-7.9,3.5c1.2-2.9,2.8-5.5,4.5-8.1c0.8-1.3,3-4.6,2-6.3
		c-1-1.7-3.1,0.4-3.9,1.3c-0.9,0.9-1.4,2.5-2.4,3.3c-0.7,0.6-1.5,0.5-2.4,0.7c1.3-0.7,7.9-6.6,2.9-6.3c1.7-1,3.3-2.3,5-3.3
		c1.3-0.8,3.3-1.5,4-3c0.9-1.8-0.2-1.8-1.7-1.3c-1.7,0.6-3.3,1.5-4.9,2.3c1.7-1.9,9.8-9,10.4-9.7c0.4-0.5,0.9-1.6,0.3-2.1
		c-0.7-0.5-1.7,0.5-2.2,0.7c-2.2,1.2-4.2,2.8-6.1,4.4c0.5-1.3,2.2-4.9,1.2-6.2c-1.8-2.3-4.8,5.4-5,6.3c0.3-2.2-0.4-4.7,0.1-6.7
		c0.4-1.7,2-3.2,2.8-4.8c0.5-1,2.3-3.5,1.7-4.6c-0.8-1.5-2.2,0.1-3,0.9c-3.1,3.2-5.5,7.1-8,10.8c-3,4.5-6.8,7.1-10.8,10.6
		c1.3-2.6,1-5.2,3.2-7.3c0.9-0.9,1.8-1.8,2.5-2.9c0.5-0.6,1.8-1.9,2.1-2.6c0.2-0.5,0.3-1.5-0.3-1.9c-0.7-0.4-2.5,1.2-3.1,1.5
		c-2.8,1.2-5.1,2.6-7.4,4.6c1.4-5.1,6.5-8.4,7.6-13.7c0.4-1.8-0.2-4.2-1.9-2.2c-2,2.3-3.8,4.1-5.2,6.8c0.5-2.1,0.2-4.9,1-6.8
		c0.6-1.3,1.9-2,3.1-2.7c1.6-0.9,5.1-2.2,5.5-4.3c0.6-3.7-4.8-1.3-6-0.5c-3.3,2.2-6.1,5.1-8.2,8.4c0.8-2,1.8-4.6,3.2-6.2
		c1.4-1.7,3.7-2.4,5.1-4.2c0.6-0.8,1.9-2.7,0.5-3.3c-1.1-0.5-4.9,2.4-5.8,2.9c1.1-1.7,1.3-2.8,2.9-4.1c1.4-1.1,2.9-2.3,4.1-3.6
		c0.5-0.6,2.2-2,1.3-3c-0.7-0.7-2.2,0.4-2.8,0.7c2.6-2.1,5.5-4.3,7.4-7.2c0.6-1,2.3-3.9,1-4.9c-1.9-1.6-4.9,2.5-5.8,3.6
		c-1,1.2-1.9,2.8-3.2,3.8c-1.4,1.2-3.2,1.3-4.8,2c2.4-2.9,4.7-5.8,7.1-8.7c1.2-1.6,2.3-3.2,3.7-4.7c0.7-0.7,2.1-1.8,2.1-2.9
		c0-3.3-4.5,0.8-5.2,1.8c-2.1,2.9-3.2,6.4-5.3,9.3c0.1-1.6-2.3-0.2-2.9,0.2c-1.9,1.3-2,3.4-3.4,5c-0.5-1.1-1.7-0.7-2.5-0.2
		c0.1-1.8-0.5-2.5,1.2-3.6c1.2-0.8,2.3-1.4,2.8-2.8c0.4-1.1,0.5-2.5-1-2.5c-1.2,0-2.3,1.8-3.1,2.4c-0.1-1.9,4.8-5.1,2.8-7.3
		c-1.2-1.4-3.1,1.2-3.6,2.3c-0.1-1.4-0.7-3.1-0.4-4.5c0.3-1.4,1.7-2.4,2.7-3.4c1.9-1.8,4.4-3.5,5.3-6.1c0.2-0.7,0.6-1.8-0.2-2.2
		c-1.1-0.6-2.2,1.1-2.8,1.7c-1.1,1.2-2.2,2.4-3.2,3.7c-0.8,1-1.4,3.1-2.3,3.7c0.6-2.8,0.6-5.9,0.5-8.8c0-0.5-0.2-3.6-1.2-2.6
		c0.1-3.2,0.7-6.4,0.2-9.6c-0.2-1.4-2.5-6.5-3.4-2.9c-0.6,2.6,0.2,6,0.4,8.6c0.1,1.6,1.2,8.5,0.7,9.6c-1.3,3.4-6.2-3-8.2-1.4
		c-1.4,1.2,1.2,3.7,2.1,4.2c1.9,1,4.4,1.1,6.5,0.8c-0.2,3.4,0.4,6.6,0.5,9.9c-1.4-3-5.5-2.6-4.6,1c0.5,1.8,1.7,3.2,2.9,4.5
		c1.4,1.4,1.6,2,1.6,4.1c-2.8-2.2-2.4,2.2-2.1,3.6c-1.4-1.8-2-4.1-3.2-6c-1-1.7-2.4-3.2-3.3-4.9c-1.8-3.6-2.1-7.9-4.6-11.2
		c-0.7-0.9-1.6-1.8-2.3-0.4c-0.6,1.2,0.9,3.6,1.4,4.5c1.9,3.8,3.8,7,4.9,11.2c-2.5-2.3-3.1-0.1-2.8,2.3c-2.4-2.3-3.8-5.5-6.1-8
		c-0.6-0.7-1.8-2.1-2.9-2c-1.7,0.2-1.1,1.5-0.5,2.5c1.8,2.8,4.8,4.8,6.9,7.3c1.3,1.5,2.5,3,3.7,4.6c1,1.3,2.4,2.8,3.1,4.2
		c-1.5-0.3-2.9,0.7-3,2.2c-0.1,1.6,1.2,2.9,2.2,4c2.4,2.6,5.5,4.9,6.8,8.3c-1-0.5-5.1-2.7-6-1.1c-0.6,1.1,1.5,3.1,2.1,3.8
		c-1.2-1.1-5.3-3.8-6.7-2c-1,1.3,0.7,4.2,1.4,5.3c1.4,2.1,3.3,3.7,5.2,5.2c-1,0.7-1.3-0.1-1.4,1.5c-0.1,1.2,0.3,2.6,0.8,3.8
		c-1.3-1.3-2.3-2.8-3.4-4.3c-1.1-1.6-1.3-2.1-1.6-4.2c-0.2-1.2-3.6-10.1-6.1-7.7c-0.1-2.5-0.3-4.9-0.5-7.4c-0.2-1.8-0.2-4.1-2.1-5
		c-2.2-1.1-2.1,1.7-2.1,3.4c0.1,2.3,0.4,4.8,1,7.1c-0.8-1.2-4.6-7.3-4.1-2.5c0.3,3.2,2.7,6.1,4.8,8.5c2,2.3,4.2,4.4,5.7,7.1
		c0.9,1.6,2.2,2.8,3.3,4.3c1,1.3,1.9,2.8,3.2,3.7c-1.5,0-3.1,0.7-4.4-0.3c-1-0.8-1.1-3.4-2.5-3.8c-2.3-0.6-0.5,7.5-0.3,8.7
		c-1.1-1.3-2.1-1.9-2.3-3.7c-0.2-1.9,0.1-3.7-0.3-5.5c-0.3-1-0.7-2.9-2.1-2.8c-1.5,0.1-2.1,2.3-2.2,3.4c-1-0.7-9-8-11.1-9.2
		c-1.8-1-2.7-0.6-1.6,1.3c1.3,2.4,3.1,4.8,4.7,7c-2.2-0.3-2.6,0.8-1.4,2.5c1.3,1.8,3.3,3.1,5.1,4.4c-2.6,0.5-3.1,2.4-0.8,3.7
		c1.1,0.6,2.2,0.9,3.2,1.8c1.1,1,2.1,2.3,3.1,3.5c-1.1-0.3-2.7-1.8-3.8-0.9c-1,0.8-0.2,2.6,0.2,3.5c1.5,3.5,4.4,6.1,7.3,8.5
		c-1.8-0.7-4.9-2.3-6.7-0.8c-2.3,1.9,2.8,5.2,4.3,6.1c-2.3-0.4-6.8-0.7-6.8,2.7c-0.9-1.5-3.6-5-5.6-4.9c-3.6,0.2,2.2,7.9,2.8,9.2
		c-0.6-0.4-2.4-1.5-2.7-0.2c-0.7-1.3-5.6-8.7-7.3-6.2c-0.8-1.3-5.2-8.2-7.4-5.9c-1.9,1.9,3.9,6,4.9,7.2c-1.5-0.8-2.6-2.1-3.8-3.1
		c-1.3-1.1-2.7-2-3.9-3.3c-1.6-1.6-5.2-6.6-8.1-5.3c-2.3,1.1,0.3,4.4,1.3,5.6c2.6,2.9,6,3.5,9.2,5.4c-1.1,0-4.1,0-5.1,0.7
		c-1.5,1.1-0.1,2.4,0.9,3.3c1.4,1,7.7,0.8,9.6,2.1c-1.6-0.2-7.6-0.8-8.3,1.6c-0.9,2.9,6.4,1.9,7.5,1.7c-0.2,0.5-0.5,1.4,0.2,1.7
		c-1.8,0.3-3.2,1.4-2,3.2c1.2,1.8,4.2,2.6,6.1,3.1c2.6,0.7,5.4,1.2,8.1,1.4c1.5,0.1,4.5-0.7,5.5,0.6c-2.1-0.2-4.1-0.2-6.2-0.3
		c-1.6,0-3.9-0.6-5.5,0.1c-3.6,1.5,4.4,3.9,5.3,4.2c-0.7,0.8-0.8,1-2.1,0.7c-0.7-0.2-2.6-1.9-3.2-1.5c-1.3,1,4.1,5.2,4.7,5.7
		c-0.3-0.2-0.5-0.3-0.7-0.1c-0.4,1.1,2.5,3.7,3.1,4.5c-4-2.8-8-5.7-11.9-8.5c-1.6-1.1-7.7-7.9-9.9-6.3c-4.9,3.6,15.2,12.3,17,13.4
		c-1.3-0.5-8-3.9-8.9-1.6c-1.1,2.8,4.4,5.1,6.2,5.8c-2.7-0.2-5.5,0.2-8.1-0.9c-0.9-0.4-4.7-2.2-2.8,0.3c1.2,1.6,4.8,2.4,6.6,2.8
		c2.9,0.7,5.9,0.9,8.9,1.2c-2,0-4.1,0-6.1,0.1c-0.9,0-3.2-0.3-3,0.9c0.2,1,2,1.4,2.8,1.7c1.8,0.6,3,0.5,4.1,2.1
		c-2.5,0.9-2.8,1.1-4.7-0.9c-1.2-1.3-2.5-2.6-4-3.6c-1.6-1.1-4.2-3.3-6.2-3.5c-1.2-0.1-1.2-0.1-0.8,1.1c0.7,1.7,1.9,3.6,3,5
		c2.9,3.8,5.7,7.9,9,11.4c-1.8-0.7-3.9-3.1-5.2-4.5c-1.5-1.5-2.6-3.3-4.4-4.4c-1-0.6-5.2-3-4.9-0.4c0.1,0.7,1.2,2.2,1.5,2.9
		c0.5,1.2,1.1,2.3,1.8,3.4c-0.9,0.2-1.7-1.2-2.3-1.7c-1.1-1-2.4-1.9-3.6-2.6c-2.5-1.5-5.2-2.7-7.9-3.9c-1.5-0.7-4.3-1.2-2.6,1.1
		c1.7,2.3,5,3.8,7.3,5.4c-1.5-0.2-6.1-0.6-4.8,2c1.1,2.2,4.2,2.5,6.3,2.9c2.2,0.4,5,0.2,6.9,1.2c0.7,0.3,1.6,1.1,2.6,1.5
		c1.5,0.6,3,1.1,4.5,1.5c-3,0-6.4-1.4-9.3-0.2c-3,1.2-0.9,3,1.1,4c2.7,1.4,6,2.5,8.9,3.1c1.6,0.3,3.2,0.3,4.8,0.8
		c1.5,0.5,2.8,1.5,4.3,1.9c-1.9,0-4,0-5.8,0.7c-1.6,0.6-1.5,0.8-0.3,1.7c1.4,1,2.7,1.3,4.3,1.7c2.1,0.5,4.1,1.5,6.2,2
		c-1.5,0.2-1.4,1.2-0.6,2.1c1,1.2,3.2,1.6,4.6,1.9c-2.1,0.3-4.2,0.2-6.3-0.2c-1.2-0.3-3-1.1-3.9,0.2c-2.5,3.9,6.3,4,7.7,4.2
		c-1,0.9-0.4,2.6-0.3,3.7c-1-1-2.7-3.1-4.2-3.2c-2.3-0.2-0.4,0.9-1.2,1.9c-2.1-1.5-2-2.9-3.2-5c-0.9-1.6-2.3-3.1-3.7-4.3
		c-2.9-2.4-3.9,0.3-2.7,2.9c-2.6-2-5.6-3.1-7.6-5.8c-0.6-0.9-1.3-2.7-2.6-2.8c-1.3-0.1-1.5,1.2-1.3,2.3c-1.2-1-7.7-6.4-9.4-3.9
		c-1.5,2.2,7.4,6.2,8.8,6.9c-1.5-0.2-3.1-0.9-4.6-0.6c-0.7,0.1-1.5,0.3-1.7,1.2c-0.2,1.2,0.7,1.2,1.3,1.8c0.5,0.5,0.6,1.1,1.7,1.4
		c1.2,0.3,2.5-0.3,3.7-0.4c2.8-0.3,5.6,1.8,8.2,2.7c-2-0.2-4.1-0.2-5.9,0.9c-1.1,0.6-3,2.2-1.1,3.1c1.3,0.6,4.4,0.1,5.8,0.1
		c0.9,0,1.9-0.2,2.8-0.2c1,0,1.3,0.1,2.3,0.4c-2.5,0.8-4.8,2.1-6.7,3.9c-2.1,2-0.8,3,1.7,2.5c2.6-0.4,4.9-1.4,7.5-2
		c2.8-0.6,4.3-2.2,7-0.7c-2.3,0.7-4.4-0.4-6.6,1.1c-1.1,0.7-2.6,2.3-1.7,3.7c1.2,1.8,3.5,0.5,5,1.3c0.7,0.3,1.1,1.3,1.6,1.8
		c0.7,0.8,1.6,1.5,2.4,2.2c-5-1-10.8-2.6-15.4-4.9c-2.2-1.1-11.4-4.8-13.7-5.8c-3.7-1.7-6.5-5.4-10.7-5.9c-2.4-0.3-3.6,1-1.7,2.9
		c1.9,1.9,4.4,3.3,6.7,4.6c-2,0.6-8,4.7-3.1,5.5c2,0.3,4.2,0,6.1-0.3c1.5-0.3,4.1-1.6,5.4-0.7c-1.8,0.1-2.8,0.3-3.5,1.9
		c-0.7,1.6,0.1,2.4,1.8,3.1c1.9,0.8,3.6-0.1,5.5,0.4c1.3,0.3,2.1,0.8,3.6,0.7c1.6,0,3.1,0.2,4.7,0.2c-2.6,0.5-5.2,0.8-7.8,1
		c-2.1,0.1-4.8,0-6.6,1.4c-4.1,3,5.9,4.4,7.6,4.5c-1.5,1.5-3.9,5.7,0.2,4.1c1.4-0.6,2.7-1.5,3.8-2.5c1.1-1,1.9-2.6,3.4-3.1
		c-1,2-1.7,4.1-2.4,6.2c-0.4,1.4-1.6,3.7-0.6,5.1c-6.3-0.5-12.3-2.5-17.9-5.2c-2.7-1.3-5.4-2.7-7.9-4.4c-1.1-0.7-2-1.7-3.1-2.4
		c-2.6-1.8-3.7,0-3.3,1.5c0.4,1.6,1.9,3,3.1,4c-1.5,0.3-7.3,0.4-4.4,2.8c1.9,1.6,5,1.7,7.4,1.9c-1.7,0.5-5.9,3.8-2.3,4.5
		c1.6,0.3,3.1-0.2,4.6,0.5c1.3,0.6,2.1,1.9,3.2,2.7c-2.4,0-6.3-1-8.4,0.8c-3.6,3.2,6.3,3.2,7.6,3.6c-2.8,1.4-6,2.1-8.8,3.5
		c-1.4,0.7-2.8,2-0.8,2.7c2.6,0.9,7.4-0.5,9.9-1.4c-1.6,2-1.5,3.3-4.3,3.3c-1,0-5.8-0.2-5.9,1.3c-2.3-1.4-12.4-4.7-13.8-4.3
		c-3.6,1.1,4.5,5.7,5.6,6.1c-0.9,0.2-7.9,1.4-6.9,3.2c0.5,0.9,2.8,0.4,3.6,0.4c2,0,4,0.2,6,0.7c-1.3,0.5-4,2.4-3.1,4.1
		c0.6,1.2,2.4,0.9,3.5,0.8c1.2-0.1,3.3-1.2,4.3-0.6c0.4,0.2,0.6,1.3,1,1.6c0.9,0.7,1,0.3,2,0.3c-0.6,1.1-2.5,2.7-1.3,4
		c1.2,1.2,3.6-0.4,4.6-1.1c-0.6,2,0.3,3.3-2,4.4c-0.8,0.4-3.7,0.6-3.9,1.6c-0.3,1.2,1.8,1.9,2.6,2.1c0.6,0.2,1.5,0.1,2,0.5
		c0.5,0.3,1,1.2,1.5,1.6c-2.5,0.5,1.1,2.1,1.5,2.3c1.6,0.8,2.7,2.3,4.2,3.3c-2.2,0.7-4.4,1.5-6.5,2.5c-1.8,0.8-2.6,1.9-0.2,2.7
		c1.9,0.6,3.6,0.3,5.5-0.1c1.7-0.3,4.3-1.4,6-1.2c-1.1,0.3-6,0.9-4.2,2.9c1.2,1.4,4.9,0.5,6.5,0.3c-2,0.8-8,5.9-3.5,6.9
		c2.2,0.5,4.8-0.5,6.8-1.4c2.2-0.9,4-0.9,6.2-1.4c-1.6,1.2-2.6,4-4.5,4.2c-1.2,0.1-6.7-0.2-8.1-0.1c-3,0.2-6.1,0.5-9,0
		c-3.1-0.5-21.3-10.4-23.9-11.1c-2.6-0.7-4.2,1-2.3,3.2c1.7,1.9,4.8,3,7,4.3c-1.7,0.1-8.9,2.4-4.7,4.2c1.6,0.7,3.5,0.3,5.2,0.9
		c2.2,0.8,3.9,2,6.3,2.4c-2,0.9-3.6,3.3-0.4,3.6c1.3,0.1,2.7-0.2,3.8-0.7c1.1-0.5,2.6-1.9,3.9-1.4c-1.5,0.9-2.4,1.8-3.2,3.4
		c-0.4,0.9-1.8,2.9-1.3,3.9c1.1,2.3,7.1-0.8,8.3-1.7c-0.6,0.8-2.5,3-1.1,3.9c-2.3-0.3-6.4,0.6-2.8,2.7c-1.5-0.4-2.9-0.4-4.1-1.5
		c-1.1-1-1.8-2.3-2.9-3.3c-1.6-1.3-4.1-2.4-6.2-1.7c-0.9,0.3-1.3,0.7-1.6,1.6c-0.1,0.3-0.2,1.2-0.2,1.3c0,0.2,3.7,4.9,5.4,5.9
		c-1.1,0-5.8,0.3-4.2,2.4c1.1,1.5,4.6,0.9,6.1,0.8c-2.7,0.8-5.4,1.6-8.1,2.6c-2.3,0.9-3,3.1,0.1,3.3c5.6,0.4,10.3-3.6,15.7-3.8
		c-1.1,1.3-2,2.5-3.7,2.8c-2.3,0.4-4.3-0.1-6.6,0.5c-1.9,0.6-4.4,1.5-6.1,2.6c-1.6,1.1-1,2,0.9,2.1c1,0.1,9.4-1.5,8.6,0.9
		c-0.4,1.1-2.6,1.4-3.4,1.7c-2,0.7-4,1.6-5.5,3.1 M518.5,151.5c-0.8-0.6-1.7-1.1-2.7-1c0.4-0.5,1.4-1,1.2-0.9
		C516.8,149.4,517.9,150.8,518.5,151.5z M490.8,155.2c-0.3,1.9-0.4,3.9-0.2,5.9c-0.8-2-2.1-10.3-1.1-11.5c0.6,0.6,1.1,1.3,1.4,2.1
		c-0.4-0.9,0.3,0.8,0.3,1.2c0.1,1-0.4,2.1-0.6,3.1C490.8,155.7,490.9,154.8,490.8,155.2C490.6,157.1,491,154.3,490.8,155.2z
		 M494.3,162.1c-0.8-0.7-0.6-5.7-0.6-7c0.5,0.7,1.8,3,1.5,3.4C494.4,159.3,494.4,161.4,494.3,162.1c-0.2-0.1-0.3-0.3-0.2-0.5
		C494.3,161.6,494.4,161.8,494.3,162.1C493.5,161.3,494.4,161.2,494.3,162.1z M480.4,195.3c-1,0.2-1.3-1.5-2.3-1
		c0.1-0.9,0.8-1,1.6-0.4c0.8,0.6,0.4,1,0.4,1.3C480.2,195.2,480.3,195.2,480.4,195.3C479.4,195.5,480.4,195.1,480.4,195.3z
		 M262.3,85.8c0.5,0.3-1,0.7-1.4,0.9c-0.8,0.4-1.5,0.9-2.2,1.5c0-0.4,0-0.7-0.1-1C259.9,86.9,261.2,86.6,262.3,85.8
		c0,0-0.4,0.3-0.5,0.3C262,86,262.2,85.9,262.3,85.8C262.4,85.9,261.2,86.6,262.3,85.8z M240.4,54.8c-1.1-2.7-2.2-5.3-2.8-8.1
		c1,1.3,2.5,2.3,3.1,3.9c0.6,1.7,0.3,4.1,0.4,5.9c-0.2-0.4-0.5-1.4-0.8-1.8C240.3,54.6,240.5,55.1,240.4,54.8
		C239.3,52.1,240.6,55.3,240.4,54.8z M70.9,237c-0.1,0.9-0.2,1.9-0.2,2.9c-0.4-0.4-2.4-1.7-2,0c-0.9-1.3-1.1-3.1-2.1-4.5
		c1.5-0.3,2.9-0.3,4.4-0.5c-0.1,0.6,0.2,1.9-0.1,2.4C70.9,237.3,70.9,236.5,70.9,237C70.8,238,70.9,236.3,70.9,237z M21.9,400.1
		c2.3-1.1,4.3-2.9,5.4-5.1c-0.1,0.4-0.6,3.4-0.5,3.4c0.2,0.1,0.2,0.2,0.2,0.5C26.2,399.3,24.6,400.3,21.9,400.1z M32.6,383.4
		c-0.4,0.8-1.2,1.6-1.4,2.5c-1.5-0.8-3.2-0.7-4.9-0.9c0.2,0,0.4,0,0.7,0c-0.4,0-0.8-0.1-1.2-0.1c3.3,0,6-2.5,8.5-4.5
		C33.6,381.5,33.1,382.5,32.6,383.4C32.5,383.5,32.9,383,32.6,383.4z M46,385.5c0.1-0.1,0.1-0.2,0.2-0.3c-0.7,1.4-2.5,1.1-3.7,1.2
		c-2.2,0.2-4.4,1.5-6.7,1.1c1.5-1.1,3.3-3.3,5.2-3.8c1-0.3,2.2,0.2,3.2,0.1c1.2-0.1,2.4-0.6,3.5-1C47,383.7,46.5,384.6,46,385.5
		c0.1-0.1,0.1-0.3,0.2-0.4C46.2,385.2,46.1,385.4,46,385.5C46.2,385.2,46.5,384.6,46,385.5z M35.6,348.2c1.3-0.3,2.3,0.2,3.5,0
		c1.3-0.2,2.4-1.8,3.4-2.6c-0.3,0.7-0.6,2.3-1.2,2.8c0,0,0.4-0.9,0.2-0.2C40.8,349.1,37.9,348.7,35.6,348.2z M42.8,323.3
		c-1,1.3-1.4,2.1-3.1,1.9c-1.9-0.3-3.7-1.3-5.6-1.6c1.4-1,2.8-2.1,4.1-3.2c-0.9,5.2,5.4,0.8,7.3-0.2c-1,1.1-1.9,2.2-2.8,3.4
		c0.1-0.2,0.3-0.3,0.4-0.5C43,323.1,42.9,323.2,42.8,323.3C41.7,324.7,43.6,322.2,42.8,323.3z M45.2,324.5c2.4-1.7,4.6-3.6,6.7-5.5
		c-0.4,0.9-0.7,1.8-1,2.7c-0.2,0.6-0.3,1.2-0.4,1.9c-0.2,0.1,0.1-1.2,0,0C48.7,323.7,46.9,324.1,45.2,324.5z M81.6,192.6
		c0,2.4,0,4.8,0,7.2c-1.6-2.2-1.5-5.4-3-7.8 M56.5,371.1c-1,1-2.2,0.9-4.1,0.5c2.1-0.6,3.9-1.9,5.9-2.6
		C57.8,369.5,56.5,371,56.5,371.1C56.5,371,56.5,371,56.5,371.1z M58.4,304.1c0.4-0.9-1.2-1-1.8-1.1c1.2-1.2,1.8-2.9,3.3-3.7
		c-0.6,0.9,0.7,1.1,1.2,1c0.8-0.1,1.4-0.8,2-1.2c-0.8,1.6-2.2,3.9-2,4.1 M69.2,305.8c-0.2-0.2-0.8-0.2-0.2,0c-0.6,0-0.9-0.2-1.7-0.1
		c-1,0.2-1.9,0.8-3,1.1c1.2-2.2,3.7-4,5.2-6.2C69.4,301.7,68.4,304.8,69.2,305.8c-0.1-0.1-0.2-0.2-0.3-0.3
		C69.1,305.5,69.2,305.7,69.2,305.8z M75.7,300.2c-0.2,0.8,0,2.5-0.4,3.1c-0.5,0.8-2.4,0.9-3.2,1.3c2-2.1,3.2-4.9,4.3-7.7
		C76.5,298.2,76,299.2,75.7,300.2C75.6,300.6,76,299.2,75.7,300.2z M75.4,268.9c2.2,0.5,4.4,0.9,6.7,0.7c-1.3,0.8-2.7,1.9-3.6,3.1
		 M121.5,163.1c0.7-1,1.5-1.9,2.4-2.7c-0.4,1.3,0.1,3.8-0.9,4.7c-0.5,0.5-1.4,0.3-2.1,0.4c-1.1,0.3-2,0.8-3,1.3
		C119.2,165.6,120.4,164.4,121.5,163.1c-0.1,0.2-0.3,0.4-0.5,0.6C121.1,163.4,121.3,163.3,121.5,163.1
		C122.1,162.2,120.4,164.4,121.5,163.1z M125.3,184.8c-1-0.1-2,0.7-2.4,1.6c-0.8-1-2.2-1.4-3.4-1.3c1.2-1.7,1.3-2.6,3.5-3.2
		c1.9-0.5,3.8-1.1,5.6-2c-0.9,1.8-1.6,3.6-2.4,5.4c-0.2-0.4-0.8-0.4-1.2-0.4C125,184.8,125.3,184.8,125.3,184.8
		C124.3,184.7,125.6,184.9,125.3,184.8z M181.9,239c-1.6,2-2.9,1.8-5.3,2 M147,253c1.1,0.1,4.6,0.9,5.5,0.3c1.1-0.8,0.2-1.7-0.8-2.4
		c1.1-0.7,2.2-1.5,3.1-2.4c-0.7,1.4,1.2,1.3,1.9,1.1c-0.4,0.1-0.8,0.1-1.3,0.2c3.6-0.5,6.9-2,9.8-4.1c-2,3.2-5.1,5.9-8.3,7.8
		c-3,1.8-6.6,1.1-10.1,1.1c1.4-0.1-0.4-2.2,0.6-1.5C147.4,253.3,147.2,253.3,147,253C148,253.1,147.6,253.4,147,253z M132.4,238.2
		c1.1-0.2,1.9-1,2.9-1.2c0.9-0.2,2.9-0.1,3.7,0.3c0.8,0.3,1.4,1.1,2.1,1.6c1.3,0.9,2.7,1.4,4.1,1.9c-3,1.2-4.7,3.8-6.2,6.7
		c-1.1-0.8-2.9-0.8-3.5-2.2c1.7-0.2,2.4-0.6,1.1-1.9c-1.2-1.2-4.2-1.9-5.8-2.4C131.6,240.3,132.3,239.3,132.4,238.2
		c0.4-0.1,0,0.5,0,0.5C132.4,238.5,132.4,238.3,132.4,238.2C133,238,132.3,239.3,132.4,238.2z M175.8,327.8c-1.9,0.8-3.2,2.5-4,4.3
		c-0.6-1.7-1.9-3.2-1.3-5.1c0.4-1.1,1.8-1.6,2-2.7c0.9,1.6,2.9,2.3,4.6,2.7C176.7,327.3,176.3,327.7,175.8,327.8
		C173.9,328.6,176,327.8,175.8,327.8z M176,287.1C176.1,287.2,176.2,287.2,176,287.1L176,287.1z M175.9,287.1
		c-1.4-0.6-1.1,0.2-2.4,0.4c-0.8,0.1-2-0.5-2.9-0.5c-1.1-0.1-2.2,0.1-3.3,0.2c-1.5,0.2-3.6,0.5-4.8,1.6c-1.3,1.2-0.6,2.2,1.1,2.5
		c-1.8,0.6-4.2,0.2-6.2,0.3c-2.4,0.1-4.8,0.1-7.2,0.6c-2.4,0.5-4.2,1-6.7,0.8c-2.6-0.3-5.2-0.3-7.8-0.4c1.5-2-0.8-4.9-1.9-6.5
		c3.5,1.3,8.5,4.2,12.4,3.2c4.2-1.1-4.4-3.6-4.4-4.5c0.9,0.2,7.5,1.9,7-0.2c1.2,1,5.6,4.2,7.2,2.5c1.3-1.3-0.8-4-1.5-5.1
		c1.6-0.5,8.1,1.1,5.6-2.6c2.6-1.2,5.2-3.7,8.1-3.9c1.5-0.2,3,0.1,4.6-0.2c1.8-0.3,3.4-1.3,5.2-1.7c-1.1,0.9-6.7,6.1-5.5,8.1
		c1.6,2.6,10.7-5.2,12.1-6.1c-0.6,1.3-0.8,3.4-1.6,4.5c-0.9,1.2-3.6,1.6-4.9,2.2c-1,0.4-2.9,1-2.4,2.4c0.6,1.6,4.1,1.6,5.3,1.5
		c-0.8,1-2.4,1.6-3.3,1.5c0.3,0-1.1-0.4-1-0.4c-0.4-0.1-0.8,0.1-1.2-0.1C175.8,287.1,176.4,287.3,175.9,287.1
		C175.4,286.9,176.6,287.4,175.9,287.1z M184.6,261c-2.6-1-6-0.7-8.4-2.1c2.5-0.9,4.8-2.5,6.9-4.2c0.6-0.5,1.3-1.4,2.1-1.5
		c1.1-0.1,2,0.9,2.9,1.3c-1.2,0.3-9.3,1.6-7.2,4.3c0.5,0.6,0.7,0.1,1.4,0.4c0.3,0.1,0.6,0.3,1,0.4c2.1,0.7,4,0.4,6.2,0.3
		c-2.2,2.1-2.7,1.9-5.4,0.8C184.3,260.8,185.2,261.2,184.6,261C183.3,260.4,185.6,261.3,184.6,261z M193.4,301.7
		c0.1,2.1-3.5,1.4-4.7,1.4c1.5-2.4,3.3-4.6,4.8-7C193.4,298,193.3,299.8,193.4,301.7c0-0.3,0-0.5,0-0.8
		C193.4,301.2,193.4,301.4,193.4,301.7C193.5,303.7,193.3,299.8,193.4,301.7z M194.2,279.2c-1.4,1.8-3.9,1-5.8,1.2
		c2-2,4.5-1.9,7.1-2.7C195,278.2,194.6,278.7,194.2,279.2z M200,260.9c-1.7,1.6-1.8,1.6-4.3,1.7c1.2-0.7,2.3-1.6,3.4-2.4
		c0.3-0.2,3.2-2.3,2.2-1.4c0.6-0.7,1.7-0.8,2.5-1.1C202.5,258.8,201.2,259.8,200,260.9z M206.3,192.2c-1.2-1.1-2.2-2.5-3.2-3.8
		c1.6,0.6,3.4,0.4,4.7,1.4c1.3,1.1,2.1,3,2.9,4.5c-1.7-0.8-3.4-1.2-4.8-2.5c0.2,0.2,0.5,0.4,0.7,0.7
		C206.5,192.4,206.4,192.3,206.3,192.2C205,191.1,207.5,193.3,206.3,192.2z M208.4,141.3c-1.7-2-3.9-3.5-6.1-4.7
		c1.2-0.1,11.5-2.4,12-0.7c-1.3,0.3-5.4,1.2-4.9,3.2c0.3,1.2,2.2,1.2,2.7,2.4c0.7,1.7-0.5,3.6,0.6,5.3c-0.5,0-2.3-2.3-2.6-2.7
		c-0.8-1.1-1.3-2.4-2.2-3.5C207.9,140.7,208.9,141.9,208.4,141.3C206.7,139.3,209.3,142.3,208.4,141.3z M217.3,145.7
		c-0.4-1.5-0.9-2.9-1.5-4.3c0.9,0,1.7,0,2.6-0.1C217.8,142.7,217.7,144.2,217.3,145.7c-0.1-0.3-0.2-0.7-0.1-1
		C217.4,144.3,217.2,146.3,217.3,145.7C216.9,144.2,217.7,144.2,217.3,145.7z M219.7,128c-0.1-0.6-0.2-1.1-0.1-1.7
		c1.1,0.4,3.1,0.1,4.1,0.7c0.8,0.5,0.8,1.6,1.3,2.3c-1.1,0.6-1.3,0.5-2,1.7c-1.1-1-2.7-1.5-3.3-3c0.1,0.2,0.1,0.4,0.2,0.5
		C219.8,128.3,219.8,128.1,219.7,128C219.5,127.4,220.2,129.2,219.7,128z M227.2,145.3c-0.2,0.7-4-0.4-4.8-0.3c0.1-1,0.2-2,0.1-3
		c1.5,0.5,2.9,1.3,4.5,1.6C226.4,144.2,227.4,144.7,227.2,145.3C227,146.3,227.4,144.7,227.2,145.3z M232.8,121.1
		c1.4-0.1,2.8-0.2,4.1-0.6c-0.4,0.8,0.9,1,1.2,1.5c0.5,1,0.3,2.5,0.5,3.6C236.8,123.9,234.9,122.4,232.8,121.1 M295,222.4
		c0.3,0,0.5,0.1,0.8,0.1c-2-0.3,1.3,0.2,1.7,0.2c1.2,0.1,2.3,0.2,3.5,0.3c-1.5,0.8-3,1.6-4.4,2.7c-0.5-1.2-1.3-2.3-2.1-3.4
		C297.4,222.8,294.6,222.3,295,222.4C295.2,222.4,294.8,222.4,295,222.4z M289.1,224.7c1.3,0.2,2.3,1.4,3.5,1.9
		c-1.4,0.7,0.5,0.9,0.4,1.6c-0.1,0.9-1.5,0.3-1.7,1.1c-0.6-0.5-1.3-1.6-2.2-1.7c-0.4-0.1-1.4-0.2-1.1,0.6c-1.6-0.4-2-2.3-2.8-3.4
		C285.3,224.7,288.8,224.7,289.1,224.7z M278.4,196.5c1.2,0.8,2.4,1.6,3.7,2.3c-0.3,0.2-0.6,0.2-0.9,0.1c0.1,0-2.3,0.3-2.8,0.1
		c-1.4-0.6-2.5-3.8-3.3-4.9C276.6,194,277.4,195.8,278.4,196.5c-0.1-0.1-0.2-0.2-0.4-0.3C278.2,196.3,278.3,196.4,278.4,196.5
		C279.4,197.2,277.6,195.9,278.4,196.5z M277.5,285.8c-0.9,0-1.5-0.4-2-1.1c1.1,0.6,1-1.4,1-2c0.4,0.5,1.1,0.2,1.6,0.5
		c1,0.5,1.8,1.5,2.7,2.2c-1.2,0.3-2.4,0.4-3.5,0.4c0.2,0,0.4,0,0.5,0C277.9,285.8,277.8,285.8,277.5,285.8
		C276.5,285.8,278.6,285.8,277.5,285.8z M284,256c0.1,0,0.3,0.1,0.4,0.1c-1.2-0.2,1.3,0,1.3,0c0.7,0,1.4-0.1,2.2,0.1
		c1.7,0.3,3.2,1.4,4.8,2c-1.3,0.2-1.1,0.4-2.3,0.3c-1.1-0.1-2.3-0.6-3.4-0.7c-2.5-0.4-4.3-1.1-6.4-2.5
		C281.9,255.1,282.9,255.8,284,256c-0.2,0-0.3-0.1-0.5-0.1C283.7,256,283.9,256,284,256C283.9,256,282.9,255.8,284,256z
		 M295.9,316.8c-1.3,0-2.5,0.7-3.3-0.6c-0.7-1.1-0.8-3.7-1.2-4.9c0.3,0.4,1.6,2.2,2.1,1.2c-0.2-0.3-0.1,0.2,0,0
		C294.2,314,295,315.4,295.9,316.8z M281,312.9c0.5,0.5,2.9,2.8,3,1c1.1,0.5,0.9,2.4,1.3,3.3C284.4,316.5,281.1,313.8,281,312.9z
		 M286.6,273.5c0.1-0.3,0.2-0.5,0.4-0.8c0.5,3.5,0.8,8.4,4.6,10c-1.8,0.9-3.8,1-5.7,1.4C286.1,280.6,286.9,277,286.6,273.5
		c-0.1,0.1,0.2,1.3,0.2,1.5C286.8,274.6,286.6,273.8,286.6,273.5C286.8,273.2,286.9,277,286.6,273.5z M295.1,281.2
		c-0.8,0.3-1.8,1.3-2.2,0.1c-0.2-0.5,0.6-2.9,0.6-3.5c0.8,1.1,1.8,2.1,2.4,0.3c-0.4,1.3,0-0.9-0.1-1.3c-0.1-0.9-0.6-1.9-1-2.7
		c1.4,1.9,2.9,3.8,4.3,5.7C297.9,280.6,296.4,280.7,295.1,281.2c0.1,0,0.3-0.1,0.5-0.2C295.4,281.1,295.3,281.1,295.1,281.2
		C294.6,281.4,296.4,280.7,295.1,281.2z M349.8,264.5c0.6-1.1,5.2,0.8,4.4-1.4c1.8,0,3.3,1,5.1,1.2c-2,1.5-0.8,1.9,0.6,2.7
		c-3.1,0.7,1.4,1.7,2,1.8c0,0-3.1,1.2-1.2,1.5c-0.8,1.4-3.6-2.9-4.1-3c-2-0.4-2.7,2.4-3.1,3.9c-0.5-0.4-1.3-0.2-1.8-0.6
		c1.8,0.4,1-2.8,0.6-3.6c-0.6-0.9-3-1.7-2.5-2.8C349.9,264.2,349.6,264.8,349.8,264.5C350.3,263.4,349.5,265.1,349.8,264.5z
		 M306.3,276.5c-0.1,0.1-0.1,0.3-0.2,0.4c0.3-0.5,0.5-1.1,0.5-1.7c1,1.4,3.8,6.1,5.8,6.1c2.2,0,1.6-3,1.3-4.3
		c1.3,1.7,2.7,3.5,4.3,4.9c0.8,0.7,3.3,1.8,3.7,2.8c-2.4-1.5-5-3.2-8-3.1c-3.2,0.1-6,1.2-9.2,1c2.4-3-1.4-2.8-1.6-5.1
		C304.1,278,305.7,277.6,306.3,276.5c-0.1,0.2-0.2,0.3-0.2,0.5C306.1,276.8,306.2,276.6,306.3,276.5
		C306.2,276.6,305.7,277.6,306.3,276.5z M318.4,317.5c-1.7-0.3-4.1-0.4-5.6-1.4c-1.4-0.9-1.7-2.4-2.7-3.8c2.7,2,5.3,4.3,8.6,5.2
		c-0.4-0.1-0.8-0.2-1.2-0.3c1.9,0.2,0.4,0.3-0.1,0C317.7,317.4,318.2,317.4,318.4,317.5C316.7,317.1,317.7,317.3,318.4,317.5z
		 M312.4,339.7c1.1,0.1,2.9,0.2,2.7,0.1C315.3,339.7,313.7,341.7,312.4,339.7z M313.1,316.3C312.8,316.2,312.9,316.2,313.1,316.3
		L313.1,316.3z M318.5,287.6c-2.9,0.7-5.9,0.1-8.9,0.4c0.3-0.2-0.1,0,0,0C311.2,287.1,315.8,286,318.5,287.6z M305.8,343.9
		c-3-0.7-3-3.6-3.5-6.3c1.1,0.2,1.9,1.4,2.6,2.2c1.4,1.4,2.7,2.8,4.4,3.9c-1.6,0.9-2.1,0.5-3.8,0.1
		C305.5,343.8,306.1,344,305.8,343.9C304.4,343.6,306.3,344,305.8,343.9z M317.5,350.9c-0.3,0.4-0.2,0.7,0.3,0.9
		c-0.6,0-1.7-0.1-1.9,0.7c-1.3-1.5-2.9-3.1-5-3.3c0.7-0.4,2.7,0.6,3.6,0.6c1.6,0.1,3.3-0.1,4.9-0.5c-0.7,0.5-1.4,1.1-2,1.7
		C317.6,350.8,317.7,350.8,317.5,350.9C317.2,351.2,317.7,350.8,317.5,350.9z M327.8,297.9c0-0.4-0.1-0.7-0.5-0.8
		c-0.4-0.1-0.4-0.4,0.1-0.8c-0.1-0.4,0.3-0.7,0-1.1c-0.4-0.8-1.6-0.9-2.3-0.8c-3,0.1-4.2,4.1-7,4.1c0.4-0.2,1.2-0.5,1.3-1.1
		c0-0.5-0.3-1.2-1-1c0.7-0.7,1.1-1.6,2-2.1c1-0.5,2.3-0.3,3.3-0.3c2.4-0.2,4.7,0.1,7.1,0.1c-0.4,0.2-2.2,1.2-1.2,1.6
		c0.1-0.1-0.2-0.2,0,0C329,296.4,328.3,297.1,327.8,297.9z M335.2,315.8c0.2,1.4-1.1,1.3-2.1,1.6c0.7-1.8,0.5-1.5,2-1.5
		C334.9,315.9,334.9,315.9,335.2,315.8C335.4,317.4,334.7,315.8,335.2,315.8z M333.7,298.2c0.9-0.6,1.7-1.4,2.8-1.7
		c1.3-0.3,2.6,0.3,3.9,0.3c-1.2,0.4-2.2,0.8-3.4,1.1C335.8,298.2,334.8,298,333.7,298.2C334.6,297.6,333.9,298.3,333.7,298.2
		C334.6,297.6,333.9,298.3,333.7,298.2z M346.3,303c-0.7-0.2-1.5-0.5-2.2-0.8c1.5,0.3,5.7-0.4,6.8,0.7c-0.4-0.1-3.2,0.3-2.7,1
		c-0.7-0.3-1.4-0.7-2.1-1C346.2,303,346.8,303.1,346.3,303C345.6,302.8,347.1,303.2,346.3,303z M353.3,305.8c1,0,2-0.3,3-0.3
		c-0.5,0.6-0.6,1-1.5,1C354.5,306.6,353.5,306,353.3,305.8C354.4,305.8,353.9,306.1,353.3,305.8z M368,291.3
		c-1.7,0.7-3.7,0.4-5.4,1.3c-0.2,0.1-1,0-1.1,0.4c-0.3,0.9,0.9,1.5,1.5,1.7c-1.5,0.9,0.9,1.1,1.5,1.1c-0.6,0.7-1.2,1.5-1.8,2.2
		c-0.5-1.4-1.7-4.2-3.5-4.1c-1.4,0-2.1,1.9-1.7,3c-1.6,0-2.9,1.6-3.6,2.9c-0.1-2.4-0.9-5.1-2.6-6.8c-1.9-1.8-3.8-0.5-3.4,2
		c-1.5-1.6-3.3-2.9-4.9-4.4c-0.4-0.4-1.1-1.2-1.8-1.3c-0.6-0.1-1.7,0.3-0.7,1c-0.8-0.3-2.9-1.6-3.6-0.8c-0.6,0.8,0.3,2.1,0.6,2.8
		c-1.2,0.1-1.7-0.7-2.5-1.4c-1-1-2.1-1.7-3.2-2.6c1-0.6,5.3-2.4,4.9-4c-0.4-1.5-3,0.4-4.1,0.6c-1.9,0.4-3.2,0.4-5-0.3
		c-0.9-0.3-2.6-1-2,0.7c-0.5,0-1.5,0-1.2,0.8c-0.6,0.1-1.2-0.7-1.6-1c2.2-0.6-2.1-7.2-2.7-8.2c1.2,0.8,2.4,1.6,3.8,2.1
		c0.6,0.2,1.2,0.4,1.8,0.5c0.5,0.1,2.7,0,0.4,0.1c3.5-0.2,0.5-3.5-1.1-4.5c-1-0.6-2-0.8-2.7-1.9c-0.8-1.3-0.8-3.3-1.1-4.8
		c2.3,1.5,4.5,3.1,7,4.2c0.9,0.4,4.1,2.2,4.8,1.4c1.9-2.1-4.7-7.6-5.6-8.9c1.1-0.1,2.1-1.3,3.2-1.3c1,0,2.5,1.3,3.4,1.7
		c-1.8-0.1-1.9,0.8-0.1,1.1c1.9,0.4,3.9,0.1,5.5,1.6c-1.3,0.2-3.5-0.7-4.7,0c-1.1,0.7-0.2,0.8,0.4,1.3c1.3,1,2.1,1.4,3.9,1.5
		c1.8,0.1,2.2,0.5,3.6,1.6c-1.3,0.3-7.3,1.5-4,2.9c2.8,1.2,6.5,0.3,9.4,0.4c-2.9,0.6-6,1.1-8.6,2.5c-1.3,0.7-3.4,2.1-1.1,2.8
		c1.4,0.4,3.3-0.3,4.7-0.5c1.4-0.2,2.8-0.3,4.3-0.6c1.4-0.3,1.5-0.2,2.5,0.8c-0.9,0-1,0.6-1.5,0.8c-0.6,0.2-1.3,0.2-1.9,0.5
		c-1.2,0.7-1.9,1.8-0.4,2.4c1.1,0.4,3-0.5,4-0.8c1-0.3,4.2-1.8,5-1.3c-0.5,0.4-2.3,0.9-2.1,1.8c0.2,1,2.7,0.7,3.3,0.7
		c-4.1,2.9,2.9,2.8,4.5,2.6c1.8-0.3,3.7-0.6,5.4-1.2c1.6-0.6,1.4-0.8,2.3,0.6c-1.6,0.3-5.1,0.6-6.2,1.9c-0.8,0.9-0.5,0.9,0.7,1.2
		c1.8,0.4,4.2,0.1,5.9-0.3C368.7,290.6,367.7,291.4,368,291.3C367.2,291.6,368.4,291.1,368,291.3z M370.7,228.8
		c-0.8-1.6-1.2-3.4-1.9-5c1,0.2,1.9,0.4,2.6,1.2c-1.6-0.5-1.5,0-1.3,1.1c0.1,0.5,0.5,0.8,0.6,1.3c0,0.2,0,0.5-0.1,0.7
		c0,0.7,0,0.8-0.1,0.2C370.6,228.5,370.7,228.7,370.7,228.8C369.9,227.2,370.7,228.3,370.7,228.8z M374.3,231.2
		c-0.4,0.5-1.4,0.2-1.6,0.9c-0.2-1.1-0.4-2.3-0.5-3.5c0.8,0.8,1.6,1.6,2.5,2.3C374.6,231,374.4,231.1,374.3,231.2
		C373.9,231.8,374.5,231.1,374.3,231.2z M375.4,234.7c0.9,0.5,1.6,0.5,1.9,1.6c0.2,0.6-0.1,1.2-0.2,1.7c-0.1,1-0.1,0.3-0.1,0.4
		C376.5,238,374.8,236.9,375.4,234.7z M378,233.3c-0.3,0.6-1.8-0.2-2.3,0c0.1-0.5,0.1-1.1,0.1-1.6c0.7,0.5,1.5,1,2.3,1.4
		C378,233.3,377.7,233.6,378,233.3C377.7,233.9,378,233.3,378,233.3z M386,223.5c-1.4-1-3.1,1.2-3.7,2.2c-0.2-1.6-0.8-3.4-0.8-5
		c1.5,0.3,3,0.2,4.5,0C386,221.6,386,222.5,386,223.5 M394.3,200.2c0,0.1-0.1,0.2-0.1,0.3c0-1.3-0.7-3.5-2.5-2.6
		c-1.2,0.6-0.9,2.6-1.2,3.7c0-1.4-0.5-2.9,0.4-4.2c0.9-1.2,2.6-1.4,3.8-2.3c0,1.1-0.5,2.1-0.5,3.1c0,0.5,0.1,1.7,0.1,1.8
		C394.3,199.9,394.3,199.9,394.3,200.2C394.3,200.4,394.4,199.7,394.3,200.2z M484.7,195.1c0.4,0,1,1.3,1.3,1.5
		c-2.8,0.1-0.9,1.9,0.4,2.7c-0.5,0.5-0.9,1.2-1.3,1.8c-0.1-0.5,0-1-0.3-1.5c-0.3-0.6-1-0.5-1.4-1c-0.6-0.9-0.6-2.9-0.8-4
		C483.3,194.9,484,194.8,484.7,195.1C484.6,195.1,484.1,194.8,484.7,195.1C484.9,195.1,484.2,194.9,484.7,195.1z M483.1,249.8
		c0.9,0.1,1.6,0.3,2.1,1.1c-2.4-0.3-3.4,0.3-5-1.7C481.2,249.5,482.1,249.7,483.1,249.8c-1.1-0.2,0.4,0.1-0.2,0
		C482.7,249.8,482.7,249.8,483.1,249.8C484.1,250,482.4,249.7,483.1,249.8z M483.4,226.2c-0.6-1.5-1.4-3-2.2-4.4
		c1,1,2.4,1.6,3.8,1.9C483.4,223.7,483.1,225.1,483.4,226.2c-0.2-0.3-0.3-0.7-0.4-1.1C483.1,225.4,483.4,226,483.4,226.2
		C482.8,224.7,483,224.8,483.4,226.2z M474.2,240.1c-1.6,0.3-1.6-0.7-2.7-1.2C472.4,239.3,473.3,239.7,474.2,240.1
		c-0.3,0.1-0.5,0.1-0.6-0.1C473.8,240,474,240.1,474.2,240.1C473.6,240.2,473.3,239.7,474.2,240.1z M461.3,257.5
		c-3,2-3.8-2.4-4.7-4.3c1.4,0.4,2.7,0.5,4.1,0.5c0.7,0,1.4,0,2.1-0.1c-0.1,0.4,0,0.6,0.4,0.8c0.4,0.2,1.7,0.2,1.8,0.8
		c0.1,0.5-1,0.8-1.2,1.2C462.5,254.8,461.6,256.9,461.3,257.5C460.6,258,461.4,257.3,461.3,257.5z M468.6,272.2
		c-1.1,0.2-4.5,0.2-3.6,2c0.7,1.2,4.5,0.5,5.5,0.5c-1,0.1-10.7,1.3-10.1,2.3c-1.5-2-3.3-3.8-5.5-5.1c4.2,0.1,8.4,0.4,12.5,0
		c-0.1,0-1.6,0.1-1.8,0.2c0.3-0.2,1.4-0.2,1.8-0.2C467.8,272,468.2,272.1,468.6,272.2z M471.3,278c-1.7,0.3-3.1,1.3-4.7,1.6
		c-1.4,0.2-3.6-0.4-3.4,2.1c-0.4-1-0.9-1.9-1.4-2.8C465,278.6,468.3,278.6,471.3,278c-0.2,0-0.5,0.1-0.7,0.1
		C470.8,278.1,471.1,278.1,471.3,278C470.4,278.2,470.2,278.2,471.3,278z M448.1,281.6c-1.8,0-5-0.1-6.1,1.7
		c-1.4,2.3,4.4,0.5,1.9,2.5c-0.6,0.5-2.7,0.5-2.6,1.7c0.1,0.8,1.2,0.8,1.8,0.8c1.2,0.1,1.9-0.4,2.9,0.6c1,1,1.1,3.6,1.5,4.9
		c-3.4,0.4-3.5-2.9-6.4-4.1c-1-0.4-2.1-0.6-2.5,0.6c-0.4,1.4,1.4,3.1,2.1,4.1c-2.1,0.1-4.9-2.3-6.9-3c0.5-0.8,2.9-0.5,0.5-1.4
		c-2.1-0.8-5.4,0.3-7.5,0.2c4.3-2.8,8.6-5.7,13-8.5C440.9,281.4,445.5,281.4,448.1,281.6z M419.5,295.1c1.8-1.1,2.9-1.9,5-2.3
		c0.8-0.1,1.6-0.2,2.5-0.2c0.2,0,1.3,0.1,0.5,0c2.1,0.2,4.2,1.2,6.2,1.8c-2.9,0-5.8,0.2-8.8,0.4c-1.4,0.1-2.8,0.2-4.1,0.5
		c-1.3,0.3-2.4,0.9-3.8,0.8c1-0.3,1.9-0.7,2.7-1.2C419.6,295.1,419,295.4,419.5,295.1C420.1,294.7,418.7,295.6,419.5,295.1z
		 M407,285c-0.9,0.3-2.7,1.6-3.6,1.4c1.5-0.6,4.9-2.1,3.4-4.2c-1.7-2.4-5.8,0.3-7.6,1.3c1.1-0.9,2.1-1.5,3.4-2.1
		c0.2-0.1,1.9-0.5,1.2-0.9c1-0.6,2.5,1,3.2,1.4c1.8,1.1,3.9,1.6,5.9,2.1c-2,0.1-4.1,0.3-6.1,0.9c0.3-0.1,0.6-0.2,0.8-0.2
		C407.5,284.8,407.2,284.9,407,285C406.3,285.2,408.9,284.4,407,285z M427.3,312.6C426.9,312.5,427.2,312.6,427.3,312.6
		c-0.7-0.2-1-0.9-1.5-1.4c1.3,0.4,2.6,0.9,3.7,1.7C428.7,312.8,427.4,312.7,427.3,312.6z M429.6,307c-1.4,0.1-2.6-0.2-3.9,0.1
		c-0.8,0.1-0.6,0.5-1.4,0.3c1-0.3,0.8-0.8,0.1-1.1c-0.8-0.3-1.7,0.4-2.5,0.5c0.8-0.4,2.4-0.8,1-1.5c-0.5-0.2-1.6,0.4-2,0.4
		c-0.9,0.1-1.4,0-2.2-0.5c2.1-0.3,3.1-0.5,5.1,0.3C425.7,306.2,427.6,306.7,429.6,307c-0.3,0-0.8-0.1-1.2-0.2
		c0.2,0.1,2.1,0.3,0.6,0.2C429.2,307,429.4,307,429.6,307C428.4,307.1,429,307,429.6,307z M437.7,311.9c-1.1-0.8-2.1-1.7-3.1-2.6
		c3.2,0.2,4.2,1.9,6.4,4.1C440.1,312.5,438.6,312.7,437.7,311.9C436.6,311.1,438.7,312.7,437.7,311.9z M443.8,305.1
		c-1.4,1.1-2.2-1.9-3.4-2c-1.4-0.1-0.9,1.7-0.5,2.6c-1.1,0.2-2.2,0.6-3.4,0.5c-1.2-0.1-1.7-0.5-2.8-1.2c-0.6-0.4-3.9-2.2-4-0.6
		c-0.7-0.3-1.3-0.6-2-0.8c3.3-0.6,6.8,0.7,10.1-0.3c0.6-0.2,2.3-0.6,1.5-1.5c-0.3-0.3-1-0.1-1.4-0.2c-0.3-0.1-0.6-0.5-0.9-0.6
		c2.8-0.6,5.9-2.1,8.6-0.5c-1.2,1.1,3,1.8,3.5,2.1c-0.9,0-2.9-0.9-3.6-0.1c-1.2,1.2,0.9,1.6,1.8,1.8c-0.1,0-0.7,0-0.2,0
		c-1.6,0-2.2,0-3.5,1C443.6,305.3,444.1,304.9,443.8,305.1C442.6,306.1,444.3,304.7,443.8,305.1z M459.5,310.7c-1,0.1-2,0.5-3,0.1
		c-0.5-0.2-0.7-0.9-1.2-1c-1.7-0.6-1.2,0.7-2.2,1.6c-1,0.8-3.4,0.9-4.4,0.3c-0.7-0.4-1-1.2-1.4-1.8c-0.6-0.9-1.4-1.1-2.1-1.9
		c3.2-0.4,6.6-1.6,9.9-1.4c2.8,0.2,5.6,2.4,8,3.6c-1.2,0.4-2.6,0.5-3.8,0.6c0.2,0,0.4,0,0.6,0C459.8,310.7,459.7,310.7,459.5,310.7
		C458.7,310.7,460.8,310.6,459.5,310.7z M464.3,298c-1.1,1.8,1.2,4.1,1.6,5.4c-2.6-2.9-5.4-5.7-8-8.6c0.5,0,2.5-0.3,2.5-1
		c0-1.2-4.6-0.9-5.2-0.8c-1.3,0.1-3.7,1-4.9,0.4c-1.3-0.7-1.9-3.9-2.5-5.2c1-0.1,2.6-0.7,3.5-0.4c0.9,0.3,0.9,1.2,1.4,1.9
		c1.2,1.6,3.6,2.3,5.1,2.8c4.8,1.7,9.7,3,14.6,4.3C471,297.1,466.2,296.8,464.3,298z M472.9,285.1c-1-1.2-1.8-2.5-2.9-3.5
		c1.2,0.2,2.5,0.3,3.8,0.2c-1.8,0.8-2.7,1.9-0.2,2.3c0.7,0.1,1.5-0.1,2.1,0.4c0.7,0.8,0.3,3.2,0.5,4.1c-1.2-1.3-2.5-2.5-3.6-3.8
		c0.2,0.2,0.4,0.5,0.6,0.7C473.1,285.4,473,285.3,472.9,285.1C471.9,284,474,286.4,472.9,285.1z M471.2,260.1
		c-1,0.4-1.4,1.3-2.6,1.4c-1.4,0.1-1.3-0.2-2.2-1.4c1.9-0.1,3.8-0.3,5.7-0.9c1.9-0.6,2.7-1,4.6-0.1c-2,0.2-3.9,0.3-5.7,1.1
		c0.3-0.1,0.5-0.2,0.8-0.3C471.6,259.9,471.4,260,471.2,260.1C470.5,260.4,472.9,259.3,471.2,260.1z M477.9,219.5
		c-0.1-1.1-0.3-2.1-0.5-3.1c1.8,0.9,3.6,1.3,5.4,2.1c-1.1,0.1-3.2,0.1-2.5,1.8C479.4,220,478.1,219.8,477.9,219.5
		C477.3,218.6,478,220.1,477.9,219.5z M488.1,205.6c0.1-1.6,0.1-3.1,0.1-4.7c0.6,0.5,1.4,1.4,1.3,1.7
		C488,202,488.3,204.8,488.1,205.6z M490.6,233.2c-0.6-1.9-0.7-3.2-0.9-5.2c0.5,0.1,1,0.1,1.6,0.2c-0.8,1.8,0,5,0,6.9
		c-0.2-0.7-0.5-1.5-0.7-2.2C490.6,233,490.8,233.6,490.6,233.2C490.3,232.3,490.8,233.8,490.6,233.2z M492.8,205.1
		c-0.7,0.2-0.9-0.1-0.6-1c0.7,0.2,1.7,0.1,2.1,0.8C494,205,493.1,205.2,492.8,205.1C493.1,205.2,493.1,205.2,492.8,205.1
		C492.6,205.1,493.3,205.3,492.8,205.1z M513.7,155.9c0.1-0.6-0.8-1-1.2-0.7c0.2-1.2,0.3-1.5,1.2-2.3c0.1,1.1,0.4,2.2,0.7,3.2
		C513.3,155.4,514,155.8,513.7,155.9C513.8,155.3,513.9,155.8,513.7,155.9z M531.6,219.7c-0.2-0.4-2.4-4.6-3-2.3
		c-0.3-1-0.6-2.8-1.9-2.9c1.5-0.7,3.1-1.4,4.4-2C531.7,214.9,531.7,217.3,531.6,219.7z M526.1,192.8c-0.3,1.2-0.1,2.4-0.4,3.6
		c-0.3,1-0.9,1.8-1.2,2.8c0.3-1.6,1.2-3.8-0.1-5.2C525,193.7,525.6,193.3,526.1,192.8c0,0.3-0.1,0.5-0.3,0.6
		C525.8,193.1,525.9,192.9,526.1,192.8C525.8,194,525.6,193.3,526.1,192.8z M524.6,215.4c0.1-0.1,1-0.5,1.3-0.6
		c-0.8,1.4,0.9,3.1,1.5,4.4c1.1,2.3,0.2,3.1-0.8,5.1c0.1-1.1,0.8-4.5,0.2-5.5c-1.2-1.8-1.6,0.3-1.7,1.3
		C524.9,219.3,523.8,216.1,524.6,215.4C524.3,215.6,524,215.9,524.6,215.4z M522.6,184.6c-0.9,1.1-1.7,2.3-2.5,3.5
		c0.1-0.9,0.5-2.8,0.4-2.6C520.2,185.7,521.8,184.9,522.6,184.6z M522.2,222.3c0.2,1.7,0.2,3.4,0.3,5.1c-1.1-2.9-1.7-6.2-3.8-8.6
		c0.6-0.2,1.9-0.5,2-1.3c0.1,0.3,0-0.1,0,0C521.1,218.9,522,220.6,522.2,222.3z M518.8,241.8c-0.2,0-0.3-0.1-0.5-0.1
		c1.9-0.6,3.7-1.2,5.6-1.9c-0.1,0.9-0.2,1.9-0.3,2.8C522,242.2,520.4,241.9,518.8,241.8c0.2,0,0.4,0,0.6,0
		C519.2,241.9,519,241.9,518.8,241.8C518.6,241.8,520.4,241.9,518.8,241.8z M562.5,347.5c1.9,0,3.7-0.3,5.6-0.3
		c-0.3,0.1-0.6,0.1-0.9,0.1c0.9,0,1.8-0.2,2.7-0.1c-1.6,0.9-3.2,1.9-4.7,3c0.3-2.1-7.4-2.3-8.8-2.6c2.2-0.4,4.4-0.1,6.7-0.1
		c-0.4,0-0.7,0-1.1,0C562.1,347.5,562.3,347.5,562.5,347.5C564.4,347.5,560.5,347.6,562.5,347.5z M561.2,292.7
		c0.1-1.5-2-0.9-2.8-0.6c-2,0.7-3.5,2.3-4.7,4c-1.1,1.7-1.8,3.7-2.8,5.4c-0.4,0.7-0.7,1.3-1.4,1.9c-0.4,0.2-0.8,0.3-1.2,0.5
		c0.1,0.6-0.2,1-0.9,1.1c0.8-1.1,3.6-3.9,2.3-5.3c-1.3-1.3-3.5,1.1-4.6,1.8c-0.4-1.8-3.4-1.4-4.7-1.2c1.9-0.6,6.1-0.6,7.5-2.2
		c1.7-1.9-1.9-1.3-2.9-1.2c1-0.5,3.9-1.9,4-3.1c0.1-2.4-6.1-0.5-7.2-0.2c0.7-0.2,1.2-0.8,1.9-1c0.8-0.3,1.9-0.3,2.8-0.4
		c1.7-0.2,3.4-0.5,5.2-0.8c4-0.7,7.9-1.6,11.9-2.5c-0.1,0.2-0.2,0,0,0C562.7,290.1,561.9,291.4,561.2,292.7z M541.4,253.4
		c0.5-1.3,2.5-1.5,3.7-1.9c2.1-0.7,4.2-1.7,6.2-2.7c-0.2,1.3-0.6,3.8-1.7,4.7c-0.6,0.5-1.2,0.2-1.9,1.1c-1,1.2-0.8,1.2-2.4,1.1
		c-1.9-0.1-3.7-0.4-5.6-0.3c0.8-0.6,1.2-1.3,1.7-2.1C541.3,253.4,541,254.1,541.4,253.4C541.9,252.1,540.9,254.2,541.4,253.4z
		 M540,280.1c-2-0.5-4.1-0.6-6.2-0.5c2.2-0.9,5.2-1.7,7.1-2.3c0,0,0.6-0.2,0.1,0c0.6-0.2,6.1-3.2,3.6-4c1.9,0.3,4.5,0.8,6.3,0.1
		c0.3-0.1,0.4-0.6,0.5-0.7c0.5-0.2,1.3,0.1,1.5-0.6c0.2-1.1-3.8-1.4-4.5-1.7c2.4-0.6,4.8-1.3,7.2-2.1c-1.3,1.8-2.2,3.8-3,5.8
		c-1.2-2.5-7.3,7.3-7.7,8c-0.5,0.9-1.5,3.2-2.8,3c-0.8-0.1-0.5-1.5-1.6-1.1c-0.6,0.2-0.4,1.3-1.2,1.4c0.1-0.5,0.5-1.6,0.1-2
		c-0.9-0.9-1.1,0.3-1.5,0.8c-1.2,1.8-2.3,1.7-4.5,1.7c1.2-2.9,2.4-2.8,5.2-3.2C540.5,282.6,543,280.9,540,280.1z M539.3,318.5
		c-0.9,0.2-1.5-0.8-2.1-1.2c0.6-0.1,3.4-1.2,2.2-1.6c-0.5-0.2-0.9-0.4-1.3-0.7c1.7-0.3,3.4-0.5,5.1-0.8
		C542.6,315.8,541.2,318.1,539.3,318.5C538.4,318.8,541.1,318.1,539.3,318.5z M546.7,316.2c0-2-0.7-2.3,1.4-2.9
		c1.8-0.5,3.5-0.6,5.3-1.3c0.6-0.2,5-1.9,3.8-2.9c1.3-0.3,2.5-0.7,3.7-1.1c-1.4,0.7-2.6,1.9-3.6,3.1c-0.5,0.6-0.9,1.2-1.3,1.7
		c-0.2,0.3-1.6,2.5-0.5,0.8c-0.8,1.3-1.6,2.6-2.5,4c-0.6-1.9-2.5-0.4-3.4,0.4C549.6,317.4,547.2,315.7,546.7,316.2z M550.9,367.5
		c-0.2,0-0.3,0.1-0.5,0.1c0.5-0.4,1.7-1.8,0.4-2c1.9-0.9,3.7,0.3,5.8-0.3C554.6,365.9,552.9,366.9,550.9,367.5
		c0.2-0.1,0.6-0.4,0.7-0.3C551.3,367.1,550.8,367.6,550.9,367.5C550.7,367.6,551.2,367.3,550.9,367.5z M556.3,368.3
		c0.8-0.5,2.5-1.5,2-2.7c1.3,0.1,5-0.2,4.1-2.4c0.7-0.1,2.2-0.4,1.8-1.3c-0.3-0.6-1.6-0.1-2.1-0.2c-0.8-0.2-1.4-0.5-2.1-0.9
		c3.6,0.2,7.2,0.4,10.8,0.5c0.8,0,2.8,0.3,2.7-0.8c0-0.9-3.4-1.5-4-1.6c3.3,0.5,6.6,1.6,9.9,2.3c0.5,0.1,5,1.1,4.5-0.4
		c3.3,0.5,6.5,1.5,9.7,2.7c-2.2,0.2-3.9,1.6-5.8,2.5c-2.1,1-4.4,1.5-6.6,2.2c-0.6,0.2-1.3,0.5-1.9,0.7c-0.1-0.1-0.1-0.3-0.2-0.4
		c-0.8-0.1-1.2-0.3-2.1-0.3c-2,0.2-4,1.1-6,0.8c1-0.6,8.4-4.9,6.8-6.9c-1.4-1.8-10.4,5.2-11.6,6c-0.2-1.3,2.2-1.6,2-2.9
		c-0.2-1.7-2.4-0.8-3.4-0.4c-2.1,0.9-3.8,2.3-5.8,3.2c-2.4,1.1-4.9,1.8-7.4,2.6C553.1,369.9,554.8,369.4,556.3,368.3z M583.4,388.5
		c0.5-0.2,1.7-0.8,1.2-1.4c-0.5-0.9-2,0-2.7,0.2c-1.3,0.3-1.9,0.1-3.2-0.2c-0.4-0.1-0.9-0.2-1.3-0.3c-0.5-0.1-5.2-0.4-6-0.3
		c-2.1,0.2-4.3,0.5-6.4,0.9c-1.3,0.2-7.7,2.8-8.7,1.1c3.9-1.8,8.1-1.1,12.2-1.7c0.5-0.1,2.8-0.2,2.3-1.3c-0.5-1.2-2.5,0.3-3.2-0.8
		c0.7-0.1,3.1,0,3.2-0.9c0.2-0.9-0.8-0.5-1.2-0.7c-0.9-0.5-1.1-1-1.7-1.8c1.5-0.4,3,1.4,4.5,1.1c1.4-0.3,1.7-1.4,0.9-2.6
		c1.1,0.2,2.3-0.1,3.3,0.3c1.3,0.5,2.4,1.7,3.4,2.4c2.3,1.6,4.8,3,7.3,4.4C586.2,387.5,584.8,388,583.4,388.5
		c0.2-0.1,0.5-0.2,0.7-0.3C583.9,388.4,583.7,388.4,583.4,388.5C584,388.3,584.8,388,583.4,388.5z M596.2,388.8
		c-1.2,0.9-2.8,0.9-4.2,0.9c0.3-0.2,2.1-0.9,2.2-1.4c0.2-0.9-0.3-0.6-0.8-1.1c-0.8-0.9-2-0.7-2.9-1.5c1.5-0.1-0.1-1.5-0.5-2
		c-1.1-1.2-1.9-2.8-3.1-3.8c3.3,1,7.7,3.6,11.2,2c4.6-2.1-4.5-3.7-5.6-4.2c4.8,0.1,9.3,2.2,13.2,4.8c-3.4,1.9-7.6,4.7-10.2,6.7
		C595.8,389.1,596,389,596.2,388.8C595,389.8,596.1,389,596.2,388.8z"/>
	<path d="M75.7,300.3C75.7,300.3,75.7,300.1,75.7,300.3C75.7,300.3,75.7,300.3,75.7,300.3z"/>
	<path d="M278.5,196.5C278.5,196.5,278.4,196.5,278.5,196.5C278.5,196.5,278.5,196.5,278.5,196.5z"/>
	<path d="M317.5,350.9C317.6,350.9,317.5,350.9,317.5,350.9C317.5,351,317.5,350.9,317.5,350.9z"/>
	<path d="M75.7,300.3c0,0.1,0,0.2-0.1,0.2C75.6,300.5,75.7,300.4,75.7,300.3z"/>
	<path d="M121.5,163.1C121.4,163.1,121.3,163.3,121.5,163.1C121.5,163.1,121.4,163.1,121.5,163.1z"/>
	<path d="M524.6,215.4C524.6,215.4,524.6,215.4,524.6,215.4C524.6,215.4,524.6,215.4,524.6,215.4z"/>
	<path d="M541.3,253.6c0.1-0.1,0.1-0.2,0.2-0.4C541.4,253.4,541.3,253.5,541.3,253.6z"/>
	<path d="M562.1,347.5C561.9,347.5,561.9,347.5,562.1,347.5L562.1,347.5z"/>
	<path d="M562.5,347.5c-0.2,0-0.3,0-0.4,0C562.2,347.5,562.3,347.5,562.5,347.5z"/>
	<path d="M526.1,192.8C525.6,193.3,525.8,194.1,526.1,192.8L526.1,192.8z"/>
	<path d="M562.8,347.5c-0.1,0-0.3,0-0.4,0C562.6,347.5,562.7,347.5,562.8,347.5z"/>
	<path d="M286.6,273.5c0,0.2,0,0.3,0,0.4C286.9,276.8,286.8,273.3,286.6,273.5z"/>
	<path d="M283.8,256C283.7,256,283.7,256,283.8,256L283.8,256z"/>
	<path d="M306.3,276.5C305.7,277.6,306.2,276.7,306.3,276.5L306.3,276.5z"/>
	<path d="M313.3,316.3c0.1,0,0.2,0.1,0.3,0.1C313.5,316.4,313.4,316.3,313.3,316.3z"/>
	<path d="M225.4,145.1C225.4,145.1,225.4,145.1,225.4,145.1C225.5,145.2,225.4,145.1,225.4,145.1z"/>
	<path d="M295.1,281.2C295.1,281.2,295.4,281.1,295.1,281.2C295.1,281.2,295.1,281.2,295.1,281.2z"/>
	<path d="M394.1,200.6c0.1-0.1,0.1-0.2,0.1-0.3C394.2,200.2,394.1,200.3,394.1,200.6z"/>
	<path d="M427.8,292.6C427.8,292.6,427.8,292.6,427.8,292.6L427.8,292.6z"/>
	<path d="M441.6,280.1"/>
	<path d="M323.7,294.6c0.1,0,0.1-0.1,0.2-0.1C323.8,294.6,323.7,294.6,323.7,294.6z"/>
	<path d="M323.4,294.8C323.5,294.7,324,294.5,323.4,294.8C323.4,294.7,323.5,294.7,323.4,294.8z"/>
	<path d="M348.3,303.9"/>
	<path d="M374.7,230.9C373.8,230.2,374.6,231,374.7,230.9L374.7,230.9z"/>
	<path d="M353.3,305.8"/>
	<path d="M338.1,297.7c-0.2,0-0.9,0.2-0.2,0.2C338.2,297.7,338.2,297.7,338.1,297.7z"/>
	<path d="M57.6,216.6C57.6,216.6,57.6,216.6,57.6,216.6C57.6,216.5,57.6,216.5,57.6,216.6z"/>
	<path d="M240.4,54.7c-0.1-0.3-0.3-0.6-0.4-1C240,53.8,240.6,55.3,240.4,54.7C240.2,54.3,240.4,54.8,240.4,54.7z"/>
	<path d="M474.2,240.1C473.3,239.7,474,240.1,474.2,240.1L474.2,240.1z"/>
	<path d="M461.3,257.5C461.4,257.3,460.5,257.7,461.3,257.5L461.3,257.5z"/>
	<path d="M467.6,261.7C467.9,261.4,467.3,261.2,467.6,261.7L467.6,261.7z"/>
	<path d="M525.9,214.8C525.7,214.9,525.8,215,525.9,214.8L525.9,214.8z"/>
	<path d="M172.6,324.3C172.5,325.1,172.7,324.5,172.6,324.3L172.6,324.3z"/>
	<path d="M195.5,277.6C193.6,278.2,195.4,277.7,195.5,277.6L195.5,277.6z"/>
	<path d="M519.4,241.9c0.2,0-0.6-0.1-0.6,0C518.8,241.8,519.4,241.9,519.4,241.9z"/>
	<path d="M225.4,145.1C225.4,145.1,225.4,145.1,225.4,145.1C225.3,145,225.2,144.9,225.4,145.1z"/>
	<path d="M121.3,163.3C121.2,163.4,121.6,162.9,121.3,163.3C121.2,163.3,121.3,163.3,121.3,163.3z"/>
	<path d="M121.2,163.4C121,163.6,121.4,163.2,121.2,163.4C121.2,163.4,121.2,163.4,121.2,163.4z"/>
	<path d="M521.3,245.7C521.7,245.3,520.5,246.5,521.3,245.7L521.3,245.7z"/>
	<path d="M327.8,297.9C328.3,297.1,327.8,297.4,327.8,297.9L327.8,297.9z"/>
	<path d="M350.5,302.8c0,0,0.1,0,0.2,0C350.7,302.8,350.5,302.8,350.5,302.8z"/>
	<path d="M292.8,228.1C292.3,228,292.7,228.1,292.8,228.1C292.8,228.1,292.8,228.1,292.8,228.1z"/>
	<path d="M360.8,270.2C360,270.2,360.7,270.3,360.8,270.2L360.8,270.2z"/>
	<path d="M480.4,195C480.3,195.3,480.4,195.5,480.4,195C480.4,195.1,480.4,195.1,480.4,195z"/>
	<path d="M472.7,284C472.7,284,472.7,284,472.7,284C472.4,284,472.5,284,472.7,284z"/>
	<path d="M552.7,274.2C553.5,272.2,552.6,274.1,552.7,274.2L552.7,274.2z"/>
	<path d="M276.5,283.9C276.6,284.5,276.5,283.5,276.5,283.9L276.5,283.9z"/>
	<path d="M403.8,280.5C403.8,280.5,403.8,280.5,403.8,280.5C404.1,280.7,403.9,280.5,403.8,280.5z"/>
	<path d="M491,151.6C491,151.6,491,151.6,491,151.6C491,151.6,491,151.7,491,151.6z"/>
</g>
</svg>
