<?xml version="1.0" encoding="utf-8"?>
<!-- Generator: Adobe Illustrator 16.0.0, SVG Export Plug-In . SVG Version: 6.00 Build 0)  -->
<!DOCTYPE svg PUBLIC "-//W3C//DTD SVG 1.1//EN" "http://www.w3.org/Graphics/SVG/1.1/DTD/svg11.dtd">
<svg version="1.1" id="Layer_1" xmlns="http://www.w3.org/2000/svg" xmlns:xlink="http://www.w3.org/1999/xlink" x="0px" y="0px"
	 width="1100px" height="380px" viewBox="0 0 1100 380" enable-background="new 0 0 1100 380" xml:space="preserve">
<path d="M10.9,378.786c0.169-0.2,0.35-0.388,0.533-0.574c0.047,0.015,0.094,0.032,0.141,0.044c-0.008,0.089-0.031,0.17-0.016,0.263
	c0.034,0.291,0.188,0.56,0.43,0.733C11.618,379.128,11.254,378.976,10.9,378.786z M472.511,380c-1.432-1.098-2.99-1.988-4.493-2.727
	c-0.38-0.188-0.77-0.369-1.164-0.553c-0.698-0.477-1.425-0.949-2.165-1.4c0.581-0.098,1.166-0.211,1.748-0.336
	c-0.014,0.238,0.062,0.484,0.266,0.623c2.208,1.486,5.975,1.479,8.464,1.691c1.557,0.131,3.246,0.273,4.839-0.014
	c1.679-0.094,4.911-0.43,5.376-2.443c0.232-1.01,0.053-1.754-0.345-2.262c0.438-0.129,0.751-0.697,0.472-1.234
	c-0.557-1.07-2.046-0.787-2.916-0.922c-2.242-0.348-4.489-0.547-6.748-0.574c-4.633-0.057-9.268,0.098-13.881,0.582
	c-0.609,0.064-0.746,0.848-0.418,1.242c-1.225,0.043-2.452,0.072-3.681,0.088c-2.263,0.027-4.53,0.033-6.794,0.027
	c-0.167-0.098-0.33-0.201-0.497-0.301c-0.467-0.277-0.893-0.074-1.154,0.289c-1.849-0.008-3.697-0.02-5.547-0.041
	c-1.174-0.016-2.345-0.039-3.52-0.057c0.032-0.436-0.189-0.9-0.673-0.93c-3.468-0.209-6.915-0.695-10.347-1.279
	c-0.142-0.365-0.415-0.654-0.793-0.672h-0.018c0.094-0.158,0.151-0.342,0.16-0.537c0.734-0.535,1.447-1.096,2.124-1.705
	c0.335-0.305,0.46-0.752,0.41-1.154c0.091,0.025,0.184,0.025,0.275,0.012c0.409,0.068,0.824,0.068,1.248-0.049
	c0.407-0.109,0.654-0.578,0.668-1.047c0.062-1.742-0.471-3.592-1.261-5.387c0.37,0.086,0.791,0.076,1.294-0.049
	c0.321-0.08,0.501-0.365,0.568-0.695c0.999,0.701,2.091,1.219,3.304,1.494c0.617,0.143,1.372-0.664,0.912-1.412
	c-0.021-0.037-0.045-0.068-0.066-0.1c0.118-0.34,0.075-0.746-0.28-0.99c-0.134-0.09-0.237-0.207-0.361-0.309
	c0.124-0.01,0.247-0.008,0.368-0.025c0.728-0.107,1.287-1.139,0.646-1.854c-0.571-0.641-2.869-2.674-5.211-4.189
	c-0.084-0.348-0.273-0.672-0.578-0.816c-1.381-0.658-2.785-1.344-4.21-1.957c2.167,0.039,4.301-0.268,5.872-1.578
	c0.7-0.578,0.55-1.68-0.222-2.039c-4.436-2.066-9.427-2.914-14.37-2.865c0.478-0.201,0.938-0.443,1.378-0.73
	c2.466-0.436,4.898-1.049,7.245-1.934c0.688-0.26,0.977-1.48,0.336-1.99c0.983-0.326,1.951-0.664,2.896-1.016
	c1.042-0.389,0.809-2.133-0.251-2.211c-5.057-0.377-10.189-0.281-15.285-0.129c-0.176-0.014-0.354-0.031-0.526-0.043
	c-1.53-0.1-3.185-0.182-4.851-0.109c0.408-0.348,0.756-0.744,1.043-1.188c0.228,0.086,0.457,0.184,0.681,0.254
	c0.504,0.158,1.005-0.246,1.157-0.783h0.171c0.553,0,0.847-0.455,0.911-0.953c1.274,1.387,2.762,2.334,4.478,2.197
	c0.564-0.041,1.13-0.688,0.905-1.412c-0.995-3.244-2.221-6.338-3.614-9.312c0.716,0.775,1.448,1.531,2.2,2.252
	c1.773,1.695,4.373,4.494,6.866,3.713c0.608-0.191,0.82-0.996,0.555-1.619c-0.139-0.334-0.311-0.744-0.51-1.207
	c0.326-0.348,0.483-0.906,0.185-1.385c-0.929-1.492-1.918-2.932-2.917-4.354c-0.012-0.02-0.025-0.045-0.036-0.068
	c0.729,0.828,1.445,1.648,2.153,2.436c1.226,1.365,2.61,3.086,4.184,4.219c1.729,2.42,4.809,6.973,7.897,5.863
	c0.529-0.188,0.768-0.781,0.667-1.4c-0.051-0.32-0.129-0.633-0.195-0.947c0.153,0.07,0.298,0.152,0.457,0.211
	c0.862,0.326,1.43-0.834,1.083-1.68c-1.373-3.334-3.706-6.299-6.09-8.754c0.475-0.367,0.687-1.193,0.188-1.744
	c-0.1-0.109-0.21-0.213-0.314-0.322c0.222-0.113,0.409-0.311,0.518-0.553c1.868,1.338,3.714,2.73,5.688,3.773
	c3.748,4.379,8.488,7.805,13.305,9.709c0.542,0.217,1.292-0.375,1.214-1.102c-0.811-7.555-6.505-11.17-12.038-14.473
	c0.134,0.01,0.261,0.016,0.393,0.025c1.568,0.896,3.104,1.922,4.667,2.861c0.101,0.111,0.218,0.207,0.373,0.264
	c0.071,0.025,0.144,0.059,0.216,0.086c2.792,1.631,5.683,2.9,9.023,2.521c0.979-0.111,1.232-1.398,0.489-2.094
	c-0.079-0.182-0.197-0.34-0.37-0.439c-0.225-0.125-0.439-0.275-0.663-0.414c-0.34-0.258-0.699-0.496-1.065-0.719
	c-0.911-0.65-1.797-1.348-2.698-2.012c2.388-0.146,4.773-0.414,7.155-0.82h0.027v-0.006c0.078-0.014,0.155-0.02,0.233-0.033
	c0.518-0.088,0.69-0.641,0.607-1.152c2.157,0.283,4.699,0.074,5.003-2.156c0.01-0.084,0.002-0.148,0.01-0.225
	c0.89-0.139,0.86-1.82-0.104-1.826l-0.444-0.006c-0.061-0.066-0.132-0.125-0.202-0.186c0.091-0.559-0.159-1.184-0.793-1.184
	c-1.798-0.004-3.595-0.008-5.391-0.01c-0.543-0.002-0.839,0.545-0.83,1.072c-0.146-0.166-0.349-0.273-0.608-0.266
	c-0.46,0.018-0.953,0.072-1.463,0.148c-3.309-0.553-6.622-1.088-9.915-0.1c-0.208,0.062-0.362,0.211-0.473,0.398
	c-2.847,0.135-5.676,0.502-8.524,0.682c-1.68,0.1-3.367,0.158-5.053,0.189c-2.539-0.713-5.309-0.615-7.936-0.42
	c-0.108-0.219-0.281-0.395-0.532-0.461c-0.058-0.014-0.114-0.025-0.171-0.041c0.3-0.115,0.605-0.221,0.901-0.355
	c0.694-0.312,1.062-1.633,0.228-2.096c-0.975-0.541-2.055-1.043-3.168-1.445c0.088-0.52-0.094-1.068-0.654-1.234
	c-3.116-0.918-6.463-0.795-9.694,0.023c-0.5-2.424-1.531-4.791-2.564-6.898c0.177-0.041,0.333-0.156,0.454-0.344
	c0.204,0.016,0.399-0.074,0.554-0.238c1.399,2.385,3.284,4.078,5.603,4.033c0.341-0.01,0.609-0.256,0.752-0.582
	c0.41,0.342,0.836,0.664,1.289,0.941c0.258,0.158,0.602,0.17,0.885,0.035c0.665,0.227,1.494-0.326,1.215-1.301
	c-0.232-0.822-0.474-1.639-0.723-2.447c-0.303-2.379-1.237-4.729-2.289-6.996c2.106,2.514,4.489,4.465,7.497,4.865
	c0.704,0.096,1.171-1.016,0.808-1.678c-0.07-0.127-0.137-0.262-0.206-0.391c0.168-0.193,0.278-0.504,0.269-0.76
	c-0.039-0.918-0.228-1.896-0.53-2.871c1.464,1.52,2.927,3.037,4.418,4.508c1.268,1.789,2.583,3.629,4.104,5.121
	c1.798,2.553,3.711,4.965,6.346,6.283c0.573,0.287,1.155-0.418,1.166-1.057c0.099-5.434-3.498-9.727-6.394-13.492
	c3.025,3.186,6.396,5.588,10.027,4.697c0.583-0.145,0.832-1.021,0.546-1.596c-1.312-2.65-2.95-4.928-4.831-6.844
	c0.486-0.141,0.974-0.299,1.461-0.486c0.798,0.076,1.592,0.137,2.374,0.199c0.708,0.088,1.386,0.156,2.003,0.17
	c0.848,0.018,1.049-1.059,0.657-1.678c0.777,0.008,1.551-0.006,2.319-0.08c1.084,0.406,2.102,0.461,3.342-0.117
	c0.474-0.221,0.656-0.768,0.492-1.236c0.078-0.143,0.135-0.307,0.134-0.506c-0.002-1.314-1.258-2.377-2.402-2.441
	c-0.143-0.172-0.335-0.291-0.586-0.32c-3.568-0.389-7.12,0.238-10.677-0.043c-3.71-0.295-7.314-1.502-10.956-2.326
	c-1.621-0.365-3.237-0.734-4.858-1.098c-0.996-0.508-2.022-0.939-3.095-1.246c-0.352-0.098-0.687,0.059-0.91,0.338
	c-0.78-0.178-1.562-0.354-2.345-0.529c-1.799-0.803-3.594-1.629-5.396-2.43c-6.46-2.879-13.109-7.291-20.082-8.334
	c0.008-2.865-0.16-6.963-0.794-10.412c0.075,0.193,0.148,0.387,0.222,0.58c0.888,2.73,2.14,5.148,4.152,6.541
	c0.562,0.389,1.479-0.094,1.403-0.957c-0.225-2.525-0.906-4.814-1.779-7.012c0.459,0.402,0.943,0.781,1.455,1.117
	c0.218,0.146,0.45,0.156,0.666,0.092c0.107,0.209,0.22,0.412,0.327,0.621c0.654,1.379,1.355,2.75,2.142,4.107
	c1.517,2.613,3.405,6.488,6.32,6.896c0.498,0.068,0.954-0.562,0.938-1.119c-0.092-3.303-1.195-6.686-2.612-9.801
	c2.127,2.453,4.339,4.799,6.959,6.471c0.319,0.205,0.697,0.123,0.988-0.104c0.506,0.467,1.01,0.932,1.53,1.381
	c0.786,0.676,1.656-0.602,1.252-1.494c-1.512-3.311-3.79-5.842-6.184-8.227c0.252-0.352,0.312-0.854,0.013-1.287
	c3.159,2.283,6.613,4.043,9.952,5.873c0.786,0.428,1.557-0.43,1.318-1.273c0.193,0.031,0.385,0.078,0.579,0.092
	c0.622,0.043,1.151-0.939,0.756-1.572c-1.697-2.721-3.9-4.816-6.336-6.498c0.398,0.117,0.794,0.242,1.194,0.357
	c2.563,0.723,5.263,0.938,7.211-0.803c0.778-0.031,1.519-0.121,2.25-0.301c0.207,0.494,0.778,0.785,1.213,0.281
	c0.136-0.162,0.274-0.318,0.411-0.477c0.442-0.156,0.71-0.725,0.653-1.232c0.101-0.588-0.212-1.232-0.884-1.32
	c-0.234-0.029-0.46-0.02-0.691-0.025c-0.239-0.123-0.476-0.229-0.715-0.338c-0.116-0.201-0.281-0.369-0.5-0.459
	c-0.661-0.281-1.322-0.457-1.984-0.561c-5.028-1.951-10.692-0.83-15.873-0.773c-0.217,0-0.379,0.09-0.52,0.201
	c-0.622-0.234-1.24-0.479-1.861-0.717c0.294-0.234,0.487-0.654,0.422-1.07c3.044,0.756,6.171,0.795,8.01-1.635
	c0.419-0.553,0.339-1.352-0.191-1.758c-2.252-1.729-5.068-1.148-7.607-1.314c-1.153-0.074-2.305-0.07-3.458-0.045
	c0.181-0.148,0.368-0.291,0.544-0.447c0.207-0.055,0.406-0.119,0.616-0.172c1.365-0.34,2.862-0.738,4.142-1.514
	c2.295-0.336,4.465-3.213,4.738-5.814c0.046-0.422-0.3-0.945-0.649-1.012c-1.1-0.217-2.204-0.105-3.27,0.238
	c-0.199-0.588-0.86-0.965-1.399-0.635c-2.432,1.473-4.799,3.01-7.254,4.219c-0.749,0.25-1.486,0.588-2.214,0.961
	c-1.272,0.492-2.581,0.871-3.939,1.082c0.06-0.154,0.085-0.324,0.085-0.502c0.272-0.238,0.383-0.629,0.356-1.01
	c0.411-0.023,0.819-0.041,1.228-0.07c1.041-0.072,1.327-1.885,0.252-2.221c-3.035-0.934-6.393-0.631-9.446,0.564
	c-0.225,0.031-0.45,0.047-0.674,0.084c-0.87,0.135-1.743,0.295-2.607,0.498c0.231-0.561-0.077-1.283-0.601-1.48
	c0.045-0.389,0.017-0.775-0.111-1.133c0.056-0.141,0.095-0.285,0.083-0.438c-0.039-0.41-0.084-0.82-0.128-1.229
	c1.642-3.529,0.127-9.449-1.097-13.119c0.265,0.424,0.523,0.852,0.79,1.271c0.704,1.9,1.334,3.82,1.913,5.619
	c0.63,1.957,1.284,4.018,2.658,5.41c1.487,1.5,3.629,0.756,5.372,1.008c0.468,0.07,0.973-0.553,0.925-1.102
	c-0.016-0.215-0.057-0.414-0.083-0.623c0.618,0.553,1.252,1.09,1.927,1.576c0.546,0.395,1.485-0.102,1.395-0.953
	c-0.43-4.004-2.546-7.537-5.01-10.49c2.407,2.279,4.553,4.891,6.162,8.049c0.477,0.936,1.514,0.492,1.689-0.324
	c1.655,1.75,3.315,3.48,4.921,5.256c0.669,0.73,1.797,0.021,1.543-1.068c-0.921-3.971-3.066-7.172-5.616-10.023
	c-1.018-1.51-2.02-3.055-3.046-4.568c0.357,0.395,0.719,0.787,1.096,1.166c0.3,0.662,0.772,1.059,1.324,1.232
	c0.417,0.357,0.844,0.701,1.294,1.018c0.318,0.225,0.687,0.146,0.971-0.082c0.907,0.568,1.842,1.084,2.84,1.484
	c0.456,0.184,1.041-0.205,1.14-0.768c0.623-3.602-0.935-6.41-3.246-8.648c0.066,0.004,0.133,0.023,0.198,0.029
	c0.551,0.041,0.837-0.436,0.864-0.957c0.15,0.139,0.297,0.279,0.447,0.414c0.715,1.062,1.558,1.904,2.471,2.635
	c0.248,0.42,0.497,0.844,0.763,1.266c1.622,2.604,3.862,6.041,6.854,4.693c0.306,0.168,0.615,0.326,0.935,0.467
	c0.814,0.359,1.363-0.824,1.035-1.598c-1.983-4.67-5.722-7.084-9.098-10.123c-0.329-0.299-0.644-0.59-0.959-0.877
	c1.982,0.746,3.999,1.26,6.034,1.115c0.017-0.004,0.032-0.014,0.052-0.016c1.631,1.125,3.308,2.16,5.098,2.932
	c0.806,0.35,1.353-0.812,1.024-1.588c-1.461-3.443-3.967-6.121-6.858-7.887c2.7-0.232,5.372-0.859,7.437-2.467
	c0.141,0.633,0.701,1.141,1.231,0.66c0.829-0.752,1.242-1.369,1.746-2.51c0.027-0.059,0.035-0.129,0.054-0.195
	c0.277-0.211,0.439-0.598,0.311-1.021c0.02-0.137,0.019-0.271-0.008-0.402c0.038-0.193,0.072-0.391,0.095-0.609
	c0.049-0.531-0.42-1.006-0.837-0.996c-0.856,0.025-1.495,0.145-2.125,0.479c-3.325-0.533-6.98,1.438-9.973,2.701
	c-0.969,0.408-1.944,0.725-2.927,1.004c0.08-0.07,0.161-0.145,0.24-0.238c1.581-1.881,0.538-4.954-0.562-7.174
	c0.05-0.135,0.083-0.289,0.072-0.48c-0.033-0.582-0.14-1.26-0.324-1.922c-0.023-0.35-0.038-0.703-0.04-1.076
	c-0.001-0.449-0.186-0.733-0.427-0.887c0.919,0.111,1.842,0.226,2.769,0.26c0.403,0.017,0.656-0.226,0.779-0.546
	c2.037,0.981,4.633,0.801,6.47-0.532c0.214-0.154,0.342-0.438,0.381-0.73c0.045-0.019,0.089-0.029,0.134-0.047
	c0.8-0.337,0.75-1.518,0-1.877c-0.102-0.049-0.195-0.08-0.291-0.12c-0.099-0.158-0.233-0.294-0.415-0.366
	c-0.042-0.017-0.083-0.03-0.125-0.045c-0.057-0.453-0.325-0.859-0.826-0.859c-2.035,0.004-4.073,0.004-6.107,0.006
	c-0.213,0-0.372,0.09-0.503,0.208c-0.639-0.003-1.279-0.022-1.914-0.067c-6.014-2.734-12.493-3.967-18.321-7.328
	c-2.464-1.422-4.84-3.037-7.216-4.659c0.069-0.19,0.093-0.406,0.029-0.651c-0.075-0.282-0.16-0.561-0.246-0.836
	c0.464-0.113,0.71-0.785,0.623-1.307c-0.322-1.984-1.311-3.215-2.596-4.152c-0.472-1.655-1.238-4.065-2.179-6.342
	c0.526,0.31,1.093,0.525,1.717,0.62c0.645,0.638,1.323,1.241,1.99,1.855c0.204,0.186,0.458,0.23,0.698,0.186
	c0.516,0.819,1.176,1.38,2.041,1.489c0.525,0.066,0.871-0.545,0.911-1.084c0.025-0.318,0.038-0.64,0.052-0.959
	c0.163-0.168,0.275-0.416,0.278-0.755c0.015-2.524,0.129-5.033,0.087-7.545c0.366,1.294,0.791,2.565,1.23,3.845
	c0.04,0.109,0.078,0.219,0.118,0.328c0.008,0.143,0.021,0.283,0.029,0.423c-0.026,3.585,0.072,7.364,2.006,9.24
	c0.182,0.469,0.405,0.877,0.668,1.208c0.008,0.401,0.061,0.795,0.209,1.098c0.58,1.174,2.135,0.426,2.784-0.264
	c0.23-0.236,0.395-0.488,0.533-0.74c0.072-0.092,0.13-0.184,0.172-0.299c0.399-0.342,0.607-1.055,0.181-1.628
	c-0.029-0.042-0.051-0.091-0.078-0.132c-0.092-0.442-0.255-0.9-0.491-1.369c-0.125-0.242-0.3-0.391-0.493-0.462
	c-1.327-3.147-1.539-7.304-2.104-10.558c-0.07-0.426-0.155-0.846-0.235-1.264c0.107,0.322,0.207,0.653,0.32,0.973
	c0.786,2.176,1.819,5.783,4.005,6.477c0.61,0.195,1.093-0.348,1.149-1.043c0.344-4.373-1.498-7.629-3.282-11.041
	c0.014-0.117,0.002-0.24-0.033-0.365c1.071,0.965,2.144,1.918,3.34,2.659c1.521,0.942,3.034,1.456,4.561,0.282
	c0.119-0.09,0.206-0.198,0.276-0.312c0.115,0.006,0.219,0.036,0.336,0.03c0.471-0.021,0.96-0.484,0.921-1.095
	c-0.344-5.283-7.209-6.531-10.872-7.264c0.02-0.066,0.032-0.137,0.039-0.207c0.07-0.002,0.139,0.006,0.208,0
	c0.962-0.062,1.177-1.388,0.46-2.023c-0.083-0.076-0.175-0.133-0.263-0.206c-0.041-0.271-0.17-0.513-0.449-0.661
	c-0.074-0.037-0.148-0.066-0.223-0.102c0.001-0.005,0.001-0.006,0.003-0.006c-0.015-0.004-0.028-0.009-0.04-0.014
	c-0.945-0.465-1.886-0.771-2.839-0.966c-0.006-0.003-0.012-0.003-0.021-0.003c-0.15-0.03-0.302-0.066-0.452-0.093
	c-0.53-0.178-1.064-0.345-1.599-0.501c-0.143-0.652-0.314-1.293-0.563-1.922c-0.034-0.086-0.053-0.17-0.088-0.25
	c-0.033-0.07-0.076-0.113-0.112-0.169c-0.457-1.769-1.022-3.485-1.805-5.115c1.054,0.75,2.048,1.573,2.873,2.525
	c1.587,1.821,3.18,3.345,5.238,4.326c0.741,0.354,1.445-0.842,1.024-1.587c-0.855-1.527-1.84-2.883-2.916-4.11
	c1.414,0.826,2.868,1.519,4.408,1.837c1.037,0.217,1.521-1.225,0.695-1.957c-2.779-2.474-5.869-4.217-8.965-6.002
	c0.484-0.179,0.963-0.397,1.432-0.68c0.219-0.129,0.323-0.32,0.385-0.527c1.125-0.135,2.245-0.328,3.348-0.641
	c0.29-0.083,0.469-0.299,0.57-0.554c0.41-0.08,0.818-0.175,1.227-0.306c0.867-0.281,0.906-1.879,0-2.133
	c-0.034-0.01-0.067-0.018-0.099-0.023c0.103-0.16,0.208-0.314,0.305-0.484c0.291-0.521,0.077-1.225-0.339-1.533
	c-2.429-1.824-5.516-1.27-8.528-0.326c0.964-0.621,1.928-1.244,2.92-1.811c3.495-1.982,8.248-5.003,7.448-10.449
	c-0.083-0.586-0.676-0.904-1.12-0.758c-4.058,1.311-7.166,4.615-10.362,7.703c-0.058-0.02-0.115-0.046-0.179-0.052
	c-0.3-0.024-0.604-0.04-0.909-0.057c0.267-0.113,0.533-0.222,0.798-0.341c0.46-0.204,0.651-0.628,0.648-1.053
	c0.377-0.465,0.714-0.989,0.987-1.599c0.402-0.889-0.25-1.829-1.053-1.632c-3.172,0.778-6.146,2.262-9.11,3.764
	c-0.171-0.253-0.418-0.426-0.703-0.387c-1.044,0.136-1.903,0.607-2.717,1.182c0.007-0.123-0.005-0.231-0.037-0.34
	c0.23-0.416,0.457-0.833,0.688-1.252c3.722-3.861,7.717-7.344,10.725-12.068c0.447-0.701-0.299-1.867-0.984-1.529
	c-1.675,0.828-3.212,1.873-4.649,3.061c1.403-3.539,2.272-7.389,2.156-11.045c-0.021-0.673-0.601-1.12-1.088-1.01
	c-0.07-0.623-0.542-0.93-1.003-0.84c-0.263-0.084-0.567-0.025-0.841,0.254c-3.297,3.338-5.46,7.818-7.18,12.607
	c-0.748,1.115-1.538,2.193-2.31,3.286c0.833-2.509,1.393-5.081,1.254-7.679c0.292-0.657,0.579-1.318,0.844-1.987
	c1.734-2.798,2.969-5.698,2.036-8.763c-0.162-0.535-0.592-0.893-1.083-0.731c-4.978,1.636-4.978,8.286-6.678,13.195
	c0.07-1.32,0.139-2.642,0.175-3.969c0.368-1.011,0.81-1.986,1.228-2.947c1.282-2.95,2.417-5.796,2.773-9.118
	c0.001-0.006-0.001-0.01-0.001-0.018c0.854-0.912,1.587-1.881,2.166-3.198c0.312-0.712,0.358-1.569,0.436-2.403
	c0.295-0.934,0.498-1.912,0.562-2.939c0.046-0.723-0.694-1.143-1.181-0.809c-2.685,1.86-4.497,5.31-6.058,8.692
	c0.204-2.251,0.372-4.507,0.463-6.778c0.169-4.157,0.832-8.633,0.823-12.977c0.42-2.67,0.76-6.41,0.138-8.73
	c0.004-0.123,0.014-0.242,0.019-0.367c0.009-0.467-0.222-0.726-0.504-0.809c-0.473-0.764-1.183-1.126-2.216-0.849
	c-0.283,0.073-0.543,0.45-0.513,0.802c0.086,1.114,0.098,2.241,0.09,3.365c-0.314,0.115-0.577,0.417-0.593,0.916
	c-0.23,6.047-0.316,12.104-0.356,18.157c-0.059-0.072-0.123-0.139-0.196-0.183c-0.578-0.989-1.279-1.873-2.128-2.594
	c-0.465-0.395-1.11,0.023-1.258,0.607c-1.035,4.102,0.126,7.893,1.326,11.693c-0.428,0.129-0.728,0.625-0.635,1.268
	c0.044,0.305,0.086,0.616,0.125,0.924c-0.029,0-0.054,0-0.083,0.008c-0.569-0.221-1.25,0.322-1.084,1.195
	c0.688,3.621,1.532,7.38,3.059,10.663c-0.014,0.198-0.015,0.396-0.028,0.597c-0.011-0.006-0.023-0.007-0.033-0.012
	c-0.098-0.129-0.226-0.226-0.384-0.2c-0.848,0.128-1.4,1.174-1.777,2.283c-0.162-0.444-0.319-0.895-0.504-1.331
	c-1.529-3.685-3.437-7.854-6.83-9.419c-0.677-0.312-1.181,0.585-1.073,1.278c0.718,4.52,2.805,8.123,4.897,11.818
	c-0.177,0.191-0.294,0.448-0.271,0.744c0.332,4.199,1.819,7.842,3.628,11.316c-0.375-0.016-0.768,0.012-1.178,0.089
	c-0.468,0.084-0.734,0.782-0.611,1.282c0.09,0.365,0.2,0.711,0.319,1.045c-2.942-0.367-6.376,1.398-8.957,2.646
	c-1.436,0.254-2.863,0.574-4.242,1.084c-1.045,0.384-2.088,0.771-3.131,1.148c-0.538,0.072-1.086,0.133-1.647,0.183
	c-2.391-0.038-4.745-0.157-7.012-0.29c-2.243-0.125-6.955-0.065-7.294,3.523c-0.251,2.655,2.64,2.246,4.796,1.76
	c0.244-0.006,0.485-0.023,0.728-0.031c-0.073,0.105-0.123,0.225-0.149,0.348c-0.081,0.018-0.154,0.055-0.237,0.064
	c-1.13,0.184-1.197,2.076,0,2.16c0.722,0.046,1.407-0.043,2.072-0.206c-0.852,1.782-2.123,5.13-0.467,6.661
	c0.006,0.057,0,0.11,0.003,0.166c0.088,0.92,0.926,1.449,1.547,0.764c0.114-0.125,0.212-0.266,0.319-0.398
	c1.458-0.362,2.795-2.26,3.343-3.621c0.171-0.424,1.467-3.018,2.494-4.979c0.316-0.14,0.633-0.254,0.941-0.342
	c-0.096,1.006-0.268,1.997-0.335,3.012c-0.009,0.135,0.006,0.245,0.029,0.352c-0.872,1.449-1.642,3.074-2.176,4.764
	c-0.182,0.137-0.328,0.332-0.374,0.593c-0.091,0.507-0.122,0.952-0.13,1.37c-0.208,1.074-0.309,2.146-0.26,3.193
	c0.008,0.166,0.045,0.313,0.104,0.449c-4.283-0.061-8.573,0.042-12.757,1.021c-0.612,0.143-0.867,1.074-0.57,1.672
	c2.028,4.104,6.692,3.845,10.404,3.251c0.538,0.087,1.079,0.173,1.624,0.257c-1.874,1.09-3.954,1.832-5.396,3.691
	c-0.337,0.433-0.381,1.144,0,1.57c0.52,0.586,1.17,0.879,1.874,1.01c-0.622,0.694-1.144,1.328-1.491,1.729
	c-0.533,0.613-0.196,1.495,0.397,1.785c0.137,0.07,0.268,0.109,0.402,0.162c-0.036,0.405,0.162,0.862,0.449,1.046
	c1.137,0.713,2.188,0.826,3.183,0.554c-0.569,1.43-0.961,2.924-1.104,4.482c-0.08,0.873,0.813,1.258,1.361,0.93
	c0.723-0.436,1.438-0.949,2.143-1.524c-0.042,0.563-0.01,1.142,0.136,1.735c0.131,0.541,0.626,0.916,1.096,0.742
	c0.051-0.021,0.099-0.051,0.15-0.07c0.213,0.366,0.609,0.601,1.265,0.617c3.642,0.104,6.391-4.25,8.163-7.486
	c0.071-0.129,0.14-0.262,0.21-0.388c0.043-0.021,0.09-0.024,0.132-0.048c0.042-0.022,0.078-0.049,0.118-0.076
	c-0.011,0.148-0.035,0.293-0.042,0.436c-0.014,0.348,0.105,0.602,0.278,0.781c-0.078,0.908-0.058,1.818,0.098,2.73
	c-0.792,0.8-1.566,1.638-2.264,2.547c-0.148,0.024-0.285,0.07-0.439,0.088c-0.81,0.086-1.068,1.123-0.79,1.762
	c-0.255,0.451-0.496,0.912-0.7,1.397c-0.225,0.53-0.045,1.176,0.334,1.459c-0.551,0.717-1.113,1.419-1.642,2.163
	c-0.368,0.516-0.226,1.438,0.216,1.768c-0.042,0.219-0.076,0.439-0.098,0.662c-0.984,0.307-1.974,0.591-2.98,0.812
	c-4.427,0.99-12.391,1.521-14.286,7.497c-0.226,0.711,0.343,1.374,0.9,1.407c2.462,0.145,4.667-1.133,6.806-2.447
	c-1.089,1.428-2.02,3.037-2.925,4.637c-0.608,1.072,0.699,2.127,1.438,1.324c0.335-0.365,0.683-0.844,1.045-1.371
	c0.17-0.08,0.346-0.154,0.514-0.24c-0.358,1.558-0.406,3.231,0.733,3.811c1.854,0.938,3.48-1.086,4.499-2.771
	c0.481-0.8,1.457-3.009,2.532-4.675c-0.315,0.907-0.501,1.841-0.508,2.777c-0.018,0.022-0.036,0.038-0.055,0.061
	c-0.275,0.319-0.293,0.802-0.162,1.207c-0.085,0.288-0.073,0.583,0.014,0.837c-0.223,0.312-0.459,0.596-0.731,0.798
	c-0.72,0.545-0.423,1.683,0.176,1.966c-0.569,1.126-1.022,2.261-1.299,3.355c-0.901,1.127-1.903,2.477-2.472,3.959
	c-0.36-0.148-0.721-0.307-1.09-0.44c-0.692-0.247-1.34,0.569-1.153,1.376c0.068,0.299,0.176,0.576,0.304,0.836
	c-0.131,0.184-0.223,0.406-0.275,0.67c-1.997-0.697-4.021-1.348-6.065-2.014c-0.783-0.254-1.469,0.79-1.05,1.629
	c1.541,3.104,4.378,4.912,7.221,6.146c-0.462-0.143-0.924-0.291-1.386-0.443c-3.857-2.516-7.75-4.951-11.972-6.479
	c-0.552-0.199-1.222,0.355-1.179,1.068c0.028,0.459,0.093,0.887,0.188,1.289c-1.877-0.334-3.778-0.471-5.725-0.266
	c-0.794,0.084-1.272,1.166-0.665,1.91c1.67,2.035,3.65,2.438,5.723,2.988c0.06,0.072,0.139,0.129,0.227,0.18
	c-0.295,0.17-0.588,0.363-0.873,0.564c-0.143-0.029-0.288-0.059-0.432-0.078c-1.911-0.508-4.867-0.582-6.833,0.629
	c-0.615,0.016-1.231,0.041-1.846,0.08c-1.753,0.117-3.497,0.236-5.253,0.197c-0.984-0.029-3.674,0.273-4.341-0.779
	c-0.644-1.02-2.016-0.211-1.73,0.805c-0.614,0.082-1.224,0.219-1.828,0.436c-0.509,0.18-0.897,0.998-0.539,1.574
	c2.129,3.416,6.205,3.051,9.384,2.59c1.051-0.154,2.1-0.26,3.145-0.352c-1.831,0.66-3.594,1.646-4.868,3.277
	c-0.041,0.053-0.066,0.107-0.098,0.16c-1.738,1.734-2.892,4.48-3.046,7.047c-0.054,0.9,0.821,1.311,1.405,0.965
	c0.29-0.176,0.583-0.348,0.874-0.521c0.079,0.189,0.193,0.355,0.349,0.467c0.144,0.373,0.438,0.66,0.821,0.631
	c0.134-0.016,0.27-0.033,0.404-0.053c0.1,0.045,0.206,0.068,0.315,0.055c1.128-0.117,2.154-0.523,2.991-1.219
	c0.461-0.264,0.912-0.561,1.345-0.891c0.184,0.221,0.438,0.373,0.695,0.396c0.068,0.004,0.129,0,0.196,0.002
	c0.013,0.002,0.029,0,0.044,0c0.774,0.049,1.505-0.023,2.208-0.189c-0.078,0.416-0.09,0.842-0.08,1.275
	c-1.55,1.713-2.786,3.75-2.944,6.359c-0.03,0.52,0.362,1.008,0.792,1.082c0.029,0.193,0.104,0.373,0.245,0.508
	c0.263,0.238,0.505,0.396,0.742,0.521c0.061,0.201,0.124,0.391,0.192,0.557c0.21,0.523,0.812,0.639,1.207,0.377
	c1.455-0.955,2.982-2.424,3.914-4.078c0.185-0.33,0.152-0.639,0.008-0.865c0.398-0.252,0.795-0.521,1.19-0.807
	c-0.16,0.602-0.296,1.207-0.361,1.848c-0.074,0.736,0.635,1.195,1.156,1.051c0.136-0.039,0.267-0.094,0.402-0.137
	c0.247,0.584,0.971,0.709,1.419,0.26c0.55-0.555,1.075-1.178,1.564-1.846c0.981-0.725,1.896-1.594,2.75-2.549
	c-0.054,0.174-0.08,0.365-0.123,0.549c-0.475,0.537-0.901,1.148-1.263,1.816c-2.135,2.857-4.296,5.812-5.153,9.555
	c-0.247,1.084,0.86,1.766,1.521,1.055c1.801-1.941,3.232-4.268,4.614-6.633c0.358-0.613,0.784-1.238,1.191-1.881
	c0.067,0.02,0.135,0.051,0.199,0.068c-2.084,2.594-4.261,6.004-3.228,9.686c0.153,0.541,0.642,0.969,1.139,0.768
	c4.37-1.746,7.976-6.625,10.762-11.594c-0.226,1.639-0.149,3.322,0.34,4.826c0.041,0.127,0.12,0.221,0.188,0.32
	c-0.175,0.123-0.354,0.242-0.53,0.365c-0.035,0.012-0.07,0.023-0.106,0.039c-2.643,0.955-5.499,2.107-7.272,4.57
	c-1.284,0.652-2.501,1.695-3.497,2.889c-0.27,0.123-0.46,0.393-0.552,0.707c-0.63,0.871-1.14,1.789-1.457,2.678
	c-0.236,0.65-0.077,1.406,0.553,1.621c0.308,0.102,0.608,0.158,0.902,0.174c-0.429,0.381-0.838,0.795-1.232,1.238
	c-0.633,0.605-1.239,1.236-1.814,1.875c-0.278,0.314-0.577,0.652-0.875,1.008c-0.091,0.09-0.185,0.174-0.275,0.266
	c-0.092,0.09-0.157,0.199-0.2,0.314c-1.486,1.883-2.837,4.25-2.201,6.77c0.134,0.531,0.675,1.02,1.161,0.783
	c1.778-0.867,3.267-2.084,4.616-3.514c-0.433,1.396-0.68,2.803-0.688,4.141c-0.002,1.051,1.134,1.328,1.586,0.512
	c0.43-0.773,0.887-1.527,1.348-2.283c-0.397,1.266-0.688,2.562-0.791,3.898c-0.214,0.625-0.417,1.248-0.604,1.875
	c-0.458,0.158-0.914,0.322-1.373,0.479c-0.27-0.037-0.538-0.066-0.808-0.092c-0.157-0.219-0.375-0.371-0.666-0.367
	c-1.682,0.035-3.361,0.189-5.041,0.305c-3.417,0.117-6.775-0.037-10.192-0.367c-3.269-0.316-7.124-0.863-10.573-0.365
	c-0.499-0.023-1-0.031-1.507,0.004c-0.102,0.006-0.177,0.061-0.26,0.098c-2.264-0.623-4.509-1.094-6.817-0.057
	c-0.456,0.205-0.82,0.75-0.651,1.365c0.57,2.051,2.603,2.811,4.672,3.201c0.098,0.031,0.197,0.051,0.296,0.08
	c-0.13,0.207-0.241,0.438-0.319,0.703c-1.136,0.779-2.017,1.99-2.099,3.424c-0.046,0.836,0.749,1.203,1.278,0.877
	c0.15,0.174,0.371,0.275,0.665,0.264c1.353-0.066,2.721-0.514,3.962-1.25c-1.892,1.807-3.807,4.014-4.501,6.662
	c-0.233,0.887,0.49,1.477,1.145,1.359c0.148-0.025,0.309-0.059,0.476-0.092c0.182,0.086,0.389,0.127,0.602,0.088
	c1.04-0.182,1.991-0.584,2.892-1.107c0.348-0.129,0.702-0.266,1.06-0.412c-0.022,0.059-0.026,0.123-0.039,0.182
	c-1.108,0.777-2.098,1.814-3.01,2.947c-0.437,0.363-0.89,0.701-1.348,1.029c-0.713,0.373-1.41,0.797-2.073,1.318
	c-1.031,0.811-0.144,2.543,0.951,1.941c0.052-0.027,0.1-0.062,0.149-0.092c0.121,0.316,0.351,0.559,0.647,0.627
	c-2.548,1.115-5.099,2.227-7.635,3.387c-0.847,0.389-0.975,1.871,0,2.197c3.424,1.152,6.994,0.156,10.383-1.611
	c-0.613,1.172-1.057,2.424-1.28,3.762c-0.999,0.857-1.871,1.855-2.467,3.037c-0.317,0.637-0.007,1.414,0.557,1.631
	c0.062,0.021,0.12,0.027,0.179,0.049c-0.194,0.508-0.368,1.029-0.501,1.57c-0.26,1.047,0.69,1.699,1.418,1.297
	c1.788-0.979,3.387-2.32,4.922-3.77c0.102-0.07,0.203-0.141,0.302-0.219c-0.077,0.418-0.135,0.846-0.159,1.289
	c-0.041,0.756,0.609,1.174,1.16,1.051c1.86-0.42,3.625-1.4,5.282-2.707c2.144-1.041,4.1-2.725,5.924-4.502
	c-1.859,2.113-3.699,4.244-5.038,6.898c-0.409,0.803,0.123,1.502,0.735,1.549c-0.043,0.234-0.102,0.461-0.122,0.703
	c-0.037,0.422,0.155,0.723,0.423,0.883c-0.249,0.361-0.499,0.727-0.728,1.107c-0.568,0.947,0.527,2.156,1.312,1.564
	c0.003-0.004,0.008-0.006,0.011-0.012c-0.183,0.648-0.322,1.316-0.374,2.021c-0.051,0.711,0.654,1.33,1.209,1.098
	c3.625-1.52,5.917-4.752,8.23-8.123c-0.359,0.805-0.686,1.635-0.949,2.477c-1.008,2.275-1.72,4.674-1.649,7.117
	c0.026,0.92,0.767,1.305,1.418,0.967c0.477-0.242,0.925-0.529,1.358-0.84c0.062-0.027,0.121-0.074,0.177-0.119
	c0.335-0.248,0.645-0.531,0.958-0.812c-0.003,0.266,0.076,0.533,0.303,0.762c0.552,0.559,1.131,1.074,1.719,1.578
	c-0.348-0.021-0.693-0.049-1.039-0.068c-1.641-0.082-3.232,0.1-4.8,0.42c-1.247-0.133-2.518-0.164-3.825-0.039
	c-0.617,0.057-0.953,0.668-0.931,1.254c-0.267,0.119-0.524,0.252-0.782,0.4c-1.664,0.6-3.324,1.248-5.005,1.836
	c-0.173,0.062-0.298,0.174-0.401,0.297c-2.135-0.211-4.445,0.555-6.269,1.574c-0.583,0.326-0.537,1.219-0.141,1.682
	c-0.198,0.08-0.398,0.141-0.594,0.23c-0.374-0.068-0.75-0.123-1.124-0.189c0.173-0.896-0.123-1.734-0.588-2.471
	c1.005-0.213,2.011-0.406,3.007-0.498c2.368-0.229,4.721-0.477,7.041-1.082c0.908-0.24,0.696-1.814-0.217-1.807
	c-0.137,0-0.276,0-0.411,0.002c-0.062-0.016-0.114-0.045-0.182-0.045c-0.228,0-0.457,0-0.685,0
	c-1.375-3.463-8.535-1.42-10.738-0.916c-2.632,0.607-5.234,1.35-7.828,2.139c-1.597-0.014-3.194,0.127-4.789,0.35
	c-1.692-0.65-4.641-1.271-4.988,0.838c-0.015,0.002-0.032,0.002-0.048,0.004c-2.523,0.227-5.045,0.482-7.573,0.666
	c-1.865,0.135-3.836-0.014-5.636,0.582c-0.373,0.123-0.495,0.574-0.368,0.912c-0.171,0.008-0.34,0.008-0.512,0.016
	c0.117-0.555-0.281-1.285-0.953-1.143c-6.413,1.359-12.873,0.338-19.316-0.137c-4.531-0.33-10.207-0.953-14.635,1.016
	c-0.775,0.016-1.572,0.008-2.38,0c0.01-0.332-0.087-0.676-0.373-0.924c-0.063-0.055-0.13-0.104-0.194-0.156
	c0.109-0.355,0.076-0.75-0.218-1.012c-0.354-0.316-0.698-0.645-1.04-0.979c-0.117-0.234-0.307-0.426-0.54-0.531
	c-0.633-0.633-1.266-1.266-1.92-1.857c0.183-0.166,0.377-0.32,0.549-0.5c0.226-0.234,0.299-0.512,0.279-0.779
	c1.673,0.996,3.424,1.74,5.005,2.191c1.611,0.461,8.655,2.646,9.575,0.074c0.115-0.322-0.01-0.83-0.246-1.049
	c-0.433-0.404-0.891-0.496-1.419-0.711c-0.041-0.016-0.079-0.01-0.118-0.018c-0.859-0.695-1.738-1.318-2.466-2.342
	c-0.729-1.029-1.395-2.107-2.07-3.178c0.32,0.148,0.632,0.295,0.922,0.434c2.284,1.104,4.666,1.984,7.126,2.402
	c3.282,0.557,6.544-0.451,7.256-3.902c0.16-0.154,0.323-0.312,0.484-0.467c0.193-0.184,0.263-0.406,0.277-0.627
	c3.837,0.287,9.01,0.639,12.689-1.084h0.606c0.432,0,0.702-0.275,0.823-0.623c0.317-0.006,0.637-0.018,0.958-0.041
	c1.183-0.092,1.211-2.092,0-2.092h-0.45c-0.208-0.1-0.417-0.197-0.626-0.279c-0.148-0.227-0.377-0.389-0.705-0.389
	c-0.149,0-0.294-0.006-0.442-0.006c-0.646-0.189-1.294-0.328-1.95-0.428c-0.145-0.141-0.329-0.24-0.575-0.24
	c-0.39-0.002-0.78,0-1.171-0.002c-0.005,0-0.009-0.002-0.014-0.002c-0.127,0-0.252,0-0.379-0.002
	c-0.116-0.043-0.23-0.09-0.346-0.135c0.113-0.086,0.2-0.203,0.262-0.34c0.138-0.031,0.275-0.066,0.412-0.1
	c0.215-0.008,0.428-0.031,0.644-0.035c0.254-0.008,0.442-0.117,0.584-0.27c2.493-0.664,4.956-1.514,7.371-2.422
	c0.302-0.111,0.479-0.348,0.563-0.613c0.326-0.014,0.649-0.023,0.976-0.035c1.15-0.041,1.152-1.979,0-2.014
	c-5.338-0.158-10.799,0.252-16.077,1.131c-1.531,0.254-3.84,0.547-6.07,1.17c-0.008-0.008-0.013-0.012-0.021-0.016
	c-0.382-0.25-0.853-0.059-1.042,0.346c-0.861,0.291-1.688,0.643-2.429,1.074c-0.614,0.061-1.227,0.113-1.84,0.158
	c-3.242-0.814-6.594-0.979-9.922-0.887c-1.309-1.389-2.655-2.732-4.05-4.004c-0.259-0.635-0.556-1.266-0.921-1.885
	c0.78,0.451,1.565,0.885,2.361,1.295c1.202,0.615,3.289,1.83,5.424,2.65c0.101,0.066,0.204,0.129,0.307,0.193
	c0.187,0.123,0.375,0.143,0.555,0.111c1.763,0.576,3.483,0.789,4.688,0.062c0.227,0.17,0.452,0.344,0.68,0.51
	c1.023,0.756,1.884-1.023,0.94-1.807c-1.066-0.891-2.135-1.705-3.215-2.436c0.002,0,0.006-0.004,0.009-0.006
	c1.759-0.438,3.291-1.236,4.391-2.686c0.287,0.062,0.612-0.086,0.709-0.465c0.041-0.137,0.071-0.273,0.104-0.41
	c0.122-0.225,0.167-0.482,0.127-0.725c0.005-0.039,0.015-0.082,0.019-0.127c0.146-1.014-1.107-1.811-1.58-0.75
	c-0.005,0.008-0.009,0.012-0.012,0.02c-0.417-0.096-0.842-0.188-1.273-0.287c-0.093-0.758-1.08-1.373-1.59-0.646
	c-0.063,0.092-0.137,0.17-0.206,0.254c-0.255-0.057-0.511-0.111-0.767-0.162c-2.553-1.189-5.243-2.102-7.963-2.816
	c3.284-1.355,6.478-3.039,8.312-6.289c0.429,0.031,0.778-0.307,0.903-0.715c0.114-0.049,0.207-0.123,0.283-0.203
	c0.365-0.189,0.728-0.377,1.09-0.576c0.385-0.207,0.451-0.672,0.33-1.064c0.229-0.643-0.266-1.596-0.951-1.271
	c-0.445,0.211-0.884,0.451-1.319,0.701c-0.392-0.1-0.864,0.064-1.057,0.602c-5.161-3.143-10.871-6.758-16.766-8.203
	c0.536-0.105,1.074-0.271,1.613-0.504c3.387,1.93,6.931,3.377,10.724,3.818c0.087,0.033,0.168,0.076,0.255,0.105
	c0.208,0.086,0.411,0.057,0.588-0.039c0.254,0.02,0.507,0.045,0.764,0.057c3.701,2.896,9.104,4.49,13.128,4.008
	c0.629-0.074,1.14-0.795,0.761-1.49c-0.37-0.68-0.776-1.303-1.194-1.906c0.826-0.154,0.934-1.582,0.072-1.863
	c-0.048-0.227-0.164-0.441-0.379-0.598c-1.349-0.951-2.789-1.709-4.278-2.314c-1.156-0.875-2.389-1.631-3.663-2.312
	c0.736-0.52,1.415-1.188,1.963-1.883c0.843,0.656,1.703,1.275,2.583,1.84c2.449,1.572,5.46,3.279,8.379,3.025
	c0.436,0.277,0.98,0.111,1.279-0.24c0.029-0.012,0.059-0.023,0.088-0.033c0.023,0.008,0.048,0.018,0.073,0.023
	c-0.061,0.531,0.203,1.09,0.843,1.09c0.792,0,1.582,0,2.373-0.002c0.424,0,0.743-0.348,0.85-0.756
	c0.272-0.125,0.461-0.359,0.545-0.641c0.38-0.111,0.673-0.486,0.674-0.945c0-0.447,0-0.893,0.001-1.336
	c0.001-0.414-0.266-0.883-0.649-0.961c-0.345-0.072-0.696-0.113-1.043-0.172c-1.364-0.51-2.767-0.836-4.172-1.146
	c-1.128-0.617-2.238-1.277-3.409-1.568c-0.82-0.799-1.629-1.604-2.417-2.441c0.708,0.094,1.407-0.828,0.95-1.6
	c-0.09-0.15-0.179-0.299-0.267-0.447c4.342,3.473,8.682,7.047,14.278,6.744c0.871-0.049,1.412-1.537,0.483-2.014
	c-3.083-1.582-6.271-3.723-9.58-5.307c5.357,0.113,10.811-0.738,16.106-0.752c0.001,0,0.003,0,0.004,0
	c0.065,0,0.127-0.008,0.186-0.025c0.505-0.092,0.694-0.541,0.66-1c0.034-0.457-0.155-0.904-0.66-1
	c-0.059-0.018-0.121-0.023-0.186-0.023h-0.004c-0.482-0.002-0.966,0.004-1.448,0.014c-0.06-0.199-0.165-0.385-0.366-0.525
	c-1.451-1.012-7.824-2.162-13.608-2.248c1.651-1.434,3.434-2.67,5.16-4.07c1.923-1.561,4.349-3.609,5.32-6.197
	c0.346-0.18,0.406-0.578,0.274-0.906c0.081-0.271,0.149-0.551,0.194-0.838c0.183-1.127-1.156-1.541-1.514-0.469
	c-0.132,0.387-0.301,0.764-0.494,1.133c-5.054,1.35-11.227,5.111-14.432,10.234c-0.009,0.002-0.016,0.004-0.023,0.006
	c-0.171-0.68-0.969-1.178-1.575-0.537c-0.839,0.887-1.75,1.66-2.691,2.385c-0.526-0.135-0.982,0.281-1.102,0.812
	c-0.693,0.484-1.4,0.941-2.12,1.375c-0.065,0.014-0.128,0.027-0.193,0.037c0.007-0.043,0.015-0.086,0.021-0.133
	c1.33-1.232,2.576-2.584,3.858-3.869c0.134-0.094,0.269-0.182,0.4-0.281c0.168-0.121,0.268-0.273,0.338-0.432
	c1.175-1.119,2.41-2.143,3.823-2.893c0.712-0.381,0.573-1.814-0.228-1.959c-6.668-1.184-12.389,3.273-16.945,8.291
	c-0.104,0.117-0.169,0.246-0.21,0.387h-4.215c-0.06-0.207-0.182-0.377-0.351-0.498c2.006-3.449,5.865-5.277,9.025-7.068
	c3.161-1.793,6.33-3.65,8.49-6.902c0.293-0.439,0.075-1.17-0.33-1.416c-5.009-3.025-10.675,1.057-15.364,5.521
	c-4.229-1.051-9.904-0.838-12.187,2.16c-1.461-0.896-2.964-1.699-4.448-2.422c2.081-0.621,5.326-1.639,6.845-3.592
	c0.794-0.166,1.587-0.322,2.384-0.461c0.634-0.107,0.762-0.773,0.561-1.309c0.012-0.006,0.023-0.008,0.037-0.012
	c1.147-0.359,0.665-2.279-0.487-1.994c-0.417,0.1-0.829,0.211-1.239,0.326c-0.01-0.525-0.322-1.047-0.892-1.035
	c-0.235,0.006-0.469,0.025-0.704,0.037c-0.015,0.002-0.026-0.002-0.041,0c-1.129-0.422-2.827-0.01-4.211,0.48
	c-1.075,0.164-2.151,0.34-3.228,0.49c-0.015-0.021-0.026-0.045-0.042-0.061c-1.239-1.324-2.736-2.561-4.375-3.646
	c1.383-0.098,2.817-0.221,4.25-0.432c0.607-0.023,1.215-0.047,1.822-0.1c0.287-0.025,0.506-0.17,0.667-0.369
	c2.042-0.482,4.014-1.229,5.748-2.455c0.829-0.586,0.453-1.916-0.481-1.99c-2.403-0.199-4.805-0.252-7.204-0.221
	c-2.81-1.725-5.819-2.908-9.032-3.105c0.125-0.08,0.236-0.186,0.331-0.311c1.879-0.043,3.727-0.322,5.486-0.92
	c0.083-0.027,0.152-0.074,0.22-0.119c0.529-0.166,1.05-0.348,1.553-0.574c0.85-0.379,0.957-1.725,0-2.062
	c-3.129-1.096-6.338-1.598-9.575-1.82c-1.722-0.377-3.462-0.6-5.163-0.549c-0.006-0.254-0.081-0.508-0.261-0.705
	c-0.963-1.057-2-2.072-3.082-3.041c0.582,0.127,1.169,0.248,1.758,0.35c2.076,1.094,4.379,1.795,6.761,2.225
	c3.591,1.066,7.728,2.148,11.348,0.949c0.146-0.047,0.263-0.137,0.365-0.236c4.179,2.635,8.916,4.348,13.376,5.506
	c0.524,0.139,0.897-0.211,1.047-0.65c0.295-0.064,0.511-0.309,0.611-0.609c0.122-0.01,0.24-0.014,0.363-0.033
	c0.726-0.105,1.279-1.062,0.642-1.744c-1.334-1.43-2.863-2.697-4.531-3.605c-0.093-0.34-0.206-0.688-0.33-1.031
	c2.074,0.941,4.492,1.439,6.14,1.797c3.665,0.795,7.4,1.238,11.133,1.25c0.863,0.006,1.086-1.092,0.682-1.684
	c0.355-0.506,0.226-1.412-0.44-1.672c-1.249-0.486-2.513-1.062-3.794-1.607c-1.007-1.053-2.053-2.062-3.163-2.961
	c1.145-0.025,2.291-0.121,3.432-0.285c0.283,0.281,0.646,0.488,1.002,0.574c1.472,0.355,3.239-0.393,4.59-0.955
	c1.43-0.596,2.821-1.283,4.195-2.008c2.616-0.801,5.379-2.08,6.362-4.193c1.039,0.129,1.489-1.505,0.416-1.866
	c-0.027-0.008-0.054-0.013-0.079-0.02c-0.167-0.651-0.948-0.733-1.338-0.243c-3.375-0.178-7.106,2.535-10.225,3.216
	c-2.106,0.457-4.27,1.34-6.405,1.898c-0.846-0.486-2.141-0.34-2.957-0.707c-1.632-0.732-3.866-0.672-5.597-0.756
	c-0.293-0.016-0.603-0.029-0.918-0.045c2.443-1.273,4.868-2.85,6.544-5.057c0.162-0.217,0.217-0.451,0.208-0.678
	c2.255-0.564,4.468-1.338,6.435-2.151c3.001-1.241,6.361-2.909,8.216-5.962c0.852-0.678,1.384-1.52,1.267-2.59
	c-0.075-0.685-1.024-1.248-1.342-0.41c-0.013,0.039-0.037,0.069-0.052,0.105c-0.276,0.007-0.543,0.141-0.688,0.469
	c-0.16,0.369-0.365,0.699-0.566,1.033c-2.162,1.58-6.1,1.884-8.061,2.406c-1.55,0.408-3.05,1.052-4.527,1.746
	c-1.958,0.369-3.897,0.913-5.896,1.277c-0.866,0.158-1.734,0.242-2.6,0.304c0.333-0.21,0.635-0.409,0.882-0.575
	c2.215-1.521,4.637-3.422,6.439-5.779c0.032-0.027,0.066-0.045,0.098-0.068c1.264-0.905,3.015-1.896,3.813-3.4
	c0.257-0.484,0.028-0.982-0.328-1.207c-0.262-0.357-0.759-0.489-1.402-0.458c-0.351-0.505-1.234-0.509-1.544,0.266
	c-1.261,0.341-2.662,0.927-3.761,1.429c-0.314-0.067-0.662,0.031-0.9,0.382c-0.014,0.021-0.03,0.038-0.043,0.058
	c-0.431,0.207-0.756,0.367-0.894,0.43c-2.517,1.142-5.012,2.348-7.477,3.624c-0.513,0.192-1.022,0.399-1.535,0.603
	c0.666-0.541,1.318-1.094,1.945-1.684c0.216-0.199,0.272-0.523,0.232-0.822c0.006-0.016,0.012-0.037,0.017-0.057
	c0.06-0.006,0.118-0.02,0.178-0.023c1.114-0.076,1.134-1.979,0-1.965c-6.358,0.089-11.397,5.246-16.757,8.81
	c-3.083-2.709-7.975-1.723-11.69-0.289c0.477-0.742,0.929-1.513,1.327-2.358c0.018-0.041,0.019-0.077,0.034-0.115
	c1.579,0.124,3.089-0.307,4.14-1.877c0.167-0.245,0.187-0.505,0.122-0.742c-0.039-0.262-0.173-0.502-0.44-0.673
	c-1.615-1.026-3.201-2.05-4.799-2.983c2.929-0.242,5.848-0.622,8.711-1.197c0.404-0.082,0.59-0.377,0.615-0.711
	c0.598-0.217,1.002-1.032,0.389-1.605c-2.287-2.131-5.291-3.07-8.298-3.478c0.409-0.108,0.802-0.22,1.155-0.323
	c1.417-0.428,2.912-0.997,4.079-2.016c0.234-0.043,0.467-0.092,0.702-0.128c0.451,1.327,1.474,2.378,2.659,3.154
	c0.795,2.329,2.217,4.475,3.042,6.823c0.135,0.776,0.296,1.545,0.474,2.305c0.152,0.645,0.659,0.832,1.097,0.699
	c0.034,0.341,0.061,0.682,0.073,1.027c0.049,1.286,1.751,1.312,1.802,0.057c0.008-0.005,0.017-0.009,0.026-0.014
	c0.004-0.003,0.009-0.003,0.012-0.006c0.002-0.004,0.005-0.006,0.006-0.006c0.031-0.027,0.056-0.055,0.082-0.087
	c0.761-0.714,0.499-2.198,0.492-3.186c-0.01-1.825-0.107-3.625-0.191-5.44c-0.004-0.125-0.032-0.23-0.07-0.326
	c2.541,0.17,5.093,0.045,7.648-0.021c0.67-0.015,0.935-0.7,0.812-1.259c0.127-0.32,0.051-0.686-0.129-0.965
	c0.062-0.385-0.078-0.795-0.495-0.877c-2.569-0.499-5.189-1.396-7.832-2.077c0.084-0.054,0.166-0.105,0.249-0.159
	c0.085,0.027,0.175,0.045,0.274,0.039c0.58-0.023,1.152-0.07,1.72-0.139c2.556,0.501,5.729,0.016,7.322-0.256
	c3.942-0.677,8.902-1.656,12.176-4.45c0.709-0.604,0.32-1.794-0.334-1.905c0.107-0.24,0.12-0.496,0.004-0.769
	c-0.242-0.567-0.805-0.555-1.18-0.257c-0.035,0.005-0.127,0.031-0.334,0.082c-0.311,0.076-0.616,0.18-0.925,0.264
	c-0.953,0.257-1.91,0.489-2.868,0.713c-2.523,0.591-5.051,1.144-7.577,1.729c-1.805,0.418-3.608,0.855-5.404,1.32
	c-0.105-0.01-0.21-0.01-0.314-0.016c0.826-0.517,1.621-1.083,2.395-1.686c0.022,0.002,0.044,0.002,0.065,0.004
	c0.502,0.048,0.771-0.305,0.837-0.729c0.115-0.099,0.24-0.181,0.354-0.284c0.749-0.665-0.256-2.134-1.022-1.491
	c-0.189,0.162-0.396,0.297-0.589,0.449c-1.143-0.084-2.297-0.005-3.437,0.207c-1.944-3.42-6.956-1.459-9.717-0.064
	c-1.344,0.682-3.707,1.549-4.336,3.236c-0.016,0.042-0.018,0.083-0.029,0.126c-0.058,0.028-0.115,0.062-0.17,0.089
	c-0.088-0.045-0.183-0.08-0.282-0.087c-0.542-0.028-0.981,0.144-1.44,0.458c-0.185,0.124-0.326,0.324-0.402,0.553
	c-0.456,0.111-0.909,0.238-1.359,0.377c0.383-0.221,0.756-0.458,1.103-0.731c0.188-0.148,0.907-0.993,1.465-1.636
	c0.075-0.025,0.149-0.047,0.224-0.074c0.285-0.107,0.444-0.381,0.477-0.668c0.135-0.018,0.27-0.058,0.451-0.141
	c0.905-0.439,0.298-1.741-0.445-1.844c-0.591-0.082-0.945,0.199-1.248,0.58c-0.245-0.312-0.632-0.471-1.049-0.195
	c-0.326,0.222-0.661,0.408-0.992,0.607c-0.894,0.105-1.811,0.329-2.697,0.586c1.115-0.617,2.211-1.287,3.297-1.986
	c0.276-0.009,0.556-0.021,0.836-0.027c0.696-0.023,0.965-0.752,0.808-1.324c0.227-0.76-0.475-1.732-1.255-1.201
	c-0.269,0.183-0.548,0.344-0.82,0.52c-1.132,0-2.463,0.048-3.842,0.178c-0.176-0.074-0.384-0.062-0.6,0.062
	c-0.789,0.089-1.584,0.199-2.371,0.365c0.323-0.423,0.65-0.842,0.971-1.262c0.288,0,0.571-0.146,0.751-0.449
	c0.047-0.023,0.079-0.059,0.115-0.091c3.724,0.008,7.976-1.284,11.165-2.352c1.631-0.544,3.259-0.659,3.898-2.532
	c0.35-1.023-0.749-1.41-1.3-1.695c-0.338-0.176-0.705-0.047-0.949,0.201c-1.59-0.258-3.172-0.365-4.713-0.279
	c2.275-1.644,5.148-4.121,4.723-7.371c-0.084-0.654-0.977-0.723-1.227-0.179c-0.023,0.053-0.052,0.097-0.076,0.147
	c-0.115,0.004-0.234,0.031-0.359,0.094c-1.285,0.645-2.554,1.389-3.772,2.217c1.16-2.534,2.14-5.351,2-8.09
	c-0.002-0.051-0.02-0.087-0.028-0.135c0.027-0.094,0.059-0.184,0.085-0.276c0.327-1.208-1.298-1.681-1.66-0.514
	c-1.544,4.964-4.558,9.056-6.919,13.53c0.231-1.266,0.596-3.061,0.409-4.414c0.114-0.348,0.219-0.694,0.351-1.035
	c0.426-1.092-0.965-2.062-1.449-0.954c-0.083,0.19-0.147,0.387-0.223,0.579c-0.031,0.022-0.064,0.037-0.091,0.064
	c-0.442,0.484-0.619,1.312-0.697,2.221c-0.244,0.833-0.444,1.684-0.627,2.541c-0.156,0.58-0.271,1.176-0.343,1.784
	c-0.011,0.058-0.024,0.113-0.034,0.169c-0.224,1.34-0.701,2.844-0.964,4.291c-0.02,0.006-0.042,0.01-0.06,0.016
	c-0.436,0.119-0.61,0.625-0.523,1.053c-0.192,0.334-0.116,0.685,0.081,0.943c-0.504,0.596-1.004,1.192-1.498,1.802
	c0.006-0.038,0.012-0.08,0.016-0.12c0.239-1.938,0.463-6.966-1.833-7.631c-0.41-0.118-0.973,0.241-0.913,0.781
	c0.013,0.116,0.048,0.217,0.073,0.324c-0.076,0.17-0.109,0.365-0.068,0.564c0.103,0.495-0.57,2.346-0.748,2.995
	c-0.418,1.54-0.872,3.065-1.336,4.591c-0.206,0.676-0.419,1.348-0.63,2.025c-0.021-1.762-0.151-3.551-0.258-5.337
	c0.288-1.376,0.444-2.776,0.4-4.219c0.151-0.46,0.303-0.923,0.434-1.392c0.242-0.885-0.98-1.488-1.339-0.637
	c-0.031,0.068-0.061,0.142-0.091,0.209c-0.362,0.036-0.689,0.312-0.689,0.875c0,0.271-0.017,0.535-0.033,0.801
	c-0.034,0.077-0.066,0.154-0.1,0.23c-0.038,0.023-0.077,0.036-0.113,0.064c-1.544,1.289-2.574,2.943-3.265,4.789
	c-0.739-0.095-1.479-0.174-2.198-0.272c-0.546-0.079-1.138-0.197-1.751-0.312c0.438-0.484,0.883-0.961,1.299-1.47
	c1.511-1.838,3.215-3.942,3.945-6.387c1.064-0.113,2.093-0.463,3.075-0.986c2.155-0.6,4.266-1.539,6.137-2.531
	c0.489-0.257,1.023-0.54,1.57-0.856c0.069-0.027,0.141-0.051,0.212-0.081c0.146-0.062,0.261-0.15,0.356-0.253
	c2.209-1.342,4.491-3.194,4.92-5.864c0.016-0.067,0.034-0.133,0.038-0.201c0-0.01,0.004-0.02,0.004-0.029
	c0.03-0.264-0.038-0.469-0.159-0.617v-0.001c-0.004-0.002-0.007-0.006-0.011-0.01c-0.175-0.276-0.48-0.438-0.878-0.306
	c-2.792,0.932-5.531,2.137-8.197,3.465c1.702-1.934,3.286-3.999,4.71-6.195c0.051,0.002,0.103-0.004,0.156-0.002
	c1.16,0.051,1.148-1.957,0-2.02c-4.396-0.25-8.4,3.004-11.62,6.015c-0.447,0.418-0.907,0.849-1.369,1.281
	c0.022-0.201,0.036-0.39,0.056-0.587c0.099-0.553,0.176-1.113,0.207-1.693c0.008-0.152-0.013-0.287-0.051-0.404
	c0.019-0.449,0.029-0.949,0.016-1.461c1.576-0.441,3.144-0.883,4.696-1.152c0.462-0.082,0.652-0.445,0.651-0.841
	c0.114-0.017,0.231-0.056,0.34-0.129c0.628-0.025,0.77-0.913,0.29-1.292c-0.015-0.012-0.02-0.014-0.03-0.021
	c-0.116-0.189-0.289-0.336-0.483-0.417c-1.245-0.505-2.633-0.759-4.014-0.97c-0.054-0.154-0.157-0.295-0.312-0.416
	c4.123-0.26,7.536-1.231,7.003-3.805c-0.051-0.244-0.207-0.414-0.39-0.513c-0.055-0.131-0.113-0.267-0.193-0.415
	c-0.566-1.068-1.935-0.133-1.461,0.966c-0.408-0.948,0.275-0.669-0.866-1.053c-0.283-0.095-0.566-0.171-0.847-0.255
	c2.723-0.555,5.416-1.293,8.026-2.195c0.53-0.184,0.698-0.701,0.615-1.164c3.051,0.345,6.122,0.515,9.229,0.508
	c0.222,0,0.387-0.089,0.522-0.209c0.209,0.03,0.426,0.051,0.666,0.056c0.834,0.015,1.047-1.487,0.2-1.667
	c-1.713-0.355-2.426-1.92-3.849-2.789c-0.881-0.535-1.796-0.994-2.737-1.365c0.287-0.156,0.581-0.299,0.878-0.426
	c1.597-0.127,3.422-0.934,4.664-1.447c0.074,0.156,0.181,0.302,0.371,0.404c0.688,0.359,1.389,0.664,2.099,0.938
	c0.132,0.286,0.372,0.505,0.746,0.502c0.229,0,0.459,0.003,0.689,0.005c1.481,0.461,2.998,0.777,4.533,0.98
	c0.094,0.056,0.189,0.104,0.283,0.166c0.325,0.217,0.632,0.158,0.863-0.029c0.916,0.092,1.834,0.15,2.753,0.183
	c0.049,0.079,0.108,0.145,0.155,0.226c0.504,0.843,1.546,0.46,1.745-0.269c0.796-0.353,0.684-1.931-0.342-1.946
	c-0.201-0.003-0.406-0.011-0.609-0.014c-1.046-1.273-2.373-2.195-3.853-2.785c-0.508-0.203-1.02-0.373-1.536-0.521
	c0.807-0.098,1.625-0.192,2.455-0.305c0.089-0.012,0.178-0.027,0.266-0.042c1.076,0.21,2.123,0.004,3.086-0.622
	c0.31-0.09,0.619-0.19,0.921-0.308c0.349-0.038,0.697-0.081,1.05-0.094c0.51-0.019,0.776-0.436,0.822-0.88
	c0.56-0.386,1.089-0.848,1.565-1.418c0.11-0.131,0.17-0.275,0.206-0.42c0.891-0.266,0.827-1.928-0.221-1.92
	c-1.988,0.014-4.127,0.169-6.276,0.521c-0.853-0.019-1.696,0.141-2.451,0.494c-2.219,0.535-4.39,1.314-6.371,2.396
	c-1.684,0.012-3.73,0.444-5.604,1.261c-0.849,0.06-1.704,0.161-2.555,0.299c-0.178-0.169-0.413-0.264-0.696-0.209
	c-0.525,0.098-1.058,0.234-1.587,0.359c0.47-0.471,0.86-0.99,1.115-1.564c0.036,0.033,0.074,0.055,0.113,0.09
	c0.802,0.753,1.957-0.492,1.162-1.311c-1.381-1.425-3.022-1.811-4.696-1.521c0.23-0.33,0.28-0.797-0.071-1.121
	c0.011-0.012,0.025-0.021,0.035-0.038c0.683-0.927-0.441-2.253-1.193-1.343c-0.1,0.119-0.215,0.234-0.334,0.348
	c-1.639-0.836-3.442-0.881-5.28-0.645c0.832-1.139,1.31-2.555,1.196-4.083c2.724-2.978,5.177-6.511,5.312-10.312
	c0.004-0.121-0.021-0.215-0.046-0.313c0.271-0.956-0.817-1.995-1.5-1.093c-1.911,2.53-4.938,3.189-7.117,5.348
	c-1.845,1.83-3.247,3.992-4.653,6.188c0.269-2.747,0.282-5.547,0.277-8.123c0-0.199-0.05-0.359-0.12-0.496
	c0.029-0.192,0.069-0.378,0.095-0.57c0.109-0.812-0.669-1.519-1.243-1.27c0.166-0.372,0.322-0.752,0.458-1.138
	c0.96-0.101,1.922-0.18,2.892-0.185c0.55-0.001,1.228,0.097,1.784-0.096c0.316-0.019,0.533-0.254,0.625-0.564
	c0.005-0.013,0.01-0.023,0.013-0.035c0.018-0.066,0.026-0.132,0.033-0.2c0.004-0.042,0.011-0.081,0.011-0.124
	s-0.007-0.082-0.011-0.126c-0.007-0.069-0.015-0.133-0.033-0.2c-0.003-0.01-0.008-0.022-0.013-0.034
	c-0.055-0.185-0.153-0.342-0.291-0.446c-0.004-0.31-0.134-0.607-0.475-0.783c-1.131-0.58-2.319-0.997-3.537-1.281
	c0.825-0.084,1.643-0.223,2.448-0.453c0.977-0.279,2.789-1.125,3.756-2.318c0.333,0.014,0.666,0.041,0.999,0.047
	c2.564,0.048,5.34,0.021,7.606-1.504c0.426-0.287,0.509-0.76,0.398-1.175c0.405-0.468,0.601-1.12,0.094-1.692
	c-0.642-0.723-1.9-0.607-2.715-0.58c-0.331,0.01-0.661,0.008-0.99,0.016c-1.677-0.121-3.419-0.019-5.112,0.062
	c1.413-1.25,2.531-3.002,3.302-5.117c0.346-0.351,0.696-0.699,1.03-1.064c0.311-0.342,0.321-0.761,0.174-1.1
	c2.958-0.789,5.955-1.966,8.121-4.259c0.156-0.168,0.229-0.371,0.245-0.579c0.071-0.365-0.035-0.757-0.422-0.988
	c-0.096-0.059-0.203-0.107-0.305-0.161c-0.135-0.517-0.61-0.628-1.003-0.442c-2.017-0.707-4.567-0.688-6.798,0.037
	c0.122-0.303,0.242-0.59,0.36-0.825c0.748-1.496,1.549-2.992,2.114-4.591c0.001-0.002,0.001-0.005,0.002-0.007h-0.001
	c0.029-0.078,0.062-0.153,0.09-0.233c0.355-1.062-1.112-1.694-1.591-0.757c-0.212,0.413-0.436,0.812-0.65,1.22
	c-0.315-0.253-0.764-0.264-0.983,0.213c-0.187,0.412-0.298,0.858-0.394,1.31c-1.758,1.928-2.969,4.269-3.869,6.883
	c-0.033,0.099-0.042,0.188-0.042,0.274c-0.39,0.688-0.795,1.357-1.224,1.994c-1.63,1.119-3.173,2.398-4.716,3.738
	c-0.906,0.788-1.815,1.578-2.747,2.331c0.013-0.089,0.026-0.177,0.037-0.265c0.007-0.015,0.015-0.026,0.023-0.039
	c0.072-0.137,0.108-0.27,0.118-0.396c0.676-1.662,1.208-3.388,1.304-5.432c0.006-0.129,0.016-0.279,0.024-0.439
	c0.609-0.393,1.203-0.814,1.783-1.264c0.635-0.455,1.262-0.914,1.879-1.375c0.19-0.142,0.302-0.342,0.364-0.557
	c0.549-0.521,1.088-1.058,1.603-1.618c0.565-0.614,0.159-1.829-0.659-1.785c-2.183,0.122-4.363,0.976-6.442,2.176
	c0.268-0.265,0.533-0.524,0.788-0.776c3.217-3.153,6.324-6.576,8.646-10.635c0.126-0.219,0.12-0.449,0.045-0.653
	c1.04-1.144,1.955-2.534,2.453-3.233c1.418-1.993,3.106-4.595,3.515-7.271c0.266-0.091,0.496-0.399,0.437-0.772
	c0.019,0.126,0.005-0.524-0.265-0.826c-0.063-0.07-0.135-0.116-0.207-0.16c-0.323-0.573-1.169-0.456-1.396,0.267
	c-0.887,0.669-1.569,1.825-2.172,2.753c-0.072,0.11-0.138,0.226-0.208,0.338c-1.719,2.085-3.175,4.448-4.353,6.967
	c-4.366,0.835-8.337,3.054-12.418,4.918c-0.042,0.006-0.085,0.01-0.128,0.016c-0.141-0.247-0.292-0.49-0.438-0.734
	c2.604-2.295,5.793-5.544,5.355-9.36c-0.068-0.605-0.549-1.275-1.172-1.006c-2.364,1.022-4.292,3.322-5.302,6.021
	c-0.007-0.259-0.011-0.515-0.021-0.774c0.457-0.289,0.726-1.028,0.271-1.615c-0.141-0.183-0.264-0.373-0.389-0.562
	c-0.074-1.175-0.162-2.35-0.245-3.521c0.029-0.114,0.052-0.229,0.076-0.345c0.247,0.242,0.6,0.324,0.989,0.038
	c4.028-2.956,8.737-5.197,11.607-9.731c0.462-0.73-0.307-1.861-1.054-1.543c-2.172,0.919-4.035,2.441-5.967,3.849
	c-0.836,0.341-1.709,0.71-2.551,1.143c2.686-2.579,4.149-6.584,4.899-10.385c0.119-0.604-0.259-1.357-0.878-1.298
	c-2.008,0.186-3.511,1.492-4.689,3.245c0.15-3.015,0.209-6.043,0.559-9.015c0.518-4.408,1.506-9.88-1.03-13.754
	c-0.336-0.514-0.928-0.672-1.376-0.225c-0.505-0.463-1.474-0.22-1.468,0.733c0.003,0.498,0.017,0.992,0.027,1.489
	c-1.357,3.069-1.298,7.181-1.167,10.34c0.184,4.381,0.714,8.774,1.593,13.053c-0.229-0.362-0.48-0.71-0.783-1.037
	c-1.686-3.732-4.401-7.119-7.225-9.371c-0.613-0.489-1.328,0.183-1.376,0.89c-0.191,2.837,0.939,5.399,2.525,7.706
	c-1.393-0.951-2.896-1.539-4.577-1.396c-0.748,0.064-1.081,0.82-0.797,1.562c0.538,1.393,4.854,5.705,8.476,8.153
	c-0.151,0.162-0.267,0.383-0.293,0.675c-0.083,0.885-0.304,1.7-0.467,2.547c-1.101-1.268-2.287-2.422-3.493-3.43
	c-0.488-0.41-1.178,0.034-1.333,0.611c-0.922,3.412,1.029,6.762,2.861,9.312c0.88,1.226,1.828,2.374,2.794,3.505
	c-0.157,1.17-0.289,2.41-0.344,3.673c-1.393-2.092-3.222-3.739-5.39-4.483c-0.438-0.148-0.981,0.175-1.08,0.691
	c-0.251,1.314-0.2,2.576,0.054,3.792c-0.34-0.372-0.716-0.723-1.134-1.048c-0.502-0.395-1.12,0.035-1.302,0.596
	c-0.448,1.398-0.592,2.803-0.521,4.201c-2.36-2.514-5.082-4.554-8.117-4.963c-0.595-0.079-1.032,0.715-0.879,1.299
	c1.143,4.404,4.86,8.161,7.837,11.047c1.976,1.916,4.426,4.507,7.056,5.727c0.091,0.381,0.198,0.756,0.312,1.123
	c-1.951-0.578-3.935-1.02-5.841-1.382c-2.317-0.442-7.979-1.947-9.28,1.394c-1.711,4.395,9.641,4.871,15.152,5.182
	c0.703,1.185,1.517,2.278,2.411,3.291c-1.618,2.131-2.575,4.82-2.827,7.62c-1.534-3.946-3.221-7.794-6.364-10.44
	c-0.723-0.612-1.433,0.395-1.333,1.154c0.769,5.872,4.5,11.017,8.228,15.404c0.033,0.074,0.069,0.148,0.106,0.221
	c0.018,0.061,0.029,0.123,0.049,0.18c-1.279-0.944-2.707-1.4-4.194-1.051c-0.365,0.082-0.729,0.572-0.682,1.006
	c0.555,5.02,2.642,8.807,5.654,12.002c-0.278,0.287-0.41,0.738-0.157,1.195c0.349,0.631,0.778,1.156,1.235,1.65
	c0.319,1.639,0.632,3.275,0.933,4.918c-0.407-0.143-0.862-0.004-1.044,0.543c-0.279-0.359-0.588-0.695-0.915-1.01
	c-0.027-0.029-0.054-0.054-0.082-0.078c-1.068-1.006-2.336-1.809-3.583-2.463c-1.451-3.098-2.731-6.348-5.425-8.246
	c-0.615-0.434-1.22,0.156-1.299,0.84c-0.187,1.6,0.1,3.088,0.675,4.446c-1.168-0.478-2.333-0.856-3.467-1.069
	c-1.103-0.6-2.218-1.169-3.364-1.653c-1.421-0.597-3.036-1.284-4.664-1.655c-1.35-0.509-2.719-0.873-4.074-1.046
	c-0.126-0.419-0.413-0.724-0.854-0.732c-2.531-0.053-5.903-0.794-7.776,1.641c-0.38,0.493-0.365,1.294,0.188,1.64
	c1.731,1.079,3.587,1.814,5.445,2.552c0.438,0.218,0.901,0.408,1.384,0.559c0.796,0.323,1.583,0.671,2.357,1.056
	c-2.407,0.579-4.436,1.891-5.422,4.684c-0.139,0.391,0.083,0.949,0.408,1.132c0.845,0.469,1.727,0.687,2.624,0.737
	c0.135,0.57,0.648,1.006,1.237,0.59c0.36-0.252,0.713-0.516,1.064-0.788c1.567-0.337,3.116-1.013,4.518-1.672
	c0.932-0.438,1.845-0.931,2.748-1.448c-0.061,0.076-0.117,0.158-0.176,0.237c-1.891,1.2-3.337,3.041-3.191,5.201
	c-0.09,0.146-0.181,0.294-0.27,0.431c-0.409,0.633,0.141,1.594,0.797,1.561c0.044-0.003,0.085-0.012,0.128-0.015
	c1.852,2.208,6.88-2.669,8.427-3.349c0.198-0.086,0.34-0.238,0.45-0.41c1.073-0.848,2.019-1.888,2.768-3.105
	c0.111,0.085,0.223,0.168,0.333,0.251c-0.106,0.038-0.208,0.094-0.3,0.179c-1.846,1.67-3.41,3.994-4.718,6.477
	c-0.256,0.359-0.516,0.717-0.767,1.083c-0.142,0.208-0.165,0.458-0.118,0.698c-0.142,0.306-0.281,0.609-0.417,0.916
	c-2.71-0.691-5.52-1.209-8.259-0.929c-2.568,0.266-6.479,1.109-7.635,4.109c-0.274,0.708,0.26,1.413,0.905,1.122
	c0.051,0.498,0.394,0.979,0.896,0.979c1.209,0.001,2.418-0.014,3.628-0.03c0.025,0.029,0.057,0.049,0.085,0.076
	c-0.912,0.66-1.787,1.383-2.571,2.217c-0.381,0.405-0.337,0.906-0.095,1.257c-0.051,0.483,0.251,1.036,0.732,0.976
	c1.476-0.184,2.985-1.629,4.283-2.402c0.555-0.328,1.112-0.652,1.667-0.982c1.67-0.051,3.36-0.114,5.06-0.197
	c-1.175,1.297-2.255,2.744-3.347,4.013c-0.737,0.857,0.194,2.132,1.103,1.607c3.032-1.743,6.077-3.664,8.723-6.116
	c0.861-0.092,1.723-0.183,2.569-0.31c0.94-0.136,2.28-0.354,3.666-0.741c0.002,0,0.006,0.003,0.009,0.003
	c0.195,0.014,0.351-0.056,0.487-0.149c1.559-0.48,3.115-1.187,4.174-2.242c0.339,0.4,0.958,0.416,1.32,0.042
	c0.042,2.157,0.117,4.312,0.217,6.465c-0.277,0.117-0.496,0.389-0.495,0.83c0.002,0.493,0.022,0.983,0.05,1.47
	c-0.511,0.91-0.895,1.921-1.175,2.988c-0.607-0.941-1.297-1.798-2.02-2.521c-1.159-1.159-3.423-3.086-5.364-3.191
	c-0.039-0.043-0.072-0.092-0.111-0.137c-0.603-0.693-1.436-0.106-1.526,0.634c-0.077,0.06-0.155,0.108-0.228,0.179
	c-0.423,0.414-0.175,1.213,0.323,1.371c0.271,0.084,0.538,0.133,0.802,0.168c1.069,1.608,2.073,3.818,3.246,5.759
	c-1.056-0.395-2.139-0.766-3.099-1.281c-0.338-0.233-0.679-0.453-1.021-0.646c-0.319-0.245-0.621-0.511-0.881-0.826
	c-0.336-0.403-0.821-0.331-1.158-0.051c-1.209-0.359-2.479-0.458-3.873-0.243c-0.812,0.125-0.877,1.514-0.222,1.906
	c2.447,1.457,4.721,3.712,7.379,4.619c0.169,0.059,0.336,0.033,0.484-0.041c0.525,0.364,1.07,0.691,1.608,1.026
	c-1.997,0.542-4.787,1.442-6.021,2.782c-1.27-1.979-2.755-3.83-3.967-5.803c-0.228-0.371-0.604-0.492-0.949-0.441
	c-0.13-0.143-0.257-0.287-0.385-0.434c-0.19-0.213-0.396-0.306-0.589-0.315c-0.089-0.194-0.242-0.357-0.451-0.442
	c-1.543-0.643-1.427,0.961-1.03,2.471c-0.11,0.245-0.119,0.541,0.077,0.845c0.144,0.224,0.275,0.456,0.413,0.681
	c0.112,0.299,0.21,0.534,0.263,0.645c0.172,0.368,0.354,0.717,0.534,1.07c-4.904-3.883-10.288-6.666-16.212-8.579
	c-0.008-0.004-0.012-0.007-0.017-0.009c-0.11-0.034-0.22-0.04-0.326-0.028c-0.305,0.021-0.538,0.206-0.681,0.474
	c-0.261,0.397-0.314,0.953,0.09,1.33c0.011,0.011,0.026,0.023,0.039,0.037c0.015,0.016,0.03,0.025,0.047,0.039
	c1.994,1.865,4.171,3.553,6.467,5.001c-0.572,0.06-1.007,0.926-0.496,1.462c0.101,0.105,0.214,0.197,0.318,0.301
	c0.001,0.004,0,0.007,0,0.011c0.007,0.025,0.019,0.05,0.026,0.075c-0.152,0.426-0.084,0.947,0.352,1.186
	c0.068,0.038,0.139,0.07,0.207,0.107c0.725,1.223,1.886,2.113,3.228,2.794c-0.679,0.088-1.338,0.218-1.986,0.367
	c-0.62-0.884-1.393-1.659-2.359-2.273c-0.547-0.348-1.305,0.087-1.285,0.831c0.023,0.854,0.099,1.784,0.223,2.756
	c-0.226,0.289-0.324,0.694-0.098,1.062c0.098,0.158,0.218,0.286,0.32,0.434c-0.154,2.001,0.429,3.738,1.415,5.547
	c-4.107-5.763-10.873-10.559-17.024-11.367c-0.562-0.075-0.854,0.625-0.773,1.141c0.201,1.267,0.724,2.414,1.432,3.457
	c-0.627-0.199-1.26-0.372-1.901-0.494c-2.93-0.565-5.83-0.887-8.626-2.094c-0.854-0.368-1.26,0.913-0.802,1.552
	c3.216,4.458,8.659,6.229,13.303,8.001c0.418,0.16,0.831,0.338,1.246,0.501c-0.024,0.142-0.025,0.291,0.034,0.451
	c0.027,0.075,0.059,0.155,0.087,0.232c0,0,0,0.001-0.002,0.002c0.015,0.034,0.026,0.069,0.043,0.106
	c-0.353-0.098-0.71-0.178-1.076-0.227c-0.745-0.102-1.132,1.121-0.604,1.643c0.856,0.852,1.893,1.533,3.011,2.049
	c0.082,0.215,0.163,0.434,0.249,0.646c-0.518,0.121-1.034,0.254-1.545,0.402c-0.566-0.021-1.135-0.06-1.703-0.125
	c-0.61-0.061-0.89,0.467-0.86,1c-1.303,0.52-2.557,1.134-3.738,1.84c-0.205,0.122-0.328,0.312-0.386,0.524
	c-1.352-0.591-2.621-1.038-3.674-1.321c-0.834-0.227-1.343,0.695-1.026,1.501c1.879,4.778,6.002,8.108,10.403,10.714
	c-0.628-0.093-1.262-0.167-1.905-0.191c-0.171-0.006-0.322,0.055-0.451,0.148c-7.765-4.497-15.497-9.752-24.469-8.852
	c-0.832,0.083-1.286,1.353-0.451,1.873c3.132,1.946,6.396,3.666,9.733,5.219c2.445,1.327,4.928,2.568,7.464,3.652
	c3.243,1.381,6.694,2.732,10.198,3.17c-1.52,0.115-2.968,0.353-4.212,0.762h-1.965c-0.361,0-0.62,0.23-0.765,0.534
	c-0.404-0.355-0.809-0.708-1.213-1.052c-3.333-2.838-6.896-5.713-10.883-7.256c-0.496-0.192-1.078,0.429-0.887,0.998
	c0.258,0.77,0.558,1.521,0.876,2.265c-0.459,0.278-0.562,1.073-0.195,1.54c0.884,1.131,1.861,2.26,2.913,3.359
	c0.008,0.013,0.015,0.027,0.025,0.04c-0.222-0.112-0.44-0.233-0.663-0.345c-4.178-2.033-8.904-4.025-13.534-3.374
	c-0.699,0.099-1.208,1.012-0.612,1.663c3.396,3.693,7.755,6.326,12.119,8.266c1.993,0.889,4.13,1.754,6.314,2.379
	c-1.716,0.099-3.408,0.424-5.012,1.033c-0.658,0.252-0.885,1.135-0.402,1.721c2.195,2.664,5.993,3.273,9.053,3.498
	c0.726,0.053,1.473,0.09,2.225,0.107c-0.579,0.008-1.157,0.01-1.733,0.012c-0.441,0-0.712,0.316-0.813,0.691
	c-0.546,0.084-1.091,0.211-1.631,0.395c-0.001-0.002-0.002-0.002-0.004-0.004c-0.426-0.508-1.285-0.137-1.25,0.586
	c0.003,0.033,0.008,0.059,0.012,0.092c-0.004,0.006-0.013,0.01-0.017,0.016c-0.407,0.094-0.474,0.824-0.104,1.057
	c-0.791,0.346-1.529,0.805-2.181,1.445c-0.572,0.561-0.179,1.459,0.403,1.721c3.923,1.773,8.614,2.264,12.796,1.766
	c1.885-0.225,3.669-0.746,5.514-1.197c0.619-0.148,1.247-0.33,1.657-0.744c0.667,1.529,1.802,2.402,3.154,2.844
	c-0.144,0.135-0.279,0.273-0.42,0.408c-0.632-0.031-1.277,0.049-1.93,0.297c-0.563,0.215-0.824,0.891-0.538,1.49
	c0.11,0.236,0.234,0.467,0.354,0.701c-0.169,0.248-0.338,0.492-0.492,0.748c-0.249,0.154-0.371,0.424-0.377,0.695
	c-0.252,0.48-0.487,0.979-0.685,1.502c-0.254,0.674,0.025,1.57,0.792,1.549c1.125-0.031,2.247-0.172,3.362-0.395
	c0.871,1.141,1.827,2.217,2.848,3.217c-1.294-0.703-2.619-1.314-3.937-1.832c-4.921-1.924-10.33-3.123-15.54-2.334
	c-0.045-0.008-0.089-0.02-0.134-0.027c-0.951-0.166-1.754,1.381-0.715,1.912c0.547,0.281,1.102,0.535,1.653,0.803
	c3.365,2.506,7.161,3.666,11.021,4.668c-0.895-0.094-1.796-0.131-2.713-0.029c-0.21,0.021-0.39,0.113-0.533,0.244
	c-0.413-0.039-0.827-0.066-1.248-0.062c-0.853,0.01-0.952,1.311-0.194,1.611c1.234,0.492,2.537,0.973,3.872,1.408
	c1.056,0.506,2.147,0.914,3.268,1.232c-2.448,0.008-4.821,0.303-7.023,1.293c-0.109-0.051-0.216-0.105-0.327-0.152
	c-0.51-0.227-0.859,0.27-0.862,0.771c-0.537,0.318-1.067,0.67-1.579,1.096c-0.196,0.162-0.344,0.424-0.412,0.703
	c-1.389-1.639-2.881-3.148-4.43-4.5c-0.501-0.434-1.277-0.352-1.466,0.434c-0.066,0.283-0.112,0.561-0.148,0.84
	c-0.307-0.266-0.618-0.525-0.922-0.789c-0.758-0.656-1.654,0.578-1.24,1.396c0.163,0.32,0.348,0.645,0.518,0.965
	c-0.062-0.014-0.124-0.035-0.189-0.047c-0.558-0.115-0.962,0.746-0.405,1.084c0.341,0.203,0.681,0.408,1.023,0.609
	c-0.125,0.01-0.247,0.01-0.373,0.033c-0.087,0.016-0.155,0.053-0.222,0.09c-2.581-2.207-5.041-4.598-8.009-6.145
	c-0.338-0.174-0.662-0.129-0.913,0.041c-0.29-0.236-0.578-0.473-0.869-0.701c-0.549-0.439-1.417,0.141-1.37,0.883
	c0.009,0.125,0.038,0.238,0.052,0.361c-0.102,0.303-0.064,0.648,0.157,0.945c0.416,1.721,1.404,3.273,2.694,4.645
	c0.037,0.131,0.07,0.26,0.108,0.393c-1.091-0.299-2.189-0.543-3.288-0.693c-1.008-0.137-1.099,1.393-0.462,1.92
	c0.061,0.051,0.125,0.1,0.186,0.15c-0.11,0.336-0.072,0.723,0.216,1.031c0.326,0.35,0.672,0.66,1.015,0.979
	c-0.094,0.035-0.181,0.082-0.261,0.141c-0.151-0.059-0.299-0.125-0.45-0.184c-0.022-0.01-0.041-0.002-0.062-0.01
	c-0.439-0.332-0.872-0.678-1.313-0.994c-0.009-0.012-0.012-0.023-0.023-0.035c-0.168-0.172-0.337-0.309-0.507-0.432
	c-0.126-1.695-0.333-3.377-0.691-5.012c-0.388-1.777-1.927-6.982-4.488-5.293c-2.076,1.371-1.677,5.393-1.415,7.865
	c-1.777-2.664-3.736-4.932-4.749-5.836c-0.106-0.09-0.231-0.158-0.361-0.203c-0.731-0.754-1.586-1.283-2.656-1.389
	c-0.46-0.043-0.891,0.482-0.872,0.982c0.043,1.162,0.263,2.301,0.55,3.426c0.01,0.061,0.008,0.121,0.03,0.188
	c0.023,0.076,0.055,0.148,0.08,0.225c0.242,0.891,0.517,1.771,0.774,2.643c0.071,0.242,0.184,0.566,0.308,0.914
	c-0.14-0.082-0.278-0.17-0.423-0.238c-0.721-0.359-1.392,0.223-1.304,1.002c-3.029-3.998-6.663-7.336-11.365-8.463
	c-0.918-0.217-1.434,0.906-0.872,1.686c1.262,1.746,2.713,3.191,4.257,4.496c1.12,1.297,2.3,2.547,3.547,3.682
	c-3.692-2.191-8.099-3.758-11.918-3.902c-1.104-0.045-1.134,1.607-0.242,2.014c0.511,0.23,1.027,0.451,1.539,0.682
	c-0.134,0.232-0.143,0.549,0.072,0.795c1.729,1.975,4.557,3.02,6.839,3.953c0.143,0.059,0.285,0.111,0.427,0.17
	c-0.096-0.016-0.191-0.023-0.285-0.031c-1.367-0.217-2.729-0.471-4.092-0.734c-3.576-0.846-7.134-1.869-10.785-2.125
	c-0.44-0.031-0.697,0.229-0.791,0.564c-0.723-0.01-1.449-0.006-2.176,0.041c-1.065,0.07-1.225,1.641-0.245,2.043
	c5.135,2.09,11.054,4.426,16.815,4.66c-1.307,0.207-2.731,0.979-3.771,1.371c-0.187,0.068-0.378,0.145-0.567,0.215
	c-2.959-0.199-5.968-0.064-8.145,2.029c-0.432,0.418-0.342,0.98-0.039,1.365c-0.429,0.578-0.186,1.689,0.698,1.77
	c1.074,0.098,2.127,0.029,3.167-0.145c0.051,0.027,0.09,0.076,0.147,0.092c2.257,0.703,4.742,0.027,7.085-1.148
	c-0.261,0.189-0.518,0.389-0.783,0.574c-0.552,0.381-0.552,1.02-0.266,1.459c-0.63-0.41-1.597,0.062-1.308,1.047
	c1.312,4.465,5.129,3.072,7.319,0.225c0.664-0.467,1.315-0.957,1.952-1.475c0.403-0.209,0.807-0.414,1.21-0.613
	c0.164-0.057,0.329-0.109,0.492-0.17c-1.525,1.605-2.257,3.59-1.512,6.051c0.152,0.5,0.643,0.932,1.135,0.727
	c0.031-0.012,0.059-0.029,0.09-0.041c0.125,0.494,0.544,0.881,1.097,0.709c2.25-0.699,4.591-1.871,6.802-3.379
	c2.177,1.113,4.947,0.926,7.268,0.459c2.038-0.406,4.091-1.002,6.082-1.783c0.042,0.012,0.083,0.021,0.122,0.037
	c0.29,0.1,0.53,0.055,0.716-0.072c0.116,0.031,0.229,0.072,0.345,0.105c-4.298,1.898-8.83,3.881-11.083,8.463
	c-0.316,0.646,0.073,1.562,0.776,1.525c4.041-0.211,8.566-3.611,11.852-6.125c0.027-0.008,0.054-0.018,0.082-0.025
	c0.847,0.988,1.953,1.234,3.188,0.99c-1.154,1.699-2.325,3.607-3.143,5.619c-1.505,0.674-2.88,1.756-4.105,3.064
	c-0.99,0.654-1.992,1.287-3.018,1.881c-0.468,0.268-0.537,0.861-0.374,1.338c-0.033-0.012-0.063-0.014-0.095-0.027
	c-0.427-0.176-0.764,0.059-0.945,0.418c-1.203,0.084-2.408,0.146-3.619,0.172c-2.12-0.01-4.241,0.023-6.352,0.023
	c-0.013,0-0.022,0.008-0.035,0.008c-0.185-0.008-0.371-0.025-0.558-0.027c-0.894-0.016-1.276,1.438-0.464,1.922
	c0.302,0.18,0.614,0.314,0.923,0.457c-1.374,0.205-2.727,0.477-4.065,0.824c-3.033-0.338-6.104-0.131-8.721,1.619
	c-0.5,0.334-0.539,1.016-0.267,1.467c-3.635-1.369-7.261-2.754-11.139-2.893c-0.226-0.006-0.445,0.117-0.61,0.299
	c-1.387-0.566-2.767-1.156-4.133-1.795c-0.09-0.045-0.176-0.049-0.26-0.051c-0.104-0.359-0.4-0.633-0.8-0.484
	c-4.309,1.572,1.37,6.922,2.958,8.164c2.234,1.744,5.791,1.871,8.396,1.975c1.334,0.053,2.778,0.096,4.236,0.084
	c0.369,0.105,0.737,0.219,1.108,0.32c-2.132,1.008-4.188,2.279-6.003,3.842c-0.723,0.625-0.504,1.863,0.465,1.939
	c2.956,0.232,5.854-0.146,8.687-0.906c0.244-0.041,0.489-0.088,0.733-0.129c0.017,0.523,0.364,1.043,0.912,1.043
	c2.791-0.012,5.588,0.014,8.382,0.002c-2.079,1.521-3.894,3.389-5.185,5.539c-0.053,0.064-0.096,0.131-0.13,0.205
	c-0.148,0.256-0.276,0.521-0.409,0.785c-0.822,0.598-1.645,1.172-2.476,1.707c-0.537,0.359-0.53,1.016-0.253,1.459
	c-0.454-0.158-0.907-0.322-1.363-0.477c-0.205-0.057-0.406-0.131-0.613-0.188c-0.257-0.072-0.497-0.16-0.728-0.256
	c-1.068-0.346-2.142-0.67-3.221-0.975c-0.15,0.002-0.302,0-0.461-0.012c-1.304-0.109-2.566-0.328-3.818-0.604
	c-2.211-0.359-4.415-0.766-6.612-1.205c-1.575-0.719-3.237-1.324-4.934-1.803c-0.108-0.201-0.281-0.361-0.531-0.418
	c-1.667-0.42-3.362-0.605-5.063-0.689c-2.118-0.244-4.205-0.281-6.161-0.078c-0.748,0.078-1.308,1.117-0.658,1.787
	c1.33,1.369,2.824,2.188,4.401,2.729c0.108,0.193,0.278,0.359,0.529,0.451c0.801,0.301,1.601,0.605,2.403,0.902
	c-0.661,0.262-1.311,0.582-1.955,0.916c-0.098-0.029-0.196-0.053-0.292-0.08c0.017,0.07,0.021,0.145,0.036,0.215
	c-0.345,0.184-0.691,0.365-1.029,0.549c-0.346,0.193-0.472,0.643-0.403,1.045c-0.524,0.344-1.042,0.711-1.546,1.113
	c-0.821,0.664-0.331,2.068,0.686,1.836c0.937-0.215,1.856-0.465,2.771-0.732c0.274,0.316,0.578,0.584,0.895,0.777
	c1.955,1.18,4.824,0.877,6.764-0.541c0.592-0.18,1.154-0.422,1.667-0.748c-0.912,1.375-1.693,2.84-2.293,4.373
	c-0.588,1.145-1.094,2.33-1.488,3.551c-0.24,0.742,0.488,1.453,1.113,1.252c2.384-0.764,4.64-2.35,6.666-4.184
	c-0.339,0.627,0.085,1.68,0.808,1.586c3.801-0.498,8.125-2.248,11.838-4.922c-0.229,0.375-0.447,0.754-0.653,1.139
	c-0.931,0.936-1.866,1.961-2.7,3.066c-1.663,1.594-3.092,3.385-4.127,5.361c-0.218,0.133-0.385,0.369-0.468,0.654
	c-0.838-0.443-1.757,0.996-1,1.75c0.118,0.113,0.223,0.24,0.338,0.357c-0.186,0.771,0.541,1.451,1.176,1.254
	c0.106,0.117,0.216,0.227,0.319,0.34c0.087,0.195,0.181,0.385,0.274,0.568c-0.035,0.297,0.026,0.592,0.266,0.82
	c0.14,0.137,0.287,0.26,0.431,0.391c0.186,0.291,0.389,0.572,0.591,0.852c-0.809-0.143-1.621-0.27-2.435-0.355
	c-0.921-0.553-1.844-1.09-2.771-1.586c-4.005-2.154-8.652-4.504-13.196-3.748c-0.657,0.107-0.779,1.002-0.561,1.553
	c0.174,0.441,0.382,0.859,0.608,1.271c-0.867,0.115-1.727,0.275-2.583,0.457c-0.173-0.004-0.349,0.01-0.522,0.012
	c-0.099-0.281-0.294-0.52-0.595-0.625c-3.574-1.242-7.424-1.428-10.907-3.004c-0.437-0.195-0.868-0.404-1.296-0.619
	c-3.109-2.146-6.86-4.953-10.594-4.438c-0.615,0.086-1.312,0.883-0.819,1.607c2.559,3.768,6.671,6.559,10.957,7.547
	c0.396,0.191,0.796,0.373,1.203,0.543c-0.02,0.004-0.037,0.01-0.054,0.018c-1.192-0.15-2.385-0.244-3.573-0.219
	c-0.721,0.018-0.935,0.82-0.676,1.365c-0.238,0.021-0.476,0.035-0.712,0.072c-0.564,0.088-0.677,0.893-0.393,1.348
	c-0.021,0.023-0.044,0.045-0.064,0.068c-0.482,0.574-0.277,1.535,0.412,1.756c0.206,0.064,0.411,0.102,0.618,0.154
	c0.082,0.17,0.188,0.324,0.335,0.426c1.021,0.695,2.085,1.16,3.174,1.471c0.137,0.385,0.432,0.697,0.866,0.699
	c3.069,0.021,6.133,0.195,9.198,0.363c0.04,0.363,0.248,0.711,0.642,0.887c2.536,1.115,5.393,1.5,8.261,1.416
	c-0.062,0.211-0.062,0.432-0.006,0.639c-0.129,0.619,0.162,1.367,0.894,1.367c0.09,0,0.179,0,0.27,0
	c-3.052,1.262-5.471,3.352-5.912,6.65c-0.085,0.645,0.236,1.342,0.894,1.32c2.675-0.08,5.194-0.785,7.661-1.697
	c0.333-0.102,0.666-0.205,0.996-0.324c0.092,0.387,0.36,0.699,0.837,0.691c3.581-0.045,7.163-0.535,10.684-1.373
	c-0.14,0.068-0.274,0.145-0.411,0.213c-1.572,0.508-3.104,1.146-4.537,1.807c-1.796,0.822-3.867,1.902-5.559,3.387
	c-2.053,1.199-3.847,2.842-4.618,5.332c-0.203,0.656,0.322,1.279,0.882,1.301c4.117,0.17,7.913-1.363,11.526-3.438
	c3.051-1.23,5.975-2.924,8.642-4.912c0.097-0.062,0.196-0.123,0.292-0.186c0.14-0.059,0.278-0.119,0.417-0.178
	c0.819,0.014,1.647-0.002,2.48-0.053c0.116,0.059,0.242,0.1,0.376,0.111c3.359,0.254,6.617-0.629,9.648-2.166
	c0.323-0.059,0.641-0.127,0.961-0.195c-0.721,0.58-1.408,1.207-2.056,1.879c-0.238,0.176-0.479,0.348-0.718,0.523
	c-0.274,0.207-0.405,0.482-0.428,0.768c-0.592,0.719-1.155,1.461-1.65,2.242c-0.16,0.164-0.326,0.324-0.485,0.496
	c-0.2,0.215-0.277,0.469-0.274,0.717c-0.447,0.777-0.832,1.588-1.141,2.42c-0.302,0.816,0.537,1.385,1.134,1.277
	c3.527-0.637,6.897-3.055,9.695-5.436c0.284-0.242,0.568-0.486,0.851-0.732c1.005-0.547,1.994-1.133,2.967-1.766
	c-0.885,1.812-1.623,3.795-1.905,5.814c-3.143,0.727-6.315,2.369-8.767,3.547c-0.94,0.453-0.348,1.891,0.473,1.963
	c0.123,0.016,0.244,0.004,0.366,0.016c0.107,0.266,0.298,0.502,0.571,0.617c1.576,0.662,3.262,0.85,4.972,0.746
	c-0.394,0.531-0.874,1.002-1.423,1.412c-0.832,0.172-1.643,0.416-2.441,0.715c-0.046-0.473-0.349-0.906-0.858-0.887
	c-0.535,0.021-1.067,0.072-1.596,0.145c-0.224-0.844-1.422-1.098-1.583-0.059c-0.021,0.133-0.07,0.262-0.129,0.389
	c-0.276,0.062-0.553,0.133-0.827,0.207c-1.877-0.777-4.159-0.789-5.952-0.633c-2.807,0.244-6.185,0.684-8.383,2.873
	c-0.563,0.564-0.214,1.545,0.418,1.785c0.566,0.211,1.132,0.328,1.696,0.408c-0.054,0.018-0.106,0.035-0.159,0.053
	c-3.864,0.293-7.751,0.254-11.612,0.59c-2.677,0.232-5.947,0.432-8.665,1.596c-3.993-0.242-7.966-0.855-11.978-0.705
	c-2.827,0.107-6.258,0.332-8.688,2.225c-0.61,0.135-1.21,0.297-1.796,0.496c-0.232-0.008-0.438,0.082-0.606,0.227
	c-0.296,0.117-0.586,0.252-0.871,0.398c-0.013,0.004-0.024,0.008-0.04,0.008c-0.159,0.037-0.278,0.117-0.379,0.217
	c-0.885,0.512-1.701,1.176-2.407,2.061c-0.569,0.713-0.162,1.738,0.665,1.809c2.631,0.223,5.238-0.404,7.834-1.174
	c0.299,0.014,0.598,0.021,0.898,0.006c0.139,0.281,0.384,0.492,0.761,0.486h0.334c0.148,0.449,0.553,0.779,1.105,0.658
	c0.97-0.213,1.941-0.387,2.915-0.57c-2.914,1.83-5.402,4.447-6.94,7.688c-0.273,0.576-0.05,1.387,0.558,1.543
	c1.008,0.258,2.078,0.24,3.162,0.049c0.1,0.008,0.202,0,0.305-0.033c0.044-0.014,0.084-0.035,0.127-0.049
	c1.776-0.387,3.582-1.215,5.238-2.092c0.021,0.109,0.042,0.221,0.082,0.32c0.391,0.992,1.006,1.781,1.748,2.414
	c-0.188,0.475-0.124,1.059,0.377,1.316c1.077,0.551,2.215,0.945,3.386,1.232c-0.99,0.43-1.976,0.873-2.952,1.342
	c-3.004,0.537-5.931,1.414-8.35,3.008c-1.707,0.672-3.274,1.559-4.522,2.617c-0.877,0.742-0.121,2.354,0.776,1.85
	c0.08,0.24,0.227,0.465,0.406,0.598c0.017,0.014,0.034,0.023,0.05,0.035h18.566c0.614-0.502,1.209-1.029,1.778-1.584
	c1.01-0.742,1.966-1.557,2.793-2.49c0.305-0.234,0.614-0.455,0.918-0.686c1.893-0.982,3.709-2.311,5.487-3.643
	c1.094-0.678,2.19-1.346,3.309-1.951c-0.607,0.949-1.2,1.914-1.782,2.893c-0.404,0.68,0.078,1.395,0.666,1.516
	c-0.067,0.125-0.138,0.25-0.205,0.373c-0.093,0.102-0.19,0.197-0.283,0.299c-1.328,1.479-2.898,3.279-4.173,5.273h7.585"/>
<g>
	<path d="M893.001,350.873c-0.321,0.535-0.465,1.313-0.279,2.369c0.378,2.109,2.989,2.463,4.345,2.561
		c1.288,0.301,2.652,0.153,3.912,0.015c2.011-0.223,5.057-0.217,6.839-1.772c0.168-0.146,0.228-0.402,0.217-0.654
		c0.47,0.132,0.942,0.249,1.412,0.353c-0.597,0.471-1.185,0.968-1.749,1.47c-0.32,0.188-0.635,0.382-0.939,0.576
		c-2.507,1.596-5.21,3.848-6.794,7.362c-0.359,0.798,0.139,1.649,0.647,1.738c2.85,0.51,5.688-1.352,8.276-3.242
		c0.041,0.381,0.201,0.716,0.438,0.888c-1.671,1.708-3.159,3.823-3.92,6.719c-0.132,0.499,0.09,1.039,0.344,1.308
		c0.36,0.384,0.746,0.603,1.144,0.724c0.119,0.495,0.47,0.817,0.886,0.729c1.995-0.439,3.719-2.361,5.26-4.52
		c0.022-0.023,0.046-0.053,0.065-0.074c1.528-1.729,3.49-4.067,4.787-6.754c0.065-0.078,0.131-0.146,0.194-0.224
		c0.169,0.048,0.338,0.096,0.505,0.123c-1.139,1.508-2.08,3.24-2.66,5.269c-0.242,0.854,0.049,1.667,0.657,1.763
		c1.63,0.255,3.222-0.609,4.722-2.021c-1.546,2.564-2.849,5.407-3.697,8.614c-0.241,0.909,0.432,1.517,0.915,1.409
		c2.818-0.628,5.044-4.46,6.91-7.765c0.114,0.139,0.259,0.223,0.446,0.196c2.304-0.334,3.913-2.945,5.464-5.369
		c0.042,0.004,0.082-0.004,0.122-0.012c-1.157,2.374-2.18,4.85-3.033,7.232c-0.368,1.022,0.359,2.103,1.013,1.563
		c2.747-2.256,5.037-5.519,7.333-8.712c0.119-0.17,0.243-0.337,0.363-0.509c-0.026,0.104-0.062,0.198-0.087,0.301
		c-0.209,0.903,0.413,1.604,0.935,1.439c0.992-0.306,1.928-0.871,2.825-1.603c0.216,0.257,0.521,0.357,0.843,0.143
		c0.017-0.01,0.031-0.026,0.047-0.037c-0.938,2.4-1.692,5.086-1.485,7.542c0.067,0.784,0.622,1.604,1.149,1.018
		c2.179-2.417,3.364-5.733,4.367-9.252c0.411-0.344,0.795-0.755,1.156-1.209c-0.039,0.856,0.671,1.526,1.158,1.051
		c0.198-0.194,0.386-0.414,0.578-0.63c0.196,0.231,0.454,0.355,0.69,0.3c0.792-0.19,1.53-0.589,2.229-1.131
		c-0.15,0.249-0.288,0.51-0.45,0.75c-1.399,2.095-2.905,3.984-3.798,6.72c-0.315,0.964,0.364,2.312,1.036,1.599
		c1.66-1.768,3.337-3.481,4.977-5.275c0.089,0.644,0.491,1.2,0.946,0.934c0.378-0.223,0.752-0.465,1.119-0.725
		c0.142,0.49,0.498,0.817,0.846,0.738c-0.991,0.31-1.952,0.754-2.85,1.396c-0.533,0.379-0.476,1.65,0,2.055
		c0.172,0.147,0.36,0.254,0.538,0.39c-0.118,0.038-0.236,0.071-0.356,0.114c-0.527,0.199-0.644,0.923-0.49,1.527
		c-1.256-0.104-2.512-0.131-3.775-0.027c-1.71,0.139-7.114,0.577-6.531,4.879c0.25,1.835,1.376,2.683,2.702,3.036
		c1.069,0.6,2.205,1.051,3.385,1.368c-1.445-0.057-3.145-0.202-4.602,0.364h134.8c-1.163-0.517-2.347-0.938-3.548-1.253
		c0.09-0.188,0.152-0.407,0.153-0.668c0.012-1.713-0.7-3.105-1.666-4.253c0.158,0.015,0.32,0.017,0.481,0.028
		c1.74,0.849,3.575,1.146,5.158-0.151c0.438-0.361,0.477-1.301,0.153-1.824c-0.789-1.272-1.649-2.402-2.553-3.448
		c0.19,0.016,0.378,0.054,0.569,0.062c0.293,0.012,0.508-0.226,0.631-0.552c0.278,0.048,0.553,0.091,0.821,0.13
		c0.507,0.073,0.777-0.681,0.75-1.355c0.039,0,0.082-0.006,0.12-0.008c0.688-0.023,0.986-1.249,0.542-2.014
		c-0.657-1.136-1.419-1.976-2.249-2.588c2.162-0.217,4.57-0.886,6.022-3.365c0.356-0.61,0.246-1.382-0.155-1.844
		c-2.537-2.96-6.132-1.667-9.041-1.193c-4.832,0.781-9.732,0.167-14.581,0.621c-0.247,0.023-0.453,0.228-0.587,0.507
		c-0.727-0.078-1.453-0.153-2.182-0.224c-0.521-1.722-1.037-3.448-1.567-5.165c0.284,0.345,0.598,0.631,0.947,0.832
		c0.583,0.34,0.974-0.635,0.901-1.392c-0.2-2.089-0.761-3.938-1.462-5.688c0.126,0.158,0.262,0.3,0.393,0.45
		c0.13,0.309,0.266,0.615,0.407,0.909c1.307,3.213,3.14,5.779,5.184,5.761c0.303-0.006,0.651-0.339,0.706-0.83
		c0.335-3.01-1.051-5.845-2.185-8.101c0.609,0.832,1.229,1.652,1.871,2.419c0.248,0.317,0.492,0.64,0.743,0.954
		c1.938,2.433,4.153,5.229,6.642,6.122c1.382,0.499,3.057-0.687,2.751-3.202c-0.222-1.831-1.147-3.407-2.093-4.737
		c0.121-0.397,0.131-0.884-0.095-1.247c-0.949-1.523-1.817-3.14-2.751-4.668c0.764,0.239,1.539,0.374,2.326,0.354
		c2.6,3.14,5.416,5.86,8.736,6.631c0.674,0.158,1.103-0.714,0.833-1.677c-0.309-1.111-0.757-2.092-1.292-2.975
		c0.876,0.228,1.77,0.325,2.688,0.216c0.501-0.059,1.005-0.962,0.643-1.726c-1.875-3.946-4.496-6.302-7.32-8.198
		c0.085,0.009,0.171,0.023,0.256,0.04c0.945,0.734,1.932,1.336,2.945,1.841c2.882,2.841,5.851,5.364,9.286,5.813
		c0.583,0.075,0.915-1.034,0.649-1.744c-0.497-1.319-1.198-2.403-2.003-3.329c0.093,0.035,0.186,0.076,0.281,0.105
		c0.329,0.113,0.62-0.148,0.798-0.521c0.502-0.363,0.619-1.537,0.073-2.053c-0.605-0.573-1.227-1.138-1.86-1.675
		c1.334-0.121,2.665-0.258,3.997-0.352c0.614,0.059,1.226,0.106,1.84,0.129c0.194,0.007,0.345-0.088,0.46-0.234
		c1.398-0.021,2.798,0.042,4.188,0.268c0.252,0.04,0.535-0.248,0.652-0.578c0.321-0.909,0.385-1.8,0.393-2.83
		c0.004-0.41-0.145-0.798-0.372-1.005c-2.902-2.653-6.466-0.256-9.576-0.019c-0.235,0.019-0.469,0.029-0.703,0.047
		c-6.259-1.795-12.698-1.091-19.1-1.082c-0.314,0-0.631-0.004-0.948-0.004c-4.432-0.966-8.953-0.886-13.404-1.772
		c0.176-0.063,0.338-0.201,0.434-0.503c0.826-2.511,0.44-5.369-0.214-7.969c0.474,0.156,0.857-0.438,0.896-1.14
		c0.145-2.791-0.479-5.455-1.392-7.892c1.106,1.503,2.261,2.907,3.486,4.16c1.456,2.108,2.982,3.993,5.09,4.822
		c0.645,0.253,1.114-0.784,0.826-1.66c-0.773-2.362-1.978-4.27-3.292-5.989c1.157,0.417,2.343,0.621,3.545,0.582
		c2.098,2.638,4.361,5.151,7.048,5.757c0.651,0.146,1.173-0.734,0.852-1.714c-1.141-3.459-3.236-5.969-5.244-8.37
		c1.858,0.878,3.732,1.671,5.675,2.063c0.551,0.11,7.462,0.422,5.683-3.295c-1.194-2.485-3.405-2.755-5.448-2.829
		c-1.131-0.497-2.347-0.725-2.911-0.881c-1.933-0.537-3.824-1.554-5.729-2.412c-1.604-1.191-3.411-1.244-5.161-2.09
		c-0.062-0.029-0.123-0.061-0.185-0.093c-0.621-0.529-1.262-1.016-1.952-1.411c-0.206-0.118-0.38-0.082-0.521,0.041
		c-0.429-0.229-0.859-0.432-1.293-0.591c-0.217-0.165-0.414-0.302-0.615-0.447c3.82-0.401,7.628-1.146,11.53-1.681
		c0.539-0.073,0.775-0.798,0.714-1.424c0.505-0.14,1.012-0.277,1.521-0.422c0.85-0.241,0.632-2.29-0.203-2.281
		c-4.358,0.043-8.687,0.716-12.983,1.755c-0.156-0.098-0.318-0.159-0.479-0.24c0.319-0.489,0.357-1.423-0.114-1.765
		c-1.475-1.067-3.341-1.87-5.065-1.647c-0.084-0.131-0.185-0.245-0.325-0.311c-1.359-0.617-2.699-1.294-4.045-1.923
		c-0.207-0.158-0.418-0.302-0.633-0.424c0.019-0.609-0.253-1.251-0.751-1.313c-1.059-0.127-2.085-0.098-3.093,0.042
		c-1.268-0.331-2.554-0.523-3.88-0.438c-0.277,0.018-0.558,0.049-0.838,0.073c0.474-0.529,0.942-1.071,1.389-1.656
		c0.183-0.238,0.248-0.521,0.246-0.797c0.252,0.294,0.503,0.591,0.774,0.85c0.045,0.051,0.092,0.094,0.142,0.128
		c0.352,0.322,0.714,0.624,1.099,0.881c0.525,0.352,1.125-0.052,1.147-1.017c0.056-2.56-0.518-5.071-1.333-7.454
		c-0.214-0.881-0.478-1.75-0.769-2.594c1.869,3.53,3.724,6.917,6.653,8.507c0.449,0.246,1.018-0.403,0.977-1.147
		c-0.041-0.743-0.155-1.438-0.302-2.117c0.002,0.002,0.005,0.007,0.008,0.012c0.633,0.62,1.521-0.648,1.062-1.639
		c-0.188-0.399-0.39-0.779-0.59-1.16c0.217-0.17,0.372-0.485,0.341-0.925c-0.015-0.254-0.062-0.491-0.098-0.735
		c0.495-0.051,0.925-0.781,0.594-1.625c-1.082-2.779-2.569-5.012-4.071-7.224c1.476,1.858,3.056,3.622,4.787,4.715
		c1.341,1.367,2.767,2.396,4.271,2.835c0.444,0.13,0.968-0.309,0.938-1.104c-0.021-0.463-0.068-0.91-0.13-1.348
		c0.08,0.08,0.16,0.157,0.243,0.229c1.242,1.518,2.535,2.924,3.979,3.95c0.588,0.42,1.355-0.26,1.146-1.359
		c-0.108-0.567-0.249-1.115-0.406-1.643c0.048-0.023,0.097-0.03,0.145-0.054c0.455-0.229,0.708-1.04,0.45-1.708
		c-0.481-1.24-1.187-2.282-1.994-3.181c-0.18-1.401-0.539-2.712-1.033-3.94c2.738,1.851,5.624,2.896,8.392,1.688
		c0.786-0.344,0.683-1.896,0-2.3c-2.051-1.219-4.112-2.38-6.173-3.548c0.241-0.073,0.426-0.329,0.523-0.658
		c0.04,0.03,0.08,0.066,0.121,0.097c0.886,0.63,1.603-1.187,0.77-2.031c-0.537-0.55-1.101-0.994-1.677-1.387
		c-0.37-0.342-0.734-0.697-1.089-1.077c-0.736-1.187-1.535-2.273-2.434-3.087c-0.009-0.062-0.012-0.127-0.03-0.188
		c0.289,0.157,0.575,0.298,0.856,0.429c0.729,0.552,1.497,0.972,2.338,1.165c0.17,0.039,0.34,0,0.484-0.096
		c0.136,0.038,0.268,0.07,0.387,0.1c0.528,0.119,1.112-0.497,0.924-1.429c-0.561-2.774-2.108-5.085-3.637-6.977
		c1.004,0.774,2.108,1.239,3.203,1.311c0.236,0.015,0.415-0.096,0.536-0.276c0.428,0.339,1.069-0.045,1.031-0.92
		c-0.064-1.495-0.776-2.769-1.694-3.588c-0.063-0.272-0.153-0.516-0.257-0.737c0.079-0.03,0.159-0.048,0.238-0.079
		c1.672-0.411,3.315-1.206,3.775-3.354c0.137-0.645-0.156-1.217-0.526-1.433c-1.864-1.089-3.68-0.589-5.51,0.06
		c-0.065-0.039-0.128-0.093-0.209-0.102c-0.409-0.038-0.813-0.03-1.218-0.002c-2.788-0.523-5.903,0.048-8.547,0.38
		c-2.76,0.347-5.474,0.509-8.237,0.384c-1.356-0.12-2.713-0.281-4.074-0.316c-0.231-0.005-0.41,0.153-0.536,0.385
		c-0.218,0.026-0.437,0.057-0.653,0.096c-0.37-0.166-0.738-0.336-1.108-0.502c-0.152-0.652-0.315-1.308-0.489-1.964
		c-0.083-1.397-0.316-2.755-0.638-4.083c0.374,0.791,0.741,1.583,1.09,2.391c0.366,0.856,1.284,0.563,1.28-0.536
		c-0.006-1.399-0.205-2.874-0.555-4.337c1.089,1.498,2.294,2.774,3.731,3.681c0.393,0.249,0.828-0.264,0.938-0.822
		c0.515-2.641-0.577-5.117-1.779-7.087c-0.033-0.123-0.087-0.237-0.159-0.332c-0.074-0.094-0.151-0.185-0.223-0.277
		c-0.243-0.373-0.484-0.727-0.708-1.054c-0.465-0.671-0.955-1.331-1.467-1.967c-0.319-0.465-0.649-0.898-0.997-1.298
		c0.239-0.012,0.482-0.072,0.73-0.183c0.509-0.223,0.639-1.018,0.447-1.698c-0.257-0.929-0.668-1.891-1.179-2.802
		c-0.073-0.331-0.229-0.615-0.444-0.743c-0.805-1.251-1.788-2.341-2.827-3.023c-1.434-2.581-3.741-3.792-5.879-4.79
		c-0.027-0.015-0.055-0.024-0.085-0.037c-0.144-0.131-0.287-0.254-0.429-0.383c0.056-0.106,0.12-0.203,0.151-0.338
		c0.396-1.575,0.46-3.341,0.276-5.055c2.251,5.204,5.166,10.316,8.696,12.146c0.402,0.209,0.799-0.237,0.922-0.806
		c0.834-3.855-0.925-7.426-2.608-10.148c0.052-0.014,0.104-0.048,0.161-0.066c0.329,0.671,0.674,1.327,0.962,1.97
		c1.117,2.478,2.273,4.911,3.729,6.946c0.535,0.747,1.429,0.031,1.229-1.105c-0.692-3.917-2.438-7.017-4.164-10.006
		c-0.292-0.702-0.639-1.342-1.021-1.905c-0.035-0.19-0.056-0.39-0.099-0.575c0.689,1,1.428,1.911,2.222,2.672
		c0.396,0.699,0.819,1.352,1.266,1.933c0.361,0.469,0.947,0.338,1.146-0.272c0.111,0.047,0.216,0.102,0.327,0.14
		c0.42,0.153,0.993-0.328,0.933-1.099c-0.054-0.668-0.163-1.305-0.292-1.932c0.32,0.297,0.641,0.579,0.962,0.841
		c-0.115,0.238-0.143,0.562,0.007,0.908c0.754,1.733,1.989,3.27,3.163,4.273c0.32,0.273,0.805,0.153,0.976-0.397
		c0.057-0.171,0.105-0.372,0.156-0.584c0.189-0.127,0.386-0.296,0.599-0.547c0.114-0.139,0.176-0.329,0.197-0.529
		c0.35-0.076,0.665-0.59,0.642-1.135c-0.127-2.73-1.127-4.867-2.38-6.661c0.008-0.452-0.002-0.898-0.065-1.335
		c0.569,0.176,1.16,0.251,1.786,0.202c0.012-0.001,0.024,0,0.035-0.001c0.054-0.003,0.104,0.001,0.157-0.003
		c0.21-0.025,0.414-0.185,0.562-0.416c0.351,0.346,0.715,0.656,1.087,0.931c0.677,0.732,1.504,1.153,2.417,1.278
		c0.09,0.012,0.173-0.013,0.254-0.057c0.11,0.018,0.22,0.042,0.327,0.052c0.31,0.035,0.548-0.268,0.665-0.657
		c0.125-0.118,0.218-0.29,0.28-0.488c0.237,0.179,0.473,0.361,0.708,0.543c0.473,0.36,1.178-0.066,1.135-1.008
		c-0.123-2.694-1.057-5.564-2.462-7.382c-0.025-0.057-0.045-0.115-0.078-0.17c-1.03-1.707-2.456-2.742-3.936-3.433
		c0.846,0.096,1.692,0.208,2.542,0.37c2.569,0.481,5.864,0.861,7.585-2.714c0.289-0.603-0.023-1.461-0.435-1.651
		c-0.489-0.223-0.981-0.366-1.478-0.454c0.229-1.061-0.88-1.913-1.399-0.841c-0.539,1.104-2.712,0.79-3.507,0.814
		c-1.423,0.042-2.83-0.082-4.247-0.204c-0.496-0.043-0.994-0.067-1.491-0.086c-1.59-1.268-3.979-1.19-5.522-0.659
		c-0.117,0.019-0.234,0.052-0.351,0.082c-0.229-0.213-0.465-0.412-0.704-0.592c0.07-0.052,0.136-0.113,0.183-0.189
		c1.676-0.577,3.277-0.999,4.625-3.13c0.491-0.78,0.106-1.914-0.535-2c-1.573-0.212-3.11-0.073-4.628,0.279
		c0.077-0.421,0.128-0.87,0.149-1.349c0.037-0.748-0.504-1.33-0.952-1.122c-3.411,1.6-6.559,4.154-9.676,6.79
		c-0.372,0.159-0.746,0.313-1.119,0.459c2.299-1.291,4.59-3.186,5.836-6.437c0.34-0.88-0.216-1.973-0.849-1.706
		c-1.652,0.698-3.289,1.381-4.903,2.11c-0.04-0.274-0.116-0.509-0.221-0.701c0.103-0.273,0.191-0.563,0.246-0.875
		c0.149-0.846-0.373-1.704-0.934-1.442c-0.297,0.138-0.589,0.303-0.88,0.46c-0.459-1.556-1.271-2.962-2-4.15
		c-0.224-1.146-0.589-2.335-1.048-3.512c0.483-0.297,0.724-1.489,0.141-2.059c-0.219-0.212-0.41-0.512-0.591-0.836
		c0.07-0.267,0.08-0.574,0.011-0.878c0.107-0.422,0.091-0.927-0.13-1.262c-0.016-0.025-0.029-0.04-0.044-0.063
		c-0.006-0.981-0.157-1.961-0.411-2.91c0.869,1.743,1.657,4.058,2.046,4.895c0.823,1.767,2.138,3.889,3.635,2.905
		c0.923-0.609,0.884-2.362,0.594-3.992c0.136,0.089,0.277,0.167,0.416,0.251c0.292,0.554,0.573,1.054,0.845,1.437
		c0.598,0.841,1.653-0.267,1.161-1.388c-0.73-1.674-1.484-3.362-2.362-4.854c1.729,1.376,3.511,2.713,5.501,2.562
		c0.449-0.033,0.909-0.729,0.728-1.471c-1.531-6.262-7.969-6.817-11.548-7.851c-0.812-0.236-1.612-0.536-2.409-0.857
		c-0.018-0.233-0.043-0.463-0.077-0.693c0.356-0.344,0.471-1.309,0.175-1.852c-0.429-0.778-0.883-1.513-1.327-2.265
		c0.307-0.295,0.449-0.973,0.27-1.529c-0.164-0.507-0.359-0.992-0.566-1.463c0.225-0.668,0.017-1.756-0.64-1.845
		c-0.123-0.02-0.234-0.066-0.354-0.093c-0.563-0.952-1.19-1.828-1.83-2.668c0.127-0.955,0.143-1.907,0.079-2.859
		c0.141-0.188,0.237-0.453,0.225-0.82c-0.005-0.15-0.024-0.3-0.032-0.455c0.03,0.026,0.06,0.057,0.094,0.078
		c0.033,0.027,0.072,0.031,0.106,0.051c0.058,0.132,0.114,0.273,0.17,0.406c1.434,3.39,3.652,7.953,6.599,7.845
		c0.527-0.019,0.848-0.264,1.02-0.65c0.043,0.023,0.082,0.055,0.122,0.075c0.38,0.179,0.779-0.209,0.888-0.778
		c0.116-0.619,0.144-1.226,0.109-1.817c0.568,0.604,1.147,1.142,1.73,1.598c0.443,0.342,1.164-0.062,1.101-0.973
		c-0.117-1.634-0.434-3.199-0.893-4.699c0.804,0.288,1.652,0.168,2.571-0.58c0.232-0.192,0.393-0.668,0.364-1.094
		c0.108-0.056,0.214-0.097,0.324-0.168c0.479-0.307,0.752-1.229,0.319-1.872c-0.278-0.418-0.7-1.081-1.203-1.812
		c0.568-0.134,1.095-0.44,1.514-1.053c0.308-0.449,0.271-1.192,0-1.646c-1.165-1.948-2.848-2.727-4.359-3.869
		c0.438-0.086,0.876-0.177,1.311-0.268c3,0.622,6.771,0.893,8.408-3.405c0.242-0.626,0.036-1.601-0.459-1.751
		c-3.381-1.028-6.85-1.134-10.312-1.072c0.049-0.139,0.079-0.295,0.086-0.468c0.041-1.095-0.044-2.219-0.21-3.342
		c-0.007-0.44-0.032-0.907-0.104-1.438c-0.038-0.275-0.155-0.48-0.303-0.618c-0.432-1.773-1.055-3.475-1.76-4.992
		c0.02-0.111,0.033-0.229,0.025-0.369c-0.054-1.063-0.194-2.099-0.271-3.156c0.249,0.094,0.504,0.216,0.76,0.359
		c0.83,2.053,1.878,4.771,2.016,5.212c0.443,1.428,1.523,3.415,2.702,3.796c0.085,0.138,0.166,0.284,0.258,0.416
		c0.501,0.719,1.179,0.165,1.25-0.798c0.003-0.061-0.001-0.116,0.003-0.173c1.34-1.604,0.311-5.112-0.378-6.979
		c0.538,0.171,1.092,0.265,1.677,0.213c0.966-0.084,0.914-2.069,0-2.259c-0.07-0.012-0.128-0.048-0.192-0.07
		c-0.021-0.128-0.062-0.249-0.12-0.363c0.194,0.01,0.391,0.028,0.586,0.032c1.744,0.511,4.08,0.94,3.878-1.841
		c-0.273-3.758-4.084-3.825-5.895-3.688c-1.833,0.135-3.737,0.263-5.669,0.304c-0.453-0.054-0.896-0.117-1.331-0.194
		c-0.844-0.396-1.686-0.801-2.53-1.202c-1.115-0.534-2.269-0.872-3.429-1.138c-2.087-1.305-4.86-3.156-7.239-2.771
		c0.096-0.352,0.185-0.711,0.258-1.096c0.1-0.522-0.117-1.253-0.494-1.342c-0.332-0.08-0.649-0.109-0.952-0.095
		c1.464-3.637,2.665-7.454,2.933-11.854c0.02-0.307-0.076-0.579-0.219-0.776c1.69-3.871,3.377-7.647,3.958-12.379
		c0.089-0.73-0.321-1.665-0.866-1.339c-2.742,1.639-4.287,6.005-5.521,9.865c-0.148,0.457-0.275,0.928-0.407,1.393
		c-0.304-1.164-0.751-2.258-1.438-2.391c-0.128-0.026-0.229,0.074-0.311,0.21c-0.007,0.005-0.018,0.006-0.025,0.012
		c-0.01-0.209-0.012-0.417-0.022-0.625c1.234-3.439,1.915-7.377,2.472-11.168c0.134-0.916-0.416-1.483-0.876-1.252
		c-0.023-0.009-0.044-0.009-0.067-0.013c0.031-0.319,0.066-0.642,0.101-0.966c0.076-0.672-0.167-1.191-0.513-1.326
		c0.968-3.981,1.907-7.951,1.071-12.248c-0.119-0.611-0.642-1.051-1.017-0.637c-0.686,0.756-1.254,1.682-1.719,2.717
		c-0.061,0.046-0.111,0.116-0.16,0.192c-0.031-6.343-0.101-12.684-0.286-19.022c-0.015-0.521-0.227-0.838-0.479-0.957
		c-0.008-1.178,0.004-2.358,0.073-3.525c0.023-0.369-0.187-0.765-0.414-0.841c-0.837-0.289-1.409,0.091-1.792,0.89
		c-0.229,0.087-0.414,0.36-0.406,0.847c0.003,0.127,0.01,0.257,0.014,0.386c-0.505,2.428-0.229,6.346,0.111,9.143
		c-0.007,4.551,0.529,9.237,0.665,13.593c0.073,2.378,0.208,4.741,0.375,7.098c-1.263-3.543-2.728-7.156-4.896-9.1
		c-0.394-0.353-0.992,0.087-0.954,0.845c0.05,1.074,0.215,2.099,0.453,3.079c0.063,0.874,0.1,1.772,0.354,2.515
		c0.466,1.382,1.059,2.395,1.75,3.35c0,0.007-0.002,0.011-0.001,0.019c0.287,3.482,1.204,6.462,2.24,9.551
		c0.338,1.007,0.695,2.03,0.991,3.088c0.03,1.388,0.086,2.775,0.144,4.158c-1.376-5.144-1.376-12.109-5.397-13.822
		c-0.397-0.169-0.746,0.205-0.877,0.766c-0.752,3.208,0.244,6.25,1.646,9.177c0.214,0.705,0.446,1.394,0.682,2.083
		c-0.111,2.721,0.342,5.415,1.015,8.045c-0.624-1.145-1.264-2.278-1.868-3.445c-1.39-5.013-3.139-9.708-5.803-13.206
		c-0.223-0.29-0.467-0.354-0.679-0.264c-0.374-0.094-0.754,0.227-0.811,0.88c-0.394-0.116-0.862,0.349-0.88,1.057
		c-0.096,3.831,0.608,7.863,1.742,11.568c-1.161-1.244-2.404-2.338-3.756-3.204c-0.555-0.357-1.158,0.866-0.797,1.6
		c2.431,4.948,5.661,8.598,8.67,12.644c0.186,0.438,0.368,0.875,0.556,1.309c-0.028,0.113-0.038,0.23-0.032,0.357
		c-0.657-0.601-1.35-1.097-2.194-1.237c-0.23-0.039-0.432,0.139-0.569,0.404c-2.396-1.573-4.799-3.127-7.363-3.942
		c-0.648-0.206-1.176,0.775-0.852,1.709c0.224,0.637,0.493,1.188,0.797,1.674c0,0.446,0.155,0.893,0.524,1.105
		c0.216,0.121,0.432,0.234,0.645,0.352c-0.244,0.02-0.489,0.035-0.734,0.062c-0.049,0.005-0.095,0.034-0.143,0.055
		c-2.583-3.235-5.094-6.699-8.375-8.071c-0.359-0.151-0.838,0.183-0.904,0.796c-0.648,5.705,3.195,8.866,6.02,10.947
		c0.801,0.59,1.581,1.243,2.36,1.895c-2.437-0.987-4.93-1.568-6.893,0.34c-0.336,0.326-0.51,1.062-0.273,1.605
		c0.077,0.182,0.163,0.343,0.247,0.508c-0.027,0.007-0.054,0.016-0.08,0.024c-0.734,0.264-0.703,1.939,0,2.235
		c0.328,0.138,0.658,0.234,0.988,0.317c0.081,0.271,0.229,0.497,0.463,0.583c0.892,0.328,1.797,0.531,2.705,0.669
		c0.049,0.216,0.136,0.417,0.312,0.554c0.378,0.295,0.767,0.523,1.157,0.71c-2.503,1.871-5,3.698-7.246,6.284
		c-0.667,0.768-0.274,2.282,0.561,2.056c1.246-0.335,2.422-1.063,3.565-1.923c-0.87,1.283-1.666,2.703-2.357,4.302
		c-0.341,0.779,0.229,2.035,0.827,1.663c1.663-1.028,2.952-2.623,4.234-4.532c0.667-0.997,1.471-1.859,2.321-2.645
		c-0.632,1.707-1.089,3.504-1.458,5.359c-0.03,0.058-0.064,0.102-0.09,0.177c-0.029,0.083-0.046,0.171-0.071,0.261
		c-0.201,0.659-0.341,1.33-0.456,2.012c-0.434,0.164-0.864,0.339-1.293,0.526c-0.122,0.027-0.244,0.066-0.366,0.096
		c-0.006,0.001-0.012,0.001-0.016,0.005c-0.771,0.204-1.53,0.523-2.295,1.012c-0.01,0.001-0.021,0.006-0.03,0.013
		c0,0.001,0,0.002,0.002,0.005c-0.062,0.039-0.121,0.069-0.18,0.109c-0.227,0.155-0.332,0.409-0.364,0.69
		c-0.071,0.078-0.145,0.135-0.213,0.216c-0.579,0.667-0.406,2.058,0.372,2.12c0.055,0.006,0.111-0.001,0.168,0
		c0.006,0.075,0.017,0.148,0.031,0.217c-2.959,0.769-8.51,2.074-8.786,7.609c-0.031,0.637,0.364,1.125,0.743,1.146
		c0.096,0.004,0.181-0.023,0.272-0.032c0.057,0.121,0.127,0.232,0.223,0.329c1.234,1.229,2.457,0.689,3.687-0.297
		c0.967-0.777,1.835-1.774,2.7-2.785c-0.026,0.129-0.038,0.26-0.025,0.385c-1.441,3.572-2.931,6.983-2.652,11.562
		c0.045,0.727,0.434,1.295,0.929,1.093c1.768-0.726,2.601-4.508,3.234-6.786c0.094-0.334,0.174-0.678,0.261-1.018
		c-0.066,0.438-0.133,0.879-0.192,1.326c-0.455,3.405-0.626,7.758-1.698,11.056c-0.157,0.078-0.3,0.23-0.397,0.484
		c-0.193,0.495-0.324,0.971-0.397,1.436c-0.022,0.043-0.041,0.094-0.065,0.137c-0.343,0.602-0.175,1.347,0.146,1.708
		c0.036,0.12,0.082,0.214,0.14,0.309c0.111,0.263,0.245,0.526,0.432,0.777c0.524,0.722,1.78,1.504,2.249,0.274
		c0.119-0.319,0.162-0.728,0.17-1.149c0.213-0.346,0.392-0.772,0.54-1.266c1.562-1.965,1.643-5.923,1.621-9.676
		c0.008-0.148,0.019-0.297,0.025-0.442c0.03-0.118,0.062-0.231,0.094-0.347c0.354-1.341,0.698-2.671,0.994-4.026
		c-0.036,2.631,0.058,5.258,0.071,7.904c0.002,0.351,0.091,0.612,0.224,0.789c0.012,0.335,0.021,0.669,0.042,1.003
		c0.031,0.566,0.311,1.206,0.736,1.136c0.697-0.113,1.231-0.7,1.648-1.557c0.195,0.043,0.398,0,0.565-0.198
		c0.539-0.642,1.087-1.274,1.609-1.942c0.505-0.097,0.961-0.326,1.388-0.65c-0.762,2.385-1.382,4.911-1.762,6.643
		c-1.04,0.982-1.838,2.273-2.101,4.349c-0.069,0.548,0.13,1.251,0.507,1.37c-0.072,0.288-0.14,0.581-0.199,0.874
		c-0.053,0.257-0.034,0.485,0.022,0.683c-1.921,1.697-3.84,3.392-5.833,4.88c-4.711,3.521-9.945,4.812-14.807,7.675
		c-0.513,0.05-1.029,0.07-1.547,0.071c-0.106-0.124-0.235-0.215-0.405-0.215c-1.646-0.001-3.294-0.002-4.938-0.008
		c-0.405,0-0.619,0.427-0.666,0.9c-0.034,0.017-0.066,0.031-0.102,0.046c-0.147,0.077-0.254,0.219-0.334,0.383
		c-0.079,0.041-0.153,0.077-0.235,0.128c-0.606,0.375-0.647,1.61,0,1.964c0.035,0.018,0.071,0.029,0.107,0.05
		c0.031,0.308,0.136,0.603,0.308,0.763c1.483,1.396,3.582,1.588,5.229,0.561c0.101,0.336,0.305,0.588,0.632,0.574
		c0.747-0.037,1.493-0.16,2.236-0.277c-0.196,0.164-0.345,0.461-0.346,0.931c-0.002,0.39-0.014,0.759-0.032,1.126
		c-0.147,0.698-0.235,1.404-0.262,2.016c-0.008,0.197,0.018,0.359,0.058,0.501c-0.888,2.322-1.731,5.544-0.452,7.515
		c0.062,0.098,0.129,0.178,0.193,0.248c-0.795-0.291-1.583-0.622-2.365-1.05c-2.42-1.324-5.376-3.387-8.061-2.829
		c-0.51-0.353-1.025-0.477-1.718-0.501c-0.337-0.013-0.716,0.486-0.676,1.043c0.017,0.229,0.046,0.435,0.074,0.636
		c-0.02,0.14-0.021,0.28-0.006,0.422c-0.103,0.445,0.028,0.851,0.253,1.071c0.016,0.07,0.021,0.142,0.043,0.207
		c0.406,1.192,0.74,1.839,1.412,2.628c0.426,0.502,0.881-0.03,0.994-0.692c1.668,1.684,3.828,2.338,6.01,2.584
		c-2.337,1.849-4.362,4.653-5.545,8.26c-0.264,0.811,0.178,2.03,0.83,1.664c1.447-0.809,2.801-1.892,4.121-3.072
		c0.015,0.003,0.027,0.014,0.041,0.014c1.642,0.153,3.275-0.385,4.875-1.166c-0.253,0.302-0.508,0.607-0.774,0.917
		c-2.729,3.186-5.751,5.714-7.353,10.605c-0.265,0.809,0.178,2.047,0.834,1.672c0.26-0.149,0.511-0.315,0.757-0.487
		c2.419,1.41,4.228-2.19,5.539-4.913c0.217-0.446,0.416-0.892,0.618-1.331c0.735-0.765,1.419-1.649,1.996-2.761
		c0.121-0.141,0.237-0.287,0.36-0.431c0.022,0.546,0.253,1.043,0.7,1c0.053-0.006,0.104-0.024,0.158-0.031
		c-1.866,2.344-3.125,5.289-2.623,9.061c0.08,0.587,0.554,0.997,0.92,0.805c0.808-0.422,1.565-0.958,2.297-1.553
		c0.229,0.237,0.527,0.319,0.785,0.085c0.364-0.334,0.708-0.693,1.046-1.066c0.446-0.183,0.829-0.598,1.071-1.294
		c0.302-0.395,0.596-0.805,0.885-1.22c-0.828,1.584-1.638,3.202-2.462,4.785c-2.06,2.987-3.793,6.337-4.539,10.496
		c-0.204,1.145,0.709,1.89,1.247,1.123c1.299-1.86,2.641-3.675,3.978-5.505c0.144,0.853,0.981,1.318,1.365,0.338
		c1.301-3.306,3.035-6.042,4.98-8.431c-1.991,3.095-3.701,6.795-4.048,10.99c-0.072,0.891,0.685,1.41,1.127,0.998
		c0.546-0.51,1.058-1.072,1.558-1.652c-0.021,0.218-0.056,0.428-0.068,0.654c-0.038,0.571,0.37,1.223,0.746,1.153
		c1.41-0.266,3.142,0.513,4.344-1.056c1.111-1.46,1.638-3.617,2.149-5.668c0.467-1.885,0.974-3.893,1.543-5.886
		c0.216-0.441,0.426-0.889,0.64-1.332c-0.988,3.844-2.215,10.046-0.888,13.738c-0.036,0.431-0.072,0.859-0.102,1.291
		c-0.011,0.16,0.02,0.31,0.065,0.459c-0.101,0.369-0.126,0.777-0.088,1.185c-0.427,0.21-0.673,0.966-0.486,1.552
		c-0.699-0.212-1.403-0.381-2.107-0.524c-0.18-0.039-0.362-0.054-0.545-0.087c-2.468-1.249-5.18-1.569-7.634-0.589
		c-0.869,0.351-0.638,2.248,0.205,2.326c0.327,0.029,0.659,0.047,0.991,0.073c-0.022,0.402,0.068,0.812,0.287,1.059
		c0,0.184,0.021,0.365,0.07,0.522c-1.099-0.224-2.155-0.615-3.185-1.129c-0.589-0.396-1.183-0.746-1.789-1.01
		c-1.985-1.266-3.897-2.878-5.862-4.419c-0.436-0.343-0.971,0.051-1.132,0.663c-0.863-0.357-1.755-0.474-2.643-0.248
		c-0.281,0.07-0.562,0.621-0.525,1.062c0.221,2.723,1.977,5.736,3.83,6.087c1.035,0.812,2.245,1.23,3.347,1.588
		c0.172,0.057,0.333,0.121,0.498,0.181c0.143,0.162,0.294,0.311,0.439,0.465c-0.931-0.026-1.862-0.03-2.794,0.049
		c-2.053,0.176-4.327-0.434-6.148,1.377c-0.427,0.422-0.492,1.265-0.155,1.841c1.485,2.548,4.014,2.507,6.476,1.713
		c-0.052,0.436,0.105,0.875,0.341,1.119c-0.501,0.251-1.001,0.506-1.504,0.754c-0.112-0.12-0.244-0.212-0.418-0.213
		c-4.188-0.058-8.767-1.235-12.829,0.811c-0.537,0.109-1.07,0.293-1.604,0.586c-0.178,0.097-0.31,0.274-0.404,0.483
		c-0.193,0.115-0.388,0.221-0.578,0.353c-0.188,0.008-0.37-0.006-0.559,0.026c-0.542,0.096-0.796,0.769-0.714,1.381
		c-0.047,0.534,0.17,1.13,0.526,1.293c0.111,0.166,0.223,0.332,0.334,0.499c0.352,0.528,0.812,0.223,0.979-0.294
		c0.591,0.188,1.19,0.282,1.82,0.314c1.573,1.824,3.754,1.597,5.826,0.84c0.323-0.115,0.644-0.247,0.967-0.371
		c-1.969,1.761-3.752,3.955-5.123,6.807c-0.318,0.659,0.107,1.689,0.611,1.646c0.157-0.018,0.31-0.065,0.467-0.098
		c-0.191,0.886,0.433,1.782,1.066,1.332c2.698-1.914,5.489-3.756,8.045-6.149c-0.242,0.456-0.195,0.981,0.009,1.348
		c-1.935,2.498-3.777,5.149-4.998,8.618c-0.325,0.933,0.377,2.274,1.014,1.562c0.421-0.465,0.826-0.957,1.236-1.445
		c0.235,0.237,0.539,0.324,0.799,0.108c2.117-1.749,3.905-4.209,5.625-6.778c-1.149,3.265-2.037,6.807-2.112,10.268
		c-0.013,0.584,0.356,1.244,0.759,1.173c2.356-0.428,3.882-4.489,5.106-7.223c0.637-1.427,1.204-2.858,1.73-4.307
		c0.089-0.216,0.18-0.429,0.267-0.649c0.173,0.068,0.361,0.056,0.537-0.094c0.416-0.354,0.805-0.75,1.176-1.173
		c-0.705,2.304-1.257,4.7-1.436,7.343c-0.062,0.906,0.68,1.412,1.134,1.005c1.625-1.458,2.637-3.992,3.355-6.852
		c0.059-0.202,0.117-0.406,0.18-0.609c-0.514,3.612-0.648,7.904-0.643,10.906c-5.636,1.094-11.01,5.718-16.23,8.731
		c-1.458,0.842-2.907,1.703-4.361,2.545c-0.633,0.185-1.265,0.368-1.897,0.558c-0.178-0.294-0.448-0.46-0.734-0.354
		c-0.868,0.317-1.695,0.771-2.499,1.304c-1.31,0.383-2.618,0.769-3.928,1.151c-2.943,0.862-5.855,2.127-8.855,2.435
		c-2.874,0.293-5.747-0.36-8.629,0.045c-0.202,0.029-0.358,0.156-0.475,0.336c-0.924,0.066-1.939,1.182-1.941,2.556
		c0,0.208,0.047,0.379,0.109,0.531c-0.134,0.489,0.013,1.062,0.398,1.294c1.001,0.606,1.821,0.549,2.699,0.123
		c0.621,0.08,1.246,0.094,1.874,0.085c-0.315,0.649-0.153,1.775,0.532,1.757c0.498-0.014,1.046-0.086,1.618-0.177
		c0.633-0.064,1.271-0.132,1.919-0.211c0.394,0.197,0.787,0.362,1.181,0.51c-1.519,2.008-2.843,4.393-3.904,7.168
		c-0.23,0.602-0.029,1.521,0.441,1.671c2.936,0.935,5.658-1.581,8.104-4.918c-2.341,3.944-5.248,8.439-5.167,14.134
		c0.008,0.668,0.479,1.406,0.941,1.104c2.13-1.381,3.674-3.906,5.128-6.582c1.229-1.562,2.292-3.488,3.316-5.362
		c1.206-1.543,2.388-3.131,3.571-4.723c-0.242,1.021-0.396,2.048-0.428,3.01c-0.007,0.265,0.082,0.592,0.218,0.795
		c-0.055,0.135-0.111,0.274-0.166,0.409c-0.294,0.691,0.085,1.854,0.653,1.756c2.429-0.418,4.355-2.463,6.059-5.095
		c-0.851,2.375-1.605,4.836-1.85,7.326c-0.201,0.848-0.398,1.703-0.586,2.563c-0.225,1.022,0.444,1.601,0.983,1.363
		c0.227,0.141,0.505,0.13,0.716-0.037c0.364-0.291,0.707-0.63,1.039-0.988c0.115,0.346,0.334,0.603,0.608,0.61
		c1.875,0.047,3.398-1.725,4.529-4.227c0.125,0.176,0.282,0.27,0.447,0.254c0.099,0.198,0.226,0.317,0.369,0.359
		c-0.837,2.206-1.67,4.687-2.074,7.226c-2.61-0.856-5.315-0.986-7.834-0.025c-0.454,0.175-0.601,0.748-0.53,1.292
		c-0.901,0.422-1.771,0.947-2.561,1.516c-0.676,0.484-0.375,1.87,0.186,2.196c0.239,0.139,0.484,0.249,0.729,0.373
		c-0.048,0.016-0.093,0.025-0.142,0.041c-0.202,0.07-0.341,0.253-0.429,0.481c-2.122-0.205-4.362-0.305-6.413,0.445
		c-1.364-0.035-2.727-0.098-4.085-0.205c-2.3-0.186-4.589-0.569-6.89-0.712c-0.089-0.194-0.214-0.352-0.382-0.415
		c-2.661-1.036-5.339-0.476-8.013,0.103c-0.413-0.078-0.812-0.139-1.183-0.154c-0.21-0.01-0.373,0.103-0.491,0.276
		c0.007-0.553-0.232-1.125-0.673-1.124c-1.451,0.005-2.901,0.01-4.354,0.012c-0.514,0.002-0.717,0.655-0.642,1.244
		c-0.058,0.059-0.114,0.121-0.164,0.188l-0.358,0.006c-0.78,0.01-0.802,1.768-0.083,1.917c0.006,0.079,0,0.147,0.009,0.232
		c0.243,2.338,2.3,2.555,4.043,2.26c-0.066,0.535,0.073,1.113,0.491,1.206c0.063,0.016,0.124,0.022,0.188,0.035v0.006h0.021
		c1.927,0.427,3.854,0.709,5.782,0.859c-0.726,0.696-1.444,1.427-2.181,2.106c-0.294,0.233-0.585,0.486-0.861,0.753
		c-0.178,0.147-0.353,0.303-0.535,0.436c-0.14,0.103-0.234,0.27-0.298,0.46c-0.6,0.727-0.396,2.077,0.396,2.195
		c2.7,0.393,5.038-0.935,7.294-2.643c0.057-0.032,0.116-0.064,0.174-0.092c0.126-0.057,0.221-0.158,0.302-0.272
		c1.263-0.987,2.503-2.06,3.771-3.002c0.106-0.01,0.212-0.015,0.317-0.026c-4.471,3.461-9.073,7.25-9.728,15.161
		c-0.064,0.76,0.544,1.38,0.98,1.153c3.894-1.995,7.724-5.584,10.754-10.169c1.593-1.094,3.087-2.551,4.597-3.955
		c0.088,0.257,0.239,0.462,0.416,0.582c-0.084,0.113-0.17,0.221-0.253,0.338c-0.403,0.577-0.232,1.439,0.152,1.827
		c-1.927,2.569-3.812,5.678-4.921,9.171c-0.283,0.885,0.18,2.098,0.873,1.758c0.13-0.062,0.247-0.149,0.369-0.221
		c-0.05,0.329-0.116,0.657-0.157,0.989c-0.081,0.651,0.111,1.271,0.54,1.468c2.495,1.164,4.984-3.607,6.383-6.139
		c1.271-1.188,2.39-2.989,3.381-4.421c0.572-0.825,1.152-1.686,1.74-2.552c-0.008,0.026-0.019,0.05-0.029,0.072
		c-0.81,1.489-1.606,2.994-2.357,4.559c-0.241,0.503-0.115,1.086,0.149,1.451c-0.16,0.484-0.3,0.916-0.414,1.262
		c-0.214,0.656-0.043,1.5,0.45,1.698c2.016,0.818,4.116-2.114,5.551-3.889c0.606-0.754,1.197-1.546,1.776-2.36
		c-1.125,3.121-2.117,6.359-2.922,9.754c-0.18,0.761,0.276,1.437,0.733,1.479c1.387,0.146,2.587-0.847,3.616-2.302
		c0.053,0.523,0.291,1,0.738,1h0.138c0.121,0.562,0.527,0.988,0.935,0.819c0.183-0.074,0.367-0.177,0.551-0.264
		c0.232,0.464,0.515,0.878,0.842,1.24c-1.345-0.071-2.683,0.015-3.92,0.118c-0.139,0.014-0.282,0.03-0.424,0.045
		c-4.12-0.163-8.268-0.263-12.354,0.133c-0.858,0.083-1.046,1.91-0.204,2.317c0.763,0.367,1.549,0.723,2.341,1.063
		c-0.516,0.535-0.282,1.813,0.272,2.084c1.896,0.932,3.863,1.569,5.855,2.026c0.356,0.301,0.729,0.556,1.115,0.764
		c-3.997-0.048-8.029,0.839-11.617,3.002c-0.623,0.378-0.744,1.53-0.179,2.136c1.27,1.373,2.996,1.693,4.746,1.654
		c-1.15,0.643-2.285,1.358-3.402,2.052c-0.245,0.151-0.399,0.488-0.467,0.854c-1.893,1.589-3.749,3.717-4.213,4.385
		c-0.517,0.751-0.065,1.831,0.524,1.943c0.098,0.019,0.196,0.015,0.298,0.029c-0.102,0.104-0.187,0.227-0.292,0.321
		c-0.287,0.254-0.323,0.681-0.226,1.035c-0.019,0.034-0.038,0.067-0.055,0.104c-0.373,0.787,0.237,1.632,0.736,1.483
		c0.979-0.292,1.863-0.834,2.668-1.567c0.058,0.345,0.203,0.646,0.463,0.729c0.406,0.134,0.746,0.14,1.045,0.05
		c-0.638,1.879-1.07,3.818-1.021,5.642c0.015,0.493,0.214,0.983,0.542,1.1c0.341,0.121,0.677,0.123,1.008,0.049
		c0.075,0.017,0.148,0.015,0.222-0.011c-0.04,0.422,0.061,0.886,0.332,1.207c0.547,0.639,1.123,1.229,1.715,1.788
		c0.01,0.203,0.057,0.394,0.131,0.561h-0.016c-0.304,0.017-0.528,0.325-0.641,0.704c-2.774,0.614-5.56,1.122-8.363,1.341
		c-0.391,0.03-0.569,0.518-0.543,0.975c-0.948,0.018-1.896,0.04-2.845,0.057c-1.496,0.022-2.989,0.038-4.483,0.047
		c-0.211-0.384-0.555-0.595-0.935-0.304c-0.132,0.103-0.266,0.211-0.401,0.315c-1.83,0.006-3.66-0.002-5.49-0.031
		c-0.992-0.014-1.983-0.049-2.976-0.09c0.268-0.416,0.157-1.234-0.338-1.302c-3.729-0.51-7.472-0.669-11.219-0.611
		c-1.824,0.03-3.641,0.238-5.452,0.602c-0.703,0.143-1.907-0.153-2.357,0.966C892.394,350.143,892.648,350.738,893.001,350.873z"/>
</g>
</svg>
