<?xml version="1.0" encoding="utf-8"?>
<!-- Generator: Adobe Illustrator 16.0.0, SVG Export Plug-In . SVG Version: 6.00 Build 0)  -->
<!DOCTYPE svg PUBLIC "-//W3C//DTD SVG 1.1//EN" "http://www.w3.org/Graphics/SVG/1.1/DTD/svg11.dtd">
<svg fill="#003144" version="1.1" id="Layer_1" xmlns="http://www.w3.org/2000/svg" xmlns:xlink="http://www.w3.org/1999/xlink" x="0px" y="0px"
	 width="1318px" height="178px" viewBox="0 0 1318 178" enable-background="new 0 0 1318 178" xml:space="preserve">
<path d="M1318,178c-39.134-72.008-91.67-158.861-117.225-158.487c-23.667,0.347-88.573,29.524-111.679,43.644
	c-23.104,14.121-50.063,12.836-62.899,23.107c-12.837,10.269-62.898,25.672-62.898,25.672H908.1
	c-30.807,0-17.97,14.119-29.522,19.254c-11.554,5.136-28.241,0-39.794-2.567s-19.255-7.7-34.658,7.703
	c-15.404,15.403-83.438,22.185-83.438,22.185L694.172,178H1318z"/>
<path d="M421.289,178c-1.518-8.188-10.931-57.623-17.108-58.504c-6.735-0.962-33.677-18.282-46.185-19.246
	c-12.509-0.961-41.376-43.297-41.376-43.297s-12.508-1.924-16.357,3.847c-3.849,5.773-12.508,0.961-22.524,0
	c-10.016-0.96-37.132-25.016-47.716-25.979c-10.585-0.963-18.283,4.812-24.055,11.779c-5.774,6.967-37.526-16.588-59.656-21.402
	c-22.131-4.81-39.45-16.357-47.148-18.733s-29.496-7.467-40.412,0C10.173,39.696,4.682,152.837,4.061,178H421.289z"/>
</svg>
