<?xml version="1.0" encoding="utf-8"?>
<!-- Generator: Adobe Illustrator 19.2.1, SVG Export Plug-In . SVG Version: 6.00 Build 0)  -->
<svg version="1.1" id="Layer_1" xmlns="http://www.w3.org/2000/svg" xmlns:xlink="http://www.w3.org/1999/xlink" x="0px" y="0px"
	 viewBox="0 0 1400 900" style="enable-background:new 0 0 1400 900;" xml:space="preserve">
<style type="text/css">
	.st0{fill:#FFFFFF;}
	.st1{opacity:0.5;fill:#FFFFFF;}
	.st2{opacity:0.25;fill:#FFFFFF;}
	.st3{opacity:0.75;fill:#FFFFFF;}
</style>
<circle class="st0" cx="155.5" cy="315.3" r="3.3"/>
<circle class="st0" cx="868.5" cy="442.3" r="3.3"/>
<circle class="st0" cx="1038.5" cy="122.3" r="3.3"/>
<circle class="st0" cx="448.5" cy="712.3" r="3.3"/>
<circle class="st0" cx="1288.5" cy="642.3" r="3.3"/>
<circle class="st1" cx="548.5" cy="162.3" r="3.3"/>
<circle class="st1" cx="788.5" cy="262.3" r="3.3"/>
<circle class="st1" cx="108.5" cy="512.3" r="3.3"/>
<circle class="st1" cx="718.5" cy="802.3" r="3.3"/>
<circle class="st1" cx="1268.5" cy="332.3" r="3.3"/>
<circle class="st0" cx="905.5" cy="322.3" r="2.6"/>
<circle class="st0" cx="755.5" cy="72.3" r="2.6"/>
<circle class="st0" cx="245.5" cy="392.3" r="2.6"/>
<circle class="st0" cx="945.5" cy="742.3" r="2.6"/>
<circle class="st0" cx="1365.5" cy="592.3" r="2.6"/>
<circle class="st0" cx="1355.5" cy="152.3" r="2.6"/>
<circle class="st1" cx="355.5" cy="462.3" r="2.6"/>
<circle class="st1" cx="435.5" cy="92.3" r="2.6"/>
<circle class="st1" cx="1125.5" cy="502.3" r="2.6"/>
<circle class="st1" cx="315.5" cy="782.3" r="2.6"/>
<circle class="st0" cx="805.5" cy="512.3" r="2.1"/>
<circle class="st0" cx="1185.5" cy="541.3" r="2.1"/>
<circle class="st0" cx="995.5" cy="701.3" r="2.1"/>
<circle class="st0" cx="755.5" cy="831.3" r="2.1"/>
<circle class="st0" cx="155.5" cy="541.3" r="2.1"/>
<circle class="st0" cx="965.5" cy="281.3" r="2.1"/>
<circle class="st0" cx="685.5" cy="51.3" r="2.1"/>
<circle class="st0" cx="1375.5" cy="129.2" r="2.1"/>
<circle class="st0" cx="95.5" cy="301.3" r="2.1"/>
<circle class="st0" cx="365.5" cy="101.3" r="2.1"/>
<circle class="st1" cx="415.5" cy="491.3" r="2.1"/>
<circle class="st1" cx="1025.5" cy="301.3" r="2.1"/>
<circle class="st1" cx="1255.5" cy="551.3" r="2.1"/>
<circle class="st1" cx="1035.5" cy="721.3" r="2.1"/>
<circle class="st1" cx="485.5" cy="681.3" r="2.1"/>
<circle class="st1" cx="265.5" cy="771.3" r="2.1"/>
<circle class="st1" cx="205.5" cy="791.3" r="2.1"/>
<circle class="st1" cx="1075.5" cy="101.3" r="2.1"/>
<circle class="st1" cx="215.5" cy="242.3" r="2.1"/>
<circle class="st1" cx="155.5" cy="492.3" r="2.1"/>
<circle class="st1" cx="715.5" cy="272.3" r="2.1"/>
<circle class="st1" cx="695.5" cy="82.3" r="2.1"/>
<circle class="st0" cx="455.5" cy="472.3" r="1.7"/>
<circle class="st0" cx="185.5" cy="512.3" r="1.7"/>
<circle class="st0" cx="305.5" cy="502.3" r="1.7"/>
<circle class="st0" cx="1055.5" cy="272.3" r="1.7"/>
<circle class="st0" cx="995.5" cy="132.3" r="1.7"/>
<circle class="st0" cx="1085.5" cy="132.3" r="1.7"/>
<circle class="st0" cx="1285.5" cy="342.3" r="1.7"/>
<circle class="st0" cx="1155.5" cy="522.3" r="1.7"/>
<circle class="st0" cx="1285.5" cy="542.3" r="1.7"/>
<circle class="st0" cx="1385.5" cy="612.3" r="1.7"/>
<circle class="st0" cx="755.5" cy="282.3" r="1.7"/>
<circle class="st0" cx="785.5" cy="32.3" r="1.7"/>
<circle class="st0" cx="665.5" cy="92.3" r="1.7"/>
<circle class="st0" cx="415.5" cy="122.3" r="1.7"/>
<circle class="st0" cx="475.5" cy="72.3" r="1.7"/>
<circle class="st0" cx="185.5" cy="282.3" r="1.7"/>
<circle class="st0" cx="235.5" cy="262.3" r="1.7"/>
<circle class="st0" cx="105.5" cy="332.3" r="1.7"/>
<circle class="st0" cx="35.5" cy="362.3" r="1.7"/>
<circle class="st0" cx="925.5" cy="462.3" r="1.7"/>
<circle class="st0" cx="665.5" cy="812.3" r="1.7"/>
<circle class="st0" cx="525.5" cy="692.3" r="1.7"/>
<circle class="st0" cx="1075.5" cy="743.3" r="1.7"/>
<circle class="st0" cx="905.5" cy="682.3" r="1.7"/>
<circle class="st0" cx="845.5" cy="722.3" r="1.7"/>
<circle class="st0" cx="415.5" cy="702.3" r="1.7"/>
<circle class="st0" cx="145.5" cy="812.3" r="1.7"/>
<circle class="st0" cx="255.5" cy="802.3" r="1.7"/>
<circle class="st1" cx="685.5" cy="292.3" r="1.7"/>
<circle class="st1" cx="825.5" cy="292.3" r="1.7"/>
<circle class="st1" cx="865.5" cy="302.3" r="1.7"/>
<circle class="st1" cx="1115.5" cy="112.3" r="1.7"/>
<circle class="st1" cx="975.5" cy="112.3" r="1.7"/>
<circle class="st1" cx="1315.5" cy="112.3" r="1.7"/>
<circle class="st1" cx="1325.5" cy="352.3" r="1.7"/>
<circle class="st1" cx="1245.5" cy="362.3" r="1.7"/>
<circle class="st1" cx="1355.5" cy="632.3" r="1.7"/>
<circle class="st1" cx="1315.5" cy="562.3" r="1.7"/>
<circle class="st1" cx="1085.5" cy="262.3" r="1.7"/>
<circle class="st1" cx="1135.5" cy="152.3" r="1.7"/>
<circle class="st1" cx="1165.5" cy="172.3" r="1.7"/>
<circle class="st1" cx="1205.5" cy="162.3" r="1.7"/>
<circle class="st1" cx="835.5" cy="42.3" r="1.7"/>
<circle class="st1" cx="595.5" cy="142.3" r="1.7"/>
<circle class="st1" cx="585.5" cy="172.3" r="1.7"/>
<circle class="st1" cx="355.5" cy="132.3" r="1.7"/>
<circle class="st1" cx="295.5" cy="112.3" r="1.7"/>
<circle class="st1" cx="295.5" cy="412.3" r="1.7"/>
<circle class="st1" cx="205.5" cy="412.3" r="1.7"/>
<circle class="st1" cx="65.5" cy="552.3" r="1.7"/>
<circle class="st1" cx="495.5" cy="512.3" r="1.7"/>
<circle class="st1" cx="795.5" cy="752.3" r="1.7"/>
<circle class="st1" cx="785.5" cy="842.3" r="1.7"/>
<circle class="st1" cx="615.5" cy="832.3" r="1.7"/>
<circle class="st1" cx="565.5" cy="702.3" r="1.7"/>
<circle class="st1" cx="365.5" cy="722.3" r="1.7"/>
<circle class="st2" cx="955.5" cy="432.3" r="1.7"/>
<circle class="st2" cx="755.5" cy="502.3" r="1.7"/>
<circle class="st2" cx="1205.5" cy="322.3" r="1.7"/>
<circle class="st2" cx="1125.5" cy="272.3" r="1.7"/>
<circle class="st2" cx="935.5" cy="122.3" r="1.7"/>
<circle class="st2" cx="1235.5" cy="142.3" r="1.7"/>
<circle class="st2" cx="1355.5" cy="372.3" r="1.7"/>
<circle class="st2" cx="1075.5" cy="482.3" r="1.7"/>
<circle class="st2" cx="1385.5" cy="512.3" r="1.7"/>
<circle class="st2" cx="1165.5" cy="352.3" r="1.7"/>
<circle class="st2" cx="615.5" cy="242.3" r="1.7"/>
<circle class="st2" cx="905.5" cy="12.3" r="1.7"/>
<circle class="st2" cx="555.5" cy="62.3" r="1.7"/>
<circle class="st2" cx="805.5" cy="62.3" r="1.7"/>
<circle class="st2" cx="605.5" cy="82.3" r="1.7"/>
<circle class="st2" cx="485.5" cy="132.3" r="1.7"/>
<circle class="st2" cx="435.5" cy="162.3" r="1.7"/>
<circle class="st2" cx="645.5" cy="172.3" r="1.7"/>
<circle class="st2" cx="785.5" cy="322.3" r="1.7"/>
<circle class="st2" cx="905.5" cy="282.3" r="1.7"/>
<circle class="st2" cx="1105.5" cy="562.3" r="1.7"/>
<circle class="st2" cx="1205.5" cy="512.3" r="1.7"/>
<circle class="st2" cx="1135.5" cy="732.3" r="1.7"/>
<circle class="st2" cx="885.5" cy="732.3" r="1.7"/>
<circle class="st2" cx="775.5" cy="712.3" r="1.7"/>
<circle class="st2" cx="695.5" cy="742.3" r="1.7"/>
<circle class="st2" cx="845.5" cy="822.3" r="1.7"/>
<circle class="st2" cx="565.5" cy="802.3" r="1.7"/>
<circle class="st2" cx="535.5" cy="852.3" r="1.7"/>
<circle class="st2" cx="455.5" cy="822.3" r="1.7"/>
<circle class="st2" cx="285.5" cy="712.3" r="1.7"/>
<circle class="st2" cx="545.5" cy="482.3" r="1.7"/>
<circle class="st2" cx="365.5" cy="432.3" r="1.7"/>
<circle class="st2" cx="275.5" cy="242.3" r="1.7"/>
<circle class="st2" cx="115.5" cy="372.3" r="1.7"/>
<circle class="st2" cx="15.5" cy="402.3" r="1.7"/>
<circle class="st2" cx="5.5" cy="532.3" r="1.7"/>
<circle class="st2" cx="215.5" cy="492.3" r="1.7"/>
<circle class="st2" cx="45.5" cy="582.3" r="1.7"/>
<circle class="st2" cx="754.5" cy="487.3" r="1.7"/>
<circle class="st2" cx="504.5" cy="427.3" r="1.7"/>
<circle class="st2" cx="404.5" cy="457.3" r="1.7"/>
<circle class="st2" cx="394.5" cy="587.3" r="1.7"/>
<circle class="st2" cx="604.5" cy="547.3" r="1.7"/>
<circle class="st2" cx="434.5" cy="637.3" r="1.7"/>
<circle class="st2" cx="1092.5" cy="227.3" r="1.7"/>
<circle class="st2" cx="842.5" cy="167.3" r="1.7"/>
<circle class="st2" cx="742.5" cy="197.3" r="1.7"/>
<circle class="st2" cx="732.5" cy="327.3" r="1.7"/>
<circle class="st2" cx="942.5" cy="287.3" r="1.7"/>
<circle class="st2" cx="772.5" cy="377.3" r="1.7"/>
<circle class="st2" cx="1311.7" cy="617.3" r="1.7"/>
<circle class="st2" cx="1162.5" cy="677.3" r="1.7"/>
<circle class="st2" cx="1062.5" cy="707.3" r="1.7"/>
<circle class="st2" cx="1052.5" cy="837.3" r="1.7"/>
<circle class="st2" cx="1262.5" cy="797.3" r="1.7"/>
<circle class="st2" cx="1092.5" cy="887.3" r="1.7"/>
<circle class="st2" cx="412.5" cy="67.3" r="1.7"/>
<circle class="st2" cx="162.5" cy="7.3" r="1.7"/>
<circle class="st2" cx="62.5" cy="37.3" r="1.7"/>
<circle class="st2" cx="52.5" cy="167.3" r="1.7"/>
<circle class="st2" cx="262.5" cy="127.3" r="1.7"/>
<circle class="st2" cx="92.5" cy="217.3" r="1.7"/>
<circle class="st2" cx="732.5" cy="217.3" r="1.7"/>
<circle class="st2" cx="682.5" cy="247.3" r="1.7"/>
<circle class="st2" cx="522.5" cy="327.3" r="1.7"/>
<circle class="st2" cx="299.5" cy="252.3" r="1.7"/>
<circle class="st2" cx="509.5" cy="212.3" r="1.7"/>
<circle class="st2" cx="339.5" cy="302.3" r="1.7"/>
<circle class="st2" cx="1072.5" cy="527.3" r="1.7"/>
<circle class="st2" cx="1022.5" cy="557.3" r="1.7"/>
<circle class="st2" cx="862.5" cy="637.3" r="1.7"/>
<circle class="st2" cx="639.5" cy="562.3" r="1.7"/>
<circle class="st2" cx="849.5" cy="522.3" r="1.7"/>
<circle class="st2" cx="679.5" cy="612.3" r="1.7"/>
<circle class="st2" cx="1282.5" cy="47.3" r="1.7"/>
<circle class="st2" cx="1232.5" cy="77.3" r="1.7"/>
<circle class="st2" cx="1072.5" cy="157.3" r="1.7"/>
<circle class="st2" cx="849.5" cy="82.3" r="1.7"/>
<circle class="st2" cx="1059.5" cy="42.3" r="1.7"/>
<circle class="st2" cx="889.5" cy="132.3" r="1.7"/>
<circle class="st2" cx="627.5" cy="774.3" r="1.7"/>
<circle class="st2" cx="96.5" cy="589.3" r="1.7"/>
<circle class="st2" cx="654.5" cy="719.3" r="1.7"/>
<circle class="st2" cx="554.5" cy="749.3" r="1.7"/>
<circle class="st2" cx="131.5" cy="604.3" r="1.7"/>
<circle class="st2" cx="341.5" cy="564.3" r="1.7"/>
<circle class="st2" cx="937.5" cy="374.3" r="1.7"/>
<circle class="st2" cx="406.5" cy="189.3" r="1.7"/>
<circle class="st2" cx="964.5" cy="319.3" r="1.7"/>
<circle class="st2" cx="864.5" cy="349.3" r="1.7"/>
<circle class="st2" cx="441.5" cy="204.3" r="1.7"/>
<circle class="st2" cx="651.5" cy="164.3" r="1.7"/>
<circle class="st2" cx="293.5" cy="574.3" r="1.7"/>
<circle class="st2" cx="317.5" cy="584.3" r="1.7"/>
<circle class="st2" cx="1303.5" cy="804.3" r="1.7"/>
<circle class="st2" cx="1327.5" cy="814.3" r="1.7"/>
<circle class="st3" cx="470.5" cy="229.3" r="1.7"/>
<circle class="st3" cx="1130.5" cy="336.3" r="1.7"/>
<circle class="st3" cx="670.5" cy="586.3" r="1.7"/>
<circle class="st3" cx="240.5" cy="596.3" r="1.7"/>
<circle class="st3" cx="1220.5" cy="816.3" r="1.7"/>
<circle class="st3" cx="410.5" cy="816.3" r="1.7"/>
<circle class="st3" cx="70.5" cy="836.3" r="1.7"/>
<circle class="st3" cx="190.5" cy="96.3" r="1.7"/>
<circle class="st3" cx="120.5" cy="206.3" r="1.7"/>
<circle class="st3" cx="1320.5" cy="46.3" r="1.7"/>
<circle class="st3" cx="1020.5" cy="846.3" r="1.7"/>
<circle class="st2" cx="505.5" cy="321.3" r="1.7"/>
<circle class="st2" cx="355.5" cy="381.3" r="1.7"/>
<circle class="st2" cx="485.5" cy="251.3" r="1.7"/>
<circle class="st2" cx="225.5" cy="701.3" r="1.7"/>
<circle class="st2" cx="75.5" cy="761.3" r="1.7"/>
<circle class="st2" cx="205.5" cy="631.3" r="1.7"/>
<circle class="st2" cx="615.5" cy="491.3" r="1.7"/>
<circle class="st2" cx="465.5" cy="551.3" r="1.7"/>
<circle class="st2" cx="595.5" cy="421.3" r="1.7"/>
<circle class="st3" cx="484.5" cy="335.3" r="1.7"/>
<circle class="st3" cx="804.5" cy="155.3" r="1.7"/>
<circle class="st3" cx="1254.5" cy="495.3" r="1.7"/>
<circle class="st3" cx="334.5" cy="225.3" r="1.7"/>
<circle class="st3" cx="134.5" cy="85.3" r="1.7"/>
<circle class="st1" cx="884.5" cy="155.3" r="1.7"/>
<circle class="st1" cx="1354.5" cy="535.3" r="1.7"/>
<circle class="st1" cx="974.5" cy="585.3" r="1.7"/>
<circle class="st1" cx="1224.5" cy="625.3" r="1.7"/>
<circle class="st1" cx="1374.5" cy="845.3" r="1.7"/>
<circle class="st1" cx="894.5" cy="865.3" r="1.7"/>
<circle class="st1" cx="24.5" cy="855.3" r="1.7"/>
<circle class="st1" cx="204.5" cy="15.3" r="1.7"/>
<circle class="st1" cx="1104.5" cy="35.3" r="1.7"/>
<circle class="st1" cx="544.5" cy="355.3" r="1.7"/>
<circle class="st1" cx="694.5" cy="495.3" r="1.7"/>
<circle class="st1" cx="1014.5" cy="445.3" r="1.7"/>
<circle class="st1" cx="1194.5" cy="375.3" r="1.7"/>
<circle class="st1" cx="1394.5" cy="305.3" r="1.7"/>
<circle class="st2" cx="744.5" cy="565.3" r="1.7"/>
<circle class="st2" cx="784.5" cy="625.3" r="1.7"/>
<circle class="st2" cx="964.5" cy="665.3" r="1.7"/>
<circle class="st2" cx="474.5" cy="865.3" r="1.7"/>
<circle class="st2" cx="114.5" cy="885.3" r="1.7"/>
<circle class="st2" cx="14.5" cy="635.3" r="1.7"/>
<circle class="st2" cx="354.5" cy="55.3" r="1.7"/>
<circle class="st2" cx="84.5" cy="15.3" r="1.7"/>
<circle class="st2" cx="944.5" cy="15.3" r="1.7"/>
<circle class="st1" cx="994.5" cy="25.3" r="1.7"/>
<circle class="st1" cx="864.5" cy="25.3" r="1.7"/>
<circle class="st1" cx="1354.5" cy="65.3" r="1.7"/>
<circle class="st1" cx="1384.5" cy="95.3" r="1.7"/>
<circle class="st1" cx="1344.5" cy="285.3" r="1.7"/>
<circle class="st1" cx="1324.5" cy="875.3" r="1.7"/>
<circle class="st1" cx="1124.5" cy="875.3" r="1.7"/>
<circle class="st1" cx="384.5" cy="875.3" r="1.7"/>
<circle class="st2" cx="1294.5" cy="265.3" r="1.7"/>
<circle class="st2" cx="894.5" cy="205.3" r="1.7"/>
<circle class="st2" cx="1014.5" cy="255.3" r="1.7"/>
<circle class="st2" cx="1014.5" cy="185.3" r="1.7"/>
<circle class="st2" cx="1064.5" cy="335.3" r="1.7"/>
<circle class="st2" cx="1304.5" cy="405.3" r="1.7"/>
<circle class="st2" cx="1174.5" cy="475.3" r="1.7"/>
<circle class="st2" cx="1024.5" cy="385.3" r="1.7"/>
<circle class="st2" cx="1124.5" cy="405.3" r="1.7"/>
<circle class="st2" cx="1214.5" cy="445.3" r="1.7"/>
<circle class="st2" cx="1344.5" cy="225.3" r="1.7"/>
<circle class="st2" cx="1264.5" cy="185.3" r="1.7"/>
<circle class="st2" cx="1214.5" cy="205.3" r="1.7"/>
<circle class="st2" cx="824.5" cy="95.3" r="1.7"/>
<circle class="st2" cx="644.5" cy="45.3" r="1.7"/>
<circle class="st2" cx="964.5" cy="35.3" r="1.7"/>
<circle class="st1" cx="1014.5" cy="45.3" r="1.7"/>
<circle class="st1" cx="504.5" cy="55.3" r="1.7"/>
<circle class="st1" cx="14.5" cy="185.3" r="1.7"/>
<circle class="st1" cx="334.5" cy="605.3" r="1.7"/>
<circle class="st1" cx="64.5" cy="665.3" r="1.7"/>
<circle class="st1" cx="184.5" cy="865.3" r="1.7"/>
<circle class="st1" cx="1384.5" cy="805.3" r="1.7"/>
<circle class="st2" cx="645.5" cy="333.3" r="2.1"/>
<circle class="st2" cx="895.5" cy="493.3" r="2.1"/>
<circle class="st2" cx="1045.5" cy="583.3" r="2.1"/>
<circle class="st2" cx="1025.5" cy="763.3" r="2.1"/>
<circle class="st2" cx="1375.5" cy="673.3" r="2.1"/>
<circle class="st2" cx="1175.5" cy="833.3" r="2.1"/>
<circle class="st2" cx="935.5" cy="843.3" r="2.1"/>
<circle class="st2" cx="345.5" cy="843.3" r="2.1"/>
<circle class="st2" cx="25.5" cy="293.3" r="2.1"/>
<circle class="st2" cx="25.5" cy="53.3" r="2.1"/>
<circle class="st2" cx="1165.5" cy="63.3" r="2.1"/>
<circle class="st2" cx="925.5" cy="93.3" r="2.1"/>
<circle class="st2" cx="1375.5" cy="33.3" r="2.1"/>
<circle class="st0" cx="405.5" cy="253.3" r="1.7"/>
<circle class="st0" cx="278.5" cy="49.3" r="1.7"/>
<circle class="st0" cx="1048.5" cy="209.3" r="1.7"/>
<circle class="st0" cx="1388.5" cy="439.3" r="1.7"/>
<circle class="st0" cx="1348.5" cy="789.3" r="1.7"/>
<circle class="st0" cx="978.5" cy="879.3" r="1.7"/>
<circle class="st0" cx="8.5" cy="749.3" r="1.7"/>
<circle class="st0" cx="388.5" cy="319.3" r="1.7"/>
<circle class="st1" cx="688.5" cy="349.3" r="1.7"/>
<circle class="st1" cx="1308.5" cy="489.3" r="1.7"/>
<circle class="st1" cx="398.5" cy="419.3" r="1.7"/>
<circle class="st1" cx="268.5" cy="289.3" r="1.7"/>
<circle class="st1" cx="28.5" cy="139.3" r="1.7"/>
<circle class="st1" cx="208.5" cy="129.3" r="1.7"/>
<circle class="st1" cx="148.5" cy="739.3" r="1.7"/>
<circle class="st1" cx="1218.5" cy="769.3" r="1.7"/>
<circle class="st1" cx="1148.5" cy="609.3" r="1.7"/>
<circle class="st1" cx="1238.5" cy="39.3" r="1.7"/>
<circle class="st2" cx="812.5" cy="389.3" r="1.3"/>
<circle class="st2" cx="442.5" cy="349.3" r="1.3"/>
<circle class="st2" cx="72.5" cy="419.3" r="1.3"/>
<circle class="st2" cx="1342.5" cy="29.3" r="1.3"/>
<circle class="st2" cx="1252.5" cy="279.3" r="1.3"/>
<circle class="st2" cx="1182.5" cy="239.3" r="1.3"/>
<circle class="st2" cx="952.5" cy="539.3" r="1.3"/>
<circle class="st2" cx="1172.5" cy="789.3" r="1.3"/>
<circle class="st2" cx="1352.5" cy="869.3" r="1.3"/>
<circle class="st2" cx="692.5" cy="849.3" r="1.3"/>
<circle class="st2" cx="572.5" cy="659.3" r="1.3"/>
<circle class="st2" cx="282.5" cy="859.3" r="1.3"/>
<circle class="st2" cx="292.5" cy="179.3" r="1.3"/>
<circle class="st2" cx="122.5" cy="39.3" r="1.3"/>
<circle class="st2" cx="232.5" cy="159.3" r="1.3"/>
<circle class="st2" cx="402.5" cy="349.3" r="1.3"/>
<circle class="st2" cx="1282.5" cy="129.3" r="1.3"/>
<circle class="st1" cx="722.5" cy="379.3" r="1.3"/>
<circle class="st1" cx="302.5" cy="319.3" r="1.3"/>
<circle class="st1" cx="592.5" cy="49.3" r="1.3"/>
<circle class="st1" cx="322.5" cy="39.3" r="1.3"/>
<circle class="st1" cx="1282.5" cy="749.3" r="1.3"/>
<circle class="st1" cx="1072.5" cy="669.3" r="1.3"/>
<circle class="st1" cx="732.5" cy="639.3" r="1.3"/>
<circle class="st1" cx="532.5" cy="579.3" r="1.3"/>
<circle class="st1" cx="162.5" cy="639.3" r="1.3"/>
<circle class="st1" cx="492.5" cy="759.3" r="1.3"/>
<circle class="st1" cx="162.5" cy="169.3" r="1.3"/>
<circle class="st1" cx="32.5" cy="419.3" r="1.3"/>
<circle class="st1" cx="852.5" cy="219.3" r="1.3"/>
<circle class="st1" cx="572.5" cy="249.3" r="1.3"/>
<circle class="st3" cx="672.5" cy="389.3" r="1.3"/>
<circle class="st3" cx="362.5" cy="369.3" r="1.3"/>
<circle class="st3" cx="812.5" cy="639.3" r="1.3"/>
<circle class="st3" cx="1232.5" cy="749.3" r="1.3"/>
<circle class="st3" cx="1272.5" cy="849.3" r="1.3"/>
<circle class="st3" cx="642.5" cy="849.3" r="1.3"/>
<circle class="st3" cx="872.5" cy="869.3" r="1.3"/>
<circle class="st3" cx="232.5" cy="869.3" r="1.3"/>
<circle class="st3" cx="192.5" cy="709.3" r="1.3"/>
<circle class="st3" cx="102.5" cy="439.3" r="1.3"/>
<circle class="st3" cx="512.5" cy="619.3" r="1.3"/>
<circle class="st3" cx="182.5" cy="399.3" r="1.3"/>
<circle class="st3" cx="202.5" cy="189.3" r="1.3"/>
<circle class="st3" cx="382.5" cy="29.3" r="1.3"/>
<circle class="st3" cx="30.5" cy="28.3" r="1.3"/>
<circle class="st3" cx="70.5" cy="118.3" r="1.3"/>
<circle class="st3" cx="370.5" cy="178.3" r="1.3"/>
<circle class="st3" cx="550.5" cy="318.3" r="1.3"/>
<circle class="st3" cx="840.5" cy="378.3" r="1.3"/>
<circle class="st3" cx="600.5" cy="378.3" r="1.3"/>
<circle class="st3" cx="1160.5" cy="408.3" r="1.3"/>
<circle class="st3" cx="970.5" cy="198.3" r="1.3"/>
<circle class="st3" cx="1200.5" cy="28.3" r="1.3"/>
<circle class="st3" cx="1190.5" cy="268.3" r="1.3"/>
<circle class="st3" cx="1260.5" cy="618.3" r="1.3"/>
<circle class="st3" cx="1120.5" cy="658.3" r="1.3"/>
<circle class="st3" cx="1130.5" cy="798.3" r="1.3"/>
<circle class="st3" cx="760.5" cy="758.3" r="1.3"/>
<circle class="st3" cx="900.5" cy="538.3" r="1.3"/>
<circle class="st3" cx="690.5" cy="398.3" r="1.3"/>
<circle class="st3" cx="570.5" cy="428.3" r="1.3"/>
<circle class="st0" cx="790.5" cy="398.3" r="1.3"/>
<circle class="st0" cx="974.5" cy="531.3" r="1.3"/>
<circle class="st0" cx="1304.5" cy="741.3" r="1.3"/>
<circle class="st0" cx="1204.5" cy="631.3" r="1.3"/>
<circle class="st0" cx="1394.5" cy="681.3" r="1.3"/>
<circle class="st0" cx="924.5" cy="841.3" r="1.3"/>
<circle class="st0" cx="974.5" cy="661.3" r="1.3"/>
<circle class="st0" cx="664.5" cy="491.3" r="1.3"/>
<circle class="st0" cx="554.5" cy="581.3" r="1.3"/>
<circle class="st0" cx="624.5" cy="731.3" r="1.3"/>
<circle class="st0" cx="514.5" cy="851.3" r="1.3"/>
<circle class="st0" cx="179.5" cy="791.3" r="1.3"/>
<circle class="st0" cx="29.5" cy="631.3" r="1.3"/>
<circle class="st0" cx="49.5" cy="291.3" r="1.3"/>
<circle class="st0" cx="279.5" cy="131.3" r="1.3"/>
<circle class="st0" cx="109.5" cy="41.3" r="1.3"/>
<circle class="st0" cx="679.5" cy="171.3" r="1.3"/>
<circle class="st0" cx="899.5" cy="101.3" r="1.3"/>
<circle class="st0" cx="1119.5" cy="41.3" r="1.3"/>
<circle class="st0" cx="429.5" cy="61.3" r="1.3"/>
<circle class="st0" cx="1289.5" cy="191.3" r="1.3"/>
<circle class="st0" cx="819.5" cy="211.3" r="1.3"/>
<circle class="st0" cx="1049.5" cy="391.3" r="1.3"/>
<circle class="st0" cx="1319.5" cy="411.3" r="1.3"/>
<circle class="st0" cx="1039.5" cy="561.3" r="1.3"/>
<circle class="st0" cx="949.5" cy="591.3" r="1.3"/>
<circle class="st0" cx="759.5" cy="621.3" r="1.3"/>
<circle class="st0" cx="1199.5" cy="831.3" r="1.3"/>
<circle class="st2" cx="1139.5" cy="411.3" r="1.3"/>
<circle class="st0" cx="1339.5" cy="481.3" r="1.3"/>
<circle class="st0" cx="1059.5" cy="491.3" r="1.3"/>
<circle class="st0" cx="859.5" cy="391.3" r="1.3"/>
<circle class="st2" cx="979.5" cy="431.3" r="1.3"/>
<circle class="st0" cx="839.5" cy="451.3" r="1.3"/>
<circle class="st0" cx="509.5" cy="481.3" r="1.3"/>
<circle class="st2" cx="619.5" cy="431.3" r="1.3"/>
<circle class="st2" cx="589.5" cy="501.3" r="1.3"/>
<circle class="st2" cx="999.5" cy="261.3" r="1.3"/>
<circle class="st2" cx="1209.5" cy="261.3" r="1.3"/>
<circle class="st2" cx="1249.5" cy="81.3" r="1.3"/>
<circle class="st2" cx="1179.5" cy="61.3" r="1.3"/>
<circle class="st2" cx="999.5" cy="121.3" r="1.3"/>
<circle class="st2" cx="1389.5" cy="131.3" r="1.3"/>
<circle class="st2" cx="1369.5" cy="441.3" r="1.3"/>
<circle class="st2" cx="719.5" cy="401.3" r="1.3"/>
<circle class="st2" cx="639.5" cy="501.3" r="1.3"/>
<circle class="st2" cx="769.5" cy="561.3" r="1.3"/>
<circle class="st2" cx="899.5" cy="581.3" r="1.3"/>
<circle class="st2" cx="999.5" cy="671.3" r="1.3"/>
<circle class="st2" cx="1089.5" cy="661.3" r="1.3"/>
<circle class="st2" cx="1129.5" cy="601.3" r="1.3"/>
<circle class="st2" cx="599.5" cy="651.3" r="1.3"/>
<circle class="st2" cx="509.5" cy="521.3" r="1.3"/>
<circle class="st2" cx="389.5" cy="501.3" r="1.3"/>
<circle class="st2" cx="289.5" cy="511.3" r="1.3"/>
<circle class="st2" cx="59.5" cy="431.3" r="1.3"/>
<circle class="st2" cx="89.5" cy="511.3" r="1.3"/>
<circle class="st2" cx="169.5" cy="551.3" r="1.3"/>
<circle class="st2" cx="239.5" cy="501.3" r="1.3"/>
<circle class="st2" cx="419.5" cy="421.3" r="1.3"/>
<circle class="st2" cx="119.5" cy="521.3" r="1.3"/>
<circle class="st2" cx="219.5" cy="591.3" r="1.3"/>
<circle class="st2" cx="429.5" cy="711.3" r="1.3"/>
<circle class="st2" cx="479.5" cy="761.3" r="1.3"/>
<circle class="st2" cx="489.5" cy="691.3" r="1.3"/>
<circle class="st2" cx="449.5" cy="641.3" r="1.3"/>
<circle class="st2" cx="559.5" cy="591.3" r="1.3"/>
<circle class="st2" cx="269.5" cy="851.3" r="1.3"/>
<circle class="st2" cx="269.5" cy="711.3" r="1.3"/>
<circle class="st2" cx="219.5" cy="791.3" r="1.3"/>
<circle class="st2" cx="129.5" cy="821.3" r="1.3"/>
<circle class="st2" cx="29.5" cy="861.3" r="1.3"/>
<circle class="st2" cx="989.5" cy="881.3" r="1.3"/>
<circle class="st2" cx="1139.5" cy="881.3" r="1.3"/>
<circle class="st2" cx="1369.5" cy="871.3" r="1.3"/>
<circle class="st2" cx="1379.5" cy="301.3" r="1.3"/>
<circle class="st2" cx="1339.5" cy="151.3" r="1.3"/>
<circle class="st2" cx="1219.5" cy="21.3" r="1.3"/>
<circle class="st2" cx="1389.5" cy="31.3" r="1.3"/>
<circle class="st2" cx="1089.5" cy="41.3" r="1.3"/>
<circle class="st2" cx="889.5" cy="21.3" r="1.3"/>
<circle class="st2" cx="769.5" cy="35.3" r="1.3"/>
<circle class="st2" cx="1129.5" cy="35.3" r="1.3"/>
<circle class="st2" cx="739.5" cy="65.3" r="1.3"/>
<circle class="st2" cx="819.5" cy="155.3" r="1.3"/>
<circle class="st2" cx="669.5" cy="55.3" r="1.3"/>
<circle class="st2" cx="889.5" cy="95.3" r="1.3"/>
<circle class="st2" cx="579.5" cy="45.3" r="1.3"/>
<circle class="st2" cx="539.5" cy="165.3" r="1.3"/>
<circle class="st2" cx="489.5" cy="75.3" r="1.3"/>
<circle class="st2" cx="389.5" cy="35.3" r="1.3"/>
<circle class="st2" cx="349.5" cy="135.3" r="1.3"/>
<circle class="st2" cx="269.5" cy="45.3" r="1.3"/>
<circle class="st2" cx="149.5" cy="5.3" r="1.3"/>
<circle class="st2" cx="18.7" cy="55.3" r="1.3"/>
<circle class="st2" cx="119.5" cy="85.3" r="1.3"/>
<circle class="st2" cx="189.5" cy="15.3" r="1.3"/>
<circle class="st2" cx="259.5" cy="385.3" r="1.3"/>
<circle class="st2" cx="169.5" cy="285.3" r="1.3"/>
<circle class="st2" cx="829.5" cy="445.3" r="1.3"/>
<circle class="st2" cx="679.5" cy="405.3" r="1.3"/>
<circle class="st2" cx="779.5" cy="405.3" r="1.3"/>
<circle class="st2" cx="799.5" cy="505.3" r="1.3"/>
<circle class="st2" cx="709.5" cy="505.3" r="1.3"/>
<circle class="st2" cx="229.5" cy="395.3" r="1.3"/>
<circle class="st2" cx="249.5" cy="285.3" r="1.3"/>
<circle class="st2" cx="79.5" cy="305.3" r="1.3"/>
<circle class="st2" cx="129.5" cy="215.3" r="1.3"/>
<circle class="st2" cx="59.5" cy="285.3" r="1.3"/>
<circle class="st2" cx="289.5" cy="325.3" r="1.3"/>
<circle class="st2" cx="19.5" cy="525.3" r="1.3"/>
<circle class="st2" cx="89.5" cy="765.3" r="1.3"/>
<circle class="st2" cx="19.5" cy="755.3" r="1.3"/>
<circle class="st2" cx="29.5" cy="845.3" r="1.3"/>
<circle class="st2" cx="99.5" cy="755.3" r="1.3"/>
<circle class="st2" cx="1359.5" cy="305.3" r="1.3"/>
<circle class="st2" cx="1379.5" cy="685.3" r="1.3"/>
<circle class="st2" cx="1309.5" cy="885.3" r="1.3"/>
<circle class="st2" cx="409.5" cy="25.3" r="1.3"/>
<circle class="st2" cx="749.5" cy="25.3" r="1.3"/>
<circle class="st2" cx="589.5" cy="85.3" r="1.3"/>
<circle class="st2" cx="789.5" cy="165.3" r="1.3"/>
<circle class="st2" cx="1059.5" cy="95.3" r="1.3"/>
<circle class="st2" cx="939.5" cy="85.3" r="1.3"/>
<circle class="st2" cx="869.5" cy="35.3" r="1.3"/>
<circle class="st2" cx="1329.5" cy="55.3" r="1.3"/>
<circle class="st2" cx="709.5" cy="85.3" r="1.3"/>
<circle class="st2" cx="699.5" cy="165.3" r="1.3"/>
<circle class="st2" cx="629.5" cy="35.3" r="1.3"/>
<circle class="st2" cx="669.5" cy="295.3" r="1.3"/>
<circle class="st2" cx="569.5" cy="315.3" r="1.3"/>
<circle class="st2" cx="519.5" cy="215.3" r="1.3"/>
<circle class="st2" cx="459.5" cy="235.3" r="1.3"/>
<circle class="st2" cx="349.5" cy="235.3" r="1.3"/>
<circle class="st2" cx="469.5" cy="335.3" r="1.3"/>
<circle class="st2" cx="659.5" cy="325.3" r="1.3"/>
<circle class="st2" cx="599.5" cy="235.3" r="1.3"/>
<circle class="st2" cx="169.5" cy="315.3" r="1.3"/>
<circle class="st2" cx="179.5" cy="325.3" r="1.3"/>
<circle class="st2" cx="169.5" cy="105.3" r="1.3"/>
<circle class="st2" cx="209.5" cy="95.3" r="1.3"/>
<circle class="st2" cx="79.5" cy="115.3" r="1.3"/>
<circle class="st2" cx="9.5" cy="135.3" r="1.3"/>
<circle class="st2" cx="629.5" cy="855.3" r="1.3"/>
<circle class="st2" cx="849.5" cy="875.3" r="1.3"/>
<circle class="st2" cx="739.5" cy="835.3" r="1.3"/>
<circle class="st2" cx="399.5" cy="875.3" r="1.3"/>
<circle class="st2" cx="469.5" cy="875.3" r="1.3"/>
<circle class="st2" cx="369.5" cy="885.3" r="1.3"/>
<circle class="st2" cx="249.5" cy="875.3" r="1.3"/>
<circle class="st2" cx="379.5" cy="715.3" r="1.3"/>
</svg>
