<?xml version="1.0" encoding="utf-8"?>
<!DOCTYPE svg PUBLIC "-//W3C//DTD SVG 1.1//EN" "http://www.w3.org/Graphics/SVG/1.1/DTD/svg11.dtd">
<svg xmlns="http://www.w3.org/2000/svg" width="186" height="65" viewBox="147 127.5 186 65">
    <style>
        cursor: pointer;
        :hover path.c{ stroke: #00d2dc }
        .a{fill:none;stroke-linejoin:round;stroke-width:2;stroke:#FFF;}
        .b{fill:#FFF;stroke:#FFF}
        .c{fill:none;stroke-width:2;stroke:#FFF}
    </style>
    <path d="M180.7 162.1c0 0 6 0.4 8.3-6.3 1.6-4.7-4.4-3.6-6.4-0.1 -3.3 5.8-2.1 14.1 8.7 11.5 10.8-2.6 7.3-14.6 7.3-14.6l-1.2 14.7c0 0 0.9-14.7 7.1-14.6 5.5 0.1 3.2 12.6 2.8 13.8 -0.3 1.2 2.4-16.2 8.5-13.3 4.8 2.2-1.7 11.9 2.5 13.2 4.3 1.3 10.6-9.6 10.3-12.7 -0.3-3.1-8 17.6 6.2 12.7 2.6-0.9 3.7-2 4.9-3.7 4.7-6.8 4.7-16.9 5-17.9 0.3-1.2-2.7-3.6-4.7 4.2 -1.3 5.1-1.8 13.4 2.2 16.9 5.4 4.7 14-10.2 14-12.5 0-2.3-4.8 13.3 1.6 14 9.2 1 11.3-12.7 11.3-13.9 0-1.2-2.1 32.8-4.9 35.8 -2.8 3-6.8 2.6-5.8-3.5 1-6.1 9.5-16.9 11.7-18" class="a"/>
    <path d="M282.6 166.1c0 0 9.2-11.1 10.1-17.2 1.3-8.3-0.5-8-3.4-4.1 -2.9 3.8-5.2 19.5 0.4 21.5 5.7 1.9 12.3-0.4 15.4-6.5 2.7-5.3 2.8-9.1-1.1-7.8 -3.9 1.4-6.3 12.1-0.5 15.1 5.9 3 12.3-0.6 16.2-5.8 4-5.2 1.2-11.5-2.8-5.8 -4 5.8-0.8 12.8 5 12.8 4.9-0.1 9.6-4.7 9.6-4.7" class="a"/>
    <path d="M230.2 144.4c0.8 0.2 1.2 1.2 0.9 2.3 -0.3 1.1-1.2 1.8-2 1.6 -0.8-0.2-1.2-1.2-0.9-2.3C228.5 144.9 229.4 144.2 230.2 144.4z" class="b"/>
    <path d="M149.2 146.1c0 0 14.1-9.2 9-16.2 -3.4-4.7-12.4 6.6-9.1 16.4 3.5 10.2 20 3 21.8-4.2 1.8-7.2-12.7-4.8-10.7 33.2" class="c"/>
</svg>