<?xml version="1.0" encoding="utf-8"?>
<!-- Generator: Adobe Illustrator 16.0.0, SVG Export Plug-In . SVG Version: 6.00 Build 0)  -->
<!DOCTYPE svg PUBLIC "-//W3C//DTD SVG 1.1//EN" "http://www.w3.org/Graphics/SVG/1.1/DTD/svg11.dtd">
<svg fill="#011B28" version="1.1" id="Layer_1" xmlns="http://www.w3.org/2000/svg" xmlns:xlink="http://www.w3.org/1999/xlink" x="0px" y="0px"
	 width="1210px" height="398px" viewBox="0 0 1210 398" enable-background="new 0 0 1210 398" xml:space="preserve">
<path d="M1204.743,398c-2.067-17.209-17.91-141.336-46.851-159.178c-10.876-6.705-44.77-46.313-44.77-46.313
	s-18.012,0.515-24.701-1.543s-17.496-8.234-26.244-13.379c-8.748-5.146-27.789-15.438-29.848-22.128
	c-2.058-6.69-18.011-12.35-24.701-10.292c-6.689,2.058-10.807,3.602-15.438,3.602s-14.408-7.204-30.361-11.835
	s-9.263-8.748-8.748-11.835c0.514-3.088-7.205-6.175-12.865-14.924c-5.66-8.748-15.953-1.029-22.128,1.543
	c-6.175,2.574-12.351-2.573-21.613-6.689c-9.263-4.118-13.894-2.574-20.583-0.515c-6.69,2.059-20.584-4.116-33.449-7.719
	s-11.836-7.719-14.924-4.631c-3.088,3.087-11.321-2.573-16.467-2.573c-5.146,0-9.777-1.544-13.895-4.118
	c-4.117-2.573-13.38-8.233-15.438-7.719c-2.059,0.515-13.381-0.514-16.982,2.059s-2.573,10.292-5.146,7.719
	c-2.572-2.573-5.146,0-5.146-2.059v9.778c0,3.603-4.632,1.029-11.321-5.66c-6.689-6.69-9.262-5.661-9.777-2.574
	c-0.515,3.088,2.059,7.719-6.176,5.146c-8.232-2.573-40.652-26.76-43.226-28.817c-2.573-2.059-9.778,0.514-9.778,3.087
	c0,2.573-4.631,3.602-9.262,4.631c-4.632,1.029-3.088,8.233-4.632,15.438c-1.544,7.204-6.175,0-10.807,3.602
	c-4.631,3.602-9.263-4.632-11.835-4.632c-2.573,0-5.661-3.087-5.661-6.175c0-3.088-1.543-5.661-9.263-6.689
	c-7.719-1.03-9.263-5.146-10.807-8.749s-6.175-2.058-14.409-5.661c-8.233-3.603-7.719,0.515-9.777-2.059
	c-2.058-2.573-5.66-7.719-9.263-11.835c-3.602-4.117-38.595-20.584-49.401-22.128c-10.807-1.544-12.351-10.292-12.351-10.292
	s-7.719-2.059-11.836-0.515c-4.116,1.543-13.379-5.661-13.379-5.661s-9.777,1.544-11.321,5.146
	c-1.544,3.602-4.632,21.098-4.632,21.098l-30.361-18.011c0,0-20.584-2.059-21.099,0c-0.514,2.058-6.689,10.807-6.689,10.807
	l-7.205-2.573c0,0-5.146-2.573-5.66,4.631c-0.515,7.205-3.088,9.777-7.719,14.924c-4.632,5.146-4.632,28.817-5.66,33.449
	c-1.03,4.631-22.128,19.041-24.188,20.069c-2.058,1.029-2.572,2.059-3.602,5.146c-1.029,3.087-19.04,16.981-21.099,18.525
	c-2.058,1.544-4.632,2.058-7.719,2.573c-3.088,0.515,0,8.234-3.603,8.234c-3.602,0-24.7,12.864-25.215,11.321
	c-0.516-1.544-12.865-2.058-13.38,3.087c-0.515,5.146-5.661,7.719-17.496,16.181c-11.836,8.462-7.204-0.743-8.234,0
	c-1.029,0.744-9.776,7.491-9.776,7.491s-9.006-15.438-7.205,10.807c2.292,33.407-19.555,56.092-21.613,56.606
	c-2.058,0.515-4.117,2.059-5.146,7.49c-1.03,5.432-5.661,8.977-13.895,7.131s-5.661,3.391-7.205,2.875
	c-1.543-0.515-4.116,3.088-6.688,4.057c-2.574,0.969-4.632-1.998-6.69-0.453c-2.059,1.543-4.632-1.03-15.438-4.939
	c-10.807-3.908-3.087-1.752-7.719-0.172c-4.631,1.58-15.438-8.27-15.438-8.27s-3.088-0.514-4.632,0
	c-1.544,0.516-4.116,3.603-6.175,3.603h-4.632c0,0-5.654,4.16-9.263,4.632C44.637,261.697,10.041,381.121,5.54,398H1204.743z"/>
</svg>
